<?xml version="1.0" standalone="no"?>
<!DOCTYPE svg PUBLIC "-//W3C//DTD SVG 1.1//EN" "http://www.w3.org/Graphics/SVG/1.1/DTD/svg11.dtd" >
<svg>
<metadata>
Created by FontForge 20120731 at Mon Apr 18 19:38:55 2016
 By www-data
Copyright 2014 Dalton Maag Ltd. Modification of this file requires prior written permission from Dalton Maag Ltd.
</metadata>
<defs>
<font id="Soleto-Thin" horiz-adv-x="441" >
  <font-face 
    font-family="Soleto Thin"
    font-weight="250"
    font-stretch="normal"
    units-per-em="1000"
    panose-1="2 11 3 6 2 2 3 3 2 4"
    ascent="766"
    descent="-234"
    x-height="511"
    cap-height="712"
    bbox="-200 -241 1190 924"
    underline-thickness="82"
    underline-position="-81"
    unicode-range="U+0008-FB04"
  />
<missing-glyph horiz-adv-x="500" 
d="M50 0v750h400v-750h-400zM400 50v650h-300v-650h300z" />
    <glyph glyph-name="f_f" unicode="ff" horiz-adv-x="657" 
d="M31 511h97q0 126 44.5 182.5t126.5 56.5q13 0 31.5 -3t32.5 -8l-9 -32q-14 4 -28 5.5t-28 1.5q-72 0 -102.5 -47t-30.5 -156h270q0 126 44 182.5t139 56.5q13 0 32 -3t33 -8l-9 -32q-25 7 -57 7q-42 0 -70 -11.5t-44.5 -36t-23.5 -63t-7 -92.5h163l-7 -34h-156v-477h-37
v477h-270v-477h-37v477h-104z" />
    <glyph glyph-name="f_i" unicode="fi" horiz-adv-x="557" 
d="M31 511h97q0 126 44.5 182.5t126.5 56.5q13 0 31.5 -3t32.5 -8l-9 -32q-14 4 -28 5.5t-28 1.5q-72 0 -102.5 -47t-30.5 -156h307v-511h-37v477h-270v-477h-37v477h-104zM453 697q15 0 24.5 -8t9.5 -28t-9.5 -28t-24.5 -8t-24.5 8t-9.5 28t9.5 28t24.5 8z" />
    <glyph glyph-name="f_l" unicode="fl" horiz-adv-x="553" 
d="M432 743h37v-743h-37v743zM31 511h97q0 126 44.5 182.5t126.5 56.5q13 0 31.5 -3t32.5 -8l-9 -32q-14 4 -28 5.5t-28 1.5q-72 0 -102.5 -47t-30.5 -156h163l-7 -34h-156v-477h-37v477h-104z" />
    <glyph glyph-name="f_f_i" unicode="ffi" horiz-adv-x="864" 
d="M165 477v-477h-37v477h-104l7 34h97q0 126 44.5 182.5t126.5 56.5q13 0 31.5 -3t32.5 -8l-9 -32q-14 4 -28 5.5t-28 1.5q-72 0 -102.5 -47t-30.5 -156h270q0 126 44.5 182.5t126.5 56.5q13 0 31.5 -3t32.5 -8l-9 -32q-14 4 -28 5.5t-28 1.5q-72 0 -102.5 -47t-30.5 -156
h307v-511h-37v477h-270v-477h-37v477h-270zM760 697q15 0 24.5 -8t9.5 -28t-9.5 -28t-24.5 -8t-24.5 8t-9.5 28t9.5 28t24.5 8z" />
    <glyph glyph-name="f_f_l" unicode="ffl" horiz-adv-x="860" 
d="M739 743h37v-743h-37v743zM31 511h97q0 126 44.5 182.5t126.5 56.5q13 0 31.5 -3t32.5 -8l-9 -32q-14 4 -28 5.5t-28 1.5q-72 0 -102.5 -47t-30.5 -156h270q0 126 44.5 182.5t126.5 56.5q13 0 31.5 -3t32.5 -8l-9 -32q-14 4 -28 5.5t-28 1.5q-72 0 -102.5 -47t-30.5 -156
h163l-7 -34h-156v-477h-37v477h-270v-477h-37v477h-104z" />
    <glyph glyph-name="f_t" unicode="ft" horiz-adv-x="677" 
d="M31 511h97q0 126 44.5 182.5t126.5 56.5q13 0 31.5 -3t32.5 -8l-9 -32q-14 4 -28 5.5t-28 1.5q-72 0 -102.5 -47t-30.5 -156h269v136l37 7v-143h173l-7 -34h-166v-327q0 -36 6.5 -60.5t20 -39t35 -20.5t52.5 -6q19 0 34.5 3t26.5 5l-7 -31q-28 -11 -63 -11q-31 0 -57 6.5
t-45 25.5t-29.5 51.5t-10.5 85.5v318h-269v-477h-37v477h-104z" />
    <glyph glyph-name="f_f_t" unicode="fft" horiz-adv-x="984" 
d="M31 511h97q0 126 44.5 182.5t126.5 56.5q13 0 31.5 -3t32.5 -8l-9 -32q-14 4 -28 5.5t-28 1.5q-72 0 -102.5 -47t-30.5 -156h270q0 126 44.5 182.5t126.5 56.5q13 0 31.5 -3t32.5 -8l-9 -32q-14 4 -28 5.5t-28 1.5q-72 0 -102.5 -47t-30.5 -156h269v136l37 7v-143h173
l-7 -34h-166v-327q0 -36 6.5 -60.5t20 -39t35 -20.5t52.5 -6q19 0 34.5 3t26.5 5l-7 -31q-28 -11 -63 -11q-31 0 -57 6.5t-45 25.5t-29.5 51.5t-10.5 85.5v318h-269v-477h-37v477h-270v-477h-37v477h-104z" />
    <glyph glyph-name=".notdef" horiz-adv-x="500" 
d="M50 0v750h400v-750h-400zM400 50v650h-300v-650h300z" />
    <glyph glyph-name=".null" horiz-adv-x="0" 
 />
    <glyph glyph-name=".null" horiz-adv-x="0" 
 />
    <glyph glyph-name=".null" horiz-adv-x="0" 
 />
    <glyph glyph-name="nonmarkingreturn" unicode="&#x9;" horiz-adv-x="250" 
 />
    <glyph glyph-name="nonmarkingreturn" unicode="&#xd;" horiz-adv-x="250" 
 />
    <glyph glyph-name="space" unicode=" " horiz-adv-x="250" 
 />
    <glyph glyph-name="exclam" unicode="!" horiz-adv-x="266" 
d="M118 165l-4 192v355h39v-255q0 -31 -0.5 -59.5t-0.5 -40.5l-4 -192h-30zM133 72q16 0 25.5 -9t9.5 -29t-9.5 -29t-25.5 -9t-25.5 9t-9.5 29t9.5 29t25.5 9z" />
    <glyph glyph-name="quotedbl" unicode="&#x22;" horiz-adv-x="356" 
d="M96 488l-5 116q-1 20 -1 39v90h40v-90q0 -19 -1 -39l-5 -116h-28zM232 488l-5 116q-1 20 -1 39v90h40v-90q0 -19 -1 -39l-5 -116h-28z" />
    <glyph glyph-name="numbersign" unicode="#" horiz-adv-x="670" 
d="M411 186h-221l-27 -186h-35l27 186h-103l6 33h102l36 245h-103l6 34h102l28 185h35l-28 -185h221l28 185h35l-28 -185h108l-7 -34h-106l-36 -245h108l-7 -33h-106l-27 -186h-35zM195 219h221l36 245h-221z" />
    <glyph glyph-name="dollar" unicode="$" horiz-adv-x="586" 
d="M272 -88v79q-54 1 -101.5 8t-80.5 19l9 33q40 -12 79.5 -17.5t93.5 -6.5v306l-23 3q-80 10 -123 48.5t-43 121.5v10q0 73 49 119t140 54v69h34v-67q45 0 89 -7.5t82 -22.5l-10 -32q-32 11 -71 18t-90 8v-289l38 -5q46 -7 76 -22.5t48 -38t25 -51.5t7 -62v-13
q0 -38 -10.5 -70t-33.5 -56t-60 -38.5t-90 -17.5v-80h-34zM306 328v-301q82 5 118.5 41t36.5 110q0 29 -4.5 53.5t-18.5 43.5t-40 32t-68 18zM272 371v283q-75 -5 -113 -39.5t-38 -102.5q0 -36 8 -60.5t25 -40.5t44 -25t66 -14z" />
    <glyph glyph-name="percent" unicode="%" horiz-adv-x="870" 
d="M626 683h44l-430 -683h-44zM671 28q60 0 88 33t28 117v34q0 44 -7.5 73.5t-22 47t-36 24.5t-50.5 7t-51 -7t-36.5 -24.5t-21.5 -47t-7 -73.5v-34q0 -84 28.5 -117t87.5 -33zM671 400q43 0 73 -13t48 -37t26 -58t8 -76v-41q0 -40 -8 -73.5t-26 -58t-47.5 -38t-73.5 -13.5
q-43 0 -72.5 12.5t-48 36.5t-26.5 58t-8 76v41q0 39 7.5 73t25.5 58.5t48 38.5t74 14zM200 319q60 0 88 33t28 117v34q0 44 -7.5 73.5t-22 47t-36 24.5t-50.5 7t-51 -7t-36.5 -24.5t-21.5 -47t-7 -73.5v-34q0 -84 28.5 -117t87.5 -33zM200 691q43 0 73 -13t48 -37t26 -58
t8 -76v-41q0 -40 -8 -73.5t-26 -58t-47.5 -38t-73.5 -13.5q-43 0 -72.5 12.5t-48 36.5t-26.5 58t-8 76v41q0 39 7.5 73t25.5 58.5t48 38.5t74 14z" />
    <glyph glyph-name="ampersand" unicode="&#x26;" horiz-adv-x="605" 
d="M40 190q0 48 15 82.5t39 59.5t54.5 43t62.5 34q-13 16 -26.5 35.5t-24.5 40.5t-18 42.5t-7 43.5v17q0 29 10.5 54.5t30 44t46.5 29.5t60 11q72 0 106.5 -36t34.5 -97v-13q0 -38 -13.5 -65t-36 -48t-51 -37t-57.5 -31l218 -273q31 58 31 144q0 6 -0.5 16t-1 20.5t-1.5 20
t-1 15.5h35q2 -13 3.5 -36.5t1.5 -36.5q0 -45 -11 -89t-34 -82l80 -99h-46l-56 69q-32 -38 -83 -61t-123 -23q-108 0 -172.5 46t-64.5 141v18zM285 21q60 0 104 19.5t73 54.5l-230 288q-33 -16 -61 -31.5t-48.5 -37t-32 -52t-11.5 -75.5v-15q0 -76 52 -113.5t154 -37.5z
M172 574q0 -21 6.5 -41t17 -39t23.5 -36t25 -32q27 12 52.5 25.5t45.5 31t32 41.5t12 59v10q0 51 -27.5 75t-75.5 24q-49 0 -80 -25t-31 -79v-14z" />
    <glyph glyph-name="quotesingle" unicode="'" horiz-adv-x="220" 
d="M96 488l-5 116q-1 20 -1 39v90h40v-90q0 -19 -1 -39l-5 -116h-28z" />
    <glyph glyph-name="parenleft" unicode="(" horiz-adv-x="334" 
d="M70 394q0 83 8.5 146.5t34 106t71 64.5t120.5 22h9l-6 -33h-9q-59 0 -96 -18.5t-57.5 -56t-28 -93t-7.5 -129.5v-221q0 -74 7 -129.5t28 -93t59 -56t101 -18.5h9l-7 -33h-8q-72 0 -116.5 22t-69 64.5t-33.5 106t-9 146.5v203z" />
    <glyph glyph-name="parenright" unicode=")" horiz-adv-x="334" 
d="M264 191q0 -83 -8.5 -146.5t-34 -106t-71 -64.5t-120.5 -22h-9l7 33h8q59 0 96 18.5t57.5 56t28 93t7.5 129.5v221q0 74 -7 129.5t-28 93t-59 56t-101 18.5h-9l7 33h8q72 0 116.5 -22t69 -64.5t33.5 -106t9 -146.5v-203z" />
    <glyph glyph-name="asterisk" unicode="*" horiz-adv-x="444" 
d="M141 402l-29 20l84 119l-136 37l11 34l135 -45l-3 140h38l-3 -140l135 45l11 -34l-136 -37l84 -119l-29 -20l-81 123z" />
    <glyph glyph-name="plus" unicode="+" horiz-adv-x="586" 
d="M313 362h188v-37h-188v-192h-39v192h-188v37h188v191h39v-191z" />
    <glyph glyph-name="comma" unicode="," horiz-adv-x="266" 
d="M73 -120l49 121q-24 7 -24 36q0 17 10 26t24 9q34 0 34 -34q0 -12 -3.5 -23.5t-11.5 -26.5l-51 -108h-27z" />
    <glyph glyph-name="hyphen" unicode="-" horiz-adv-x="404" 
d="M57 269v36h289v-36h-289z" />
    <glyph glyph-name="period" unicode="." horiz-adv-x="266" 
d="M133 72q16 0 25.5 -9t9.5 -29t-9.5 -29t-25.5 -9t-25.5 9t-9.5 29t9.5 29t25.5 9z" />
    <glyph glyph-name="slash" unicode="/" horiz-adv-x="355" 
d="M335 712l-275 -712h-40l275 712h40z" />
    <glyph glyph-name="zero" unicode="0" horiz-adv-x="586" 
d="M291 23q51 0 86.5 13t57.5 44.5t32 84t10 132.5v88q0 82 -10 135.5t-32.5 84.5t-57.5 43t-86 12q-50 0 -85 -12t-57 -43t-31.5 -84.5t-9.5 -135.5v-88q0 -80 9.5 -132.5t31.5 -84t57 -44.5t85 -13zM291 698q69 0 113 -20t69.5 -59.5t35.5 -97t10 -132.5v-95
q0 -72 -10 -129t-36 -97t-70 -61.5t-112 -21.5q-69 0 -112.5 19.5t-68.5 58.5t-34 97t-9 134v95q0 70 9 127t34 97.5t68.5 62.5t112.5 22z" />
    <glyph glyph-name="one" unicode="1" horiz-adv-x="586" 
d="M123 0l8 37h165v609l-188 -64l7 36l182 65h38v-646h164l-8 -37h-368z" />
    <glyph glyph-name="two" unicode="2" horiz-adv-x="586" 
d="M266 660q-42 0 -88.5 -9.5t-88.5 -26.5l8 40q17 7 39 13.5t44.5 11t44.5 7t40 2.5q100 0 160.5 -40t60.5 -123v-10q0 -35 -6.5 -61.5t-21.5 -47.5t-40 -37.5t-63 -32.5l-96 -40q-33 -13 -56.5 -29.5t-38.5 -40t-21.5 -57t-6.5 -81.5v-61h354l-8 -37h-384v104
q0 100 36 154.5t110 83.5l92 38q37 15 59 30.5t33 33t14 38.5t3 47q0 39 -14 64.5t-38 40t-56.5 20.5t-70.5 6z" />
    <glyph glyph-name="three" unicode="3" horiz-adv-x="586" 
d="M175 376h123q33 0 57 6.5t40.5 22t24.5 42t8 66.5q0 38 -12.5 65t-35.5 44t-54.5 25t-69.5 8q-42 0 -87 -8.5t-86 -24.5l8 39q38 16 81 24t83 8q100 0 157.5 -46t57.5 -128v-10q0 -58 -22 -95.5t-73 -55.5q29 -10 48.5 -27.5t31.5 -40t17 -49t5 -54.5v-10
q0 -90 -60 -138.5t-174 -48.5q-56 0 -107 11t-77 23l10 34q38 -15 78.5 -22.5t96.5 -7.5q94 0 142.5 35.5t48.5 119.5q0 29 -4.5 57.5t-19 50.5t-41.5 35.5t-72 13.5h-130z" />
    <glyph glyph-name="four" unicode="4" horiz-adv-x="586" 
d="M497 157h-78v-157h-37v157h-318v33l278 493h40l-277 -490h277v233l37 10v-243h85z" />
    <glyph glyph-name="five" unicode="5" horiz-adv-x="586" 
d="M256 -10q-53 0 -101 10t-74 22l9 34q35 -12 75 -20t93 -8q97 0 139.5 39t42.5 128q0 49 -12 81t-37 51t-63 26.5t-90 7.5h-130l4 322h331l-7 -36h-287l-3 -249h104q63 0 107.5 -13t72 -38.5t40 -63t12.5 -86.5v-14q0 -90 -55.5 -141.5t-170.5 -51.5z" />
    <glyph glyph-name="six" unicode="6" horiz-adv-x="586" 
d="M126 212q0 -45 8.5 -80t28.5 -59.5t52.5 -37t80.5 -12.5q41 0 73 8t54 28t33.5 54.5t11.5 87.5v8q0 49 -7.5 84t-26.5 56.5t-51.5 31.5t-81.5 10q-40 0 -72 -8.5t-55 -27.5t-35.5 -49.5t-12.5 -74.5v-19zM335 655q-50 0 -89 -13t-65.5 -44t-40.5 -84t-14 -132v-35
q24 42 74 62t111 20q60 0 98.5 -16.5t61 -45t31 -68t8.5 -85.5v-13q0 -103 -52 -159.5t-160 -56.5q-65 0 -106 18.5t-64 51t-32 76.5t-9 95v142q0 165 59 245t194 80q40 0 76 -7t62 -17l-10 -34q-24 8 -54 14t-79 6z" />
    <glyph glyph-name="seven" unicode="7" horiz-adv-x="586" 
d="M445 647h-366l7 36h402v-32l-247 -651h-42z" />
    <glyph glyph-name="eight" unicode="8" horiz-adv-x="586" 
d="M292 -15q-70 0 -114 15.5t-69 41t-34.5 58t-9.5 65.5v29q0 26 7 52t22 48.5t38 40t54 26.5q-48 12 -78.5 50t-30.5 104v14q0 85 58.5 127t156.5 42q106 0 161 -42.5t55 -126.5v-14q0 -119 -112 -154q35 -8 59 -26t38.5 -41.5t20.5 -49.5t6 -50v-29q0 -36 -10 -68.5
t-36 -57t-70 -39.5t-112 -15zM292 342q-55 0 -91 -10.5t-57 -30.5t-29.5 -49.5t-8.5 -66.5v-8q0 -37 8.5 -65.5t29.5 -48.5t57 -30.5t91 -10.5t91 10t57 29.5t29.5 48.5t8.5 67v8q0 39 -9 68t-30 49t-57 30t-90 10zM292 661q-82 0 -129 -29.5t-47 -102.5v-12
q0 -68 40 -103.5t136 -35.5q52 0 86.5 9.5t54 27.5t27.5 43.5t8 58.5v12q0 72 -43 102t-133 30z" />
    <glyph glyph-name="nine" unicode="9" horiz-adv-x="586" 
d="M458 471q0 45 -8.5 80t-28.5 59.5t-52.5 37t-80.5 12.5q-41 0 -73 -8t-54 -28t-33.5 -54.5t-11.5 -86.5v-9q0 -47 8 -81.5t27.5 -56.5t51.5 -32.5t80 -10.5q40 0 72 8.5t55 27.5t35.5 49t12.5 74v19zM249 28q50 0 89 13t65.5 44.5t40.5 84t14 132.5v35q-24 -42 -74 -62
t-111 -20q-59 0 -97 17t-61 46.5t-32 68t-9 82.5v14q0 102 52 158.5t160 56.5q64 0 105.5 -18.5t64.5 -51t32 -76.5t9 -95v-143q0 -164 -59 -244t-194 -80q-40 0 -76 7t-62 17l9 34q24 -8 54.5 -14t79.5 -6z" />
    <glyph glyph-name="colon" unicode=":" horiz-adv-x="266" 
d="M133 72q16 0 25.5 -9t9.5 -29t-9.5 -29t-25.5 -9t-25.5 9t-9.5 29t9.5 29t25.5 9zM133 516q16 0 25.5 -9t9.5 -29t-9.5 -29t-25.5 -9t-25.5 9t-9.5 29t9.5 29t25.5 9z" />
    <glyph glyph-name="semicolon" unicode=";" horiz-adv-x="266" 
d="M73 -120l49 121q-24 7 -24 36q0 17 10 26t24 9q34 0 34 -34q0 -12 -3.5 -23.5t-11.5 -26.5l-51 -108h-27zM133 516q16 0 25.5 -9t9.5 -29t-9.5 -29t-25.5 -9t-25.5 9t-9.5 29t9.5 29t25.5 9z" />
    <glyph glyph-name="less" unicode="&#x3c;" horiz-adv-x="586" 
d="M93 360l400 175v-37l-362 -155l362 -155v-39l-400 175v36z" />
    <glyph glyph-name="equal" unicode="=" horiz-adv-x="586" 
d="M501 268v-37h-415v37h415zM501 452v-37h-415v37h415z" />
    <glyph glyph-name="greater" unicode="&#x3e;" horiz-adv-x="586" 
d="M493 324l-400 -175v39l362 155l-362 155v37l400 -175v-36z" />
    <glyph glyph-name="question" unicode="?" horiz-adv-x="486" 
d="M189 72q16 0 25.5 -9t9.5 -29t-9.5 -29t-25.5 -9t-25.5 9t-9.5 29t9.5 29t25.5 9zM206 684q-51 0 -95.5 -9.5t-77.5 -22.5l8 39q26 11 70 21t96 10q100 0 160.5 -44.5t60.5 -127.5v-9q0 -71 -26.5 -107.5t-73.5 -55.5l-31 -13q-30 -13 -48 -25.5t-27.5 -29t-12.5 -39.5
t-4 -56l-2 -49h-29q-1 11 -1.5 23.5t-0.5 28.5q0 33 3.5 59.5t14.5 47.5t31.5 38t53.5 31l35 15q25 10 40 23t23 29.5t11 37t3 46.5q0 38 -14 64.5t-38 43t-57 24t-72 7.5z" />
    <glyph glyph-name="at" unicode="@" horiz-adv-x="899" 
d="M491 413q-52 0 -88.5 -18t-59.5 -49.5t-33.5 -73t-10.5 -87.5q0 -34 6 -61t20 -45.5t37.5 -28t59.5 -9.5q70 0 104 37t47 112l33 196q-20 10 -48 18.5t-67 8.5zM587 53q60 4 102 29t67.5 63.5t37 87t11.5 99.5q0 140 -78 211.5t-227 71.5q-106 0 -180.5 -34.5t-122 -94
t-69 -139t-21.5 -168.5q0 -79 17.5 -141t56.5 -105t101 -65.5t151 -22.5q50 0 90.5 6t72.5 15t55 18.5t38 16.5l-9 -37q-50 -26 -117.5 -40.5t-138.5 -14.5q-74 0 -138.5 18.5t-113 61t-76.5 112.5t-28 173q0 55 9 112t30 110t54 99.5t81 81t111.5 54.5t145.5 20
q168 0 256.5 -83.5t88.5 -233.5q0 -61 -16 -118t-50.5 -100.5t-89 -69.5t-130.5 -26h-5l3 54q-9 -13 -21.5 -25.5t-30 -22.5t-40 -16t-51.5 -6q-72 0 -111.5 41.5t-39.5 135.5q0 55 14.5 104t43 85t71 57t98.5 21q49 0 89.5 -14t66.5 -29z" />
    <glyph glyph-name="A" unicode="A" horiz-adv-x="615" 
d="M469 229h-327l-83 -229h-39l261 712h52l262 -712h-42zM156 267h299l-150 409z" />
    <glyph glyph-name="B" unicode="B" horiz-adv-x="605" 
d="M96 0v712h239q52 0 88.5 -13.5t59 -36t32.5 -52.5t10 -64v-24q0 -49 -24.5 -90t-78.5 -58q31 -6 54.5 -22t38.5 -39t22.5 -52.5t7.5 -60.5v-24q0 -81 -50.5 -128.5t-155.5 -47.5h-243zM135 37h209q81 0 120 32.5t39 106.5v27q0 74 -40 112.5t-122 38.5h-206v-317z
M135 391h208q70 0 107 33t37 92v23q0 69 -38 103t-119 34h-195v-285z" />
    <glyph glyph-name="C" unicode="C" horiz-adv-x="530" 
d="M365 684q-71 0 -118.5 -12.5t-76.5 -45.5t-41 -90t-12 -145v-76q0 -85 12.5 -140.5t42 -88t78 -45.5t120.5 -13q13 0 30 1.5t34.5 3.5t33 4.5t24.5 4.5l-8 -36q-20 -5 -51.5 -10.5t-60.5 -5.5q-101 0 -160 23t-89 65t-38.5 102t-8.5 135v80q0 81 12 142t44.5 102.5t89 62
t145.5 20.5q37 0 72.5 -7.5t56.5 -15.5l-10 -34q-10 3 -24 6.5t-30 6t-33.5 4.5t-33.5 2z" />
    <glyph glyph-name="D" unicode="D" horiz-adv-x="668" 
d="M96 712h212q85 0 140 -23.5t87 -65t44.5 -97.5t12.5 -122v-95q0 -69 -14 -125.5t-47 -97.5t-88 -63.5t-137 -22.5h-210v712zM135 37h170q59 0 105 12.5t77.5 43.5t47.5 84.5t16 134.5v88q0 77 -15 129.5t-45 85t-76 46.5t-107 14h-173v-638z" />
    <glyph glyph-name="E" unicode="E" horiz-adv-x="553" 
d="M507 712l-8 -37h-364v-285h337l-8 -37h-329v-316h372l-8 -37h-403v712h411z" />
    <glyph glyph-name="F" unicode="F" horiz-adv-x="517" 
d="M487 712l-8 -37h-344v-295h303l-8 -37h-295v-343h-39v712h391z" />
    <glyph glyph-name="G" unicode="G" horiz-adv-x="614" 
d="M355 328l8 38h175v-351q-15 -6 -36.5 -10.5t-44 -7.5t-45 -5t-38.5 -2q-101 0 -160.5 23t-90 65.5t-39 102.5t-8.5 133v80q0 80 12.5 141.5t46.5 103t92 62.5t150 21q39 0 78 -7.5t62 -15.5l-10 -34q-25 8 -58.5 13.5t-73.5 5.5q-73 0 -122.5 -13.5t-79.5 -46.5t-43 -90
t-13 -144v-76q0 -84 13 -139t42.5 -88t78.5 -46t121 -13q32 0 66.5 3t61.5 11v286h-145z" />
    <glyph glyph-name="H" unicode="H" horiz-adv-x="671" 
d="M575 712v-712h-39v364h-401v-364h-39v712h39v-309h401v309h39z" />
    <glyph glyph-name="I" unicode="I" horiz-adv-x="231" 
d="M135 712v-712h-39v712h39z" />
    <glyph glyph-name="J" unicode="J" horiz-adv-x="421" 
d="M127 -10q-31 0 -61 5.5t-46 10.5l8 36q18 -5 44 -9.5t48 -4.5q57 0 91.5 13.5t53 42.5t25 75t6.5 112v441h39v-462q0 -60 -9 -108t-32.5 -81.5t-64 -52t-102.5 -18.5z" />
    <glyph glyph-name="K" unicode="K" horiz-adv-x="563" 
d="M134 712v-324l341 324h48l-359 -341l379 -371h-52l-357 351v-351h-38v712h38z" />
    <glyph glyph-name="L" unicode="L" horiz-adv-x="506" 
d="M135 712v-675h351l-8 -37h-382v712h39z" />
    <glyph glyph-name="M" unicode="M" horiz-adv-x="760" 
d="M137 712l245 -482l241 482h41v-712h-37v641l-227 -452h-38l-228 443v-632h-37v712h40z" />
    <glyph glyph-name="N" unicode="N" horiz-adv-x="671" 
d="M139 712l399 -651v651h37v-712h-43l-399 649v-649h-37v712h43z" />
    <glyph glyph-name="O" unicode="O" horiz-adv-x="673" 
d="M335 23q58 0 99.5 13.5t68.5 46.5t39.5 89t12.5 141v86q0 87 -12.5 143t-39.5 89t-68.5 45.5t-99.5 12.5q-55 0 -96 -12t-68 -44.5t-40.5 -89t-13.5 -144.5v-86q0 -85 12.5 -141t38.5 -89t67.5 -46.5t99.5 -13.5zM335 727q77 0 127.5 -21t80.5 -62t42 -101.5t12 -139.5
v-94q0 -76 -12.5 -136t-42.5 -102t-80.5 -64t-126.5 -22q-77 0 -127.5 20.5t-79.5 61.5t-40.5 101.5t-11.5 140.5v94q0 73 11.5 133t40.5 102.5t79.5 65.5t127.5 23z" />
    <glyph glyph-name="P" unicode="P" horiz-adv-x="577" 
d="M135 296v-296h-39v712h245q51 0 88 -14.5t61 -40.5t35.5 -62t11.5 -78v-26q0 -36 -10 -71t-34 -62.5t-65 -44.5t-102 -17h-191zM135 333h189q88 0 130 36.5t42 121.5v19q0 82 -37.5 123.5t-123.5 41.5h-200v-342z" />
    <glyph glyph-name="Q" unicode="Q" horiz-adv-x="673" 
d="M335 727q77 0 127.5 -21t80.5 -62t42 -101.5t12 -139.5v-94q0 -105 -24 -178.5t-86 -110.5l102 -137h-44l-90 121q-25 -9 -54.5 -14t-65.5 -5q-77 0 -127.5 20.5t-79.5 61.5t-40.5 101.5t-11.5 140.5v94q0 73 11.5 133t40.5 102.5t79.5 65.5t127.5 23zM335 23
q28 0 52.5 2.5t44.5 9.5l-75 103h42l65 -88q48 27 69.5 89t21.5 174v86q0 87 -12.5 143t-39.5 89t-68.5 45.5t-99.5 12.5q-55 0 -96 -12t-68 -44.5t-40.5 -89t-13.5 -144.5v-86q0 -85 12.5 -141t38.5 -89t67.5 -46.5t99.5 -13.5z" />
    <glyph glyph-name="R" unicode="R" horiz-adv-x="609" 
d="M343 316h-208v-316h-39v712h251q49 0 86 -14t61 -39.5t36 -60t12 -74.5v-20q0 -79 -42.5 -126t-114.5 -58l179 -320h-45zM135 353h194q86 0 129 34t43 117v13q0 78 -38 118t-122 40h-206v-322z" />
    <glyph glyph-name="S" unicode="S" horiz-adv-x="557" 
d="M335 379q48 -7 79.5 -23.5t50 -40t25.5 -54t7 -64.5v-13q0 -44 -13.5 -79.5t-43 -61t-76 -39.5t-111.5 -14q-57 0 -105 8t-84 21l7 35q45 -14 87 -20t102 -6q55 0 92.5 10.5t60.5 31t33.5 50.5t10.5 68q0 30 -4.5 55.5t-19 45t-41.5 33t-72 19.5l-93 13q-45 6 -76.5 18.5
t-51.5 33.5t-29 52.5t-9 75.5v10q0 85 61.5 131.5t182.5 46.5q57 0 98.5 -9.5t73.5 -21.5l-11 -34q-34 12 -75 19.5t-94 7.5q-47 0 -84 -7.5t-62 -24.5t-38 -45t-13 -69q0 -37 6.5 -62t22.5 -41.5t42.5 -26t67.5 -15.5z" />
    <glyph glyph-name="T" unicode="T" horiz-adv-x="577" 
d="M553 675h-247v-675h-39v675h-251l8 37h537z" />
    <glyph glyph-name="U" unicode="U" horiz-adv-x="668" 
d="M333 -15q-71 0 -118.5 18.5t-76 55t-40.5 91t-12 126.5v436h39v-438q0 -73 12 -121t37 -77t64 -41t93 -12q61 0 101.5 11t65 39t35 76.5t10.5 123.5v439h39v-437q0 -70 -10.5 -124t-38 -91t-76 -56t-124.5 -19z" />
    <glyph glyph-name="V" unicode="V" horiz-adv-x="615" 
d="M555 712h40l-260 -712h-52l-263 712h41l249 -676z" />
    <glyph glyph-name="W" unicode="W" horiz-adv-x="853" 
d="M784 712h39l-191 -712h-51l-156 633l-166 -633h-52l-177 712h41l163 -673l172 646h43l158 -646z" />
    <glyph glyph-name="X" unicode="X" horiz-adv-x="597" 
d="M321 383l258 -383h-47l-235 353l-235 -353h-44l257 383l-223 329h47l201 -301l199 301h44z" />
    <glyph glyph-name="Y" unicode="Y" horiz-adv-x="568" 
d="M282 333l225 379h43l-249 -411v-301h-39v300l-244 412h43z" />
    <glyph glyph-name="Z" unicode="Z" horiz-adv-x="549" 
d="M456 675h-408l8 37h446v-35l-421 -640h430l-8 -37h-467v35z" />
    <glyph glyph-name="bracketleft" unicode="[" horiz-adv-x="344" 
d="M100 723h224l-7 -35h-178v-791h185l-7 -35h-217v861z" />
    <glyph glyph-name="backslash" unicode="\" horiz-adv-x="355" 
d="M60 712l275 -712h-40l-275 712h40z" />
    <glyph glyph-name="bracketright" unicode="]" horiz-adv-x="344" 
d="M244 -138h-224l7 35h178v791h-185l7 35h217v-861z" />
    <glyph glyph-name="asciicircum" unicode="^" horiz-adv-x="586" 
d="M271 713h41l160 -289h-39l-142 258l-139 -258h-38z" />
    <glyph glyph-name="underscore" unicode="_" horiz-adv-x="500" 
d="M0 -92h500v-33h-500v33z" />
    <glyph glyph-name="grave" unicode="`" horiz-adv-x="500" 
d="M340 592h-42l-141 139h51z" />
    <glyph glyph-name="a" unicode="a" horiz-adv-x="524" 
d="M87 147q0 -30 7.5 -52.5t24.5 -37.5t46 -23t72 -8q49 0 82 11t53 30t28.5 42.5t8.5 49.5v10q0 49 -35 80.5t-119 31.5h-22q-45 0 -73.5 -9t-44.5 -25.5t-22 -39.5t-6 -51v-9zM48 158q0 80 47.5 119t137.5 39q67 0 108 -12.5t67 -47.5v70q0 86 -44 123.5t-131 37.5
q-40 0 -77.5 -6t-61.5 -12l7 33q28 8 62 14.5t67 6.5q103 0 158.5 -44.5t55.5 -141.5v-337h-31l-6 64q-27 -42 -70 -58t-117 -16q-38 0 -70 8.5t-54.5 26.5t-35 46.5t-12.5 69.5v17z" />
    <glyph glyph-name="b" unicode="b" horiz-adv-x="568" 
d="M287 -12q-60 0 -108.5 12.5t-94.5 38.5v704h37v-310q10 16 24 32t35.5 29t52.5 21t74 8t79 -13t62 -42.5t40 -76t14 -112.5v-52q0 -63 -15.5 -108.5t-44 -74.5t-68 -42.5t-87.5 -13.5zM282 24q52 0 87 13.5t56 41t29.5 68.5t8.5 96v19q0 50 -6.5 91.5t-24.5 71t-50.5 46
t-84.5 16.5q-51 0 -84.5 -13t-54 -37.5t-29 -59.5t-8.5 -80v-237q33 -17 69 -26.5t92 -9.5z" />
    <glyph glyph-name="c" unicode="c" horiz-adv-x="461" 
d="M403 8q-20 -7 -51 -12.5t-56 -5.5q-67 0 -111.5 16t-70.5 46.5t-37 74t-11 99.5v58q0 56 12 100t39.5 74.5t73 46.5t112.5 16q26 0 54.5 -5t48.5 -13l-10 -32q-20 7 -47 10.5t-47 3.5q-54 0 -91.5 -10t-61 -34t-34 -64.5t-10.5 -100.5v-41q0 -57 9.5 -97t32.5 -64.5
t61 -36t95 -11.5q29 0 56 5t50 10z" />
    <glyph glyph-name="d" unicode="d" horiz-adv-x="568" 
d="M105 249q0 -51 6.5 -92.5t24.5 -71t50.5 -45.5t84.5 -16q51 0 84.5 13t54 37.5t29 59.5t8.5 80v232q-18 10 -35 17.5t-35.5 12.5t-40 8t-49.5 3q-53 0 -88 -13.5t-56 -41t-29.5 -68.5t-8.5 -96v-19zM66 285q0 63 15.5 108.5t44 74t68.5 42t88 13.5q30 0 52.5 -3t41.5 -8
t36 -12.5t35 -16.5v260h37v-743h-31l-7 73q-10 -16 -24 -31.5t-35.5 -27.5t-52 -19t-73.5 -7q-44 0 -79.5 13t-61.5 42t-40 75.5t-14 113.5v53z" />
    <glyph glyph-name="e" unicode="e" horiz-adv-x="524" 
d="M104 242q0 -59 8.5 -100t32 -67.5t64 -38.5t104.5 -12q33 0 65.5 5t52.5 10l-6 -33q-22 -8 -56 -13t-63 -5q-74 0 -120.5 16.5t-73 47t-36.5 74.5t-10 99v56q0 54 10.5 98.5t35 76.5t64 49.5t98.5 17.5q53 0 89.5 -16.5t59 -44t32 -62.5t9.5 -71v-37q0 -33 -6.5 -41.5
t-31.5 -8.5h-322zM269 488q-42 0 -73.5 -11t-51.5 -35.5t-30 -65t-10 -100.5h322v42q0 40 -8 71.5t-26.5 53.5t-48.5 33.5t-74 11.5z" />
    <glyph glyph-name="f" unicode="f" horiz-adv-x="350" 
d="M328 511l-7 -34h-156v-477h-37v477h-104l7 34h97q0 126 44 182.5t139 56.5q13 0 32 -3t33 -8l-9 -32q-25 7 -57 7q-42 0 -70 -11.5t-44.5 -36t-23.5 -63t-7 -92.5h163z" />
    <glyph glyph-name="g" unicode="g" horiz-adv-x="568" 
d="M105 257q0 -51 7 -92t26 -69.5t52 -43.5t86 -15q49 0 81.5 13t52.5 37.5t28.5 59.5t8.5 79v224q-32 18 -68.5 27.5t-84.5 9.5q-54 0 -90.5 -13t-58 -39.5t-31 -67t-9.5 -96.5v-14zM484 7q0 -55 -11.5 -100t-37.5 -77.5t-68.5 -50t-105.5 -17.5q-38 0 -84 7t-88 21l9 33
q42 -13 84.5 -18.5t78.5 -5.5q45 0 79.5 9.5t58 34t36 66.5t12.5 108v71q-8 -13 -21.5 -28.5t-34.5 -28.5t-51.5 -21.5t-72.5 -8.5q-45 0 -82 12t-63.5 40t-41 73.5t-14.5 112.5v48q0 63 16 107.5t45 73t70 42t91 13.5q54 0 103 -13.5t93 -38.5v-464z" />
    <glyph glyph-name="h" unicode="h" horiz-adv-x="570" 
d="M84 0v743h37v-311q9 17 24.5 33.5t38.5 29t54 20.5t71 8q91 0 137 -47t46 -134v-342h-37v312q0 46 -8 79t-26 54.5t-47.5 31.5t-73.5 10q-94 0 -136.5 -45t-42.5 -135v-307h-37z" />
    <glyph glyph-name="i" unicode="i" horiz-adv-x="205" 
d="M84 511h37v-511h-37v511zM102 697q15 0 24.5 -8t9.5 -28t-9.5 -28t-24.5 -8t-24.5 8t-9.5 28t9.5 28t24.5 8z" />
    <glyph glyph-name="j" unicode="j" horiz-adv-x="205" 
d="M121 511v-572q0 -51 -11 -85.5t-29.5 -54.5t-44 -28.5t-53.5 -8.5q-17 0 -37.5 3t-35.5 10l7 30q13 -4 29.5 -6t30.5 -2q61 0 84 34.5t23 111.5v568h37zM102 697q15 0 24.5 -8t9.5 -28t-9.5 -28t-24.5 -8t-24.5 8t-9.5 28t9.5 28t24.5 8z" />
    <glyph glyph-name="k" unicode="k" horiz-adv-x="458" 
d="M424 511l-268 -223l288 -288h-52l-271 271v-271h-37v743h37v-442l253 210h50z" />
    <glyph glyph-name="l" unicode="l" horiz-adv-x="205" 
d="M84 743h37v-743h-37v743z" />
    <glyph glyph-name="m" unicode="m" horiz-adv-x="835" 
d="M84 0v511h31l7 -74q21 38 62 62t95 24q113 0 147 -92q26 50 69 71t98 21q79 0 121.5 -43.5t42.5 -130.5v-349h-37v319q0 91 -30 129.5t-106 38.5q-68 0 -106.5 -35.5t-38.5 -102.5v-349h-37v319q0 46 -6.5 78t-21.5 52t-40.5 29t-63.5 9q-32 0 -59.5 -10.5t-47.5 -31.5
t-31 -51.5t-11 -70.5v-323h-37z" />
    <glyph glyph-name="n" unicode="n" horiz-adv-x="570" 
d="M84 0v511h31l7 -77q9 17 24.5 33t38 28.5t53.5 20t71 7.5q91 0 137 -47t46 -134v-342h-37v312q0 46 -8 79t-26 54.5t-47.5 31.5t-73.5 10q-94 0 -136.5 -45t-42.5 -135v-307h-37z" />
    <glyph glyph-name="o" unicode="o" horiz-adv-x="567" 
d="M284 24q52 0 86.5 12.5t54.5 38.5t28.5 66t8.5 95v40q0 55 -8.5 94.5t-28.5 65.5t-54.5 38.5t-86.5 12.5q-53 0 -87.5 -12.5t-54.5 -38.5t-28.5 -66t-8.5 -94v-40q0 -55 8.5 -95t28.5 -66t54.5 -38.5t87.5 -12.5zM284 523q64 0 105.5 -16.5t66.5 -48t35 -76t10 -99.5v-54
q0 -56 -11.5 -100.5t-37 -76t-67 -48t-101.5 -16.5q-64 0 -106 16.5t-67 48t-35 76t-10 100.5v54q0 55 11.5 99.5t37.5 76t67.5 48t101.5 16.5z" />
    <glyph glyph-name="p" unicode="p" horiz-adv-x="568" 
d="M463 263q0 50 -6.5 91t-24.5 70.5t-50.5 46t-84.5 16.5q-51 0 -84.5 -13t-54 -37t-29 -59t-8.5 -79v-232q18 -10 35.5 -17.5t36 -13t40.5 -8t50 -2.5q52 0 87 13.5t55.5 41t29 68.5t8.5 95v19zM502 228q0 -63 -15.5 -108.5t-43.5 -74t-67.5 -42t-87.5 -13.5q-30 0 -53 3
t-42 8t-36.5 12.5t-35.5 16.5v-262h-37v743h31l7 -76q10 16 24 31.5t35.5 28t52 20.5t73.5 8t79 -13t62 -42.5t40 -76t14 -112.5v-51z" />
    <glyph glyph-name="q" unicode="q" horiz-adv-x="568" 
d="M105 250q0 -50 6.5 -91t24.5 -70.5t50.5 -46t84.5 -16.5q51 0 84.5 13t54 37t29 59t8.5 79v237q-33 17 -68.5 26.5t-91.5 9.5q-53 0 -88 -13.5t-56 -41t-29.5 -68.5t-8.5 -95v-19zM66 285q0 63 15.5 108.5t44 74t68.5 42t88 13.5q60 0 108 -13t94 -39v-703h-37v312
q-10 -16 -24 -32t-35.5 -29t-52.5 -21t-74 -8q-44 0 -79.5 13t-61.5 42.5t-40 76t-14 112.5v51z" />
    <glyph glyph-name="r" unicode="r" horiz-adv-x="370" 
d="M336 475q-12 3 -28.5 5t-30.5 2q-78 0 -117 -44.5t-39 -141.5v-296h-37v511h31l7 -79q24 45 64.5 65.5t96.5 20.5q17 0 35.5 -3t27.5 -7z" />
    <glyph glyph-name="s" unicode="s" horiz-adv-x="466" 
d="M285 277q39 -5 63.5 -16.5t38.5 -29.5t19.5 -40.5t5.5 -49.5v-6q0 -33 -11 -59.5t-35 -45.5t-62 -29.5t-92 -10.5q-48 0 -87.5 6.5t-69.5 17.5l8 33q19 -6 36.5 -10t35.5 -6.5t38 -3.5t45 -1q44 0 73.5 7t47.5 21t25.5 34.5t7.5 47.5q0 20 -2.5 37.5t-12 31t-29 22.5
t-53.5 13l-72 8q-42 5 -70 15t-44.5 26.5t-23 39t-6.5 52.5v6q0 63 52.5 98.5t148.5 35.5q48 0 83.5 -7t56.5 -15l-10 -32q-14 5 -28.5 8.5t-31 6t-37 3.5t-45.5 1q-67 0 -109 -22.5t-42 -77.5q0 -23 4.5 -40t16.5 -29t34 -19.5t57 -11.5z" />
    <glyph glyph-name="t" unicode="t" horiz-adv-x="372" 
d="M166 477v-328q0 -36 6.5 -60t20 -38.5t35 -20.5t52.5 -6q19 0 34.5 3t26.5 5l-7 -31q-28 -11 -63 -11q-77 0 -109.5 40t-32.5 128v319h-104l7 34h97v136l37 7v-143h173l-7 -34h-166z" />
    <glyph glyph-name="u" unicode="u" horiz-adv-x="564" 
d="M480 511v-511h-31l-7 78q-9 -17 -24.5 -33t-38 -29t-52.5 -20.5t-69 -7.5q-88 0 -134 47.5t-46 134.5v341h37v-311q0 -46 7.5 -79t25.5 -54.5t47 -32t72 -10.5q91 0 133.5 45.5t42.5 135.5v306h37z" />
    <glyph glyph-name="v" unicode="v" horiz-adv-x="503" 
d="M20 511h43l189 -473l190 473h41l-213 -511h-38z" />
    <glyph glyph-name="w" unicode="w" horiz-adv-x="712" 
d="M355 445l-137 -445h-41l-152 511h42l131 -471l138 445h40l141 -447l132 473h38l-150 -511h-41z" />
    <glyph glyph-name="x" unicode="x" horiz-adv-x="487" 
d="M45 511h43l157 -218l154 218h41l-175 -245l192 -266h-44l-172 239l-170 -239h-41l192 266z" />
    <glyph glyph-name="y" unicode="y" horiz-adv-x="503" 
d="M442 511h41l-231 -586q-19 -48 -35 -79t-33.5 -50t-39 -26.5t-49.5 -7.5q-19 0 -37.5 3t-33.5 10l7 30q27 -8 57 -8q26 0 43.5 5.5t31.5 20.5t26.5 42.5t29.5 71.5l24 63l-223 511h43l199 -475z" />
    <glyph glyph-name="z" unicode="z" horiz-adv-x="465" 
d="M81 33h350l-7 -33h-390v30l343 448h-335l7 33h373v-30z" />
    <glyph glyph-name="braceleft" unicode="{" horiz-adv-x="321" 
d="M126 564q0 40 7 71.5t25.5 53.5t50.5 33t82 11h10l-7 -33h-8q-34 0 -57 -6.5t-37.5 -21.5t-20.5 -39.5t-6 -59.5v-156q0 -43 -17.5 -75t-52.5 -49q35 -17 52.5 -49.5t17.5 -74.5v-157q0 -35 6 -59.5t20.5 -39.5t39 -21.5t60.5 -6.5h10l-7 -33h-8q-48 0 -79 11t-49 33
t-25 53t-7 72v142q0 53 -21.5 82t-66.5 31h-8v34h5q47 0 69 29.5t22 83.5v141z" />
    <glyph glyph-name="bar" unicode="|" horiz-adv-x="229" 
d="M95 743h39v-918h-39v918z" />
    <glyph glyph-name="braceright" unicode="}" horiz-adv-x="321" 
d="M195 21q0 -41 -7 -72t-25 -53t-50 -33t-83 -11h-10l7 33h8q34 0 57 6.5t37.5 21.5t20.5 39.5t6 59.5v156q0 43 17.5 75t52.5 49q-35 17 -52.5 49.5t-17.5 74.5v157q0 35 -6 59.5t-20.5 39.5t-39 21.5t-60.5 6.5h-10l7 33h8q48 0 79 -11t49 -33t25 -53.5t7 -71.5v-142
q0 -53 21.5 -82t66.5 -31h8v-34h-5q-47 0 -69 -29.5t-22 -83.5v-141z" />
    <glyph glyph-name="asciitilde" unicode="~" horiz-adv-x="586" 
d="M339 336q13 -8 22.5 -13.5t17 -9t15 -5t16.5 -1.5q35 0 48 24t13 88h34q0 -43 -6.5 -71t-19 -45t-30 -24t-39.5 -7q-20 0 -38.5 8t-47.5 25l-77 46q-19 11 -36 19t-37 8q-35 0 -47.5 -24t-12.5 -88h-34q0 43 6.5 71t19 45t30 24t39.5 7q20 0 39.5 -7t47.5 -24z" />
    <glyph glyph-name="Euro" unicode="&#x20ac;" horiz-adv-x="586" 
d="M62 445h64q4 58 18 105t44.5 80t80 50.5t124.5 17.5q44 0 76.5 -6.5t58.5 -17.5l-9 -33q-25 8 -57 13.5t-71 5.5q-61 0 -102.5 -11t-67.5 -36.5t-39.5 -66.5t-17.5 -101h292l-8 -35h-285v-137h293l-8 -35h-283q3 -62 18 -103t43.5 -66t73.5 -35.5t108 -10.5
q12 0 28.5 1.5t33 3.5t31.5 4.5t24 4.5l-8 -36q-19 -5 -49.5 -10.5t-57.5 -5.5q-84 0 -137 16.5t-84.5 49t-45 79.5t-17.5 108h-72l8 35h63v137h-71z" />
    <glyph glyph-name="uni20BA" unicode="&#x20ba;" horiz-adv-x="586" 
d="M131 447v236h37v-219l240 112l12 -30l-252 -118v-120l240 112l12 -30l-252 -118v-241q10 -2 27.5 -4t39.5 -2q61 0 109 19.5t81.5 55t51 84.5t17.5 108l36 -5q0 -56 -17.5 -110t-54 -96t-92.5 -67.5t-133 -25.5q-28 0 -55.5 3t-46.5 8v256l-70 -32l-12 30l82 38v120
l-70 -32l-12 30z" />
    <glyph glyph-name="quotesinglbase" unicode="&#x201a;" horiz-adv-x="266" 
d="M73 -120l49 121q-24 7 -24 36q0 17 10 26t24 9q34 0 34 -34q0 -12 -3.5 -23.5t-11.5 -26.5l-51 -108h-27z" />
    <glyph glyph-name="florin" unicode="&#x192;" horiz-adv-x="350" 
d="M165 477v-538q0 -51 -11 -85.5t-29.5 -54.5t-44 -28.5t-53.5 -8.5q-17 0 -37.5 3t-35.5 10l7 30q13 -4 29.5 -6t30.5 -2q61 0 84 34.5t23 111.5v534h-104l7 34h97q0 126 44 182.5t139 56.5q13 0 32 -3t33 -8l-9 -32q-25 7 -57 7q-42 0 -70 -11.5t-44.5 -36t-23.5 -63
t-7 -92.5h163l-7 -34h-156z" />
    <glyph glyph-name="quotedblbase" unicode="&#x201e;" horiz-adv-x="396" 
d="M69 -120l49 121q-24 7 -24 36q0 17 10 26t24 9q34 0 34 -34q0 -12 -3.5 -23.5t-11.5 -26.5l-51 -108h-27zM198 -120l49 121q-24 7 -24 36q0 17 10 26t24 9q34 0 34 -34q0 -12 -3.5 -23.5t-11.5 -26.5l-51 -108h-27z" />
    <glyph glyph-name="ellipsis" unicode="&#x2026;" horiz-adv-x="750" 
d="M133 72q16 0 25.5 -9t9.5 -29t-9.5 -29t-25.5 -9t-25.5 9t-9.5 29t9.5 29t25.5 9zM375 72q16 0 25.5 -9t9.5 -29t-9.5 -29t-25.5 -9t-25.5 9t-9.5 29t9.5 29t25.5 9zM617 72q16 0 25.5 -9t9.5 -29t-9.5 -29t-25.5 -9t-25.5 9t-9.5 29t9.5 29t25.5 9z" />
    <glyph glyph-name="dagger" unicode="&#x2020;" horiz-adv-x="485" 
d="M451 426h-191v-600h-39v600h-187v37h187v250h39v-250h191v-37z" />
    <glyph glyph-name="daggerdbl" unicode="&#x2021;" horiz-adv-x="485" 
d="M260 84v-258h-39v258h-187v37h187v313h-187v37h187v242h39v-242h191v-37h-191v-313h191v-37h-191z" />
    <glyph glyph-name="circumflex" unicode="&#x2c6;" horiz-adv-x="500" 
d="M268 731l132 -139h-38l-112 108l-112 -108h-38l132 139h36z" />
    <glyph glyph-name="perthousand" unicode="&#x2030;" horiz-adv-x="1234" 
d="M621 683h44l-430 -683h-44zM656 28q60 0 88 33t28 117v34q0 44 -7.5 73.5t-22 47t-36 24.5t-50.5 7t-51 -7t-36.5 -24.5t-21.5 -47t-7 -73.5v-34q0 -84 28.5 -117t87.5 -33zM656 400q43 0 73 -13t48 -37t26 -58t8 -76v-41q0 -40 -8 -73.5t-26 -58t-47.5 -38t-73.5 -13.5
q-43 0 -72.5 12.5t-48 36.5t-26.5 58t-8 76v41q0 39 7.5 73t25.5 58.5t48 38.5t74 14zM1035 28q60 0 88 33t28 117v34q0 44 -7.5 73.5t-22 47t-36 24.5t-50.5 7t-51 -7t-36.5 -24.5t-21.5 -47t-7 -73.5v-34q0 -84 28.5 -117t87.5 -33zM1035 400q43 0 73 -13t48 -37t26 -58
t8 -76v-41q0 -40 -8 -73.5t-26 -58t-47.5 -38t-73.5 -13.5q-43 0 -72.5 12.5t-48 36.5t-26.5 58t-8 76v41q0 39 7.5 73t25.5 58.5t48 38.5t74 14zM200 319q60 0 88 33t28 117v34q0 44 -7.5 73.5t-22 47t-36 24.5t-50.5 7t-51 -7t-36.5 -24.5t-21.5 -47t-7 -73.5v-34
q0 -84 28.5 -117t87.5 -33zM200 691q43 0 73 -13t48 -37t26 -58t8 -76v-41q0 -40 -8 -73.5t-26 -58t-47.5 -38t-73.5 -13.5q-43 0 -72.5 12.5t-48 36.5t-26.5 58t-8 76v41q0 39 7.5 73t25.5 58.5t48 38.5t74 14z" />
    <glyph glyph-name="Scaron" unicode="&#x160;" horiz-adv-x="557" 
d="M335 379q48 -7 79.5 -23.5t50 -40t25.5 -54t7 -64.5v-13q0 -44 -13.5 -79.5t-43 -61t-76 -39.5t-111.5 -14q-57 0 -105 8t-84 21l7 35q45 -14 87 -20t102 -6q55 0 92.5 10.5t60.5 31t33.5 50.5t10.5 68q0 30 -4.5 55.5t-19 45t-41.5 33t-72 19.5l-93 13q-45 6 -76.5 18.5
t-51.5 33.5t-29 52.5t-9 75.5v10q0 85 61.5 131.5t182.5 46.5q57 0 98.5 -9.5t73.5 -21.5l-11 -34q-34 12 -75 19.5t-94 7.5q-47 0 -84 -7.5t-62 -24.5t-38 -45t-13 -69q0 -37 6.5 -62t22.5 -41.5t42.5 -26t67.5 -15.5zM312 773h-38l-132 120h44l107 -90l108 90h43z" />
    <glyph glyph-name="guilsinglleft" unicode="&#x2039;" horiz-adv-x="317" 
d="M40 273l217 184v-46l-179 -152l179 -152v-45l-217 184v27z" />
    <glyph glyph-name="OE" unicode="&#x152;" horiz-adv-x="942" 
d="M888 0h-553q-77 0 -127.5 21t-79.5 62t-40.5 102t-11.5 142v59q0 74 11.5 134.5t40.5 103t79.5 65.5t127.5 23h561l-8 -37h-364v-285h337l-8 -37h-329v-316h372zM485 675h-150q-55 0 -96 -12.5t-68 -45t-40.5 -89.5t-13.5 -146v-51q0 -86 12.5 -142.5t38.5 -90.5
t67.5 -47.5t99.5 -13.5h150v638z" />
    <glyph glyph-name="quoteleft" unicode="&#x2018;" horiz-adv-x="266" 
d="M183 746l-49 -121q24 -8 24 -36q0 -17 -10 -26t-24 -9q-16 0 -25 9.5t-9 25.5q0 11 3.5 22.5t11.5 26.5l51 108h27z" />
    <glyph glyph-name="quoteright" unicode="&#x2019;" horiz-adv-x="266" 
d="M83 553l49 121q-24 7 -24 36q0 17 10 26t24 9q16 0 25 -9.5t9 -25.5q0 -11 -3.5 -22.5t-11.5 -26.5l-51 -108h-27z" />
    <glyph glyph-name="quotedblleft" unicode="&#x201c;" horiz-adv-x="396" 
d="M183 746l-49 -121q24 -8 24 -36q0 -17 -10 -26t-24 -9q-16 0 -25 9.5t-9 25.5q0 11 3.5 22.5t11.5 26.5l51 108h27zM313 746l-49 -121q24 -8 24 -36q0 -17 -10 -26t-24 -9q-16 0 -25 9.5t-9 25.5q0 11 3.5 22.5t11.5 26.5l51 108h27z" />
    <glyph glyph-name="quotedblright" unicode="&#x201d;" horiz-adv-x="396" 
d="M83 553l49 121q-24 7 -24 36q0 17 10 26t24 9q16 0 25 -9.5t9 -25.5q0 -11 -3.5 -22.5t-11.5 -26.5l-51 -108h-27zM213 553l49 121q-24 7 -24 36q0 17 10 26t24 9q16 0 25 -9.5t9 -25.5q0 -11 -3.5 -22.5t-11.5 -26.5l-51 -108h-27z" />
    <glyph glyph-name="bullet" unicode="&#x2022;" horiz-adv-x="332" 
d="M80 357q0 38 24 62t62 24t62 -24t24 -62t-24 -62t-62 -24t-62 24t-24 62z" />
    <glyph glyph-name="endash" unicode="&#x2013;" horiz-adv-x="500" 
d="M0 305h500v-36h-500v36z" />
    <glyph glyph-name="emdash" unicode="&#x2014;" horiz-adv-x="1000" 
d="M0 305h1000v-36h-1000v36z" />
    <glyph glyph-name="tilde" unicode="&#x2dc;" horiz-adv-x="500" 
d="M216 661q-11 6 -21.5 10.5t-20.5 4.5q-39 0 -39 -61h-28q0 27 6 45.5t15.5 29t21.5 15t25 4.5q17 0 32 -6t26 -13l45 -27q36 -22 58 -22q37 0 37 62h28q0 -30 -6.5 -48t-16.5 -28.5t-22 -14t-24 -3.5q-13 0 -28.5 5t-41.5 20z" />
    <glyph glyph-name="trademark" unicode="&#x2122;" horiz-adv-x="859" 
d="M346 713l-7 -34h-121v-319h-36v319h-126l7 34h283zM461 713l127 -238l126 238h39v-353h-34v298l-116 -217h-31l-116 212v-293h-33v353h38z" />
    <glyph glyph-name="scaron" unicode="&#x161;" horiz-adv-x="466" 
d="M285 277q39 -5 63.5 -16.5t38.5 -29.5t19.5 -40.5t5.5 -49.5v-6q0 -33 -11 -59.5t-35 -45.5t-62 -29.5t-92 -10.5q-48 0 -87.5 6.5t-69.5 17.5l8 33q19 -6 36.5 -10t35.5 -6.5t38 -3.5t45 -1q44 0 73.5 7t47.5 21t25.5 34.5t7.5 47.5q0 20 -2.5 37.5t-12 31t-29 22.5
t-53.5 13l-72 8q-42 5 -70 15t-44.5 26.5t-23 39t-6.5 52.5v6q0 63 52.5 98.5t148.5 35.5q48 0 83.5 -7t56.5 -15l-10 -32q-14 5 -28.5 8.5t-31 6t-37 3.5t-45.5 1q-67 0 -109 -22.5t-42 -77.5q0 -23 4.5 -40t16.5 -29t34 -19.5t57 -11.5zM228 592l-132 139h38l112 -108
l112 108h38l-132 -139h-36z" />
    <glyph glyph-name="guilsinglright" unicode="&#x203a;" horiz-adv-x="317" 
d="M277 246l-217 -184v45l179 152l-179 152v46l217 -184v-27z" />
    <glyph glyph-name="oe" unicode="&#x153;" horiz-adv-x="920" 
d="M501 242v-35q0 -49 10.5 -83.5t34.5 -56.5t64 -32.5t99 -10.5q33 0 65.5 5t52.5 10l-6 -33q-22 -8 -56 -13t-63 -5q-50 0 -87 8t-63.5 22.5t-44 36t-27.5 48.5q-21 -54 -67 -84.5t-129 -30.5q-64 0 -106 16.5t-67 48t-35 76t-10 100.5v54q0 55 11.5 99.5t37.5 76t67.5 48
t101.5 16.5q87 0 132.5 -31.5t65.5 -86.5q21 53 64.5 85.5t123.5 32.5q53 0 89.5 -16.5t59 -44t32 -62.5t9.5 -71v-37q0 -33 -6.5 -41.5t-31.5 -8.5h-321zM462 286q0 52 -9 90t-29.5 62.5t-54.5 36.5t-85 12q-53 0 -87.5 -12.5t-54.5 -38.5t-28.5 -66t-8.5 -94v-40
q0 -55 8.5 -95t28.5 -66t54.5 -38.5t87.5 -12.5q52 0 86.5 12.5t54.5 38.5t28.5 66t8.5 95v50zM665 487q-83 0 -123.5 -45t-40.5 -150v-16h321v42q0 39 -8 70.5t-26.5 53.5t-48.5 33.5t-74 11.5z" />
    <glyph glyph-name="Ydieresis" unicode="&#x178;" horiz-adv-x="568" 
d="M282 333l225 379h43l-249 -411v-301h-39v300l-244 412h43zM210 863q14 0 24 -8.5t10 -28.5t-10 -28.5t-24 -8.5t-24 8.5t-10 28.5t10 28.5t24 8.5zM359 863q14 0 24 -8.5t10 -28.5t-10 -28.5t-24 -8.5t-24 8.5t-10 28.5t10 28.5t24 8.5z" />
    <glyph glyph-name="uni00A0" unicode="&#xa0;" horiz-adv-x="250" 
 />
    <glyph glyph-name="exclamdown" unicode="&#xa1;" horiz-adv-x="266" 
d="M148 346l4 -192v-355h-39v254q0 32 0.5 60.5t0.5 40.5l4 192h30zM133 516q16 0 25.5 -9t9.5 -29t-9.5 -29t-25.5 -9t-25.5 9t-9.5 29t9.5 29t25.5 9z" />
    <glyph glyph-name="cent" unicode="&#xa2;" horiz-adv-x="586" 
d="M302 -78v76q-56 4 -93.5 22.5t-60 49t-32.5 72.5t-10 94v60q0 51 10.5 93t33.5 72.5t60.5 49t91.5 24.5v74h34v-72h12q33 0 63.5 -5.5t50.5 -13.5l-10 -33q-26 8 -52.5 11t-52.5 3h-11v-465h12q29 0 61.5 5t55.5 10l-6 -34q-20 -7 -54.5 -13t-63.5 -6h-5v-74h-34z
M148 246q0 -52 8 -90t26 -63t47.5 -39t72.5 -18v461q-42 -4 -71 -16.5t-47.5 -37.5t-27 -63t-8.5 -93v-41z" />
    <glyph glyph-name="sterling" unicode="&#xa3;" horiz-adv-x="586" 
d="M488 642q-26 8 -55 13t-60 5q-58 0 -97 -12t-62 -40.5t-33 -76.5t-10 -120v-45h254l-8 -35h-246v-296h338l-7 -35h-432l7 35h55v296h-62l7 35h55v44q0 73 11.5 127t39 90t74.5 53.5t119 17.5q29 0 62.5 -6t59.5 -17z" />
    <glyph glyph-name="currency" unicode="&#xa4;" horiz-adv-x="586" 
d="M66 141l71 71q-21 26 -33 59t-12 71t12 71t34 59l-72 71l25 25l72 -71q26 21 59 33t71 12t71.5 -12t59.5 -34l72 72l25 -25l-73 -72q22 -26 34 -58.5t12 -70.5t-12 -71.5t-34 -59.5l72 -71l-25 -25l-72 71q-53 -45 -130 -45q-38 0 -71.5 12t-59.5 33l-71 -70zM129 342
q0 -35 11 -65t32 -52t51.5 -35t69.5 -13t69.5 13t51.5 35t32 52t11 65q0 34 -11 64t-32 52.5t-51.5 35t-69.5 12.5t-69.5 -12.5t-51.5 -35t-32 -52.5t-11 -64z" />
    <glyph glyph-name="yen" unicode="&#xa5;" horiz-adv-x="586" 
d="M103 342h146l-210 341h45l207 -340l213 340h43l-215 -341h155l-8 -35h-169v-94h177l-8 -35h-169v-178h-39v178h-176l8 35h168v94h-176z" />
    <glyph glyph-name="brokenbar" unicode="&#xa6;" horiz-adv-x="229" 
d="M95 426v317h39v-317h-39zM134 143v-318h-39v318h39z" />
    <glyph glyph-name="section" unicode="&#xa7;" horiz-adv-x="570" 
d="M246 -158q-49 0 -94.5 8.5t-80.5 24.5l10 33q29 -11 70.5 -19.5t105.5 -8.5q85 0 133.5 32t48.5 97q0 47 -30.5 77t-106.5 37l-77 7q-84 8 -121 46t-37 101v7q0 48 28 83t70 51q-39 14 -61 47t-22 81v7q0 35 14.5 64.5t42.5 50.5t70 33t98 12q54 0 90.5 -8t66.5 -19
l-11 -34q-34 11 -67.5 17t-79.5 6q-94 0 -139 -30t-45 -99q0 -23 6 -41.5t20.5 -32t39.5 -22.5t63 -14l70 -9q84 -11 124 -43.5t40 -97.5v-6q0 -20 -7 -41t-20 -40t-31 -34t-40 -24q51 -19 71.5 -51.5t20.5 -77.5v-6q0 -36 -15 -66t-44 -51.5t-73 -34t-101 -12.5zM444 287
q0 21 -5.5 38t-20 29.5t-39 21.5t-62.5 14l-61 8q-6 1 -12 1h-8q-56 0 -92 -30t-36 -89q0 -46 28.5 -76.5t99.5 -36.5l59 -5q7 -1 15 -1.5t16 -0.5q49 0 83.5 33t34.5 94z" />
    <glyph glyph-name="dieresis" unicode="&#xa8;" horiz-adv-x="500" 
d="M179 697q15 0 24.5 -8t9.5 -28t-9.5 -28t-24.5 -8t-24.5 8t-9.5 28t9.5 28t24.5 8zM321 697q15 0 24.5 -8t9.5 -28t-9.5 -28t-24.5 -8t-24.5 8t-9.5 28t9.5 28t24.5 8z" />
    <glyph glyph-name="copyright" unicode="&#xa9;" horiz-adv-x="826" 
d="M413 731q80 0 150 -29t121.5 -79.5t81.5 -119t30 -147.5t-30 -147t-81.5 -118.5t-121.5 -79t-150 -28.5t-150 28.5t-122 79t-81.5 118.5t-29.5 147t29.5 147.5t81.5 119t122 79.5t150 29zM413 18q73 0 136.5 25.5t110 71t73 107.5t26.5 134t-26.5 134t-73 107.5t-110 72
t-136.5 26.5q-74 0 -137 -26.5t-109.5 -72t-73 -107.5t-26.5 -134t26.5 -134t73 -107.5t109.5 -71t137 -25.5zM528 145q-17 -5 -43.5 -9.5t-47.5 -4.5q-55 0 -93 14t-62 40t-34.5 63t-10.5 84v51q0 94 48 148t159 54q21 0 45 -4.5t41 -10.5l-8 -31q-17 6 -39.5 8.5
t-39.5 2.5q-44 0 -76 -8t-53 -28t-31 -54t-10 -86v-34q0 -49 9.5 -82.5t29.5 -54t52.5 -29.5t79.5 -9q24 0 46.5 3.5t42.5 8.5z" />
    <glyph glyph-name="ordfeminine" unicode="&#xaa;" horiz-adv-x="370" 
d="M170 418q55 0 80.5 24t25.5 56v7q0 29 -22.5 50t-74.5 21h-7q-47 0 -69.5 -18t-22.5 -60v-4q0 -38 21.5 -57t68.5 -19zM82 725q20 5 43 10t52 5q63 0 98 -30t35 -94v-221h-31l-4 32q-20 -23 -49.5 -31.5t-55.5 -8.5q-57 0 -91.5 24t-34.5 78v10q0 53 33.5 80.5t99.5 27.5
q29 0 55.5 -6t43.5 -23v25q0 56 -24.5 80.5t-76.5 24.5q-29 0 -55.5 -5.5t-44.5 -10.5z" />
    <glyph glyph-name="guillemotleft" unicode="&#xab;" horiz-adv-x="510" 
d="M253 273l197 184v-46l-160 -152l160 -152v-45l-197 184v27zM40 273l197 184v-46l-160 -152l160 -152v-45l-197 184v27z" />
    <glyph glyph-name="logicalnot" unicode="&#xac;" horiz-adv-x="586" 
d="M484 434v-217h-39v180h-362v37h401z" />
    <glyph glyph-name="uni00AD" unicode="&#xad;" horiz-adv-x="404" 
d="M57 269v36h289v-36h-289z" />
    <glyph glyph-name="registered" unicode="&#xae;" horiz-adv-x="571" 
d="M360 351l-67 113h-64v-113h-31v274h103q42 0 62 -22t20 -57v-8q0 -28 -14.5 -45.5t-39.5 -23.5l69 -118h-38zM229 494h62q32 0 46.5 10t14.5 34v5q0 27 -13 40t-43 13h-67v-102zM286 278q45 0 84 16t67.5 43.5t45 66t16.5 83.5t-16.5 83.5t-45 66t-67.5 43.5t-84 16
t-84 -16t-67.5 -43.5t-45 -66t-16.5 -83.5t16.5 -83.5t45 -66t67.5 -43.5t84 -16zM286 247q-52 0 -97 18.5t-78 50.5t-52 76t-19 95t19 95t52 76t78 50.5t97 18.5t97 -18.5t78 -50.5t52 -76t19 -95t-19 -95t-52 -76t-78 -50.5t-97 -18.5z" />
    <glyph glyph-name="macron" unicode="&#xaf;" horiz-adv-x="500" 
d="M132 675h239v-34h-239v34z" />
    <glyph glyph-name="degree" unicode="&#xb0;" horiz-adv-x="379" 
d="M190 748q31 0 58 -11.5t47.5 -31t32 -46.5t11.5 -58t-11.5 -57.5t-32 -46t-47.5 -30.5t-58 -11q-32 0 -59.5 11t-47.5 30.5t-31.5 46t-11.5 57.5t11.5 58t31.5 46.5t47.5 31t59.5 11.5zM190 490q49 0 81 31t32 80t-32 81t-81 32t-81.5 -32t-32.5 -81t32.5 -80t81.5 -31z
" />
    <glyph glyph-name="plusminus" unicode="&#xb1;" horiz-adv-x="586" 
d="M313 362h188v-37h-188v-192h-39v192h-188v37h188v191h39v-191zM501 38v-37h-415v37h415z" />
    <glyph glyph-name="acute" unicode="&#xb4;" horiz-adv-x="500" 
d="M292 731h51l-141 -139h-42z" />
    <glyph glyph-name="mu" unicode="&#xb5;" horiz-adv-x="570" 
d="M289 -12q-67 0 -108.5 21.5t-59.5 59.5v-301h-37v743h37v-302q0 -185 167 -185q161 0 161 182v305h37v-511h-31l-7 78q-9 -17 -24 -33t-35 -29t-45 -20.5t-55 -7.5z" />
    <glyph glyph-name="paragraph" unicode="&#xb6;" horiz-adv-x="674" 
d="M382 -187h-39v482h-78q-61 0 -102 18.5t-66 47t-36 62.5t-11 66v34q0 35 12 69t36.5 61t62 43.5t87.5 16.5h330v-900h-39v867h-157v-867z" />
    <glyph glyph-name="periodcentered" unicode="&#xb7;" horiz-adv-x="266" 
d="M133 400q16 0 25.5 -9t9.5 -29t-9.5 -29t-25.5 -9t-25.5 9t-9.5 29t9.5 29t25.5 9z" />
    <glyph glyph-name="cedilla" unicode="&#xb8;" horiz-adv-x="500" 
d="M243 0l-15 -53q42 -9 65 -26.5t23 -51.5q0 -37 -26 -58t-70 -21q-23 0 -41 5.5t-29 13.5l10 28q11 -5 25.5 -10t35.5 -5q58 0 58 44q0 27 -23.5 38t-66.5 16l23 80h31z" />
    <glyph glyph-name="ordmasculine" unicode="&#xba;" horiz-adv-x="390" 
d="M43 584q0 70 38 113.5t116 43.5q77 0 113.5 -43t36.5 -113v-38q0 -71 -38 -116t-115 -45q-78 0 -114.5 43t-36.5 114v41zM79 548q0 -64 28 -96.5t88 -32.5q116 0 116 129v32q0 63 -27.5 95.5t-87.5 32.5t-88.5 -32.5t-28.5 -95.5v-32z" />
    <glyph glyph-name="guillemotright" unicode="&#xbb;" horiz-adv-x="510" 
d="M257 246l-197 -184v45l160 152l-160 152v46l197 -184v-27zM470 246l-197 -184v45l160 152l-160 152v46l197 -184v-27z" />
    <glyph glyph-name="onequarter" unicode="&#xbc;" horiz-adv-x="956" 
d="M691 683h44l-430 -683h-44zM868 93h-43v-93h-37v93h-192v28l174 271h42l-172 -265h148v123l37 8v-131h50zM102 291l6 35h106v319l-121 -39l6 35l121 42h31v-357h103l-7 -35h-245z" />
    <glyph glyph-name="onehalf" unicode="&#xbd;" horiz-adv-x="956" 
d="M671 683h44l-430 -683h-44zM650 35h210l-7 -35h-241v60q0 48 19 84t74 56l52 19q20 7 32.5 15t19 17t9 20.5t2.5 25.5q0 38 -26 53t-68 15q-33 0 -60 -6t-56 -17l6 37q19 7 47 14t62 7q63 0 98.5 -23.5t35.5 -75.5v-6q0 -43 -20 -67t-67 -41l-55 -20q-38 -14 -52.5 -38.5
t-14.5 -60.5v-33zM102 291l6 35h106v319l-121 -39l6 35l121 42h31v-357h103l-7 -35h-245z" />
    <glyph glyph-name="threequarters" unicode="&#xbe;" horiz-adv-x="956" 
d="M692 683h44l-430 -683h-44zM868 93h-43v-93h-37v93h-192v28l174 271h42l-172 -265h148v123l37 8v-131h50zM146 514h76q23 0 37.5 5.5t23 15.5t11.5 22t3 26q0 39 -26 56t-70 17q-31 0 -60 -7t-51 -15l6 36q16 6 45 13.5t59 7.5q63 0 99 -26.5t36 -78.5v-5q0 -32 -15 -53
t-39 -32q24 -9 41 -33.5t17 -60.5v-6q0 -57 -40 -85t-108 -28q-31 0 -64.5 7.5t-52.5 17.5l10 31q49 -20 108 -20q50 0 79.5 17.5t29.5 62.5q0 15 -4 29.5t-13 26t-24 18t-38 6.5h-82z" />
    <glyph glyph-name="questiondown" unicode="&#xbf;" horiz-adv-x="486" 
d="M280 -172q51 0 95.5 9.5t77.5 22.5l-8 -39q-26 -11 -70 -21t-96 -10q-100 0 -160.5 44.5t-60.5 127.5v9q0 71 26.5 107.5t73.5 55.5l31 13q30 13 48 25.5t27.5 29t12.5 39.5t4 56l2 49h29q1 -11 1.5 -23.5t0.5 -28.5q0 -33 -3.5 -59.5t-14.5 -47.5t-31.5 -38t-53.5 -31
l-35 -15q-25 -10 -40 -23t-23.5 -29.5t-11 -37.5t-2.5 -46q0 -38 14 -64.5t38 -43t57 -24t72 -7.5zM297 440q-16 0 -25.5 9t-9.5 29t9.5 29t25.5 9t25.5 -9t9.5 -29t-9.5 -29t-25.5 -9z" />
    <glyph glyph-name="Agrave" unicode="&#xc0;" horiz-adv-x="615" 
d="M469 229h-327l-83 -229h-39l261 712h52l262 -712h-42zM156 267h299l-150 409zM354 773h-51l-160 120h61z" />
    <glyph glyph-name="Aacute" unicode="&#xc1;" horiz-adv-x="615" 
d="M469 229h-327l-83 -229h-39l261 712h52l262 -712h-42zM156 267h299l-150 409zM407 893h61l-160 -120h-51z" />
    <glyph glyph-name="Acircumflex" unicode="&#xc2;" horiz-adv-x="615" 
d="M469 229h-327l-83 -229h-39l261 712h52l262 -712h-42zM156 267h299l-150 409zM285 893h38l132 -120h-44l-107 90l-108 -90h-43z" />
    <glyph glyph-name="Atilde" unicode="&#xc3;" horiz-adv-x="615" 
d="M469 229h-327l-83 -229h-39l261 712h52l262 -712h-42zM156 267h299l-150 409zM271 824q-14 8 -27 13.5t-25 5.5q-17 0 -28 -15t-11 -55h-34q0 49 18 75.5t55 26.5q31 0 73 -24l47 -26q17 -9 31 -15t25 -6q18 0 27.5 15.5t9.5 53.5h34q0 -32 -7 -52t-17.5 -31t-23.5 -15
t-25 -4q-14 0 -29 5t-41 19z" />
    <glyph glyph-name="Adieresis" unicode="&#xc4;" horiz-adv-x="615" 
d="M469 229h-327l-83 -229h-39l261 712h52l262 -712h-42zM156 267h299l-150 409zM231 863q14 0 24 -8.5t10 -28.5t-10 -28.5t-24 -8.5t-24 8.5t-10 28.5t10 28.5t24 8.5zM380 863q14 0 24 -8.5t10 -28.5t-10 -28.5t-24 -8.5t-24 8.5t-10 28.5t10 28.5t24 8.5z" />
    <glyph glyph-name="Aring" unicode="&#xc5;" horiz-adv-x="615" 
d="M403 780q0 -31 -17 -55t-45 -34l254 -691h-42l-84 229h-327l-83 -229h-39l253 690q-29 10 -46.5 34.5t-17.5 55.5q0 19 7.5 36.5t20.5 30.5t30.5 20.5t38.5 7.5t38.5 -7.5t30.5 -20.5t20.5 -30.5t7.5 -36.5zM156 267h299l-150 409zM368 780q0 28 -17 46.5t-45 18.5
t-45 -18.5t-17 -46.5t17 -46.5t45 -18.5t45 18.5t17 46.5z" />
    <glyph glyph-name="AE" unicode="&#xc6;" horiz-adv-x="924" 
d="M199 229l-135 -229h-44l423 712h435l-8 -37h-364v-285h337l-8 -37h-329v-316h372l-8 -37h-403v229h-268zM221 267h246v408h-5z" />
    <glyph glyph-name="Ccedilla" unicode="&#xc7;" horiz-adv-x="530" 
d="M365 684q-71 0 -118.5 -12.5t-76.5 -45.5t-41 -90t-12 -145v-76q0 -85 12.5 -140.5t42 -88t78 -45.5t120.5 -13q13 0 30 1.5t34.5 3.5t33 4.5t24.5 4.5l-8 -36q-20 -5 -51.5 -10.5t-60.5 -5.5q-14 0 -27 0.5t-25 1.5l-12 -43q42 -7 69.5 -24.5t27.5 -52.5
q0 -39 -27 -60.5t-75 -21.5q-26 0 -44.5 5.5t-29.5 13.5l10 28q11 -5 26 -10t38 -5q35 0 50 12.5t15 36.5q0 22 -21.5 34t-77.5 17l20 73q-72 9 -114.5 35t-64.5 67.5t-28 96.5t-6 121v80q0 81 12 142t44.5 102.5t89 62t145.5 20.5q37 0 72.5 -7.5t56.5 -15.5l-10 -34
q-10 3 -24 6.5t-30 6t-33.5 4.5t-33.5 2z" />
    <glyph glyph-name="Egrave" unicode="&#xc8;" horiz-adv-x="553" 
d="M507 712l-8 -37h-364v-285h337l-8 -37h-329v-316h372l-8 -37h-403v712h411zM370 773h-51l-160 120h61z" />
    <glyph glyph-name="Eacute" unicode="&#xc9;" horiz-adv-x="553" 
d="M507 712l-8 -37h-364v-285h337l-8 -37h-329v-316h372l-8 -37h-403v712h411zM375 893h61l-160 -120h-51z" />
    <glyph glyph-name="Ecircumflex" unicode="&#xca;" horiz-adv-x="553" 
d="M507 712l-8 -37h-364v-285h337l-8 -37h-329v-316h372l-8 -37h-403v712h411zM281 893h38l132 -120h-44l-107 90l-108 -90h-43z" />
    <glyph glyph-name="Edieresis" unicode="&#xcb;" horiz-adv-x="553" 
d="M507 712l-8 -37h-364v-285h337l-8 -37h-329v-316h372l-8 -37h-403v712h411zM220 863q14 0 24 -8.5t10 -28.5t-10 -28.5t-24 -8.5t-24 8.5t-10 28.5t10 28.5t24 8.5zM369 863q14 0 24 -8.5t10 -28.5t-10 -28.5t-24 -8.5t-24 8.5t-10 28.5t10 28.5t24 8.5z" />
    <glyph glyph-name="Igrave" unicode="&#xcc;" horiz-adv-x="231" 
d="M135 712v-712h-39v712h39zM150 773h-51l-160 120h61z" />
    <glyph glyph-name="Iacute" unicode="&#xcd;" horiz-adv-x="231" 
d="M135 712v-712h-39v712h39zM231 893h61l-160 -120h-51z" />
    <glyph glyph-name="Icircumflex" unicode="&#xce;" horiz-adv-x="231" 
d="M135 712v-712h-39v712h39zM97 893h38l132 -120h-44l-107 90l-108 -90h-43z" />
    <glyph glyph-name="Idieresis" unicode="&#xcf;" horiz-adv-x="231" 
d="M135 712v-712h-39v712h39zM42 863q14 0 24 -8.5t10 -28.5t-10 -28.5t-24 -8.5t-24 8.5t-10 28.5t10 28.5t24 8.5zM191 863q14 0 24 -8.5t10 -28.5t-10 -28.5t-24 -8.5t-24 8.5t-10 28.5t10 28.5t24 8.5z" />
    <glyph glyph-name="Eth" unicode="&#xd0;" horiz-adv-x="702" 
d="M35 370h95v342h212q85 0 140 -23.5t87 -65t44.5 -97.5t12.5 -122v-95q0 -69 -14 -125.5t-47 -97.5t-88 -63.5t-137 -22.5h-210v336h-95v34zM169 370h220v-34h-220v-299h170q59 0 105 12.5t77.5 43.5t47.5 84.5t16 134.5v88q0 77 -15 129.5t-45 85t-76 46.5t-107 14h-173
v-305z" />
    <glyph glyph-name="Ntilde" unicode="&#xd1;" horiz-adv-x="671" 
d="M139 712l399 -651v651h37v-712h-43l-399 649v-649h-37v712h43zM299 824q-14 8 -27 13.5t-25 5.5q-17 0 -28 -15t-11 -55h-34q0 49 18 75.5t55 26.5q31 0 73 -24l47 -26q17 -9 31 -15t25 -6q18 0 27.5 15.5t9.5 53.5h34q0 -32 -7 -52t-17.5 -31t-23.5 -15t-25 -4
q-14 0 -29 5t-41 19z" />
    <glyph glyph-name="Ograve" unicode="&#xd2;" horiz-adv-x="673" 
d="M335 23q58 0 99.5 13.5t68.5 46.5t39.5 89t12.5 141v86q0 87 -12.5 143t-39.5 89t-68.5 45.5t-99.5 12.5q-55 0 -96 -12t-68 -44.5t-40.5 -89t-13.5 -144.5v-86q0 -85 12.5 -141t38.5 -89t67.5 -46.5t99.5 -13.5zM335 727q77 0 127.5 -21t80.5 -62t42 -101.5t12 -139.5
v-94q0 -76 -12.5 -136t-42.5 -102t-80.5 -64t-126.5 -22q-77 0 -127.5 20.5t-79.5 61.5t-40.5 101.5t-11.5 140.5v94q0 73 11.5 133t40.5 102.5t79.5 65.5t127.5 23zM419 773h-51l-160 120h61z" />
    <glyph glyph-name="Oacute" unicode="&#xd3;" horiz-adv-x="673" 
d="M335 23q58 0 99.5 13.5t68.5 46.5t39.5 89t12.5 141v86q0 87 -12.5 143t-39.5 89t-68.5 45.5t-99.5 12.5q-55 0 -96 -12t-68 -44.5t-40.5 -89t-13.5 -144.5v-86q0 -85 12.5 -141t38.5 -89t67.5 -46.5t99.5 -13.5zM335 727q77 0 127.5 -21t80.5 -62t42 -101.5t12 -139.5
v-94q0 -76 -12.5 -136t-42.5 -102t-80.5 -64t-126.5 -22q-77 0 -127.5 20.5t-79.5 61.5t-40.5 101.5t-11.5 140.5v94q0 73 11.5 133t40.5 102.5t79.5 65.5t127.5 23zM415 893h61l-160 -120h-51z" />
    <glyph glyph-name="Ocircumflex" unicode="&#xd4;" horiz-adv-x="673" 
d="M335 23q58 0 99.5 13.5t68.5 46.5t39.5 89t12.5 141v86q0 87 -12.5 143t-39.5 89t-68.5 45.5t-99.5 12.5q-55 0 -96 -12t-68 -44.5t-40.5 -89t-13.5 -144.5v-86q0 -85 12.5 -141t38.5 -89t67.5 -46.5t99.5 -13.5zM335 727q77 0 127.5 -21t80.5 -62t42 -101.5t12 -139.5
v-94q0 -76 -12.5 -136t-42.5 -102t-80.5 -64t-126.5 -22q-77 0 -127.5 20.5t-79.5 61.5t-40.5 101.5t-11.5 140.5v94q0 73 11.5 133t40.5 102.5t79.5 65.5t127.5 23zM317 893h38l132 -120h-44l-107 90l-108 -90h-43z" />
    <glyph glyph-name="Otilde" unicode="&#xd5;" horiz-adv-x="673" 
d="M335 23q58 0 99.5 13.5t68.5 46.5t39.5 89t12.5 141v86q0 87 -12.5 143t-39.5 89t-68.5 45.5t-99.5 12.5q-55 0 -96 -12t-68 -44.5t-40.5 -89t-13.5 -144.5v-86q0 -85 12.5 -141t38.5 -89t67.5 -46.5t99.5 -13.5zM335 727q77 0 127.5 -21t80.5 -62t42 -101.5t12 -139.5
v-94q0 -76 -12.5 -136t-42.5 -102t-80.5 -64t-126.5 -22q-77 0 -127.5 20.5t-79.5 61.5t-40.5 101.5t-11.5 140.5v94q0 73 11.5 133t40.5 102.5t79.5 65.5t127.5 23zM301 824q-14 8 -27 13.5t-25 5.5q-17 0 -28 -15t-11 -55h-34q0 49 18 75.5t55 26.5q31 0 73 -24l47 -26
q17 -9 31 -15t25 -6q18 0 27.5 15.5t9.5 53.5h34q0 -32 -7 -52t-17.5 -31t-23.5 -15t-25 -4q-14 0 -29 5t-41 19z" />
    <glyph glyph-name="Odieresis" unicode="&#xd6;" horiz-adv-x="673" 
d="M335 23q58 0 99.5 13.5t68.5 46.5t39.5 89t12.5 141v86q0 87 -12.5 143t-39.5 89t-68.5 45.5t-99.5 12.5q-55 0 -96 -12t-68 -44.5t-40.5 -89t-13.5 -144.5v-86q0 -85 12.5 -141t38.5 -89t67.5 -46.5t99.5 -13.5zM335 727q77 0 127.5 -21t80.5 -62t42 -101.5t12 -139.5
v-94q0 -76 -12.5 -136t-42.5 -102t-80.5 -64t-126.5 -22q-77 0 -127.5 20.5t-79.5 61.5t-40.5 101.5t-11.5 140.5v94q0 73 11.5 133t40.5 102.5t79.5 65.5t127.5 23zM262 863q14 0 24 -8.5t10 -28.5t-10 -28.5t-24 -8.5t-24 8.5t-10 28.5t10 28.5t24 8.5zM411 863
q14 0 24 -8.5t10 -28.5t-10 -28.5t-24 -8.5t-24 8.5t-10 28.5t10 28.5t24 8.5z" />
    <glyph glyph-name="multiply" unicode="&#xd7;" horiz-adv-x="586" 
d="M293 369l147 148l27 -26l-148 -149l149 -148l-27 -26l-148 148l-147 -147l-27 26l147 147l-148 149l27 26z" />
    <glyph glyph-name="Oslash" unicode="&#xd8;" horiz-adv-x="673" 
d="M335 727q66 0 111.5 -15.5t76.5 -44.5l56 84l30 -19l-62 -93q28 -42 39 -100.5t11 -135.5v-94q0 -76 -12.5 -136t-42.5 -102t-80.5 -64t-126.5 -22q-128 0 -187 58l-55 -83l-29 21l61 91q-28 41 -38.5 100t-10.5 137v94q0 73 11.5 133t40.5 102.5t79.5 65.5t127.5 23z
M335 689q-55 0 -96 -12t-68 -44.5t-40.5 -89t-13.5 -144.5v-86q0 -70 8 -119.5t25 -83.5l350 524q-26 31 -67 43t-98 12zM335 23q58 0 99.5 13.5t68.5 46.5t39.5 89t12.5 141v86q0 70 -8 119.5t-25 82.5l-350 -523q26 -30 66 -42.5t97 -12.5z" />
    <glyph glyph-name="Ugrave" unicode="&#xd9;" horiz-adv-x="668" 
d="M333 -15q-71 0 -118.5 18.5t-76 55t-40.5 91t-12 126.5v436h39v-438q0 -73 12 -121t37 -77t64 -41t93 -12q61 0 101.5 11t65 39t35 76.5t10.5 123.5v439h39v-437q0 -70 -10.5 -124t-38 -91t-76 -56t-124.5 -19zM409 773h-51l-160 120h61z" />
    <glyph glyph-name="Uacute" unicode="&#xda;" horiz-adv-x="668" 
d="M333 -15q-71 0 -118.5 18.5t-76 55t-40.5 91t-12 126.5v436h39v-438q0 -73 12 -121t37 -77t64 -41t93 -12q61 0 101.5 11t65 39t35 76.5t10.5 123.5v439h39v-437q0 -70 -10.5 -124t-38 -91t-76 -56t-124.5 -19zM407 893h61l-160 -120h-51z" />
    <glyph glyph-name="Ucircumflex" unicode="&#xdb;" horiz-adv-x="668" 
d="M333 -15q-71 0 -118.5 18.5t-76 55t-40.5 91t-12 126.5v436h39v-438q0 -73 12 -121t37 -77t64 -41t93 -12q61 0 101.5 11t65 39t35 76.5t10.5 123.5v439h39v-437q0 -70 -10.5 -124t-38 -91t-76 -56t-124.5 -19zM315 893h38l132 -120h-44l-107 90l-108 -90h-43z" />
    <glyph glyph-name="Udieresis" unicode="&#xdc;" horiz-adv-x="668" 
d="M333 -15q-71 0 -118.5 18.5t-76 55t-40.5 91t-12 126.5v436h39v-438q0 -73 12 -121t37 -77t64 -41t93 -12q61 0 101.5 11t65 39t35 76.5t10.5 123.5v439h39v-437q0 -70 -10.5 -124t-38 -91t-76 -56t-124.5 -19zM260 863q14 0 24 -8.5t10 -28.5t-10 -28.5t-24 -8.5
t-24 8.5t-10 28.5t10 28.5t24 8.5zM409 863q14 0 24 -8.5t10 -28.5t-10 -28.5t-24 -8.5t-24 8.5t-10 28.5t10 28.5t24 8.5z" />
    <glyph glyph-name="Yacute" unicode="&#xdd;" horiz-adv-x="568" 
d="M282 333l225 379h43l-249 -411v-301h-39v300l-244 412h43zM376 893h61l-160 -120h-51z" />
    <glyph glyph-name="Thorn" unicode="&#xde;" horiz-adv-x="587" 
d="M135 155v-155h-39v712h39v-141h206q51 0 88 -14.5t61 -40.5t35.5 -62t11.5 -78v-26q0 -36 -10 -71t-34 -62.5t-65 -44.5t-102 -17h-191zM135 192h189q88 0 130 36.5t42 121.5v19q0 82 -37.5 123.5t-123.5 41.5h-200v-342z" />
    <glyph glyph-name="germandbls" unicode="&#xdf;" horiz-adv-x="569" 
d="M241 39q8 -2 19 -4t23 -3t23.5 -1.5t20.5 -0.5q43 0 72 13t47 35.5t25.5 53.5t7.5 67v10q0 83 -38.5 128t-129.5 45h-62l7 34h61q69 0 102 41t33 107v8q0 31 -7.5 57t-25.5 45t-47.5 29.5t-73.5 10.5q-51 0 -85 -14t-54.5 -40t-29 -62.5t-8.5 -81.5v-516h-37v512
q0 51 10.5 94.5t35.5 75.5t66.5 50t103.5 18q59 0 96 -16t58 -41.5t28.5 -57t7.5 -62.5v-7q0 -56 -21.5 -99.5t-77.5 -64.5q66 -17 96.5 -68t30.5 -118v-27q0 -34 -9 -68.5t-30.5 -62.5t-58.5 -46t-94 -18q-25 0 -50 3t-42 8z" />
    <glyph glyph-name="agrave" unicode="&#xe0;" horiz-adv-x="524" 
d="M87 147q0 -30 7.5 -52.5t24.5 -37.5t46 -23t72 -8q49 0 82 11t53 30t28.5 42.5t8.5 49.5v10q0 49 -35 80.5t-119 31.5h-22q-45 0 -73.5 -9t-44.5 -25.5t-22 -39.5t-6 -51v-9zM48 158q0 80 47.5 119t137.5 39q67 0 108 -12.5t67 -47.5v70q0 86 -44 123.5t-131 37.5
q-40 0 -77.5 -6t-61.5 -12l7 33q28 8 62 14.5t67 6.5q103 0 158.5 -44.5t55.5 -141.5v-337h-31l-6 64q-27 -42 -70 -58t-117 -16q-38 0 -70 8.5t-54.5 26.5t-35 46.5t-12.5 69.5v17zM325 592h-42l-141 139h51z" />
    <glyph glyph-name="aacute" unicode="&#xe1;" horiz-adv-x="524" 
d="M87 147q0 -30 7.5 -52.5t24.5 -37.5t46 -23t72 -8q49 0 82 11t53 30t28.5 42.5t8.5 49.5v10q0 49 -35 80.5t-119 31.5h-22q-45 0 -73.5 -9t-44.5 -25.5t-22 -39.5t-6 -51v-9zM48 158q0 80 47.5 119t137.5 39q67 0 108 -12.5t67 -47.5v70q0 86 -44 123.5t-131 37.5
q-40 0 -77.5 -6t-61.5 -12l7 33q28 8 62 14.5t67 6.5q103 0 158.5 -44.5t55.5 -141.5v-337h-31l-6 64q-27 -42 -70 -58t-117 -16q-38 0 -70 8.5t-54.5 26.5t-35 46.5t-12.5 69.5v17zM323 731h51l-141 -139h-42z" />
    <glyph glyph-name="acircumflex" unicode="&#xe2;" horiz-adv-x="524" 
d="M87 147q0 -30 7.5 -52.5t24.5 -37.5t46 -23t72 -8q49 0 82 11t53 30t28.5 42.5t8.5 49.5v10q0 49 -35 80.5t-119 31.5h-22q-45 0 -73.5 -9t-44.5 -25.5t-22 -39.5t-6 -51v-9zM48 158q0 80 47.5 119t137.5 39q67 0 108 -12.5t67 -47.5v70q0 86 -44 123.5t-131 37.5
q-40 0 -77.5 -6t-61.5 -12l7 33q28 8 62 14.5t67 6.5q103 0 158.5 -44.5t55.5 -141.5v-337h-31l-6 64q-27 -42 -70 -58t-117 -16q-38 0 -70 8.5t-54.5 26.5t-35 46.5t-12.5 69.5v17zM273 731l132 -139h-38l-112 108l-112 -108h-38l132 139h36z" />
    <glyph glyph-name="atilde" unicode="&#xe3;" horiz-adv-x="524" 
d="M87 147q0 -30 7.5 -52.5t24.5 -37.5t46 -23t72 -8q49 0 82 11t53 30t28.5 42.5t8.5 49.5v10q0 49 -35 80.5t-119 31.5h-22q-45 0 -73.5 -9t-44.5 -25.5t-22 -39.5t-6 -51v-9zM48 158q0 80 47.5 119t137.5 39q67 0 108 -12.5t67 -47.5v70q0 86 -44 123.5t-131 37.5
q-40 0 -77.5 -6t-61.5 -12l7 33q28 8 62 14.5t67 6.5q103 0 158.5 -44.5t55.5 -141.5v-337h-31l-6 64q-27 -42 -70 -58t-117 -16q-38 0 -70 8.5t-54.5 26.5t-35 46.5t-12.5 69.5v17zM222 661q-11 6 -21.5 10.5t-20.5 4.5q-39 0 -39 -61h-28q0 27 6 45.5t15.5 29t21.5 15
t25 4.5q17 0 32 -6t26 -13l45 -27q36 -22 58 -22q37 0 37 62h28q0 -30 -6.5 -48t-16.5 -28.5t-22 -14t-24 -3.5q-13 0 -28.5 5t-41.5 20z" />
    <glyph glyph-name="adieresis" unicode="&#xe4;" horiz-adv-x="524" 
d="M87 147q0 -30 7.5 -52.5t24.5 -37.5t46 -23t72 -8q49 0 82 11t53 30t28.5 42.5t8.5 49.5v10q0 49 -35 80.5t-119 31.5h-22q-45 0 -73.5 -9t-44.5 -25.5t-22 -39.5t-6 -51v-9zM48 158q0 80 47.5 119t137.5 39q67 0 108 -12.5t67 -47.5v70q0 86 -44 123.5t-131 37.5
q-40 0 -77.5 -6t-61.5 -12l7 33q28 8 62 14.5t67 6.5q103 0 158.5 -44.5t55.5 -141.5v-337h-31l-6 64q-27 -42 -70 -58t-117 -16q-38 0 -70 8.5t-54.5 26.5t-35 46.5t-12.5 69.5v17zM192 697q15 0 24.5 -8t9.5 -28t-9.5 -28t-24.5 -8t-24.5 8t-9.5 28t9.5 28t24.5 8z
M334 697q15 0 24.5 -8t9.5 -28t-9.5 -28t-24.5 -8t-24.5 8t-9.5 28t9.5 28t24.5 8z" />
    <glyph glyph-name="aring" unicode="&#xe5;" horiz-adv-x="524" 
d="M87 147q0 -30 7.5 -52.5t24.5 -37.5t46 -23t72 -8q49 0 82 11t53 30t28.5 42.5t8.5 49.5v10q0 49 -35 80.5t-119 31.5h-22q-45 0 -73.5 -9t-44.5 -25.5t-22 -39.5t-6 -51v-9zM48 158q0 80 47.5 119t137.5 39q67 0 108 -12.5t67 -47.5v70q0 86 -44 123.5t-131 37.5
q-40 0 -77.5 -6t-61.5 -12l7 33q28 8 62 14.5t67 6.5q103 0 158.5 -44.5t55.5 -141.5v-337h-31l-6 64q-27 -42 -70 -58t-117 -16q-38 0 -70 8.5t-54.5 26.5t-35 46.5t-12.5 69.5v17zM356 687q0 -20 -7.5 -37t-20 -30t-30 -20.5t-38.5 -7.5t-38.5 7.5t-30 20.5t-20 30
t-7.5 37q0 19 7.5 36.5t20 30.5t30 20.5t38.5 7.5q42 0 69 -26.5t27 -68.5zM323 687q0 30 -17.5 48t-45.5 18t-45.5 -18t-17.5 -48t17.5 -48t45.5 -18t45.5 18t17.5 48z" />
    <glyph glyph-name="ae" unicode="&#xe6;" horiz-adv-x="866" 
d="M446 242q0 -59 8.5 -100t32 -67.5t64 -38.5t104.5 -12q33 0 65.5 5t52.5 10l-6 -33q-22 -8 -56 -13t-63 -5q-93 1 -143 27t-73 74q-15 -31 -37 -50.5t-49.5 -30t-59.5 -14.5t-66 -4q-38 0 -70 8.5t-54.5 26.5t-35 46.5t-12.5 69.5v17q0 80 47.5 119t137.5 39
q67 0 108 -12.5t67 -47.5v70q0 86 -44 123.5t-131 37.5q-40 0 -77.5 -6t-61.5 -12l7 33q28 8 62 14.5t67 6.5q78 0 129.5 -25.5t71.5 -79.5q22 51 66 78t119 27q53 0 89.5 -16.5t59 -44t32 -62.5t9.5 -71v-37q0 -33 -6.5 -41.5t-31.5 -8.5h-322zM87 147q0 -30 7.5 -52.5
t24.5 -37.5t46 -23t72 -8q49 0 82 11t53 30t28.5 42.5t8.5 49.5v10q0 49 -35 80.5t-119 31.5h-22q-45 0 -73.5 -9t-44.5 -25.5t-22 -39.5t-6 -51v-9zM611 487q-42 0 -73.5 -10.5t-51.5 -35.5t-30 -65t-10 -100h322v42q0 39 -8 70.5t-26.5 53.5t-48.5 33.5t-74 11.5z" />
    <glyph glyph-name="ccedilla" unicode="&#xe7;" horiz-adv-x="461" 
d="M403 8q-20 -7 -51 -12.5t-56 -5.5q-11 0 -20.5 0.5t-18.5 1.5l-12 -45q38 -8 63 -25t25 -53q0 -37 -26 -58t-70 -21q-23 0 -41 5.5t-29 13.5l10 28q11 -5 25.5 -10t35.5 -5q58 0 58 44q0 27 -21.5 38t-68.5 16l21 76q-47 7 -77.5 26.5t-49.5 48.5t-26.5 68t-7.5 87v58
q0 56 12 100t39.5 74.5t73 46.5t112.5 16q26 0 54.5 -5t48.5 -13l-10 -32q-20 7 -47 10.5t-47 3.5q-54 0 -91.5 -10t-61 -34t-34 -64.5t-10.5 -100.5v-41q0 -57 9.5 -97t32.5 -64.5t61 -36t95 -11.5q29 0 56 5t50 10z" />
    <glyph glyph-name="egrave" unicode="&#xe8;" horiz-adv-x="524" 
d="M104 242q0 -59 8.5 -100t32 -67.5t64 -38.5t104.5 -12q33 0 65.5 5t52.5 10l-6 -33q-22 -8 -56 -13t-63 -5q-74 0 -120.5 16.5t-73 47t-36.5 74.5t-10 99v56q0 54 10.5 98.5t35 76.5t64 49.5t98.5 17.5q53 0 89.5 -16.5t59 -44t32 -62.5t9.5 -71v-37q0 -33 -6.5 -41.5
t-31.5 -8.5h-322zM269 488q-42 0 -73.5 -11t-51.5 -35.5t-30 -65t-10 -100.5h322v42q0 40 -8 71.5t-26.5 53.5t-48.5 33.5t-74 11.5zM346 592h-42l-141 139h51z" />
    <glyph glyph-name="eacute" unicode="&#xe9;" horiz-adv-x="524" 
d="M104 242q0 -59 8.5 -100t32 -67.5t64 -38.5t104.5 -12q33 0 65.5 5t52.5 10l-6 -33q-22 -8 -56 -13t-63 -5q-74 0 -120.5 16.5t-73 47t-36.5 74.5t-10 99v56q0 54 10.5 98.5t35 76.5t64 49.5t98.5 17.5q53 0 89.5 -16.5t59 -44t32 -62.5t9.5 -71v-37q0 -33 -6.5 -41.5
t-31.5 -8.5h-322zM269 488q-42 0 -73.5 -11t-51.5 -35.5t-30 -65t-10 -100.5h322v42q0 40 -8 71.5t-26.5 53.5t-48.5 33.5t-74 11.5zM344 731h51l-141 -139h-42z" />
    <glyph glyph-name="ecircumflex" unicode="&#xea;" horiz-adv-x="524" 
d="M104 242q0 -59 8.5 -100t32 -67.5t64 -38.5t104.5 -12q33 0 65.5 5t52.5 10l-6 -33q-22 -8 -56 -13t-63 -5q-74 0 -120.5 16.5t-73 47t-36.5 74.5t-10 99v56q0 54 10.5 98.5t35 76.5t64 49.5t98.5 17.5q53 0 89.5 -16.5t59 -44t32 -62.5t9.5 -71v-37q0 -33 -6.5 -41.5
t-31.5 -8.5h-322zM269 488q-42 0 -73.5 -11t-51.5 -35.5t-30 -65t-10 -100.5h322v42q0 40 -8 71.5t-26.5 53.5t-48.5 33.5t-74 11.5zM296 731l132 -139h-38l-112 108l-112 -108h-38l132 139h36z" />
    <glyph glyph-name="edieresis" unicode="&#xeb;" horiz-adv-x="524" 
d="M104 242q0 -59 8.5 -100t32 -67.5t64 -38.5t104.5 -12q33 0 65.5 5t52.5 10l-6 -33q-22 -8 -56 -13t-63 -5q-74 0 -120.5 16.5t-73 47t-36.5 74.5t-10 99v56q0 54 10.5 98.5t35 76.5t64 49.5t98.5 17.5q53 0 89.5 -16.5t59 -44t32 -62.5t9.5 -71v-37q0 -33 -6.5 -41.5
t-31.5 -8.5h-322zM269 488q-42 0 -73.5 -11t-51.5 -35.5t-30 -65t-10 -100.5h322v42q0 40 -8 71.5t-26.5 53.5t-48.5 33.5t-74 11.5zM200 697q15 0 24.5 -8t9.5 -28t-9.5 -28t-24.5 -8t-24.5 8t-9.5 28t9.5 28t24.5 8zM342 697q15 0 24.5 -8t9.5 -28t-9.5 -28t-24.5 -8
t-24.5 8t-9.5 28t9.5 28t24.5 8z" />
    <glyph glyph-name="igrave" unicode="&#xec;" horiz-adv-x="205" 
d="M84 511h37v-511h-37v511zM141 592h-42l-141 139h51z" />
    <glyph glyph-name="iacute" unicode="&#xed;" horiz-adv-x="205" 
d="M84 511h37v-511h-37v511zM191 731h51l-141 -139h-42z" />
    <glyph glyph-name="icircumflex" unicode="&#xee;" horiz-adv-x="205" 
d="M84 511h37v-511h-37v511zM120 731l132 -139h-38l-112 108l-112 -108h-38l132 139h36z" />
    <glyph glyph-name="idieresis" unicode="&#xef;" horiz-adv-x="205" 
d="M84 511h37v-511h-37v511zM32 697q15 0 24.5 -8t9.5 -28t-9.5 -28t-24.5 -8t-24.5 8t-9.5 28t9.5 28t24.5 8zM174 697q15 0 24.5 -8t9.5 -28t-9.5 -28t-24.5 -8t-24.5 8t-9.5 28t9.5 28t24.5 8z" />
    <glyph glyph-name="eth" unicode="&#xf0;" horiz-adv-x="573" 
d="M221 615l137 37q-17 22 -37 41l-39 40l22 24q25 -23 47 -46t42 -49l127 34l9 -32l-115 -31q40 -61 62 -142t22 -200q0 -84 -14.5 -142t-42 -93.5t-68.5 -51.5t-95 -16q-58 0 -98 17t-65.5 47.5t-37 73.5t-11.5 94v40q0 56 15 102.5t43 79.5t69 51t93 18q56 0 99 -24
t69 -64q-10 64 -29 112.5t-46 87.5l-150 -40zM279 24q100 0 141 65.5t41 191.5q0 55 -15.5 92t-40.5 60t-56.5 33t-62.5 10q-92 0 -136.5 -59t-44.5 -156v-37q0 -97 41.5 -148.5t132.5 -51.5z" />
    <glyph glyph-name="ntilde" unicode="&#xf1;" horiz-adv-x="570" 
d="M84 0v511h31l7 -77q9 17 24.5 33t38 28.5t53.5 20t71 7.5q91 0 137 -47t46 -134v-342h-37v312q0 46 -8 79t-26 54.5t-47.5 31.5t-73.5 10q-94 0 -136.5 -45t-42.5 -135v-307h-37zM259 661q-11 6 -21.5 10.5t-20.5 4.5q-39 0 -39 -61h-28q0 27 6 45.5t15.5 29t21.5 15
t25 4.5q17 0 32 -6t26 -13l45 -27q36 -22 58 -22q37 0 37 62h28q0 -30 -6.5 -48t-16.5 -28.5t-22 -14t-24 -3.5q-13 0 -28.5 5t-41.5 20z" />
    <glyph glyph-name="ograve" unicode="&#xf2;" horiz-adv-x="567" 
d="M284 24q52 0 86.5 12.5t54.5 38.5t28.5 66t8.5 95v40q0 55 -8.5 94.5t-28.5 65.5t-54.5 38.5t-86.5 12.5q-53 0 -87.5 -12.5t-54.5 -38.5t-28.5 -66t-8.5 -94v-40q0 -55 8.5 -95t28.5 -66t54.5 -38.5t87.5 -12.5zM284 523q64 0 105.5 -16.5t66.5 -48t35 -76t10 -99.5v-54
q0 -56 -11.5 -100.5t-37 -76t-67 -48t-101.5 -16.5q-64 0 -106 16.5t-67 48t-35 76t-10 100.5v54q0 55 11.5 99.5t37.5 76t67.5 48t101.5 16.5zM358 592h-42l-141 139h51z" />
    <glyph glyph-name="oacute" unicode="&#xf3;" horiz-adv-x="567" 
d="M284 24q52 0 86.5 12.5t54.5 38.5t28.5 66t8.5 95v40q0 55 -8.5 94.5t-28.5 65.5t-54.5 38.5t-86.5 12.5q-53 0 -87.5 -12.5t-54.5 -38.5t-28.5 -66t-8.5 -94v-40q0 -55 8.5 -95t28.5 -66t54.5 -38.5t87.5 -12.5zM284 523q64 0 105.5 -16.5t66.5 -48t35 -76t10 -99.5v-54
q0 -56 -11.5 -100.5t-37 -76t-67 -48t-101.5 -16.5q-64 0 -106 16.5t-67 48t-35 76t-10 100.5v54q0 55 11.5 99.5t37.5 76t67.5 48t101.5 16.5zM360 731h51l-141 -139h-42z" />
    <glyph glyph-name="ocircumflex" unicode="&#xf4;" horiz-adv-x="567" 
d="M284 24q52 0 86.5 12.5t54.5 38.5t28.5 66t8.5 95v40q0 55 -8.5 94.5t-28.5 65.5t-54.5 38.5t-86.5 12.5q-53 0 -87.5 -12.5t-54.5 -38.5t-28.5 -66t-8.5 -94v-40q0 -55 8.5 -95t28.5 -66t54.5 -38.5t87.5 -12.5zM284 523q64 0 105.5 -16.5t66.5 -48t35 -76t10 -99.5v-54
q0 -56 -11.5 -100.5t-37 -76t-67 -48t-101.5 -16.5q-64 0 -106 16.5t-67 48t-35 76t-10 100.5v54q0 55 11.5 99.5t37.5 76t67.5 48t101.5 16.5zM301 731l132 -139h-38l-112 108l-112 -108h-38l132 139h36z" />
    <glyph glyph-name="otilde" unicode="&#xf5;" horiz-adv-x="567" 
d="M284 24q52 0 86.5 12.5t54.5 38.5t28.5 66t8.5 95v40q0 55 -8.5 94.5t-28.5 65.5t-54.5 38.5t-86.5 12.5q-53 0 -87.5 -12.5t-54.5 -38.5t-28.5 -66t-8.5 -94v-40q0 -55 8.5 -95t28.5 -66t54.5 -38.5t87.5 -12.5zM284 523q64 0 105.5 -16.5t66.5 -48t35 -76t10 -99.5v-54
q0 -56 -11.5 -100.5t-37 -76t-67 -48t-101.5 -16.5q-64 0 -106 16.5t-67 48t-35 76t-10 100.5v54q0 55 11.5 99.5t37.5 76t67.5 48t101.5 16.5zM245 661q-11 6 -21.5 10.5t-20.5 4.5q-39 0 -39 -61h-28q0 27 6 45.5t15.5 29t21.5 15t25 4.5q17 0 32 -6t26 -13l45 -27
q36 -22 58 -22q37 0 37 62h28q0 -30 -6.5 -48t-16.5 -28.5t-22 -14t-24 -3.5q-13 0 -28.5 5t-41.5 20z" />
    <glyph glyph-name="odieresis" unicode="&#xf6;" horiz-adv-x="567" 
d="M284 24q52 0 86.5 12.5t54.5 38.5t28.5 66t8.5 95v40q0 55 -8.5 94.5t-28.5 65.5t-54.5 38.5t-86.5 12.5q-53 0 -87.5 -12.5t-54.5 -38.5t-28.5 -66t-8.5 -94v-40q0 -55 8.5 -95t28.5 -66t54.5 -38.5t87.5 -12.5zM284 523q64 0 105.5 -16.5t66.5 -48t35 -76t10 -99.5v-54
q0 -56 -11.5 -100.5t-37 -76t-67 -48t-101.5 -16.5q-64 0 -106 16.5t-67 48t-35 76t-10 100.5v54q0 55 11.5 99.5t37.5 76t67.5 48t101.5 16.5zM213 697q15 0 24.5 -8t9.5 -28t-9.5 -28t-24.5 -8t-24.5 8t-9.5 28t9.5 28t24.5 8zM355 697q15 0 24.5 -8t9.5 -28t-9.5 -28
t-24.5 -8t-24.5 8t-9.5 28t9.5 28t24.5 8z" />
    <glyph glyph-name="divide" unicode="&#xf7;" horiz-adv-x="586" 
d="M501 363v-37h-415v37h415zM296 226q16 0 25.5 -9t9.5 -29t-9.5 -29t-25.5 -9t-25.5 9t-9.5 29t9.5 29t25.5 9zM296 537q16 0 25.5 -9t9.5 -29t-9.5 -29t-25.5 -9t-25.5 9t-9.5 29t9.5 29t25.5 9z" />
    <glyph glyph-name="oslash" unicode="&#xf8;" horiz-adv-x="567" 
d="M284 523q43 0 75.5 -8t56.5 -22l51 77l29 -19l-52 -80q32 -31 44.5 -78.5t12.5 -109.5v-54q0 -56 -11.5 -100.5t-37 -76t-67 -48t-101.5 -16.5q-45 0 -78 8t-58 23l-49 -75l-28 19l50 78q-31 31 -43 78.5t-12 109.5v54q0 55 11.5 99.5t37.5 76t67.5 48t101.5 16.5z
M284 24q52 0 86.5 12.5t54.5 38.5t28.5 66t8.5 95v40q0 57 -9 97t-30 66l-254 -389q39 -26 115 -26zM105 236q0 -56 8.5 -96t29.5 -66l253 388q-40 25 -112 25q-53 0 -87.5 -12.5t-54.5 -38.5t-28.5 -66t-8.5 -94v-40z" />
    <glyph glyph-name="ugrave" unicode="&#xf9;" horiz-adv-x="564" 
d="M480 511v-511h-31l-7 78q-9 -17 -24.5 -33t-38 -29t-52.5 -20.5t-69 -7.5q-88 0 -134 47.5t-46 134.5v341h37v-311q0 -46 7.5 -79t25.5 -54.5t47 -32t72 -10.5q91 0 133.5 45.5t42.5 135.5v306h37zM342 592h-42l-141 139h51z" />
    <glyph glyph-name="uacute" unicode="&#xfa;" horiz-adv-x="564" 
d="M480 511v-511h-31l-7 78q-9 -17 -24.5 -33t-38 -29t-52.5 -20.5t-69 -7.5q-88 0 -134 47.5t-46 134.5v341h37v-311q0 -46 7.5 -79t25.5 -54.5t47 -32t72 -10.5q91 0 133.5 45.5t42.5 135.5v306h37zM341 731h51l-141 -139h-42z" />
    <glyph glyph-name="ucircumflex" unicode="&#xfb;" horiz-adv-x="564" 
d="M480 511v-511h-31l-7 78q-9 -17 -24.5 -33t-38 -29t-52.5 -20.5t-69 -7.5q-88 0 -134 47.5t-46 134.5v341h37v-311q0 -46 7.5 -79t25.5 -54.5t47 -32t72 -10.5q91 0 133.5 45.5t42.5 135.5v306h37zM297 731l132 -139h-38l-112 108l-112 -108h-38l132 139h36z" />
    <glyph glyph-name="udieresis" unicode="&#xfc;" horiz-adv-x="564" 
d="M480 511v-511h-31l-7 78q-9 -17 -24.5 -33t-38 -29t-52.5 -20.5t-69 -7.5q-88 0 -134 47.5t-46 134.5v341h37v-311q0 -46 7.5 -79t25.5 -54.5t47 -32t72 -10.5q91 0 133.5 45.5t42.5 135.5v306h37zM204 697q15 0 24.5 -8t9.5 -28t-9.5 -28t-24.5 -8t-24.5 8t-9.5 28
t9.5 28t24.5 8zM346 697q15 0 24.5 -8t9.5 -28t-9.5 -28t-24.5 -8t-24.5 8t-9.5 28t9.5 28t24.5 8z" />
    <glyph glyph-name="yacute" unicode="&#xfd;" horiz-adv-x="503" 
d="M442 511h41l-231 -586q-19 -48 -35 -79t-33.5 -50t-39 -26.5t-49.5 -7.5q-19 0 -37.5 3t-33.5 10l7 30q27 -8 57 -8q26 0 43.5 5.5t31.5 20.5t26.5 42.5t29.5 71.5l24 63l-223 511h43l199 -475zM322 731h51l-141 -139h-42z" />
    <glyph glyph-name="thorn" unicode="&#xfe;" horiz-adv-x="568" 
d="M463 263q0 50 -6.5 91t-24.5 70.5t-50.5 46t-84.5 16.5q-51 0 -84.5 -13t-54 -37t-29 -59t-8.5 -79v-232q18 -10 35.5 -17.5t36 -13t40.5 -8t50 -2.5q52 0 87 13.5t55.5 41t29 68.5t8.5 95v19zM502 228q0 -63 -15.5 -108.5t-43.5 -74t-67.5 -42t-87.5 -13.5q-30 0 -53 3
t-42 8t-36.5 12.5t-35.5 16.5v-262h-37v975h37v-310q10 16 24 32.5t36 29t52.5 20.5t73.5 8t79 -13t62 -42.5t40 -76t14 -112.5v-51z" />
    <glyph glyph-name="ydieresis" unicode="&#xff;" horiz-adv-x="503" 
d="M442 511h41l-231 -586q-19 -48 -35 -79t-33.5 -50t-39 -26.5t-49.5 -7.5q-19 0 -37.5 3t-33.5 10l7 30q27 -8 57 -8q26 0 43.5 5.5t31.5 20.5t26.5 42.5t29.5 71.5l24 63l-223 511h43l199 -475zM177 697q15 0 24.5 -8t9.5 -28t-9.5 -28t-24.5 -8t-24.5 8t-9.5 28t9.5 28
t24.5 8zM319 697q15 0 24.5 -8t9.5 -28t-9.5 -28t-24.5 -8t-24.5 8t-9.5 28t9.5 28t24.5 8z" />
    <glyph glyph-name="Amacron" unicode="&#x100;" horiz-adv-x="615" 
d="M469 229h-327l-83 -229h-39l261 712h52l262 -712h-42zM156 267h299l-150 409zM187 843h239v-37h-239v37z" />
    <glyph glyph-name="amacron" unicode="&#x101;" horiz-adv-x="524" 
d="M87 147q0 -30 7.5 -52.5t24.5 -37.5t46 -23t72 -8q49 0 82 11t53 30t28.5 42.5t8.5 49.5v10q0 49 -35 80.5t-119 31.5h-22q-45 0 -73.5 -9t-44.5 -25.5t-22 -39.5t-6 -51v-9zM48 158q0 80 47.5 119t137.5 39q67 0 108 -12.5t67 -47.5v70q0 86 -44 123.5t-131 37.5
q-40 0 -77.5 -6t-61.5 -12l7 33q28 8 62 14.5t67 6.5q103 0 158.5 -44.5t55.5 -141.5v-337h-31l-6 64q-27 -42 -70 -58t-117 -16q-38 0 -70 8.5t-54.5 26.5t-35 46.5t-12.5 69.5v17zM132 675h239v-34h-239v34z" />
    <glyph glyph-name="Abreve" unicode="&#x102;" horiz-adv-x="615" 
d="M469 229h-327l-83 -229h-39l261 712h52l262 -712h-42zM156 267h299l-150 409zM306 767q-121 0 -121 132h33q0 -47 20 -73.5t68 -26.5t68 26.5t20 73.5h33q0 -132 -121 -132z" />
    <glyph glyph-name="abreve" unicode="&#x103;" horiz-adv-x="524" 
d="M87 147q0 -30 7.5 -52.5t24.5 -37.5t46 -23t72 -8q49 0 82 11t53 30t28.5 42.5t8.5 49.5v10q0 49 -35 80.5t-119 31.5h-22q-45 0 -73.5 -9t-44.5 -25.5t-22 -39.5t-6 -51v-9zM48 158q0 80 47.5 119t137.5 39q67 0 108 -12.5t67 -47.5v70q0 86 -44 123.5t-131 37.5
q-40 0 -77.5 -6t-61.5 -12l7 33q28 8 62 14.5t67 6.5q103 0 158.5 -44.5t55.5 -141.5v-337h-31l-6 64q-27 -42 -70 -58t-117 -16q-38 0 -70 8.5t-54.5 26.5t-35 46.5t-12.5 69.5v17zM256 590q-60 0 -90.5 31.5t-30.5 100.5h32q0 -47 21 -74t68 -27t68 27t21 74h32
q0 -65 -29.5 -98.5t-91.5 -33.5z" />
    <glyph glyph-name="Aogonek" unicode="&#x104;" horiz-adv-x="615" 
d="M537 -174q-32 0 -52.5 16t-20.5 45q0 34 21.5 62.5t65.5 55.5l-82 224h-327l-83 -229h-39l261 712h52l262 -712q-29 -17 -47 -32t-28.5 -28t-14 -24t-3.5 -19q0 -15 10.5 -26t34.5 -11q18 0 45 8l-5 -32q-8 -5 -23 -7.5t-27 -2.5zM156 267h299l-150 409z" />
    <glyph glyph-name="aogonek" unicode="&#x105;" horiz-adv-x="524" 
d="M388 -182q-35 0 -55.5 16.5t-20.5 49.5q0 39 27 69t73 58l-5 53q-29 -46 -74.5 -60t-112.5 -14q-38 0 -70 8.5t-54.5 26.5t-35 46.5t-12.5 69.5v17q0 80 47.5 119t137.5 39q67 0 108 -12.5t67 -47.5v70q0 86 -44 123.5t-131 37.5q-40 0 -77.5 -6t-61.5 -12l7 33
q28 8 62 14.5t67 6.5q103 0 158.5 -44.5t55.5 -141.5v-337q-38 -24 -66.5 -49.5t-28.5 -57.5q0 -22 11 -32.5t37 -10.5q18 0 45 8l-5 -30q-8 -5 -22.5 -7.5t-26.5 -2.5zM87 147q0 -30 7.5 -52.5t24.5 -37.5t46 -23t72 -8q49 0 82 11t53 30t28.5 42.5t8.5 49.5v10
q0 49 -35 80.5t-119 31.5h-22q-45 0 -73.5 -9t-44.5 -25.5t-22 -39.5t-6 -51v-9z" />
    <glyph glyph-name="Cacute" unicode="&#x106;" horiz-adv-x="530" 
d="M365 684q-71 0 -118.5 -12.5t-76.5 -45.5t-41 -90t-12 -145v-76q0 -85 12.5 -140.5t42 -88t78 -45.5t120.5 -13q13 0 30 1.5t34.5 3.5t33 4.5t24.5 4.5l-8 -36q-20 -5 -51.5 -10.5t-60.5 -5.5q-101 0 -160 23t-89 65t-38.5 102t-8.5 135v80q0 81 12 142t44.5 102.5t89 62
t145.5 20.5q37 0 72.5 -7.5t56.5 -15.5l-10 -34q-10 3 -24 6.5t-30 6t-33.5 4.5t-33.5 2zM415 893h61l-160 -120h-51z" />
    <glyph glyph-name="cacute" unicode="&#x107;" horiz-adv-x="461" 
d="M403 8q-20 -7 -51 -12.5t-56 -5.5q-67 0 -111.5 16t-70.5 46.5t-37 74t-11 99.5v58q0 56 12 100t39.5 74.5t73 46.5t112.5 16q26 0 54.5 -5t48.5 -13l-10 -32q-20 7 -47 10.5t-47 3.5q-54 0 -91.5 -10t-61 -34t-34 -64.5t-10.5 -100.5v-41q0 -57 9.5 -97t32.5 -64.5
t61 -36t95 -11.5q29 0 56 5t50 10zM349 731h51l-141 -139h-42z" />
    <glyph glyph-name="Ccircumflex" unicode="&#x108;" horiz-adv-x="530" 
d="M365 684q-71 0 -118.5 -12.5t-76.5 -45.5t-41 -90t-12 -145v-76q0 -85 12.5 -140.5t42 -88t78 -45.5t120.5 -13q13 0 30 1.5t34.5 3.5t33 4.5t24.5 4.5l-8 -36q-20 -5 -51.5 -10.5t-60.5 -5.5q-101 0 -160 23t-89 65t-38.5 102t-8.5 135v80q0 81 12 142t44.5 102.5t89 62
t145.5 20.5q37 0 72.5 -7.5t56.5 -15.5l-10 -34q-10 3 -24 6.5t-30 6t-33.5 4.5t-33.5 2zM305 893h38l132 -120h-44l-107 90l-108 -90h-43z" />
    <glyph glyph-name="ccircumflex" unicode="&#x109;" horiz-adv-x="461" 
d="M403 8q-20 -7 -51 -12.5t-56 -5.5q-67 0 -111.5 16t-70.5 46.5t-37 74t-11 99.5v58q0 56 12 100t39.5 74.5t73 46.5t112.5 16q26 0 54.5 -5t48.5 -13l-10 -32q-20 7 -47 10.5t-47 3.5q-54 0 -91.5 -10t-61 -34t-34 -64.5t-10.5 -100.5v-41q0 -57 9.5 -97t32.5 -64.5
t61 -36t95 -11.5q29 0 56 5t50 10zM285 731l132 -139h-38l-112 108l-112 -108h-38l132 139h36z" />
    <glyph glyph-name="Cdotaccent" unicode="&#x10a;" horiz-adv-x="530" 
d="M365 684q-71 0 -118.5 -12.5t-76.5 -45.5t-41 -90t-12 -145v-76q0 -85 12.5 -140.5t42 -88t78 -45.5t120.5 -13q13 0 30 1.5t34.5 3.5t33 4.5t24.5 4.5l-8 -36q-20 -5 -51.5 -10.5t-60.5 -5.5q-101 0 -160 23t-89 65t-38.5 102t-8.5 135v80q0 81 12 142t44.5 102.5t89 62
t145.5 20.5q37 0 72.5 -7.5t56.5 -15.5l-10 -34q-10 3 -24 6.5t-30 6t-33.5 4.5t-33.5 2zM333 863q14 0 24 -8.5t10 -28.5t-10 -28.5t-24 -8.5t-24 8.5t-10 28.5t10 28.5t24 8.5z" />
    <glyph glyph-name="cdotaccent" unicode="&#x10b;" horiz-adv-x="461" 
d="M403 8q-20 -7 -51 -12.5t-56 -5.5q-67 0 -111.5 16t-70.5 46.5t-37 74t-11 99.5v58q0 56 12 100t39.5 74.5t73 46.5t112.5 16q26 0 54.5 -5t48.5 -13l-10 -32q-20 7 -47 10.5t-47 3.5q-54 0 -91.5 -10t-61 -34t-34 -64.5t-10.5 -100.5v-41q0 -57 9.5 -97t32.5 -64.5
t61 -36t95 -11.5q29 0 56 5t50 10zM270 697q15 0 24.5 -8t9.5 -28t-9.5 -28t-24.5 -8t-24.5 8t-9.5 28t9.5 28t24.5 8z" />
    <glyph glyph-name="Ccaron" unicode="&#x10c;" horiz-adv-x="530" 
d="M365 684q-71 0 -118.5 -12.5t-76.5 -45.5t-41 -90t-12 -145v-76q0 -85 12.5 -140.5t42 -88t78 -45.5t120.5 -13q13 0 30 1.5t34.5 3.5t33 4.5t24.5 4.5l-8 -36q-20 -5 -51.5 -10.5t-60.5 -5.5q-101 0 -160 23t-89 65t-38.5 102t-8.5 135v80q0 81 12 142t44.5 102.5t89 62
t145.5 20.5q37 0 72.5 -7.5t56.5 -15.5l-10 -34q-10 3 -24 6.5t-30 6t-33.5 4.5t-33.5 2zM362 773h-38l-132 120h44l107 -90l108 90h43z" />
    <glyph glyph-name="ccaron" unicode="&#x10d;" horiz-adv-x="461" 
d="M403 8q-20 -7 -51 -12.5t-56 -5.5q-67 0 -111.5 16t-70.5 46.5t-37 74t-11 99.5v58q0 56 12 100t39.5 74.5t73 46.5t112.5 16q26 0 54.5 -5t48.5 -13l-10 -32q-20 7 -47 10.5t-47 3.5q-54 0 -91.5 -10t-61 -34t-34 -64.5t-10.5 -100.5v-41q0 -57 9.5 -97t32.5 -64.5
t61 -36t95 -11.5q29 0 56 5t50 10zM255 592l-132 139h38l112 -108l112 108h38l-132 -139h-36z" />
    <glyph glyph-name="Dcaron" unicode="&#x10e;" horiz-adv-x="668" 
d="M96 712h212q85 0 140 -23.5t87 -65t44.5 -97.5t12.5 -122v-95q0 -69 -14 -125.5t-47 -97.5t-88 -63.5t-137 -22.5h-210v712zM135 37h170q59 0 105 12.5t77.5 43.5t47.5 84.5t16 134.5v88q0 77 -15 129.5t-45 85t-76 46.5t-107 14h-173v-638zM332 773h-38l-132 120h44
l107 -90l108 90h43z" />
    <glyph glyph-name="dcaron" unicode="&#x10f;" horiz-adv-x="624" 
d="M105 249q0 -51 6.5 -92.5t24.5 -71t50.5 -45.5t84.5 -16q51 0 84.5 13t54 37.5t29 59.5t8.5 80v232q-18 10 -35 17.5t-35.5 12.5t-40 8t-49.5 3q-53 0 -88 -13.5t-56 -41t-29.5 -68.5t-8.5 -96v-19zM66 285q0 63 15.5 108.5t44 74t68.5 42t88 13.5q30 0 52.5 -3t41.5 -8
t36 -12.5t35 -16.5v260h37v-743h-31l-7 73q-10 -16 -24 -31.5t-35.5 -27.5t-52 -19t-73.5 -7q-44 0 -79.5 13t-61.5 42t-40 75.5t-14 113.5v53zM614 743l-17 -155h-31l8 155h40z" />
    <glyph glyph-name="Dcroat" unicode="&#x110;" horiz-adv-x="702" 
d="M35 370h95v342h212q85 0 140 -23.5t87 -65t44.5 -97.5t12.5 -122v-95q0 -69 -14 -125.5t-47 -97.5t-88 -63.5t-137 -22.5h-210v336h-95v34zM169 370h220v-34h-220v-299h170q59 0 105 12.5t77.5 43.5t47.5 84.5t16 134.5v88q0 77 -15 129.5t-45 85t-76 46.5t-107 14h-173
v-305z" />
    <glyph glyph-name="dcroat" unicode="&#x111;" horiz-adv-x="568" 
d="M291 650h156v93h37v-93h75v-34h-75v-616h-31l-7 73q-10 -16 -24 -31.5t-35.5 -27.5t-52 -19t-73.5 -7q-44 0 -79.5 13t-61.5 42t-40 75.5t-14 113.5v53q0 63 15.5 108.5t44 74t68.5 42t88 13.5q30 0 52.5 -3t41.5 -8t36 -12.5t35 -16.5v133h-156v34zM105 249
q0 -51 6.5 -92.5t24.5 -71t50.5 -45.5t84.5 -16q51 0 84.5 13t54 37.5t29 59.5t8.5 80v232q-18 10 -35 17.5t-35.5 12.5t-40 8t-49.5 3q-53 0 -88 -13.5t-56 -41t-29.5 -68.5t-8.5 -96v-19z" />
    <glyph glyph-name="Emacron" unicode="&#x112;" horiz-adv-x="553" 
d="M507 712l-8 -37h-364v-285h337l-8 -37h-329v-316h372l-8 -37h-403v712h411zM179 843h239v-37h-239v37z" />
    <glyph glyph-name="emacron" unicode="&#x113;" horiz-adv-x="524" 
d="M104 242q0 -59 8.5 -100t32 -67.5t64 -38.5t104.5 -12q33 0 65.5 5t52.5 10l-6 -33q-22 -8 -56 -13t-63 -5q-74 0 -120.5 16.5t-73 47t-36.5 74.5t-10 99v56q0 54 10.5 98.5t35 76.5t64 49.5t98.5 17.5q53 0 89.5 -16.5t59 -44t32 -62.5t9.5 -71v-37q0 -33 -6.5 -41.5
t-31.5 -8.5h-322zM269 488q-42 0 -73.5 -11t-51.5 -35.5t-30 -65t-10 -100.5h322v42q0 40 -8 71.5t-26.5 53.5t-48.5 33.5t-74 11.5zM159 675h239v-34h-239v34z" />
    <glyph glyph-name="Ebreve" unicode="&#x114;" horiz-adv-x="553" 
d="M507 712l-8 -37h-364v-285h337l-8 -37h-329v-316h372l-8 -37h-403v712h411zM301 767q-121 0 -121 132h33q0 -47 20 -73.5t68 -26.5t68 26.5t20 73.5h33q0 -132 -121 -132z" />
    <glyph glyph-name="ebreve" unicode="&#x115;" horiz-adv-x="524" 
d="M104 242q0 -59 8.5 -100t32 -67.5t64 -38.5t104.5 -12q33 0 65.5 5t52.5 10l-6 -33q-22 -8 -56 -13t-63 -5q-74 0 -120.5 16.5t-73 47t-36.5 74.5t-10 99v56q0 54 10.5 98.5t35 76.5t64 49.5t98.5 17.5q53 0 89.5 -16.5t59 -44t32 -62.5t9.5 -71v-37q0 -33 -6.5 -41.5
t-31.5 -8.5h-322zM269 488q-42 0 -73.5 -11t-51.5 -35.5t-30 -65t-10 -100.5h322v42q0 40 -8 71.5t-26.5 53.5t-48.5 33.5t-74 11.5zM272 590q-60 0 -90.5 31.5t-30.5 100.5h32q0 -47 21 -74t68 -27t68 27t21 74h32q0 -65 -29.5 -98.5t-91.5 -33.5z" />
    <glyph glyph-name="Edotaccent" unicode="&#x116;" horiz-adv-x="553" 
d="M507 712l-8 -37h-364v-285h337l-8 -37h-329v-316h372l-8 -37h-403v712h411zM312 863q14 0 24 -8.5t10 -28.5t-10 -28.5t-24 -8.5t-24 8.5t-10 28.5t10 28.5t24 8.5z" />
    <glyph glyph-name="edotaccent" unicode="&#x117;" horiz-adv-x="524" 
d="M104 242q0 -59 8.5 -100t32 -67.5t64 -38.5t104.5 -12q33 0 65.5 5t52.5 10l-6 -33q-22 -8 -56 -13t-63 -5q-74 0 -120.5 16.5t-73 47t-36.5 74.5t-10 99v56q0 54 10.5 98.5t35 76.5t64 49.5t98.5 17.5q53 0 89.5 -16.5t59 -44t32 -62.5t9.5 -71v-37q0 -33 -6.5 -41.5
t-31.5 -8.5h-322zM269 488q-42 0 -73.5 -11t-51.5 -35.5t-30 -65t-10 -100.5h322v42q0 40 -8 71.5t-26.5 53.5t-48.5 33.5t-74 11.5zM270 697q15 0 24.5 -8t9.5 -28t-9.5 -28t-24.5 -8t-24.5 8t-9.5 28t9.5 28t24.5 8z" />
    <glyph glyph-name="Eogonek" unicode="&#x118;" horiz-adv-x="553" 
d="M442 -174q-32 0 -52.5 16t-20.5 45q0 62 79 113h-352v712h411l-8 -37h-364v-285h337l-8 -37h-329v-316h372l-8 -37q-29 -17 -47 -32t-28 -28t-13.5 -24t-3.5 -19q0 -15 10.5 -26t34.5 -11q18 0 45 8l-5 -32q-8 -5 -23 -7.5t-27 -2.5z" />
    <glyph glyph-name="eogonek" unicode="&#x119;" horiz-adv-x="524" 
d="M348 -182q-35 0 -55.5 16.5t-20.5 49.5q0 32 17.5 57.5t48.5 48.5q-6 -1 -15 -1.5t-17 -0.5q-74 0 -120.5 16.5t-73 47t-36.5 74.5t-10 99v56q0 54 10.5 98.5t35 76.5t64 49.5t98.5 17.5q53 0 89.5 -16.5t59 -44t32 -62.5t9.5 -71v-37q0 -33 -6.5 -41.5t-31.5 -8.5h-322
q0 -59 8.5 -100t32 -67.5t64 -38.5t104.5 -12q33 0 65.5 5t52.5 10l-6 -33l-21 -6q-38 -24 -66.5 -49.5t-28.5 -57.5q0 -22 11 -32.5t37 -10.5q18 0 45 8l-5 -30q-8 -5 -22.5 -7.5t-26.5 -2.5zM269 488q-42 0 -73.5 -11t-51.5 -35.5t-30 -65t-10 -100.5h322v42q0 40 -8 71.5
t-26.5 53.5t-48.5 33.5t-74 11.5z" />
    <glyph glyph-name="Ecaron" unicode="&#x11a;" horiz-adv-x="553" 
d="M507 712l-8 -37h-364v-285h337l-8 -37h-329v-316h372l-8 -37h-403v712h411zM319 773h-38l-132 120h44l107 -90l108 90h43z" />
    <glyph glyph-name="ecaron" unicode="&#x11b;" horiz-adv-x="524" 
d="M104 242q0 -59 8.5 -100t32 -67.5t64 -38.5t104.5 -12q33 0 65.5 5t52.5 10l-6 -33q-22 -8 -56 -13t-63 -5q-74 0 -120.5 16.5t-73 47t-36.5 74.5t-10 99v56q0 54 10.5 98.5t35 76.5t64 49.5t98.5 17.5q53 0 89.5 -16.5t59 -44t32 -62.5t9.5 -71v-37q0 -33 -6.5 -41.5
t-31.5 -8.5h-322zM269 488q-42 0 -73.5 -11t-51.5 -35.5t-30 -65t-10 -100.5h322v42q0 40 -8 71.5t-26.5 53.5t-48.5 33.5t-74 11.5zM260 592l-132 139h38l112 -108l112 108h38l-132 -139h-36z" />
    <glyph glyph-name="Gcircumflex" unicode="&#x11c;" horiz-adv-x="614" 
d="M355 328l8 38h175v-351q-15 -6 -36.5 -10.5t-44 -7.5t-45 -5t-38.5 -2q-101 0 -160.5 23t-90 65.5t-39 102.5t-8.5 133v80q0 80 12.5 141.5t46.5 103t92 62.5t150 21q39 0 78 -7.5t62 -15.5l-10 -34q-25 8 -58.5 13.5t-73.5 5.5q-73 0 -122.5 -13.5t-79.5 -46.5t-43 -90
t-13 -144v-76q0 -84 13 -139t42.5 -88t78.5 -46t121 -13q32 0 66.5 3t61.5 11v286h-145zM321 893h38l132 -120h-44l-107 90l-108 -90h-43z" />
    <glyph glyph-name="gcircumflex" unicode="&#x11d;" horiz-adv-x="568" 
d="M105 257q0 -51 7 -92t26 -69.5t52 -43.5t86 -15q49 0 81.5 13t52.5 37.5t28.5 59.5t8.5 79v224q-32 18 -68.5 27.5t-84.5 9.5q-54 0 -90.5 -13t-58 -39.5t-31 -67t-9.5 -96.5v-14zM484 7q0 -55 -11.5 -100t-37.5 -77.5t-68.5 -50t-105.5 -17.5q-38 0 -84 7t-88 21l9 33
q42 -13 84.5 -18.5t78.5 -5.5q45 0 79.5 9.5t58 34t36 66.5t12.5 108v71q-8 -13 -21.5 -28.5t-34.5 -28.5t-51.5 -21.5t-72.5 -8.5q-45 0 -82 12t-63.5 40t-41 73.5t-14.5 112.5v48q0 63 16 107.5t45 73t70 42t91 13.5q54 0 103 -13.5t93 -38.5v-464zM313 731l132 -139h-38
l-112 108l-112 -108h-38l132 139h36z" />
    <glyph glyph-name="Gbreve" unicode="&#x11e;" horiz-adv-x="614" 
d="M355 328l8 38h175v-351q-15 -6 -36.5 -10.5t-44 -7.5t-45 -5t-38.5 -2q-101 0 -160.5 23t-90 65.5t-39 102.5t-8.5 133v80q0 80 12.5 141.5t46.5 103t92 62.5t150 21q39 0 78 -7.5t62 -15.5l-10 -34q-25 8 -58.5 13.5t-73.5 5.5q-73 0 -122.5 -13.5t-79.5 -46.5t-43 -90
t-13 -144v-76q0 -84 13 -139t42.5 -88t78.5 -46t121 -13q32 0 66.5 3t61.5 11v286h-145zM340 767q-121 0 -121 132h33q0 -47 20 -73.5t68 -26.5t68 26.5t20 73.5h33q0 -132 -121 -132z" />
    <glyph glyph-name="gbreve" unicode="&#x11f;" horiz-adv-x="568" 
d="M105 257q0 -51 7 -92t26 -69.5t52 -43.5t86 -15q49 0 81.5 13t52.5 37.5t28.5 59.5t8.5 79v224q-32 18 -68.5 27.5t-84.5 9.5q-54 0 -90.5 -13t-58 -39.5t-31 -67t-9.5 -96.5v-14zM484 7q0 -55 -11.5 -100t-37.5 -77.5t-68.5 -50t-105.5 -17.5q-38 0 -84 7t-88 21l9 33
q42 -13 84.5 -18.5t78.5 -5.5q45 0 79.5 9.5t58 34t36 66.5t12.5 108v71q-8 -13 -21.5 -28.5t-34.5 -28.5t-51.5 -21.5t-72.5 -8.5q-45 0 -82 12t-63.5 40t-41 73.5t-14.5 112.5v48q0 63 16 107.5t45 73t70 42t91 13.5q54 0 103 -13.5t93 -38.5v-464zM291 590
q-60 0 -90.5 31.5t-30.5 100.5h32q0 -47 21 -74t68 -27t68 27t21 74h32q0 -65 -29.5 -98.5t-91.5 -33.5z" />
    <glyph glyph-name="Gdotaccent" unicode="&#x120;" horiz-adv-x="614" 
d="M355 328l8 38h175v-351q-15 -6 -36.5 -10.5t-44 -7.5t-45 -5t-38.5 -2q-101 0 -160.5 23t-90 65.5t-39 102.5t-8.5 133v80q0 80 12.5 141.5t46.5 103t92 62.5t150 21q39 0 78 -7.5t62 -15.5l-10 -34q-25 8 -58.5 13.5t-73.5 5.5q-73 0 -122.5 -13.5t-79.5 -46.5t-43 -90
t-13 -144v-76q0 -84 13 -139t42.5 -88t78.5 -46t121 -13q32 0 66.5 3t61.5 11v286h-145zM346 863q14 0 24 -8.5t10 -28.5t-10 -28.5t-24 -8.5t-24 8.5t-10 28.5t10 28.5t24 8.5z" />
    <glyph glyph-name="gdotaccent" unicode="&#x121;" horiz-adv-x="568" 
d="M105 257q0 -51 7 -92t26 -69.5t52 -43.5t86 -15q49 0 81.5 13t52.5 37.5t28.5 59.5t8.5 79v224q-32 18 -68.5 27.5t-84.5 9.5q-54 0 -90.5 -13t-58 -39.5t-31 -67t-9.5 -96.5v-14zM484 7q0 -55 -11.5 -100t-37.5 -77.5t-68.5 -50t-105.5 -17.5q-38 0 -84 7t-88 21l9 33
q42 -13 84.5 -18.5t78.5 -5.5q45 0 79.5 9.5t58 34t36 66.5t12.5 108v71q-8 -13 -21.5 -28.5t-34.5 -28.5t-51.5 -21.5t-72.5 -8.5q-45 0 -82 12t-63.5 40t-41 73.5t-14.5 112.5v48q0 63 16 107.5t45 73t70 42t91 13.5q54 0 103 -13.5t93 -38.5v-464zM304 697q15 0 24.5 -8
t9.5 -28t-9.5 -28t-24.5 -8t-24.5 8t-9.5 28t9.5 28t24.5 8z" />
    <glyph glyph-name="Gcommaaccent" unicode="&#x122;" horiz-adv-x="614" 
d="M355 328l8 38h175v-351q-15 -6 -36.5 -10.5t-44 -7.5t-45 -5t-38.5 -2q-101 0 -160.5 23t-90 65.5t-39 102.5t-8.5 133v80q0 80 12.5 141.5t46.5 103t92 62.5t150 21q39 0 78 -7.5t62 -15.5l-10 -34q-25 8 -58.5 13.5t-73.5 5.5q-73 0 -122.5 -13.5t-79.5 -46.5t-43 -90
t-13 -144v-76q0 -84 13 -139t42.5 -88t78.5 -46t121 -13q32 0 66.5 3t61.5 11v286h-145zM292 -241l44 111q-25 7 -25 38q0 18 10.5 27t24.5 9q17 0 26.5 -9t9.5 -26q0 -13 -4 -25t-12 -28l-47 -97h-27z" />
    <glyph glyph-name="gcommaaccent" unicode="&#x123;" horiz-adv-x="568" 
d="M105 257q0 -51 7 -92t26 -69.5t52 -43.5t86 -15q49 0 81.5 13t52.5 37.5t28.5 59.5t8.5 79v224q-32 18 -68.5 27.5t-84.5 9.5q-54 0 -90.5 -13t-58 -39.5t-31 -67t-9.5 -96.5v-14zM484 7q0 -55 -11.5 -100t-37.5 -77.5t-68.5 -50t-105.5 -17.5q-38 0 -84 7t-88 21l9 33
q42 -13 84.5 -18.5t78.5 -5.5q45 0 79.5 9.5t58 34t36 66.5t12.5 108v71q-8 -13 -21.5 -28.5t-34.5 -28.5t-51.5 -21.5t-72.5 -8.5q-45 0 -82 12t-63.5 40t-41 73.5t-14.5 112.5v48q0 63 16 107.5t45 73t70 42t91 13.5q54 0 103 -13.5t93 -38.5v-464zM345 761l-42 -106
q25 -8 25 -36q0 -17 -10 -26t-24 -9q-34 0 -34 34q0 12 3.5 23.5t11.5 26.5l45 93h25z" />
    <glyph glyph-name="Hcircumflex" unicode="&#x124;" horiz-adv-x="671" 
d="M575 712v-712h-39v364h-401v-364h-39v712h39v-309h401v309h39zM311 893h38l132 -120h-44l-107 90l-108 -90h-43z" />
    <glyph glyph-name="hcircumflex" unicode="&#x125;" horiz-adv-x="570" 
d="M84 0v743h37v-311q9 17 24.5 33.5t38.5 29t54 20.5t71 8q91 0 137 -47t46 -134v-342h-37v312q0 46 -8 79t-26 54.5t-47.5 31.5t-73.5 10q-94 0 -136.5 -45t-42.5 -135v-307h-37zM231 918h38l132 -120h-43l-108 91l-109 -91h-42z" />
    <glyph glyph-name="Hbar" unicode="&#x126;" horiz-adv-x="691" 
d="M585 712v-131h96v-34h-96v-547h-39v364h-401v-364h-39v547h-96v34h96v131h39v-131h401v131h39zM546 403v144h-401v-144h401z" />
    <glyph glyph-name="hbar" unicode="&#x127;" horiz-adv-x="570" 
d="M9 650h75v93h37v-93h177v-34h-177v-184q9 17 24.5 33.5t38.5 29t54 20.5t71 8q91 0 137 -47t46 -134v-342h-37v312q0 46 -8 79t-26 54.5t-47.5 31.5t-73.5 10q-94 0 -136.5 -45t-42.5 -135v-307h-37v616h-75v34z" />
    <glyph glyph-name="Itilde" unicode="&#x128;" horiz-adv-x="231" 
d="M135 712v-712h-39v712h39zM87 824q-14 8 -27 13.5t-25 5.5q-17 0 -28 -15t-11 -55h-34q0 49 18 75.5t55 26.5q31 0 73 -24l47 -26q17 -9 31 -15t25 -6q18 0 27.5 15.5t9.5 53.5h34q0 -32 -7 -52t-17.5 -31t-23.5 -15t-25 -4q-14 0 -29 5t-41 19z" />
    <glyph glyph-name="itilde" unicode="&#x129;" horiz-adv-x="205" 
d="M84 511h37v-511h-37v511zM74 661q-11 6 -21.5 10.5t-20.5 4.5q-39 0 -39 -61h-28q0 27 6 45.5t15.5 29t21.5 15t25 4.5q17 0 32 -6t26 -13l45 -27q36 -22 58 -22q37 0 37 62h28q0 -30 -6.5 -48t-16.5 -28.5t-22 -14t-24 -3.5q-13 0 -28.5 5t-41.5 20z" />
    <glyph glyph-name="Imacron" unicode="&#x12a;" horiz-adv-x="231" 
d="M135 712v-712h-39v712h39zM-3 843h239v-37h-239v37z" />
    <glyph glyph-name="imacron" unicode="&#x12b;" horiz-adv-x="205" 
d="M84 511h37v-511h-37v511zM-17 675h239v-34h-239v34z" />
    <glyph glyph-name="Ibreve" unicode="&#x12c;" horiz-adv-x="231" 
d="M135 712v-712h-39v712h39zM114 767q-121 0 -121 132h33q0 -47 20 -73.5t68 -26.5t68 26.5t20 73.5h33q0 -132 -121 -132z" />
    <glyph glyph-name="ibreve" unicode="&#x12d;" horiz-adv-x="205" 
d="M84 511h37v-511h-37v511zM102 590q-60 0 -90.5 31.5t-30.5 100.5h32q0 -47 21 -74t68 -27t68 27t21 74h32q0 -65 -29.5 -98.5t-91.5 -33.5z" />
    <glyph glyph-name="Iogonek" unicode="&#x12e;" horiz-adv-x="231" 
d="M77 -174q-32 0 -52.5 16t-20.5 45q0 35 23 64.5t69 56.5v704h39v-712q-29 -17 -47 -32t-28.5 -28t-14 -24t-3.5 -19q0 -15 10.5 -26t34.5 -11q18 0 45 8l-5 -32q-8 -5 -23 -7.5t-27 -2.5z" />
    <glyph glyph-name="iogonek" unicode="&#x12f;" horiz-adv-x="205" 
d="M65 -182q-35 0 -55.5 16.5t-20.5 49.5q0 38 25.5 67.5t69.5 56.5v503h37v-511q-38 -24 -66.5 -49.5t-28.5 -57.5q0 -22 11 -32.5t37 -10.5q18 0 45 8l-5 -30q-8 -5 -22.5 -7.5t-26.5 -2.5zM102 697q15 0 24.5 -8t9.5 -28t-9.5 -28t-24.5 -8t-24.5 8t-9.5 28t9.5 28
t24.5 8z" />
    <glyph glyph-name="Idotaccent" unicode="&#x130;" horiz-adv-x="231" 
d="M135 712v-712h-39v712h39zM118 863q14 0 24 -8.5t10 -28.5t-10 -28.5t-24 -8.5t-24 8.5t-10 28.5t10 28.5t24 8.5z" />
    <glyph glyph-name="dotlessi" unicode="&#x131;" horiz-adv-x="205" 
d="M84 511h37v-511h-37v511z" />
    <glyph glyph-name="i.locl" horiz-adv-x="205" 
d="M84 511h37v-511h-37v511zM102 697q15 0 24.5 -8t9.5 -28t-9.5 -28t-24.5 -8t-24.5 8t-9.5 28t9.5 28t24.5 8z" />
    <glyph glyph-name="IJ" unicode="&#x132;" horiz-adv-x="652" 
d="M135 712v-712h-39v712h39zM358 -10q-31 0 -61 5.5t-46 10.5l8 36q18 -5 44 -9.5t48 -4.5q57 0 91.5 13.5t53 42.5t25 75t6.5 112v441h39v-462q0 -60 -9 -108t-32.5 -81.5t-64 -52t-102.5 -18.5z" />
    <glyph glyph-name="ij" unicode="&#x133;" horiz-adv-x="410" 
d="M84 511h37v-511h-37v511zM102 697q15 0 24.5 -8t9.5 -28t-9.5 -28t-24.5 -8t-24.5 8t-9.5 28t9.5 28t24.5 8zM326 511v-572q0 -51 -11 -85.5t-29.5 -54.5t-44 -28.5t-53.5 -8.5q-17 0 -37.5 3t-35.5 10l7 30q13 -4 29.5 -6t30.5 -2q61 0 84 34.5t23 111.5v568h37z
M307 697q15 0 24.5 -8t9.5 -28t-9.5 -28t-24.5 -8t-24.5 8t-9.5 28t9.5 28t24.5 8z" />
    <glyph glyph-name="Jcircumflex" unicode="&#x134;" horiz-adv-x="421" 
d="M127 -10q-31 0 -61 5.5t-46 10.5l8 36q18 -5 44 -9.5t48 -4.5q57 0 91.5 13.5t53 42.5t25 75t6.5 112v441h39v-462q0 -60 -9 -108t-32.5 -81.5t-64 -52t-102.5 -18.5zM292 893h38l132 -120h-44l-107 90l-108 -90h-43z" />
    <glyph glyph-name="jcircumflex" unicode="&#x135;" horiz-adv-x="205" 
d="M121 511v-572q0 -51 -11 -85.5t-29.5 -54.5t-44 -28.5t-53.5 -8.5q-17 0 -37.5 3t-35.5 10l7 30q13 -4 29.5 -6t30.5 -2q61 0 84 34.5t23 111.5v568h37zM121 731l132 -139h-38l-112 108l-112 -108h-38l132 139h36z" />
    <glyph glyph-name="Kcommaaccent" unicode="&#x136;" horiz-adv-x="563" 
d="M134 712v-324l341 324h48l-359 -341l379 -371h-52l-357 351v-351h-38v712h38zM237 -241l44 111q-25 7 -25 38q0 18 10.5 27t24.5 9q17 0 26.5 -9t9.5 -26q0 -13 -4 -25t-12 -28l-47 -97h-27z" />
    <glyph glyph-name="kcommaaccent" unicode="&#x137;" horiz-adv-x="458" 
d="M424 511l-268 -223l288 -288h-52l-271 271v-271h-37v743h37v-442l253 210h50zM189 -237l42 106q-25 8 -25 36q0 17 10 26t24 9q34 0 34 -34q0 -12 -3.5 -23.5t-11.5 -26.5l-45 -93h-25z" />
    <glyph glyph-name="kgreenlandic" unicode="&#x138;" horiz-adv-x="444" 
d="M122 0h-38v511h38v-238l249 238h46l-264 -253l277 -258h-48l-260 236v-236z" />
    <glyph glyph-name="Lacute" unicode="&#x139;" horiz-adv-x="506" 
d="M135 712v-675h351l-8 -37h-382v712h39zM236 893h61l-160 -120h-51z" />
    <glyph glyph-name="lacute" unicode="&#x13a;" horiz-adv-x="205" 
d="M84 743h37v-743h-37v743zM213 918h61l-160 -120h-51z" />
    <glyph glyph-name="Lcommaaccent" unicode="&#x13b;" horiz-adv-x="506" 
d="M135 712v-675h351l-8 -37h-382v712h39zM239 -241l44 111q-25 7 -25 38q0 18 10.5 27t24.5 9q17 0 26.5 -9t9.5 -26q0 -13 -4 -25t-12 -28l-47 -97h-27z" />
    <glyph glyph-name="lcommaaccent" unicode="&#x13c;" horiz-adv-x="205" 
d="M84 743h37v-743h-37v743zM42 -237l42 106q-25 8 -25 36q0 17 10 26t24 9q34 0 34 -34q0 -12 -3.5 -23.5t-11.5 -26.5l-45 -93h-25z" />
    <glyph glyph-name="Lcaron" unicode="&#x13d;" horiz-adv-x="506" 
d="M135 712v-675h351l-8 -37h-382v712h39zM266 743l-17 -155h-31l8 155h40z" />
    <glyph glyph-name="lcaron" unicode="&#x13e;" horiz-adv-x="261" 
d="M84 743h37v-743h-37v743zM252 743l-17 -155h-31l8 155h40z" />
    <glyph glyph-name="Ldot" unicode="&#x13f;" horiz-adv-x="506" 
d="M135 712v-675h351l-8 -37h-382v712h39zM369 420q16 0 25.5 -9t9.5 -29t-9.5 -29t-25.5 -9t-25.5 9t-9.5 29t9.5 29t25.5 9z" />
    <glyph glyph-name="ldot" unicode="&#x140;" horiz-adv-x="281" 
d="M84 743h37v-743h-37v743zM227 400q16 0 25.5 -9t9.5 -29t-9.5 -29t-25.5 -9t-25.5 9t-9.5 29t9.5 29t25.5 9z" />
    <glyph glyph-name="Lslash" unicode="&#x141;" horiz-adv-x="524" 
d="M153 712v-370l175 132v-39l-175 -132v-266h351l-8 -37h-382v274l-74 -56v39l74 56v399h39z" />
    <glyph glyph-name="lslash" unicode="&#x142;" horiz-adv-x="271" 
d="M26 268v41l91 75v359h37v-334l91 75v-41l-91 -75v-368h-37v343z" />
    <glyph glyph-name="Nacute" unicode="&#x143;" horiz-adv-x="671" 
d="M139 712l399 -651v651h37v-712h-43l-399 649v-649h-37v712h43zM424 893h61l-160 -120h-51z" />
    <glyph glyph-name="nacute" unicode="&#x144;" horiz-adv-x="570" 
d="M84 0v511h31l7 -77q9 17 24.5 33t38 28.5t53.5 20t71 7.5q91 0 137 -47t46 -134v-342h-37v312q0 46 -8 79t-26 54.5t-47.5 31.5t-73.5 10q-94 0 -136.5 -45t-42.5 -135v-307h-37zM345 731h51l-141 -139h-42z" />
    <glyph glyph-name="Ncommaaccent" unicode="&#x145;" horiz-adv-x="671" 
d="M139 712l399 -651v651h37v-712h-43l-399 649v-649h-37v712h43zM276 -241l44 111q-25 7 -25 38q0 18 10.5 27t24.5 9q17 0 26.5 -9t9.5 -26q0 -13 -4 -25t-12 -28l-47 -97h-27z" />
    <glyph glyph-name="ncommaaccent" unicode="&#x146;" horiz-adv-x="570" 
d="M84 0v511h31l7 -77q9 17 24.5 33t38 28.5t53.5 20t71 7.5q91 0 137 -47t46 -134v-342h-37v312q0 46 -8 79t-26 54.5t-47.5 31.5t-73.5 10q-94 0 -136.5 -45t-42.5 -135v-307h-37zM228 -237l42 106q-25 8 -25 36q0 17 10 26t24 9q34 0 34 -34q0 -12 -3.5 -23.5
t-11.5 -26.5l-45 -93h-25z" />
    <glyph glyph-name="Ncaron" unicode="&#x147;" horiz-adv-x="671" 
d="M139 712l399 -651v651h37v-712h-43l-399 649v-649h-37v712h43zM363 773h-38l-132 120h44l107 -90l108 90h43z" />
    <glyph glyph-name="ncaron" unicode="&#x148;" horiz-adv-x="570" 
d="M84 0v511h31l7 -77q9 17 24.5 33t38 28.5t53.5 20t71 7.5q91 0 137 -47t46 -134v-342h-37v312q0 46 -8 79t-26 54.5t-47.5 31.5t-73.5 10q-94 0 -136.5 -45t-42.5 -135v-307h-37zM273 592l-132 139h38l112 -108l112 108h38l-132 -139h-36z" />
    <glyph glyph-name="napostrophe" unicode="&#x149;" horiz-adv-x="622" 
d="M140 0v511h31l7 -77q9 17 24.5 33t38 28.5t53.5 20t71 7.5q91 0 137 -47t46 -134v-342h-37v312q0 46 -8 79t-26 54.5t-47.5 31.5t-73.5 10q-94 0 -136.5 -45t-42.5 -135v-307h-37zM6 495l49 121q-24 7 -24 36q0 17 10 26t24 9q16 0 25 -9.5t9 -25.5q0 -11 -3.5 -22.5
t-11.5 -26.5l-51 -108h-27z" />
    <glyph glyph-name="Eng" unicode="&#x14a;" horiz-adv-x="671" 
d="M133 649v-649h-37v712h43l399 -651v651h37v-688q0 -60 -9 -108.5t-32.5 -82.5t-64 -52.5t-102.5 -18.5q-31 0 -61 5.5t-46 10.5l8 36q18 -5 44 -9.5t48 -4.5q51 0 83.5 11t52 34.5t28.5 60.5t11 88z" />
    <glyph glyph-name="eng" unicode="&#x14b;" horiz-adv-x="570" 
d="M336 -200q26 0 48 7.5t37.5 24.5t24.5 45t9 69v364q0 46 -8 79.5t-26 55t-47.5 32t-73.5 10.5q-94 0 -136.5 -45.5t-42.5 -136.5v-305h-37v511h31l7 -78q9 17 24.5 33t38 29t53.5 20.5t71 7.5q91 0 137 -47.5t46 -135.5v-394q0 -90 -42 -137t-113 -47q-26 0 -46 4t-36 9
l8 36q18 -5 34.5 -8t38.5 -3z" />
    <glyph glyph-name="Omacron" unicode="&#x14c;" horiz-adv-x="673" 
d="M335 23q58 0 99.5 13.5t68.5 46.5t39.5 89t12.5 141v86q0 87 -12.5 143t-39.5 89t-68.5 45.5t-99.5 12.5q-55 0 -96 -12t-68 -44.5t-40.5 -89t-13.5 -144.5v-86q0 -85 12.5 -141t38.5 -89t67.5 -46.5t99.5 -13.5zM335 727q77 0 127.5 -21t80.5 -62t42 -101.5t12 -139.5
v-94q0 -76 -12.5 -136t-42.5 -102t-80.5 -64t-126.5 -22q-77 0 -127.5 20.5t-79.5 61.5t-40.5 101.5t-11.5 140.5v94q0 73 11.5 133t40.5 102.5t79.5 65.5t127.5 23zM217 843h239v-37h-239v37z" />
    <glyph glyph-name="omacron" unicode="&#x14d;" horiz-adv-x="567" 
d="M284 24q52 0 86.5 12.5t54.5 38.5t28.5 66t8.5 95v40q0 55 -8.5 94.5t-28.5 65.5t-54.5 38.5t-86.5 12.5q-53 0 -87.5 -12.5t-54.5 -38.5t-28.5 -66t-8.5 -94v-40q0 -55 8.5 -95t28.5 -66t54.5 -38.5t87.5 -12.5zM284 523q64 0 105.5 -16.5t66.5 -48t35 -76t10 -99.5v-54
q0 -56 -11.5 -100.5t-37 -76t-67 -48t-101.5 -16.5q-64 0 -106 16.5t-67 48t-35 76t-10 100.5v54q0 55 11.5 99.5t37.5 76t67.5 48t101.5 16.5zM164 675h239v-34h-239v34z" />
    <glyph glyph-name="Obreve" unicode="&#x14e;" horiz-adv-x="673" 
d="M335 23q58 0 99.5 13.5t68.5 46.5t39.5 89t12.5 141v86q0 87 -12.5 143t-39.5 89t-68.5 45.5t-99.5 12.5q-55 0 -96 -12t-68 -44.5t-40.5 -89t-13.5 -144.5v-86q0 -85 12.5 -141t38.5 -89t67.5 -46.5t99.5 -13.5zM335 727q77 0 127.5 -21t80.5 -62t42 -101.5t12 -139.5
v-94q0 -76 -12.5 -136t-42.5 -102t-80.5 -64t-126.5 -22q-77 0 -127.5 20.5t-79.5 61.5t-40.5 101.5t-11.5 140.5v94q0 73 11.5 133t40.5 102.5t79.5 65.5t127.5 23zM335 767q-121 0 -121 132h33q0 -47 20 -73.5t68 -26.5t68 26.5t20 73.5h33q0 -132 -121 -132z" />
    <glyph glyph-name="obreve" unicode="&#x14f;" horiz-adv-x="567" 
d="M284 24q52 0 86.5 12.5t54.5 38.5t28.5 66t8.5 95v40q0 55 -8.5 94.5t-28.5 65.5t-54.5 38.5t-86.5 12.5q-53 0 -87.5 -12.5t-54.5 -38.5t-28.5 -66t-8.5 -94v-40q0 -55 8.5 -95t28.5 -66t54.5 -38.5t87.5 -12.5zM284 523q64 0 105.5 -16.5t66.5 -48t35 -76t10 -99.5v-54
q0 -56 -11.5 -100.5t-37 -76t-67 -48t-101.5 -16.5q-64 0 -106 16.5t-67 48t-35 76t-10 100.5v54q0 55 11.5 99.5t37.5 76t67.5 48t101.5 16.5zM283 590q-60 0 -90.5 31.5t-30.5 100.5h32q0 -47 21 -74t68 -27t68 27t21 74h32q0 -65 -29.5 -98.5t-91.5 -33.5z" />
    <glyph glyph-name="Ohungarumlaut" unicode="&#x150;" horiz-adv-x="673" 
d="M335 23q58 0 99.5 13.5t68.5 46.5t39.5 89t12.5 141v86q0 87 -12.5 143t-39.5 89t-68.5 45.5t-99.5 12.5q-55 0 -96 -12t-68 -44.5t-40.5 -89t-13.5 -144.5v-86q0 -85 12.5 -141t38.5 -89t67.5 -46.5t99.5 -13.5zM335 727q77 0 127.5 -21t80.5 -62t42 -101.5t12 -139.5
v-94q0 -76 -12.5 -136t-42.5 -102t-80.5 -64t-126.5 -22q-77 0 -127.5 20.5t-79.5 61.5t-40.5 101.5t-11.5 140.5v94q0 73 11.5 133t40.5 102.5t79.5 65.5t127.5 23zM325 893h53l-104 -120h-43zM460 893h53l-104 -120h-43z" />
    <glyph glyph-name="ohungarumlaut" unicode="&#x151;" horiz-adv-x="567" 
d="M284 24q52 0 86.5 12.5t54.5 38.5t28.5 66t8.5 95v40q0 55 -8.5 94.5t-28.5 65.5t-54.5 38.5t-86.5 12.5q-53 0 -87.5 -12.5t-54.5 -38.5t-28.5 -66t-8.5 -94v-40q0 -55 8.5 -95t28.5 -66t54.5 -38.5t87.5 -12.5zM284 523q64 0 105.5 -16.5t66.5 -48t35 -76t10 -99.5v-54
q0 -56 -11.5 -100.5t-37 -76t-67 -48t-101.5 -16.5q-64 0 -106 16.5t-67 48t-35 76t-10 100.5v54q0 55 11.5 99.5t37.5 76t67.5 48t101.5 16.5zM290 732h46l-120 -139h-37zM426 732h46l-120 -139h-37z" />
    <glyph glyph-name="Racute" unicode="&#x154;" horiz-adv-x="609" 
d="M343 316h-208v-316h-39v712h251q49 0 86 -14t61 -39.5t36 -60t12 -74.5v-20q0 -79 -42.5 -126t-114.5 -58l179 -320h-45zM135 353h194q86 0 129 34t43 117v13q0 78 -38 118t-122 40h-206v-322zM383 893h61l-160 -120h-51z" />
    <glyph glyph-name="racute" unicode="&#x155;" horiz-adv-x="370" 
d="M336 475q-12 3 -28.5 5t-30.5 2q-78 0 -117 -44.5t-39 -141.5v-296h-37v511h31l7 -79q24 45 64.5 65.5t96.5 20.5q17 0 35.5 -3t27.5 -7zM286 731h51l-141 -139h-42z" />
    <glyph glyph-name="Rcommaaccent" unicode="&#x156;" horiz-adv-x="609" 
d="M343 316h-208v-316h-39v712h251q49 0 86 -14t61 -39.5t36 -60t12 -74.5v-20q0 -79 -42.5 -126t-114.5 -58l179 -320h-45zM135 353h194q86 0 129 34t43 117v13q0 78 -38 118t-122 40h-206v-322zM258 -241l44 111q-25 7 -25 38q0 18 10.5 27t24.5 9q17 0 26.5 -9t9.5 -26
q0 -13 -4 -25t-12 -28l-47 -97h-27z" />
    <glyph glyph-name="rcommaaccent" unicode="&#x157;" horiz-adv-x="370" 
d="M336 475q-12 3 -28.5 5t-30.5 2q-78 0 -117 -44.5t-39 -141.5v-296h-37v511h31l7 -79q24 45 64.5 65.5t96.5 20.5q17 0 35.5 -3t27.5 -7zM48 -237l42 106q-25 8 -25 36q0 17 10 26t24 9q34 0 34 -34q0 -12 -3.5 -23.5t-11.5 -26.5l-45 -93h-25z" />
    <glyph glyph-name="Rcaron" unicode="&#x158;" horiz-adv-x="609" 
d="M343 316h-208v-316h-39v712h251q49 0 86 -14t61 -39.5t36 -60t12 -74.5v-20q0 -79 -42.5 -126t-114.5 -58l179 -320h-45zM135 353h194q86 0 129 34t43 117v13q0 78 -38 118t-122 40h-206v-322zM314 773h-38l-132 120h44l107 -90l108 90h43z" />
    <glyph glyph-name="rcaron" unicode="&#x159;" horiz-adv-x="370" 
d="M336 475q-12 3 -28.5 5t-30.5 2q-78 0 -117 -44.5t-39 -141.5v-296h-37v511h31l7 -79q24 45 64.5 65.5t96.5 20.5q17 0 35.5 -3t27.5 -7zM191 592l-132 139h38l112 -108l112 108h38l-132 -139h-36z" />
    <glyph glyph-name="Sacute" unicode="&#x15a;" horiz-adv-x="557" 
d="M335 379q48 -7 79.5 -23.5t50 -40t25.5 -54t7 -64.5v-13q0 -44 -13.5 -79.5t-43 -61t-76 -39.5t-111.5 -14q-57 0 -105 8t-84 21l7 35q45 -14 87 -20t102 -6q55 0 92.5 10.5t60.5 31t33.5 50.5t10.5 68q0 30 -4.5 55.5t-19 45t-41.5 33t-72 19.5l-93 13q-45 6 -76.5 18.5
t-51.5 33.5t-29 52.5t-9 75.5v10q0 85 61.5 131.5t182.5 46.5q57 0 98.5 -9.5t73.5 -21.5l-11 -34q-34 12 -75 19.5t-94 7.5q-47 0 -84 -7.5t-62 -24.5t-38 -45t-13 -69q0 -37 6.5 -62t22.5 -41.5t42.5 -26t67.5 -15.5zM372 893h61l-160 -120h-51z" />
    <glyph glyph-name="sacute" unicode="&#x15b;" horiz-adv-x="466" 
d="M285 277q39 -5 63.5 -16.5t38.5 -29.5t19.5 -40.5t5.5 -49.5v-6q0 -33 -11 -59.5t-35 -45.5t-62 -29.5t-92 -10.5q-48 0 -87.5 6.5t-69.5 17.5l8 33q19 -6 36.5 -10t35.5 -6.5t38 -3.5t45 -1q44 0 73.5 7t47.5 21t25.5 34.5t7.5 47.5q0 20 -2.5 37.5t-12 31t-29 22.5
t-53.5 13l-72 8q-42 5 -70 15t-44.5 26.5t-23 39t-6.5 52.5v6q0 63 52.5 98.5t148.5 35.5q48 0 83.5 -7t56.5 -15l-10 -32q-14 5 -28.5 8.5t-31 6t-37 3.5t-45.5 1q-67 0 -109 -22.5t-42 -77.5q0 -23 4.5 -40t16.5 -29t34 -19.5t57 -11.5zM318 731h51l-141 -139h-42z" />
    <glyph glyph-name="Scircumflex" unicode="&#x15c;" horiz-adv-x="557" 
d="M335 379q48 -7 79.5 -23.5t50 -40t25.5 -54t7 -64.5v-13q0 -44 -13.5 -79.5t-43 -61t-76 -39.5t-111.5 -14q-57 0 -105 8t-84 21l7 35q45 -14 87 -20t102 -6q55 0 92.5 10.5t60.5 31t33.5 50.5t10.5 68q0 30 -4.5 55.5t-19 45t-41.5 33t-72 19.5l-93 13q-45 6 -76.5 18.5
t-51.5 33.5t-29 52.5t-9 75.5v10q0 85 61.5 131.5t182.5 46.5q57 0 98.5 -9.5t73.5 -21.5l-11 -34q-34 12 -75 19.5t-94 7.5q-47 0 -84 -7.5t-62 -24.5t-38 -45t-13 -69q0 -37 6.5 -62t22.5 -41.5t42.5 -26t67.5 -15.5zM275 893h38l132 -120h-44l-107 90l-108 -90h-43z" />
    <glyph glyph-name="scircumflex" unicode="&#x15d;" horiz-adv-x="466" 
d="M285 277q39 -5 63.5 -16.5t38.5 -29.5t19.5 -40.5t5.5 -49.5v-6q0 -33 -11 -59.5t-35 -45.5t-62 -29.5t-92 -10.5q-48 0 -87.5 6.5t-69.5 17.5l8 33q19 -6 36.5 -10t35.5 -6.5t38 -3.5t45 -1q44 0 73.5 7t47.5 21t25.5 34.5t7.5 47.5q0 20 -2.5 37.5t-12 31t-29 22.5
t-53.5 13l-72 8q-42 5 -70 15t-44.5 26.5t-23 39t-6.5 52.5v6q0 63 52.5 98.5t148.5 35.5q48 0 83.5 -7t56.5 -15l-10 -32q-14 5 -28.5 8.5t-31 6t-37 3.5t-45.5 1q-67 0 -109 -22.5t-42 -77.5q0 -23 4.5 -40t16.5 -29t34 -19.5t57 -11.5zM260 731l132 -139h-38l-112 108
l-112 -108h-38l132 139h36z" />
    <glyph glyph-name="Scedilla" unicode="&#x15e;" horiz-adv-x="557" 
d="M335 379q48 -7 79.5 -23.5t50 -40t25.5 -54t7 -64.5v-13q0 -44 -13.5 -79.5t-43 -61t-75.5 -39.5t-111 -14l-11 -41q42 -7 69.5 -24.5t27.5 -52.5q0 -39 -27 -60.5t-75 -21.5q-26 0 -44.5 5.5t-29.5 13.5l10 28q11 -5 26 -10t38 -5q35 0 50 12.5t15 36.5q0 22 -21.5 34
t-77.5 17l19 69q-47 2 -87.5 9.5t-71.5 18.5l7 35q45 -14 87 -20t102 -6q55 0 92.5 10.5t60.5 31t33.5 50.5t10.5 68q0 30 -4.5 55.5t-19 45t-41.5 33t-72 19.5l-93 13q-45 6 -76.5 18.5t-51.5 33.5t-29 52.5t-9 75.5v10q0 85 61.5 131.5t182.5 46.5q57 0 98.5 -9.5
t73.5 -21.5l-11 -34q-34 12 -75 19.5t-94 7.5q-47 0 -84 -7.5t-62 -24.5t-38 -45t-13 -69q0 -37 6.5 -62t22.5 -41.5t42.5 -26t67.5 -15.5z" />
    <glyph glyph-name="scedilla" unicode="&#x15f;" horiz-adv-x="466" 
d="M285 277q39 -5 63.5 -16.5t38.5 -29.5t19.5 -40.5t5.5 -49.5v-6q0 -63 -42 -102t-141 -42l-12 -44q38 -8 63 -25t25 -53q0 -37 -26 -58t-70 -21q-23 0 -41 5.5t-29 13.5l10 28q11 -5 25.5 -10t35.5 -5q58 0 58 44q0 27 -21.5 38t-68.5 16l20 70q-43 2 -79 8t-64 16l8 33
q19 -6 36.5 -10t35.5 -6.5t38 -3.5t45 -1q44 0 73.5 7t47.5 21t25.5 34.5t7.5 47.5q0 20 -2.5 37.5t-12 31t-29 22.5t-53.5 13l-72 8q-42 5 -70 15t-44.5 26.5t-23 39t-6.5 52.5v6q0 63 52.5 98.5t148.5 35.5q48 0 83.5 -7t56.5 -15l-10 -32q-14 5 -28.5 8.5t-31 6t-37 3.5
t-45.5 1q-67 0 -109 -22.5t-42 -77.5q0 -23 4.5 -40t16.5 -29t34 -19.5t57 -11.5z" />
    <glyph glyph-name="uni0162" unicode="&#x162;" horiz-adv-x="577" 
d="M553 675h-247v-675l-14 -51q42 -7 69.5 -24.5t27.5 -52.5q0 -39 -27 -60.5t-75 -21.5q-26 0 -44.5 5.5t-29.5 13.5l10 28q11 -5 26 -10t38 -5q35 0 50 12.5t15 36.5q0 22 -21.5 34t-77.5 17l22 78h-8v675h-251l8 37h537z" />
    <glyph glyph-name="uni0163" unicode="&#x163;" horiz-adv-x="372" 
d="M166 477v-328q0 -36 6.5 -60t20 -38.5t35 -20.5t52.5 -6q19 0 34.5 3t26.5 5l-7 -31q-28 -11 -63 -11q-11 0 -22 1t-21 3l-13 -47q38 -8 63 -25t25 -53q0 -37 -26 -58t-70 -21q-23 0 -41 5.5t-29 13.5l10 28q11 -5 25.5 -10t35.5 -5q58 0 58 44q0 27 -21.5 38t-68.5 16
l23 82q-32 14 -51 49.5t-19 106.5v319h-104l7 34h97v136l37 7v-143h173l-7 -34h-166z" />
    <glyph glyph-name="Tcaron" unicode="&#x164;" horiz-adv-x="577" 
d="M553 675h-247v-675h-39v675h-251l8 37h537zM306 773h-38l-132 120h44l107 -90l108 90h43z" />
    <glyph glyph-name="tcaron" unicode="&#x165;" horiz-adv-x="372" 
d="M166 477v-328q0 -36 6.5 -60t20 -38.5t35 -20.5t52.5 -6q19 0 34.5 3t26.5 5l-7 -31q-28 -11 -63 -11q-77 0 -109.5 40t-32.5 128v319h-104l7 34h97v136l37 7v-143h173l-7 -34h-166zM315 743l-17 -155h-31l8 155h40z" />
    <glyph glyph-name="Tbar" unicode="&#x166;" horiz-adv-x="577" 
d="M109 384h158v291h-251l8 37h537l-8 -37h-247v-291h158v-34h-158v-350h-39v350h-158v34z" />
    <glyph glyph-name="tbar" unicode="&#x167;" horiz-adv-x="372" 
d="M30 333h99v144h-104l7 34h97v136l37 7v-143h173l-7 -34h-166v-144h164v-34h-164v-150q0 -36 6.5 -60t20 -38.5t35 -20.5t52.5 -6q19 0 34.5 3t26.5 5l-7 -31q-28 -11 -63 -11q-31 0 -57 6.5t-45 25t-29.5 51.5t-10.5 85v141h-99v34z" />
    <glyph glyph-name="Utilde" unicode="&#x168;" horiz-adv-x="668" 
d="M333 -15q-71 0 -118.5 18.5t-76 55t-40.5 91t-12 126.5v436h39v-438q0 -73 12 -121t37 -77t64 -41t93 -12q61 0 101.5 11t65 39t35 76.5t10.5 123.5v439h39v-437q0 -70 -10.5 -124t-38 -91t-76 -56t-124.5 -19zM299 824q-14 8 -27 13.5t-25 5.5q-17 0 -28 -15t-11 -55
h-34q0 49 18 75.5t55 26.5q31 0 73 -24l47 -26q17 -9 31 -15t25 -6q18 0 27.5 15.5t9.5 53.5h34q0 -32 -7 -52t-17.5 -31t-23.5 -15t-25 -4q-14 0 -29 5t-41 19z" />
    <glyph glyph-name="utilde" unicode="&#x169;" horiz-adv-x="564" 
d="M480 511v-511h-31l-7 78q-9 -17 -24.5 -33t-38 -29t-52.5 -20.5t-69 -7.5q-88 0 -134 47.5t-46 134.5v341h37v-311q0 -46 7.5 -79t25.5 -54.5t47 -32t72 -10.5q91 0 133.5 45.5t42.5 135.5v306h37zM241 661q-11 6 -21.5 10.5t-20.5 4.5q-39 0 -39 -61h-28q0 27 6 45.5
t15.5 29t21.5 15t25 4.5q17 0 32 -6t26 -13l45 -27q36 -22 58 -22q37 0 37 62h28q0 -30 -6.5 -48t-16.5 -28.5t-22 -14t-24 -3.5q-13 0 -28.5 5t-41.5 20z" />
    <glyph glyph-name="Umacron" unicode="&#x16a;" horiz-adv-x="668" 
d="M333 -15q-71 0 -118.5 18.5t-76 55t-40.5 91t-12 126.5v436h39v-438q0 -73 12 -121t37 -77t64 -41t93 -12q61 0 101.5 11t65 39t35 76.5t10.5 123.5v439h39v-437q0 -70 -10.5 -124t-38 -91t-76 -56t-124.5 -19zM215 843h239v-37h-239v37z" />
    <glyph glyph-name="umacron" unicode="&#x16b;" horiz-adv-x="564" 
d="M480 511v-511h-31l-7 78q-9 -17 -24.5 -33t-38 -29t-52.5 -20.5t-69 -7.5q-88 0 -134 47.5t-46 134.5v341h37v-311q0 -46 7.5 -79t25.5 -54.5t47 -32t72 -10.5q91 0 133.5 45.5t42.5 135.5v306h37zM159 675h239v-34h-239v34z" />
    <glyph glyph-name="Ubreve" unicode="&#x16c;" horiz-adv-x="668" 
d="M333 -15q-71 0 -118.5 18.5t-76 55t-40.5 91t-12 126.5v436h39v-438q0 -73 12 -121t37 -77t64 -41t93 -12q61 0 101.5 11t65 39t35 76.5t10.5 123.5v439h39v-437q0 -70 -10.5 -124t-38 -91t-76 -56t-124.5 -19zM332 767q-121 0 -121 132h33q0 -47 20 -73.5t68 -26.5
t68 26.5t20 73.5h33q0 -132 -121 -132z" />
    <glyph glyph-name="ubreve" unicode="&#x16d;" horiz-adv-x="564" 
d="M480 511v-511h-31l-7 78q-9 -17 -24.5 -33t-38 -29t-52.5 -20.5t-69 -7.5q-88 0 -134 47.5t-46 134.5v341h37v-311q0 -46 7.5 -79t25.5 -54.5t47 -32t72 -10.5q91 0 133.5 45.5t42.5 135.5v306h37zM279 590q-60 0 -90.5 31.5t-30.5 100.5h32q0 -47 21 -74t68 -27t68 27
t21 74h32q0 -65 -29.5 -98.5t-91.5 -33.5z" />
    <glyph glyph-name="Uring" unicode="&#x16e;" horiz-adv-x="668" 
d="M333 -15q-71 0 -118.5 18.5t-76 55t-40.5 91t-12 126.5v436h39v-438q0 -73 12 -121t37 -77t64 -41t93 -12q61 0 101.5 11t65 39t35 76.5t10.5 123.5v439h39v-437q0 -70 -10.5 -124t-38 -91t-76 -56t-124.5 -19zM431 829q0 -20 -7.5 -37t-20.5 -30t-30.5 -20.5t-38.5 -7.5
t-38.5 7.5t-30.5 20.5t-20.5 30t-7.5 37q0 19 7.5 36.5t20.5 30.5t30.5 20.5t38.5 7.5t38.5 -7.5t30.5 -20.5t20.5 -30.5t7.5 -36.5zM396 829q0 28 -17 46.5t-45 18.5t-45 -18.5t-17 -46.5t17 -46.5t45 -18.5t45 18.5t17 46.5z" />
    <glyph glyph-name="uring" unicode="&#x16f;" horiz-adv-x="564" 
d="M480 511v-511h-31l-7 78q-9 -17 -24.5 -33t-38 -29t-52.5 -20.5t-69 -7.5q-88 0 -134 47.5t-46 134.5v341h37v-311q0 -46 7.5 -79t25.5 -54.5t47 -32t72 -10.5q91 0 133.5 45.5t42.5 135.5v306h37zM373 687q0 -20 -7.5 -37t-20 -30t-30 -20.5t-38.5 -7.5t-38.5 7.5
t-30 20.5t-20 30t-7.5 37q0 19 7.5 36.5t20 30.5t30 20.5t38.5 7.5q42 0 69 -26.5t27 -68.5zM340 687q0 30 -17.5 48t-45.5 18t-45.5 -18t-17.5 -48t17.5 -48t45.5 -18t45.5 18t17.5 48z" />
    <glyph glyph-name="Uhungarumlaut" unicode="&#x170;" horiz-adv-x="668" 
d="M333 -15q-71 0 -118.5 18.5t-76 55t-40.5 91t-12 126.5v436h39v-438q0 -73 12 -121t37 -77t64 -41t93 -12q61 0 101.5 11t65 39t35 76.5t10.5 123.5v439h39v-437q0 -70 -10.5 -124t-38 -91t-76 -56t-124.5 -19zM304 893h53l-104 -120h-43zM439 893h53l-104 -120h-43z" />
    <glyph glyph-name="uhungarumlaut" unicode="&#x171;" horiz-adv-x="564" 
d="M480 511v-511h-31l-7 78q-9 -17 -24.5 -33t-38 -29t-52.5 -20.5t-69 -7.5q-88 0 -134 47.5t-46 134.5v341h37v-311q0 -46 7.5 -79t25.5 -54.5t47 -32t72 -10.5q91 0 133.5 45.5t42.5 135.5v306h37zM273 732h46l-120 -139h-37zM409 732h46l-120 -139h-37z" />
    <glyph glyph-name="Uogonek" unicode="&#x172;" horiz-adv-x="668" 
d="M333 -15q-71 0 -118.5 18.5t-76 55t-40.5 91t-12 126.5v436h39v-438q0 -73 12 -121t37 -77t64 -41t93 -12q61 0 101.5 11t65 39t35 76.5t10.5 123.5v439h39v-437q0 -55 -6 -100t-21.5 -79.5t-42 -58.5t-66.5 -37q-29 -17 -47 -32t-28 -28t-13.5 -24t-3.5 -19
q0 -15 10.5 -26t34.5 -11q18 0 45 8l-5 -32q-8 -5 -23 -7.5t-27 -2.5q-32 0 -52.5 16t-20.5 45t15 53t45 47q-11 -1 -21.5 -1.5t-21.5 -0.5z" />
    <glyph glyph-name="uogonek" unicode="&#x173;" horiz-adv-x="564" 
d="M480 511v-511q-38 -24 -66.5 -49.5t-28.5 -57.5q0 -22 11 -32.5t37 -10.5q18 0 45 8l-5 -30q-8 -5 -22.5 -7.5t-26.5 -2.5q-35 0 -55.5 16.5t-20.5 49.5q0 39 27 69t73 58l-6 67q-9 -17 -24.5 -33t-38 -29t-52.5 -20.5t-69 -7.5q-88 0 -134 47.5t-46 134.5v341h37v-311
q0 -46 7.5 -79t25.5 -54.5t47 -32t72 -10.5q91 0 133.5 45.5t42.5 135.5v306h37z" />
    <glyph glyph-name="Wcircumflex" unicode="&#x174;" horiz-adv-x="853" 
d="M784 712h39l-191 -712h-51l-156 633l-166 -633h-52l-177 712h41l163 -673l172 646h43l158 -646zM407 893h38l132 -120h-44l-107 90l-108 -90h-43z" />
    <glyph glyph-name="wcircumflex" unicode="&#x175;" horiz-adv-x="712" 
d="M355 445l-137 -445h-41l-152 511h42l131 -471l138 445h40l141 -447l132 473h38l-150 -511h-41zM372 731l132 -139h-38l-112 108l-112 -108h-38l132 139h36z" />
    <glyph glyph-name="Ycircumflex" unicode="&#x176;" horiz-adv-x="568" 
d="M282 333l225 379h43l-249 -411v-301h-39v300l-244 412h43zM264 893h38l132 -120h-44l-107 90l-108 -90h-43z" />
    <glyph glyph-name="ycircumflex" unicode="&#x177;" horiz-adv-x="503" 
d="M442 511h41l-231 -586q-19 -48 -35 -79t-33.5 -50t-39 -26.5t-49.5 -7.5q-19 0 -37.5 3t-33.5 10l7 30q27 -8 57 -8q26 0 43.5 5.5t31.5 20.5t26.5 42.5t29.5 71.5l24 63l-223 511h43l199 -475zM273 731l132 -139h-38l-112 108l-112 -108h-38l132 139h36z" />
    <glyph glyph-name="Zacute" unicode="&#x179;" horiz-adv-x="549" 
d="M456 675h-408l8 37h446v-35l-421 -640h430l-8 -37h-467v35zM376 893h61l-160 -120h-51z" />
    <glyph glyph-name="zacute" unicode="&#x17a;" horiz-adv-x="465" 
d="M81 33h350l-7 -33h-390v30l343 448h-335l7 33h373v-30zM324 731h51l-141 -139h-42z" />
    <glyph glyph-name="Zdotaccent" unicode="&#x17b;" horiz-adv-x="549" 
d="M456 675h-408l8 37h446v-35l-421 -640h430l-8 -37h-467v35zM287 863q14 0 24 -8.5t10 -28.5t-10 -28.5t-24 -8.5t-24 8.5t-10 28.5t10 28.5t24 8.5z" />
    <glyph glyph-name="zdotaccent" unicode="&#x17c;" horiz-adv-x="465" 
d="M81 33h350l-7 -33h-390v30l343 448h-335l7 33h373v-30zM227 697q15 0 24.5 -8t9.5 -28t-9.5 -28t-24.5 -8t-24.5 8t-9.5 28t9.5 28t24.5 8z" />
    <glyph glyph-name="Zcaron" unicode="&#x17d;" horiz-adv-x="549" 
d="M456 675h-408l8 37h446v-35l-421 -640h430l-8 -37h-467v35zM292 773h-38l-132 120h44l107 -90l108 90h43z" />
    <glyph glyph-name="zcaron" unicode="&#x17e;" horiz-adv-x="465" 
d="M81 33h350l-7 -33h-390v30l343 448h-335l7 33h373v-30zM222 592l-132 139h38l112 -108l112 108h38l-132 -139h-36z" />
    <glyph glyph-name="longs" unicode="&#x17f;" horiz-adv-x="262" 
d="M121 0h-37v511q0 126 44 182.5t139 56.5q13 0 32 -3t33 -8l-9 -32q-25 7 -57 7q-42 0 -70 -11.5t-44.5 -36t-23.5 -63t-7 -92.5v-511z" />
    <glyph glyph-name="Scommaaccent" unicode="&#x218;" horiz-adv-x="557" 
d="M335 379q48 -7 79.5 -23.5t50 -40t25.5 -54t7 -64.5v-13q0 -44 -13.5 -79.5t-43 -61t-76 -39.5t-111.5 -14q-57 0 -105 8t-84 21l7 35q45 -14 87 -20t102 -6q55 0 92.5 10.5t60.5 31t33.5 50.5t10.5 68q0 30 -4.5 55.5t-19 45t-41.5 33t-72 19.5l-93 13q-45 6 -76.5 18.5
t-51.5 33.5t-29 52.5t-9 75.5v10q0 85 61.5 131.5t182.5 46.5q57 0 98.5 -9.5t73.5 -21.5l-11 -34q-34 12 -75 19.5t-94 7.5q-47 0 -84 -7.5t-62 -24.5t-38 -45t-13 -69q0 -37 6.5 -62t22.5 -41.5t42.5 -26t67.5 -15.5zM214 -241l44 111q-25 7 -25 38q0 18 10.5 27t24.5 9
q17 0 26.5 -9t9.5 -26q0 -13 -4 -25t-12 -28l-47 -97h-27z" />
    <glyph glyph-name="scommaaccent" unicode="&#x219;" horiz-adv-x="466" 
d="M285 277q39 -5 63.5 -16.5t38.5 -29.5t19.5 -40.5t5.5 -49.5v-6q0 -33 -11 -59.5t-35 -45.5t-62 -29.5t-92 -10.5q-48 0 -87.5 6.5t-69.5 17.5l8 33q19 -6 36.5 -10t35.5 -6.5t38 -3.5t45 -1q44 0 73.5 7t47.5 21t25.5 34.5t7.5 47.5q0 20 -2.5 37.5t-12 31t-29 22.5
t-53.5 13l-72 8q-42 5 -70 15t-44.5 26.5t-23 39t-6.5 52.5v6q0 63 52.5 98.5t148.5 35.5q48 0 83.5 -7t56.5 -15l-10 -32q-14 5 -28.5 8.5t-31 6t-37 3.5t-45.5 1q-67 0 -109 -22.5t-42 -77.5q0 -23 4.5 -40t16.5 -29t34 -19.5t57 -11.5zM166 -237l42 106q-25 8 -25 36
q0 17 10 26t24 9q34 0 34 -34q0 -12 -3.5 -23.5t-11.5 -26.5l-45 -93h-25z" />
    <glyph glyph-name="uni021A" unicode="&#x21a;" horiz-adv-x="577" 
d="M553 675h-247v-675h-39v675h-251l8 37h537zM229 -241l44 111q-25 7 -25 38q0 18 10.5 27t24.5 9q17 0 26.5 -9t9.5 -26q0 -13 -4 -25t-12 -28l-47 -97h-27z" />
    <glyph glyph-name="uni021B" unicode="&#x21b;" horiz-adv-x="372" 
d="M166 477v-328q0 -36 6.5 -60t20 -38.5t35 -20.5t52.5 -6q19 0 34.5 3t26.5 5l-7 -31q-28 -11 -63 -11q-77 0 -109.5 40t-32.5 128v319h-104l7 34h97v136l37 7v-143h173l-7 -34h-166zM161 -237l42 106q-25 8 -25 36q0 17 10 26t24 9q34 0 34 -34q0 -12 -3.5 -23.5
t-11.5 -26.5l-45 -93h-25z" />
    <glyph glyph-name="dotlessj" unicode="&#x237;" horiz-adv-x="205" 
d="M121 511v-572q0 -51 -11 -85.5t-29.5 -54.5t-44 -28.5t-53.5 -8.5q-17 0 -37.5 3t-35.5 10l7 30q13 -4 29.5 -6t30.5 -2q61 0 84 34.5t23 111.5v568h37z" />
    <glyph glyph-name="apostrophe" unicode="&#x2bc;" horiz-adv-x="266" 
d="M83 553l49 121q-24 7 -24 36q0 17 10 26t24 9q16 0 25 -9.5t9 -25.5q0 -11 -3.5 -22.5t-11.5 -26.5l-51 -108h-27z" />
    <glyph glyph-name="caron" unicode="&#x2c7;" horiz-adv-x="500" 
d="M232 592l-132 139h38l112 -108l112 108h38l-132 -139h-36z" />
    <glyph glyph-name="uni02C9" unicode="&#x2c9;" horiz-adv-x="500" 
d="M132 675h239v-34h-239v34z" />
    <glyph glyph-name="breve" unicode="&#x2d8;" horiz-adv-x="500" 
d="M250 590q-60 0 -90.5 31.5t-30.5 100.5h32q0 -47 21 -74t68 -27t68 27t21 74h32q0 -65 -29.5 -98.5t-91.5 -33.5z" />
    <glyph glyph-name="dotaccent" unicode="&#x2d9;" horiz-adv-x="500" 
d="M250 697q15 0 24.5 -8t9.5 -28t-9.5 -28t-24.5 -8t-24.5 8t-9.5 28t9.5 28t24.5 8z" />
    <glyph glyph-name="ring" unicode="&#x2da;" horiz-adv-x="500" 
d="M346 687q0 -20 -7.5 -37t-20 -30t-30 -20.5t-38.5 -7.5t-38.5 7.5t-30 20.5t-20 30t-7.5 37q0 19 7.5 36.5t20 30.5t30 20.5t38.5 7.5q42 0 69 -26.5t27 -68.5zM313 687q0 30 -17.5 48t-45.5 18t-45.5 -18t-17.5 -48t17.5 -48t45.5 -18t45.5 18t17.5 48z" />
    <glyph glyph-name="ogonek" unicode="&#x2db;" horiz-adv-x="500" 
d="M260 -182q-35 0 -55.5 16.5t-20.5 49.5q0 41 29.5 72.5t79.5 60.5l23 -17q-38 -24 -66.5 -49.5t-28.5 -57.5q0 -22 11 -32.5t37 -10.5q18 0 45 8l-5 -30q-8 -5 -22.5 -7.5t-26.5 -2.5z" />
    <glyph glyph-name="hungarumlaut" unicode="&#x2dd;" horiz-adv-x="500" 
d="M216 732h46l-120 -139h-37zM352 732h46l-120 -139h-37z" />
    <glyph glyph-name="uni20B9" unicode="&#x20b9;" horiz-adv-x="586" 
d="M504 477h-67q-2 -33 -12 -65.5t-33.5 -58.5t-62.5 -42t-97 -16h-79l342 -295h-55l-342 297v35h135q78 0 120 35t45 110h-300v34h300q-4 64 -36.5 100t-89.5 38h-175v34h420l-8 -34h-140q31 -18 49 -53.5t20 -84.5h74z" />
    <glyph glyph-name="Wgrave" unicode="&#x1e80;" horiz-adv-x="853" 
d="M784 712h39l-191 -712h-51l-156 633l-166 -633h-52l-177 712h41l163 -673l172 646h43l158 -646zM477 773h-51l-160 120h61z" />
    <glyph glyph-name="wgrave" unicode="&#x1e81;" horiz-adv-x="712" 
d="M355 445l-137 -445h-41l-152 511h42l131 -471l138 445h40l141 -447l132 473h38l-150 -511h-41zM394 592h-42l-141 139h51z" />
    <glyph glyph-name="Wacute" unicode="&#x1e82;" horiz-adv-x="853" 
d="M784 712h39l-191 -712h-51l-156 633l-166 -633h-52l-177 712h41l163 -673l172 646h43l158 -646zM530 893h61l-160 -120h-51z" />
    <glyph glyph-name="wacute" unicode="&#x1e83;" horiz-adv-x="712" 
d="M355 445l-137 -445h-41l-152 511h42l131 -471l138 445h40l141 -447l132 473h38l-150 -511h-41zM433 731h51l-141 -139h-42z" />
    <glyph glyph-name="Wdieresis" unicode="&#x1e84;" horiz-adv-x="853" 
d="M784 712h39l-191 -712h-51l-156 633l-166 -633h-52l-177 712h41l163 -673l172 646h43l158 -646zM354 863q14 0 24 -8.5t10 -28.5t-10 -28.5t-24 -8.5t-24 8.5t-10 28.5t10 28.5t24 8.5zM503 863q14 0 24 -8.5t10 -28.5t-10 -28.5t-24 -8.5t-24 8.5t-10 28.5t10 28.5
t24 8.5z" />
    <glyph glyph-name="wdieresis" unicode="&#x1e85;" horiz-adv-x="712" 
d="M355 445l-137 -445h-41l-152 511h42l131 -471l138 445h40l141 -447l132 473h38l-150 -511h-41zM287 697q15 0 24.5 -8t9.5 -28t-9.5 -28t-24.5 -8t-24.5 8t-9.5 28t9.5 28t24.5 8zM429 697q15 0 24.5 -8t9.5 -28t-9.5 -28t-24.5 -8t-24.5 8t-9.5 28t9.5 28t24.5 8z" />
    <glyph glyph-name="Ygrave" unicode="&#x1ef2;" horiz-adv-x="568" 
d="M282 333l225 379h43l-249 -411v-301h-39v300l-244 412h43zM349 773h-51l-160 120h61z" />
    <glyph glyph-name="ygrave" unicode="&#x1ef3;" horiz-adv-x="503" 
d="M442 511h41l-231 -586q-19 -48 -35 -79t-33.5 -50t-39 -26.5t-49.5 -7.5q-19 0 -37.5 3t-33.5 10l7 30q27 -8 57 -8q26 0 43.5 5.5t31.5 20.5t26.5 42.5t29.5 71.5l24 63l-223 511h43l199 -475zM313 592h-42l-141 139h51z" />
    <glyph glyph-name="fraction" unicode="&#x2044;" horiz-adv-x="74" 
d="M230 683h44l-430 -683h-44z" />
    <glyph glyph-name="zerosuperior" unicode="&#x2070;" 
d="M220 319q60 0 88 33t28 117v34q0 44 -7.5 73.5t-22 47t-36 24.5t-50.5 7t-51 -7t-36.5 -24.5t-21.5 -47t-7 -73.5v-34q0 -84 28.5 -117t87.5 -33zM220 691q43 0 73 -13t48 -37t26 -58t8 -76v-41q0 -40 -8 -73.5t-26 -58t-47.5 -38t-73.5 -13.5q-43 0 -72.5 12.5t-48 36.5
t-26.5 58t-8 76v41q0 39 7.5 73t25.5 58.5t48 38.5t74 14z" />
    <glyph glyph-name="onesuperior" unicode="&#xb9;" 
d="M102 291l6 35h106v319l-121 -39l6 35l121 42h31v-357h103l-7 -35h-245z" />
    <glyph glyph-name="twosuperior" unicode="&#xb2;" 
d="M135 326h210l-7 -35h-241v60q0 48 19 84t74 56l52 19q20 7 32.5 15t19 17t9 20.5t2.5 25.5q0 38 -26 53t-68 15q-33 0 -60 -6t-56 -17l6 37q19 7 47 14t62 7q63 0 98.5 -23.5t35.5 -75.5v-6q0 -43 -20 -67t-67 -41l-55 -20q-38 -14 -52.5 -38.5t-14.5 -60.5v-33z" />
    <glyph glyph-name="threesuperior" unicode="&#xb3;" 
d="M146 514h76q23 0 37.5 5.5t23 15.5t11.5 22t3 26q0 39 -26 56t-70 17q-31 0 -60 -7t-51 -15l6 36q16 6 45 13.5t59 7.5q63 0 99 -26.5t36 -78.5v-5q0 -32 -15 -53t-39 -32q24 -9 41 -33.5t17 -60.5v-6q0 -57 -40 -85t-108 -28q-31 0 -64.5 7.5t-52.5 17.5l10 31
q49 -20 108 -20q50 0 79.5 17.5t29.5 62.5q0 15 -4 29.5t-13 26t-24 18t-38 6.5h-82z" />
    <glyph glyph-name="foursuperior" unicode="&#x2074;" 
d="M353 384h-43v-93h-37v93h-192v28l174 271h42l-172 -265h148v123l37 8v-131h50z" />
    <glyph glyph-name="fivesuperior" unicode="&#x2075;" 
d="M202 283q-34 0 -63.5 6.5t-46.5 15.5l10 32q23 -9 46 -13.5t54 -4.5q50 0 78 18t28 63q0 28 -6.5 45t-19.5 26.5t-34 13t-49 3.5h-90l3 195h212l-6 -34h-171l-2 -125h61q75 0 108 -29t33 -89v-9q0 -56 -39.5 -85t-105.5 -29z" />
    <glyph glyph-name="sixsuperior" unicode="&#x2076;" 
d="M127 414q0 -45 24 -70t75 -25q21 0 38.5 3.5t30 13t20 27t7.5 45.5v5q0 52 -20 71.5t-71 19.5q-21 0 -40 -4t-33 -13t-22.5 -24.5t-8.5 -38.5v-10zM250 656q-26 0 -49 -6.5t-39.5 -23.5t-26 -45.5t-9.5 -72.5v-5q17 17 46.5 26.5t64.5 9.5q36 0 59.5 -9t37.5 -25.5
t19.5 -39t5.5 -50.5v-7q0 -63 -34.5 -94t-97.5 -31q-39 0 -65.5 10.5t-42 29t-22 44t-6.5 55.5v78q0 100 42 145.5t120 45.5q25 0 49 -5t42 -12l-10 -32q-17 6 -37 10t-47 4z" />
    <glyph glyph-name="sevensuperior" unicode="&#x2077;" 
d="M307 649h-230l6 34h265v-28l-166 -364h-41z" />
    <glyph glyph-name="eightsuperior" unicode="&#x2078;" 
d="M220 283q-42 0 -69 9.5t-43 24.5t-22 34t-6 38v17q0 25 13 49.5t49 39.5q-28 11 -41.5 33.5t-13.5 53.5v9q0 19 7.5 37.5t23.5 32t41 22t61 8.5q63 0 98 -25.5t35 -74.5v-9q0 -29 -15 -50.5t-42 -34.5q19 -6 31.5 -16.5t19.5 -23t10 -26t3 -25.5v-17q0 -21 -7 -40
t-23 -33.5t-43 -23.5t-67 -9zM220 478q-59 0 -81 -20t-22 -57v-5q0 -38 22 -58t81 -20q58 0 80 20t22 58v5q0 38 -22.5 57.5t-79.5 19.5zM220 657q-49 0 -73 -15.5t-24 -50.5v-7q0 -34 23 -52.5t74 -18.5q55 0 75.5 19.5t20.5 51.5v7q0 35 -24 50.5t-72 15.5z" />
    <glyph glyph-name="ninesuperior" unicode="&#x2079;" 
d="M314 561q0 45 -22.5 70t-73.5 25q-21 0 -39 -3.5t-31.5 -13.5t-21 -27t-7.5 -44v-5q0 -51 22 -72t73 -21q21 0 39 4t31.5 13t21.5 24.5t8 38.5v11zM191 319q24 0 46 6.5t39.5 23.5t27.5 46t10 75q-17 -17 -44.5 -26t-61.5 -9q-68 0 -97 32.5t-29 93.5v7q0 58 35.5 90.5
t99.5 32.5q39 0 64.5 -10t41 -28.5t21.5 -44t6 -56.5v-78q0 -52 -11.5 -88t-32.5 -59t-51 -33.5t-67 -10.5q-25 0 -49 5t-42 12l10 33q17 -6 37 -10t47 -4z" />
    <glyph glyph-name="zeroinferior" unicode="&#x2080;" 
d="M220 28q60 0 88 33t28 117v34q0 44 -7.5 73.5t-22 47t-36 24.5t-50.5 7t-51 -7t-36.5 -24.5t-21.5 -47t-7 -73.5v-34q0 -84 28.5 -117t87.5 -33zM220 400q43 0 73 -13t48 -37t26 -58t8 -76v-41q0 -40 -8 -73.5t-26 -58t-47.5 -38t-73.5 -13.5q-43 0 -72.5 12.5t-48 36.5
t-26.5 58t-8 76v41q0 39 7.5 73t25.5 58.5t48 38.5t74 14z" />
    <glyph glyph-name="oneinferior" unicode="&#x2081;" 
d="M102 0l6 35h106v319l-121 -39l6 35l121 42h31v-357h103l-7 -35h-245z" />
    <glyph glyph-name="twoinferior" unicode="&#x2082;" 
d="M135 35h210l-7 -35h-241v60q0 48 19 84t74 56l52 19q20 7 32.5 15t19 17t9 20.5t2.5 25.5q0 38 -26 53t-68 15q-33 0 -60 -6t-56 -17l6 37q19 7 47 14t62 7q63 0 98.5 -23.5t35.5 -75.5v-6q0 -43 -20 -67t-67 -41l-55 -20q-38 -14 -52.5 -38.5t-14.5 -60.5v-33z" />
    <glyph glyph-name="threeinferior" unicode="&#x2083;" 
d="M146 223h76q23 0 37.5 5.5t23 15.5t11.5 22t3 26q0 39 -26 56t-70 17q-31 0 -60 -7t-51 -15l6 36q16 6 45 13.5t59 7.5q63 0 99 -26.5t36 -78.5v-5q0 -32 -15 -53t-39 -32q24 -9 41 -33.5t17 -60.5v-6q0 -57 -40 -85t-108 -28q-31 0 -64.5 7.5t-52.5 17.5l10 31
q49 -20 108 -20q50 0 79.5 17.5t29.5 62.5q0 15 -4 29.5t-13 26t-24 18t-38 6.5h-82z" />
    <glyph glyph-name="fourinferior" unicode="&#x2084;" 
d="M353 93h-43v-93h-37v93h-192v28l174 271h42l-172 -265h148v123l37 8v-131h50z" />
    <glyph glyph-name="fiveinferior" unicode="&#x2085;" 
d="M202 -8q-34 0 -63.5 6.5t-46.5 15.5l10 32q23 -9 46 -13.5t54 -4.5q50 0 78 18t28 63q0 28 -6.5 45t-19.5 26.5t-34 13t-49 3.5h-90l3 195h212l-6 -34h-171l-2 -125h61q75 0 108 -29t33 -89v-9q0 -56 -39.5 -85t-105.5 -29z" />
    <glyph glyph-name="sixinferior" unicode="&#x2086;" 
d="M127 123q0 -45 24 -70t75 -25q21 0 38.5 3.5t30 13t20 27t7.5 45.5v5q0 52 -20 71.5t-71 19.5q-21 0 -40 -4t-33 -13t-22.5 -24.5t-8.5 -38.5v-10zM250 365q-26 0 -49 -6.5t-39.5 -23.5t-26 -45.5t-9.5 -72.5v-5q17 17 46.5 26.5t64.5 9.5q36 0 59.5 -9t37.5 -25.5
t19.5 -39t5.5 -50.5v-7q0 -63 -34.5 -94t-97.5 -31q-39 0 -65.5 10.5t-42 29t-22 44t-6.5 55.5v78q0 100 42 145.5t120 45.5q25 0 49 -5t42 -12l-10 -32q-17 6 -37 10t-47 4z" />
    <glyph glyph-name="seveninferior" unicode="&#x2087;" 
d="M307 358h-230l6 34h265v-28l-166 -364h-41z" />
    <glyph glyph-name="eightinferior" unicode="&#x2088;" 
d="M220 -8q-42 0 -69 9.5t-43 24.5t-22 34t-6 38v17q0 25 13 49.5t49 39.5q-28 11 -41.5 33.5t-13.5 53.5v9q0 19 7.5 37.5t23.5 32t41 22t61 8.5q63 0 98 -25.5t35 -74.5v-9q0 -29 -15 -50.5t-42 -34.5q19 -6 31.5 -16.5t19.5 -23t10 -26t3 -25.5v-17q0 -21 -7 -40
t-23 -33.5t-43 -23.5t-67 -9zM220 187q-59 0 -81 -20t-22 -57v-5q0 -38 22 -58t81 -20q58 0 80 20t22 58v5q0 38 -22.5 57.5t-79.5 19.5zM220 366q-49 0 -73 -15.5t-24 -50.5v-7q0 -34 23 -52.5t74 -18.5q55 0 75.5 19.5t20.5 51.5v7q0 35 -24 50.5t-72 15.5z" />
    <glyph glyph-name="nineinferior" unicode="&#x2089;" 
d="M314 270q0 45 -22.5 70t-73.5 25q-21 0 -39 -3.5t-31.5 -13.5t-21 -27t-7.5 -44v-5q0 -51 22 -72t73 -21q21 0 39 4t31.5 13t21.5 24.5t8 38.5v11zM191 28q24 0 46 6.5t39.5 23.5t27.5 46t10 75q-17 -17 -44.5 -26t-61.5 -9q-68 0 -97 32.5t-29 93.5v7q0 58 35.5 90.5
t99.5 32.5q39 0 64.5 -10t41 -28.5t21.5 -44t6 -56.5v-78q0 -52 -11.5 -88t-32.5 -59t-51 -33.5t-67 -10.5q-25 0 -49 5t-42 12l10 33q17 -6 37 -10t47 -4z" />
    <glyph glyph-name="afii61289" unicode="&#x2113;" horiz-adv-x="356" 
d="M214 -18q-108 0 -108 148v93q-14 -16 -28.5 -32.5t-29.5 -34.5l-22 20l80 92v289q0 51 9 83t24 51t34.5 26t40.5 7q45 0 70.5 -30t25.5 -99q0 -45 -10.5 -83.5t-31.5 -77t-52.5 -79.5t-73.5 -91v-130q0 -34 4.5 -56.5t14 -36t24 -19.5t34.5 -6q26 0 45.5 7t40.5 22
l14 -24q-21 -20 -49.5 -29.5t-55.5 -9.5zM142 312q38 46 63.5 83t40.5 69t21.5 62.5t6.5 64.5q0 48 -13 73t-51 25q-16 0 -28.5 -5.5t-21.5 -20t-13.5 -38.5t-4.5 -61v-252z" />
    <glyph glyph-name="estimated" unicode="&#x212e;" horiz-adv-x="785" 
d="M389 656q-70 0 -123 -16.5t-89 -52.5v-211h431v211q-39 33 -93.5 51t-125.5 18zM691 149q-29 -45 -61 -75.5t-68 -49t-78 -26.5t-91 -8q-83 0 -148 27.5t-109.5 74.5t-68 111t-23.5 137t23 136.5t67.5 109.5t108.5 72.5t146 26.5t147 -25t110 -71t69.5 -109.5
t25.5 -139.5h-564v-245q38 -38 89.5 -58t127.5 -20q93 0 159 33.5t116 113.5z" />
    <glyph glyph-name="onethird" unicode="&#x2153;" horiz-adv-x="956" 
d="M671 683h44l-430 -683h-44zM661 223h76q23 0 37.5 5.5t23 15.5t11.5 22t3 26q0 39 -26 56t-70 17q-31 0 -60 -7t-51 -15l6 36q16 6 45 13.5t59 7.5q63 0 99 -26.5t36 -78.5v-5q0 -32 -15 -53t-39 -32q24 -9 41 -33.5t17 -60.5v-6q0 -57 -40 -85t-108 -28q-31 0 -64.5 7.5
t-52.5 17.5l10 31q49 -20 108 -20q50 0 79.5 17.5t29.5 62.5q0 15 -4 29.5t-13 26t-24 18t-38 6.5h-82zM102 291l6 35h106v319l-121 -39l6 35l121 42h31v-357h103l-7 -35h-245z" />
    <glyph glyph-name="twothirds" unicode="&#x2154;" horiz-adv-x="956" 
d="M671 683h44l-430 -683h-44zM661 223h76q23 0 37.5 5.5t23 15.5t11.5 22t3 26q0 39 -26 56t-70 17q-31 0 -60 -7t-51 -15l6 36q16 6 45 13.5t59 7.5q63 0 99 -26.5t36 -78.5v-5q0 -32 -15 -53t-39 -32q24 -9 41 -33.5t17 -60.5v-6q0 -57 -40 -85t-108 -28q-31 0 -64.5 7.5
t-52.5 17.5l10 31q49 -20 108 -20q50 0 79.5 17.5t29.5 62.5q0 15 -4 29.5t-13 26t-24 18t-38 6.5h-82zM135 326h210l-7 -35h-241v60q0 48 19 84t74 56l52 19q20 7 32.5 15t19 17t9 20.5t2.5 25.5q0 38 -26 53t-68 15q-33 0 -60 -6t-56 -17l6 37q19 7 47 14t62 7
q63 0 98.5 -23.5t35.5 -75.5v-6q0 -43 -20 -67t-67 -41l-55 -20q-38 -14 -52.5 -38.5t-14.5 -60.5v-33z" />
    <glyph glyph-name="oneeighth" unicode="&#x215b;" horiz-adv-x="956" 
d="M671 683h44l-430 -683h-44zM735 -8q-42 0 -69 9.5t-43 24.5t-22 34t-6 38v17q0 25 13 49.5t49 39.5q-28 11 -41.5 33.5t-13.5 53.5v9q0 19 7.5 37.5t23.5 32t41 22t61 8.5q63 0 98 -25.5t35 -74.5v-9q0 -29 -15 -50.5t-42 -34.5q19 -6 31.5 -16.5t19.5 -23t10 -26
t3 -25.5v-17q0 -21 -7 -40t-23 -33.5t-43 -23.5t-67 -9zM735 187q-59 0 -81 -20t-22 -57v-5q0 -38 22 -58t81 -20q58 0 80 20t22 58v5q0 38 -22.5 57.5t-79.5 19.5zM735 366q-49 0 -73 -15.5t-24 -50.5v-7q0 -34 23 -52.5t74 -18.5q55 0 75.5 19.5t20.5 51.5v7
q0 35 -24 50.5t-72 15.5zM102 291l6 35h106v319l-121 -39l6 35l121 42h31v-357h103l-7 -35h-245z" />
    <glyph glyph-name="threeeighths" unicode="&#x215c;" horiz-adv-x="956" 
d="M671 683h44l-430 -683h-44zM735 -8q-42 0 -69 9.5t-43 24.5t-22 34t-6 38v17q0 25 13 49.5t49 39.5q-28 11 -41.5 33.5t-13.5 53.5v9q0 19 7.5 37.5t23.5 32t41 22t61 8.5q63 0 98 -25.5t35 -74.5v-9q0 -29 -15 -50.5t-42 -34.5q19 -6 31.5 -16.5t19.5 -23t10 -26
t3 -25.5v-17q0 -21 -7 -40t-23 -33.5t-43 -23.5t-67 -9zM735 187q-59 0 -81 -20t-22 -57v-5q0 -38 22 -58t81 -20q58 0 80 20t22 58v5q0 38 -22.5 57.5t-79.5 19.5zM735 366q-49 0 -73 -15.5t-24 -50.5v-7q0 -34 23 -52.5t74 -18.5q55 0 75.5 19.5t20.5 51.5v7
q0 35 -24 50.5t-72 15.5zM146 514h76q23 0 37.5 5.5t23 15.5t11.5 22t3 26q0 39 -26 56t-70 17q-31 0 -60 -7t-51 -15l6 36q16 6 45 13.5t59 7.5q63 0 99 -26.5t36 -78.5v-5q0 -32 -15 -53t-39 -32q24 -9 41 -33.5t17 -60.5v-6q0 -57 -40 -85t-108 -28q-31 0 -64.5 7.5
t-52.5 17.5l10 31q49 -20 108 -20q50 0 79.5 17.5t29.5 62.5q0 15 -4 29.5t-13 26t-24 18t-38 6.5h-82z" />
    <glyph glyph-name="fiveeighths" unicode="&#x215d;" horiz-adv-x="956" 
d="M664 683h44l-430 -683h-44zM735 -8q-42 0 -69 9.5t-43 24.5t-22 34t-6 38v17q0 25 13 49.5t49 39.5q-28 11 -41.5 33.5t-13.5 53.5v9q0 19 7.5 37.5t23.5 32t41 22t61 8.5q63 0 98 -25.5t35 -74.5v-9q0 -29 -15 -50.5t-42 -34.5q19 -6 31.5 -16.5t19.5 -23t10 -26
t3 -25.5v-17q0 -21 -7 -40t-23 -33.5t-43 -23.5t-67 -9zM735 187q-59 0 -81 -20t-22 -57v-5q0 -38 22 -58t81 -20q58 0 80 20t22 58v5q0 38 -22.5 57.5t-79.5 19.5zM735 366q-49 0 -73 -15.5t-24 -50.5v-7q0 -34 23 -52.5t74 -18.5q55 0 75.5 19.5t20.5 51.5v7
q0 35 -24 50.5t-72 15.5zM202 283q-34 0 -63.5 6.5t-46.5 15.5l10 32q23 -9 46 -13.5t54 -4.5q50 0 78 18t28 63q0 28 -6.5 45t-19.5 26.5t-34 13t-49 3.5h-90l3 195h212l-6 -34h-171l-2 -125h61q75 0 108 -29t33 -89v-9q0 -56 -39.5 -85t-105.5 -29z" />
    <glyph glyph-name="seveneighths" unicode="&#x215e;" horiz-adv-x="956" 
d="M629 683h44l-430 -683h-44zM735 -8q-42 0 -69 9.5t-43 24.5t-22 34t-6 38v17q0 25 13 49.5t49 39.5q-28 11 -41.5 33.5t-13.5 53.5v9q0 19 7.5 37.5t23.5 32t41 22t61 8.5q63 0 98 -25.5t35 -74.5v-9q0 -29 -15 -50.5t-42 -34.5q19 -6 31.5 -16.5t19.5 -23t10 -26
t3 -25.5v-17q0 -21 -7 -40t-23 -33.5t-43 -23.5t-67 -9zM735 187q-59 0 -81 -20t-22 -57v-5q0 -38 22 -58t81 -20q58 0 80 20t22 58v5q0 38 -22.5 57.5t-79.5 19.5zM735 366q-49 0 -73 -15.5t-24 -50.5v-7q0 -34 23 -52.5t74 -18.5q55 0 75.5 19.5t20.5 51.5v7
q0 35 -24 50.5t-72 15.5zM307 649h-230l6 34h265v-28l-166 -364h-41z" />
    <glyph glyph-name="onefifth" unicode="&#x2155;" horiz-adv-x="956" 
d="M671 683h44l-430 -683h-44zM717 -8q-34 0 -63.5 6.5t-46.5 15.5l10 32q23 -9 46 -13.5t54 -4.5q50 0 78 18t28 63q0 28 -6.5 45t-19.5 26.5t-34 13t-49 3.5h-90l3 195h212l-6 -34h-171l-2 -125h61q75 0 108 -29t33 -89v-9q0 -56 -39.5 -85t-105.5 -29zM102 291l6 35h106
v319l-121 -39l6 35l121 42h31v-357h103l-7 -35h-245z" />
    <glyph glyph-name="twofifths" unicode="&#x2156;" horiz-adv-x="956" 
d="M671 683h44l-430 -683h-44zM717 -8q-34 0 -63.5 6.5t-46.5 15.5l10 32q23 -9 46 -13.5t54 -4.5q50 0 78 18t28 63q0 28 -6.5 45t-19.5 26.5t-34 13t-49 3.5h-90l3 195h212l-6 -34h-171l-2 -125h61q75 0 108 -29t33 -89v-9q0 -56 -39.5 -85t-105.5 -29zM135 326h210
l-7 -35h-241v60q0 48 19 84t74 56l52 19q20 7 32.5 15t19 17t9 20.5t2.5 25.5q0 38 -26 53t-68 15q-33 0 -60 -6t-56 -17l6 37q19 7 47 14t62 7q63 0 98.5 -23.5t35.5 -75.5v-6q0 -43 -20 -67t-67 -41l-55 -20q-38 -14 -52.5 -38.5t-14.5 -60.5v-33z" />
    <glyph glyph-name="threefifths" unicode="&#x2157;" horiz-adv-x="956" 
d="M662 683h44l-430 -683h-44zM717 -8q-34 0 -63.5 6.5t-46.5 15.5l10 32q23 -9 46 -13.5t54 -4.5q50 0 78 18t28 63q0 28 -6.5 45t-19.5 26.5t-34 13t-49 3.5h-90l3 195h212l-6 -34h-171l-2 -125h61q75 0 108 -29t33 -89v-9q0 -56 -39.5 -85t-105.5 -29zM146 514h76
q23 0 37.5 5.5t23 15.5t11.5 22t3 26q0 39 -26 56t-70 17q-31 0 -60 -7t-51 -15l6 36q16 6 45 13.5t59 7.5q63 0 99 -26.5t36 -78.5v-5q0 -32 -15 -53t-39 -32q24 -9 41 -33.5t17 -60.5v-6q0 -57 -40 -85t-108 -28q-31 0 -64.5 7.5t-52.5 17.5l10 31q49 -20 108 -20
q50 0 79.5 17.5t29.5 62.5q0 15 -4 29.5t-13 26t-24 18t-38 6.5h-82z" />
    <glyph glyph-name="fourfifths" unicode="&#x2158;" horiz-adv-x="956" 
d="M671 683h44l-430 -683h-44zM717 -8q-34 0 -63.5 6.5t-46.5 15.5l10 32q23 -9 46 -13.5t54 -4.5q50 0 78 18t28 63q0 28 -6.5 45t-19.5 26.5t-34 13t-49 3.5h-90l3 195h212l-6 -34h-171l-2 -125h61q75 0 108 -29t33 -89v-9q0 -56 -39.5 -85t-105.5 -29zM353 384h-43v-93
h-37v93h-192v28l174 271h42l-172 -265h148v123l37 8v-131h50z" />
    <glyph glyph-name="onesixth" unicode="&#x2159;" horiz-adv-x="956" 
d="M671 683h44l-430 -683h-44zM642 123q0 -45 24 -70t75 -25q21 0 38.5 3.5t30 13t20 27t7.5 45.5v5q0 52 -20 71.5t-71 19.5q-21 0 -40 -4t-33 -13t-22.5 -24.5t-8.5 -38.5v-10zM765 365q-26 0 -49 -6.5t-39.5 -23.5t-26 -45.5t-9.5 -72.5v-5q17 17 46.5 26.5t64.5 9.5
q36 0 59.5 -9t37.5 -25.5t19.5 -39t5.5 -50.5v-7q0 -63 -34.5 -94t-97.5 -31q-39 0 -65.5 10.5t-42 29t-22 44t-6.5 55.5v78q0 100 42 145.5t120 45.5q25 0 49 -5t42 -12l-10 -32q-17 6 -37 10t-47 4zM102 291l6 35h106v319l-121 -39l6 35l121 42h31v-357h103l-7 -35h-245z
" />
    <glyph glyph-name="fivesixths" unicode="&#x215a;" horiz-adv-x="956" 
d="M671 683h44l-430 -683h-44zM642 123q0 -45 24 -70t75 -25q21 0 38.5 3.5t30 13t20 27t7.5 45.5v5q0 52 -20 71.5t-71 19.5q-21 0 -40 -4t-33 -13t-22.5 -24.5t-8.5 -38.5v-10zM765 365q-26 0 -49 -6.5t-39.5 -23.5t-26 -45.5t-9.5 -72.5v-5q17 17 46.5 26.5t64.5 9.5
q36 0 59.5 -9t37.5 -25.5t19.5 -39t5.5 -50.5v-7q0 -63 -34.5 -94t-97.5 -31q-39 0 -65.5 10.5t-42 29t-22 44t-6.5 55.5v78q0 100 42 145.5t120 45.5q25 0 49 -5t42 -12l-10 -32q-17 6 -37 10t-47 4zM202 283q-34 0 -63.5 6.5t-46.5 15.5l10 32q23 -9 46 -13.5t54 -4.5
q50 0 78 18t28 63q0 28 -6.5 45t-19.5 26.5t-34 13t-49 3.5h-90l3 195h212l-6 -34h-171l-2 -125h61q75 0 108 -29t33 -89v-9q0 -56 -39.5 -85t-105.5 -29z" />
    <glyph glyph-name="oneseventh" unicode="&#x2150;" horiz-adv-x="956" 
d="M660 683h44l-430 -683h-44zM822 358h-230l6 34h265v-28l-166 -364h-41zM102 291l6 35h106v319l-121 -39l6 35l121 42h31v-357h103l-7 -35h-245z" />
    <glyph glyph-name="twosevenths" unicode="&#xf507;" horiz-adv-x="956" 
d="M652 683h44l-430 -683h-44zM822 358h-230l6 34h265v-28l-166 -364h-41zM135 326h210l-7 -35h-241v60q0 48 19 84t74 56l52 19q20 7 32.5 15t19 17t9 20.5t2.5 25.5q0 38 -26 53t-68 15q-33 0 -60 -6t-56 -17l6 37q19 7 47 14t62 7q63 0 98.5 -23.5t35.5 -75.5v-6
q0 -43 -20 -67t-67 -41l-55 -20q-38 -14 -52.5 -38.5t-14.5 -60.5v-33z" />
    <glyph glyph-name="threesevenths" unicode="&#xf508;" horiz-adv-x="956" 
d="M643 683h44l-430 -683h-44zM822 358h-230l6 34h265v-28l-166 -364h-41zM146 514h76q23 0 37.5 5.5t23 15.5t11.5 22t3 26q0 39 -26 56t-70 17q-31 0 -60 -7t-51 -15l6 36q16 6 45 13.5t59 7.5q63 0 99 -26.5t36 -78.5v-5q0 -32 -15 -53t-39 -32q24 -9 41 -33.5t17 -60.5
v-6q0 -57 -40 -85t-108 -28q-31 0 -64.5 7.5t-52.5 17.5l10 31q49 -20 108 -20q50 0 79.5 17.5t29.5 62.5q0 15 -4 29.5t-13 26t-24 18t-38 6.5h-82z" />
    <glyph glyph-name="foursevenths" unicode="&#xf509;" horiz-adv-x="956" 
d="M653 683h44l-430 -683h-44zM822 358h-230l6 34h265v-28l-166 -364h-41zM353 384h-43v-93h-37v93h-192v28l174 271h42l-172 -265h148v123l37 8v-131h50z" />
    <glyph glyph-name="fivesevenths" unicode="&#xf50a;" horiz-adv-x="956" 
d="M642 683h44l-430 -683h-44zM822 358h-230l6 34h265v-28l-166 -364h-41zM202 283q-34 0 -63.5 6.5t-46.5 15.5l10 32q23 -9 46 -13.5t54 -4.5q50 0 78 18t28 63q0 28 -6.5 45t-19.5 26.5t-34 13t-49 3.5h-90l3 195h212l-6 -34h-171l-2 -125h61q75 0 108 -29t33 -89v-9
q0 -56 -39.5 -85t-105.5 -29z" />
    <glyph glyph-name="sixsevenths" unicode="&#xf50b;" horiz-adv-x="956" 
d="M651 683h44l-430 -683h-44zM822 358h-230l6 34h265v-28l-166 -364h-41zM127 414q0 -45 24 -70t75 -25q21 0 38.5 3.5t30 13t20 27t7.5 45.5v5q0 52 -20 71.5t-71 19.5q-21 0 -40 -4t-33 -13t-22.5 -24.5t-8.5 -38.5v-10zM250 656q-26 0 -49 -6.5t-39.5 -23.5t-26 -45.5
t-9.5 -72.5v-5q17 17 46.5 26.5t64.5 9.5q36 0 59.5 -9t37.5 -25.5t19.5 -39t5.5 -50.5v-7q0 -63 -34.5 -94t-97.5 -31q-39 0 -65.5 10.5t-42 29t-22 44t-6.5 55.5v78q0 100 42 145.5t120 45.5q25 0 49 -5t42 -12l-10 -32q-17 6 -37 10t-47 4z" />
    <glyph glyph-name="oneninth" unicode="&#x2151;" horiz-adv-x="956" 
d="M671 683h44l-430 -683h-44zM829 270q0 45 -22.5 70t-73.5 25q-21 0 -39 -3.5t-31.5 -13.5t-21 -27t-7.5 -44v-5q0 -51 22 -72t73 -21q21 0 39 4t31.5 13t21.5 24.5t8 38.5v11zM706 28q24 0 46 6.5t39.5 23.5t27.5 46t10 75q-17 -17 -44.5 -26t-61.5 -9q-68 0 -97 32.5
t-29 93.5v7q0 58 35.5 90.5t99.5 32.5q39 0 64.5 -10t41 -28.5t21.5 -44t6 -56.5v-78q0 -52 -11.5 -88t-32.5 -59t-51 -33.5t-67 -10.5q-25 0 -49 5t-42 12l10 33q17 -6 37 -10t47 -4zM102 291l6 35h106v319l-121 -39l6 35l121 42h31v-357h103l-7 -35h-245z" />
    <glyph glyph-name="twoninths" unicode="&#xf50d;" horiz-adv-x="956" 
d="M671 683h44l-430 -683h-44zM829 270q0 45 -22.5 70t-73.5 25q-21 0 -39 -3.5t-31.5 -13.5t-21 -27t-7.5 -44v-5q0 -51 22 -72t73 -21q21 0 39 4t31.5 13t21.5 24.5t8 38.5v11zM706 28q24 0 46 6.5t39.5 23.5t27.5 46t10 75q-17 -17 -44.5 -26t-61.5 -9q-68 0 -97 32.5
t-29 93.5v7q0 58 35.5 90.5t99.5 32.5q39 0 64.5 -10t41 -28.5t21.5 -44t6 -56.5v-78q0 -52 -11.5 -88t-32.5 -59t-51 -33.5t-67 -10.5q-25 0 -49 5t-42 12l10 33q17 -6 37 -10t47 -4zM135 326h210l-7 -35h-241v60q0 48 19 84t74 56l52 19q20 7 32.5 15t19 17t9 20.5
t2.5 25.5q0 38 -26 53t-68 15q-33 0 -60 -6t-56 -17l6 37q19 7 47 14t62 7q63 0 98.5 -23.5t35.5 -75.5v-6q0 -43 -20 -67t-67 -41l-55 -20q-38 -14 -52.5 -38.5t-14.5 -60.5v-33z" />
    <glyph glyph-name="fourninths" unicode="&#xf50e;" horiz-adv-x="956" 
d="M671 683h44l-430 -683h-44zM829 270q0 45 -22.5 70t-73.5 25q-21 0 -39 -3.5t-31.5 -13.5t-21 -27t-7.5 -44v-5q0 -51 22 -72t73 -21q21 0 39 4t31.5 13t21.5 24.5t8 38.5v11zM706 28q24 0 46 6.5t39.5 23.5t27.5 46t10 75q-17 -17 -44.5 -26t-61.5 -9q-68 0 -97 32.5
t-29 93.5v7q0 58 35.5 90.5t99.5 32.5q39 0 64.5 -10t41 -28.5t21.5 -44t6 -56.5v-78q0 -52 -11.5 -88t-32.5 -59t-51 -33.5t-67 -10.5q-25 0 -49 5t-42 12l10 33q17 -6 37 -10t47 -4zM353 384h-43v-93h-37v93h-192v28l174 271h42l-172 -265h148v123l37 8v-131h50z" />
    <glyph glyph-name="fiveninths" unicode="&#xf50f;" horiz-adv-x="956" 
d="M660 683h44l-430 -683h-44zM829 270q0 45 -22.5 70t-73.5 25q-21 0 -39 -3.5t-31.5 -13.5t-21 -27t-7.5 -44v-5q0 -51 22 -72t73 -21q21 0 39 4t31.5 13t21.5 24.5t8 38.5v11zM706 28q24 0 46 6.5t39.5 23.5t27.5 46t10 75q-17 -17 -44.5 -26t-61.5 -9q-68 0 -97 32.5
t-29 93.5v7q0 58 35.5 90.5t99.5 32.5q39 0 64.5 -10t41 -28.5t21.5 -44t6 -56.5v-78q0 -52 -11.5 -88t-32.5 -59t-51 -33.5t-67 -10.5q-25 0 -49 5t-42 12l10 33q17 -6 37 -10t47 -4zM202 283q-34 0 -63.5 6.5t-46.5 15.5l10 32q23 -9 46 -13.5t54 -4.5q50 0 78 18t28 63
q0 28 -6.5 45t-19.5 26.5t-34 13t-49 3.5h-90l3 195h212l-6 -34h-171l-2 -125h61q75 0 108 -29t33 -89v-9q0 -56 -39.5 -85t-105.5 -29z" />
    <glyph glyph-name="sevenninths" unicode="&#xf510;" horiz-adv-x="956" 
d="M621 683h44l-430 -683h-44zM829 270q0 45 -22.5 70t-73.5 25q-21 0 -39 -3.5t-31.5 -13.5t-21 -27t-7.5 -44v-5q0 -51 22 -72t73 -21q21 0 39 4t31.5 13t21.5 24.5t8 38.5v11zM706 28q24 0 46 6.5t39.5 23.5t27.5 46t10 75q-17 -17 -44.5 -26t-61.5 -9q-68 0 -97 32.5
t-29 93.5v7q0 58 35.5 90.5t99.5 32.5q39 0 64.5 -10t41 -28.5t21.5 -44t6 -56.5v-78q0 -52 -11.5 -88t-32.5 -59t-51 -33.5t-67 -10.5q-25 0 -49 5t-42 12l10 33q17 -6 37 -10t47 -4zM307 649h-230l6 34h265v-28l-166 -364h-41z" />
    <glyph glyph-name="eightninths" unicode="&#xf511;" horiz-adv-x="956" 
d="M671 683h44l-430 -683h-44zM829 270q0 45 -22.5 70t-73.5 25q-21 0 -39 -3.5t-31.5 -13.5t-21 -27t-7.5 -44v-5q0 -51 22 -72t73 -21q21 0 39 4t31.5 13t21.5 24.5t8 38.5v11zM706 28q24 0 46 6.5t39.5 23.5t27.5 46t10 75q-17 -17 -44.5 -26t-61.5 -9q-68 0 -97 32.5
t-29 93.5v7q0 58 35.5 90.5t99.5 32.5q39 0 64.5 -10t41 -28.5t21.5 -44t6 -56.5v-78q0 -52 -11.5 -88t-32.5 -59t-51 -33.5t-67 -10.5q-25 0 -49 5t-42 12l10 33q17 -6 37 -10t47 -4zM220 283q-42 0 -69 9.5t-43 24.5t-22 34t-6 38v17q0 25 13 49.5t49 39.5
q-28 11 -41.5 33.5t-13.5 53.5v9q0 19 7.5 37.5t23.5 32t41 22t61 8.5q63 0 98 -25.5t35 -74.5v-9q0 -29 -15 -50.5t-42 -34.5q19 -6 31.5 -16.5t19.5 -23t10 -26t3 -25.5v-17q0 -21 -7 -40t-23 -33.5t-43 -23.5t-67 -9zM220 478q-59 0 -81 -20t-22 -57v-5q0 -38 22 -58
t81 -20q58 0 80 20t22 58v5q0 38 -22.5 57.5t-79.5 19.5zM220 657q-49 0 -73 -15.5t-24 -50.5v-7q0 -34 23 -52.5t74 -18.5q55 0 75.5 19.5t20.5 51.5v7q0 35 -24 50.5t-72 15.5z" />
    <glyph glyph-name="partialdiff" unicode="&#x2202;" horiz-adv-x="594" 
d="M134 714q15 7 54 16.5t90 9.5q56 0 102 -18.5t78.5 -58.5t50.5 -103t18 -152q0 -79 -13 -155t-45.5 -135.5t-87 -96t-136.5 -36.5q-95 0 -145.5 52.5t-50.5 158.5q0 63 20 112t54.5 82.5t81 51t99.5 17.5q71 0 117.5 -32t65.5 -89q1 17 1.5 34t0.5 34q0 68 -11 123
t-36.5 94t-66.5 60t-101 21q-48 0 -89 -9t-58 -17zM249 23q52 0 90.5 17.5t66 49t45 74.5t26.5 93q-3 36 -14.5 66t-32.5 52t-51.5 34.5t-72.5 12.5q-48 0 -88 -14.5t-68.5 -43t-44 -70.5t-15.5 -98q0 -89 40.5 -131t118.5 -42z" />
    <glyph glyph-name="Delta" unicode="&#x2206;" horiz-adv-x="605" 
d="M277 713h51l257 -713h-565zM76 37h453l-227 637z" />
    <glyph glyph-name="product" unicode="&#x220f;" horiz-adv-x="699" 
d="M669 712l-7 -37h-93v-762h-39v762h-361v-762h-39v762h-100l7 37h632z" />
    <glyph glyph-name="summation" unicode="&#x2211;" horiz-adv-x="546" 
d="M83 -71h437l-8 -37h-472v32l240 396l-240 361v32h486l-8 -37h-430l237 -356z" />
    <glyph glyph-name="uni2126" unicode="&#x2126;" horiz-adv-x="659" 
d="M329 689q-67 0 -109.5 -19t-67 -57t-33.5 -94.5t-9 -130.5q0 -87 10 -143.5t29.5 -94.5t48 -64.5t64.5 -52.5v-33h-207l10 37h135q-25 18 -48.5 43t-42 64t-29.5 97t-11 144q0 79 12 142.5t41.5 107.5t79.5 68t127 24t127.5 -22.5t80 -66t41.5 -106.5t12 -143
q0 -85 -11 -143.5t-29.5 -98t-42.5 -65.5t-51 -45h148l-10 -37h-197v33q36 26 64 52t47.5 64t30 94.5t10.5 144.5q0 74 -9 130.5t-33.5 94.5t-67.5 57t-110 19z" />
    <glyph glyph-name="minus" unicode="&#x2212;" horiz-adv-x="586" 
d="M501 362v-37h-415v37h415z" />
    <glyph glyph-name="uni2215" unicode="&#x2215;" horiz-adv-x="74" 
d="M230 683h44l-430 -683h-44z" />
    <glyph glyph-name="uni2219" unicode="&#x2219;" horiz-adv-x="266" 
d="M133 367q16 0 25.5 -9t9.5 -29t-9.5 -29t-25.5 -9t-25.5 9t-9.5 29t9.5 29t25.5 9z" />
    <glyph glyph-name="radical" unicode="&#x221a;" horiz-adv-x="705" 
d="M22 495v34h138l183 -496l303 846h39l-318 -884h-48l-188 500h-109z" />
    <glyph glyph-name="infinity" unicode="&#x221e;" horiz-adv-x="688" 
d="M184 206q-69 0 -99 39.5t-30 104.5q0 73 34.5 111t100.5 38q18 0 37 -4.5t38 -17t38.5 -35t39.5 -57.5q20 36 39.5 59t39 36.5t39.5 19t40 5.5q65 0 98.5 -39t33.5 -112q0 -76 -35.5 -115t-101.5 -39q-18 0 -37 4.5t-38 17t-39 35t-40 58.5q-37 -63 -76.5 -86t-81.5 -23z
M496 232q53 0 77 34t24 89q0 57 -24.5 87.5t-73.5 30.5q-13 0 -28 -4t-32.5 -17t-37 -36.5t-40.5 -63.5q17 -29 32 -51t30.5 -37.5t33 -23.5t39.5 -8zM184 467q-46 0 -69 -29.5t-23 -84.5q0 -24 4.5 -45t16 -36.5t30 -24.5t45.5 -9q12 0 27 3.5t32.5 14.5t37 33t39.5 60
q-34 61 -67.5 89.5t-72.5 28.5z" />
    <glyph glyph-name="integral" unicode="&#x222b;" horiz-adv-x="319" 
d="M102 483q-8 45 -15 82t-7 63q0 67 37 101t103 34q30 0 52 -5.5t27 -7.5l-9 -34q-11 3 -31 7t-43 4q-51 0 -74 -25.5t-23 -71.5q0 -20 3 -41t6 -38l93 -502q7 -37 13.5 -76.5t6.5 -71.5q0 -69 -36 -100.5t-99 -31.5q-24 0 -48 4t-38 9l7 35q14 -4 37 -8t44 -4
q45 0 69 24.5t24 72.5q0 14 -2 38.5t-5 41.5z" />
    <glyph glyph-name="approxequal" unicode="&#x2248;" horiz-adv-x="586" 
d="M339 181q13 -8 22.5 -13.5t17 -9t15 -5t16.5 -1.5q35 0 48 24t13 88h34q0 -43 -6.5 -71t-19 -45t-30 -24t-39.5 -7q-20 0 -38.5 8t-47.5 25l-77 46q-19 11 -36 19t-37 8q-35 0 -47.5 -24t-12.5 -88h-34q0 43 6.5 71t19 45t30 24t39.5 7q20 0 39.5 -7t47.5 -24zM339 405
q13 -8 22.5 -13.5t17 -9t15 -5t16.5 -1.5q35 0 48 24t13 88h34q0 -43 -6.5 -71t-19 -45t-30 -24t-39.5 -7q-20 0 -38.5 8t-47.5 25l-77 46q-19 11 -36 19t-37 8q-35 0 -47.5 -24t-12.5 -88h-34q0 43 6.5 71t19 45t30 24t39.5 7q20 0 39.5 -7t47.5 -24z" />
    <glyph glyph-name="notequal" unicode="&#x2260;" horiz-adv-x="586" 
d="M328 451l62 125h35l-62 -125h130v-37h-149l-72 -147h221v-37h-240l-62 -126h-35l62 126h-125v37h144l73 147h-217v37h235z" />
    <glyph glyph-name="lessequal" unicode="&#x2264;" horiz-adv-x="586" 
d="M93 35h401v-35h-401v35zM91 360l400 175v-37l-362 -155l362 -155v-39l-400 175v36z" />
    <glyph glyph-name="greaterequal" unicode="&#x2265;" horiz-adv-x="586" 
d="M493 0h-401v35h401v-35zM495 324l-400 -175v39l362 155l-362 155v37l400 -175v-36z" />
    <glyph glyph-name="lozenge" unicode="&#x25ca;" horiz-adv-x="624" 
d="M331 0h-38l-258 356l257 356h39l258 -356zM312 677l-229 -321l229 -321l229 321z" />
    <glyph glyph-name="fi" unicode="&#xf001;" horiz-adv-x="557" 
d="M31 511h97q0 126 44.5 182.5t126.5 56.5q13 0 31.5 -3t32.5 -8l-9 -32q-14 4 -28 5.5t-28 1.5q-72 0 -102.5 -47t-30.5 -156h307v-511h-37v477h-270v-477h-37v477h-104zM453 697q15 0 24.5 -8t9.5 -28t-9.5 -28t-24.5 -8t-24.5 8t-9.5 28t9.5 28t24.5 8z" />
    <glyph glyph-name="fl" unicode="&#xf002;" horiz-adv-x="553" 
d="M432 743h37v-743h-37v743zM31 511h97q0 126 44.5 182.5t126.5 56.5q13 0 31.5 -3t32.5 -8l-9 -32q-14 4 -28 5.5t-28 1.5q-72 0 -102.5 -47t-30.5 -156h163l-7 -34h-156v-477h-37v477h-104z" />
    <glyph glyph-name="uni03A9" unicode="&#x3a9;" horiz-adv-x="659" 
d="M329 689q-67 0 -109.5 -19t-67 -57t-33.5 -94.5t-9 -130.5q0 -87 10 -143.5t29.5 -94.5t48 -64.5t64.5 -52.5v-33h-207l10 37h135q-25 18 -48.5 43t-42 64t-29.5 97t-11 144q0 79 12 142.5t41.5 107.5t79.5 68t127 24t127.5 -22.5t80 -66t41.5 -106.5t12 -143
q0 -85 -11 -143.5t-29.5 -98t-42.5 -65.5t-51 -45h148l-10 -37h-197v33q36 26 64 52t47.5 64t30 94.5t10.5 144.5q0 74 -9 130.5t-33.5 94.5t-67.5 57t-110 19z" />
    <glyph glyph-name="pi" unicode="&#x3c0;" horiz-adv-x="640" 
d="M40 477l7 34h553l-7 -34h-92v-477h-37v477h-288v-477h-37v477h-99z" />
    <glyph glyph-name="uni0394" unicode="&#x394;" horiz-adv-x="605" 
d="M277 713h51l257 -713h-565zM76 37h453l-227 637z" />
    <glyph glyph-name="uni03BC" unicode="&#x3bc;" horiz-adv-x="570" 
d="M289 -12q-67 0 -108.5 21.5t-59.5 59.5v-301h-37v743h37v-302q0 -185 167 -185q161 0 161 182v305h37v-511h-31l-7 78q-9 -17 -24 -33t-35 -29t-45 -20.5t-55 -7.5z" />
    <glyph glyph-name="zero.alt" unicode="&#xf800;" horiz-adv-x="586" 
d="M291 23q51 0 86.5 13t57.5 44.5t32 84t10 132.5v88q0 82 -10 135.5t-32.5 84.5t-57.5 43t-86 12q-50 0 -85 -12t-57 -43t-31.5 -84.5t-9.5 -135.5v-88q0 -80 9.5 -132.5t31.5 -84t57 -44.5t85 -13zM291 698q69 0 113 -20t69.5 -59.5t35.5 -97t10 -132.5v-95
q0 -72 -10 -129t-36 -97t-70 -61.5t-112 -21.5q-69 0 -112.5 19.5t-68.5 58.5t-34 97t-9 134v95q0 70 9 127t34 97.5t68.5 62.5t112.5 22z" />
    <glyph glyph-name="one.alt" unicode="&#xf801;" horiz-adv-x="447" 
d="M52 0l8 37h165v609l-188 -64l7 36l182 65h38v-646h164l-8 -37h-368z" />
    <glyph glyph-name="two.alt" unicode="&#xf802;" horiz-adv-x="534" 
d="M238 660q-42 0 -88.5 -9.5t-88.5 -26.5l8 40q17 7 39 13.5t44.5 11t44.5 7t40 2.5q100 0 160.5 -40t60.5 -123v-10q0 -35 -6.5 -61.5t-21.5 -47.5t-40 -37.5t-63 -32.5l-96 -40q-33 -13 -56.5 -29.5t-38.5 -40t-21.5 -57t-6.5 -81.5v-61h354l-8 -37h-384v104
q0 100 36 154.5t110 83.5l92 38q37 15 59 30.5t33 33t14 38.5t3 47q0 39 -14 64.5t-38 40t-56.5 20.5t-70.5 6z" />
    <glyph glyph-name="three.alt" unicode="&#xf803;" horiz-adv-x="513" 
d="M137 376h123q33 0 57 6.5t40.5 22t24.5 42t8 66.5q0 38 -12.5 65t-35.5 44t-54.5 25t-69.5 8q-42 0 -87 -8.5t-86 -24.5l8 39q38 16 81 24t83 8q100 0 157.5 -46t57.5 -128v-10q0 -58 -22 -95.5t-73 -55.5q29 -10 48.5 -27.5t31.5 -40t17 -49t5 -54.5v-10
q0 -90 -60 -138.5t-174 -48.5q-56 0 -107 11t-77 23l10 34q38 -15 78.5 -22.5t96.5 -7.5q94 0 142.5 35.5t48.5 119.5q0 29 -4.5 57.5t-19 50.5t-41.5 35.5t-72 13.5h-130z" />
    <glyph glyph-name="four.alt" unicode="&#xf804;" horiz-adv-x="500" 
d="M464 157h-78v-157h-37v157h-318v33l278 493h40l-277 -490h277v233l37 10v-243h85z" />
    <glyph glyph-name="five.alt" unicode="&#xf805;" horiz-adv-x="521" 
d="M228 -10q-53 0 -101 10t-74 22l9 34q35 -12 75 -20t93 -8q97 0 139.5 39t42.5 128q0 49 -12 81t-37 51t-63 26.5t-90 7.5h-130l4 322h331l-7 -36h-287l-3 -249h104q63 0 107.5 -13t72 -38.5t40 -63t12.5 -86.5v-14q0 -90 -55.5 -141.5t-170.5 -51.5z" />
    <glyph glyph-name="six.alt" unicode="&#xf806;" horiz-adv-x="550" 
d="M107 212q0 -45 8.5 -80t28.5 -59.5t52.5 -37t80.5 -12.5q41 0 73 8t54 28t33.5 54.5t11.5 87.5v8q0 49 -7.5 84t-26.5 56.5t-51.5 31.5t-81.5 10q-40 0 -72 -8.5t-55 -27.5t-35.5 -49.5t-12.5 -74.5v-19zM316 655q-50 0 -89 -13t-65.5 -44t-40.5 -84t-14 -132v-35
q24 42 74 62t111 20q60 0 98.5 -16.5t61 -45t31 -68t8.5 -85.5v-13q0 -103 -52 -159.5t-160 -56.5q-65 0 -106 18.5t-64 51t-32 76.5t-9 95v142q0 165 59 245t194 80q40 0 76 -7t62 -17l-10 -34q-24 8 -54 14t-79 6z" />
    <glyph glyph-name="seven.alt" unicode="&#xf807;" horiz-adv-x="469" 
d="M387 647h-366l7 36h402v-32l-247 -651h-42z" />
    <glyph glyph-name="eight.alt" unicode="&#xf808;" horiz-adv-x="589" 
d="M294 -15q-70 0 -114 15.5t-69 41t-34.5 58t-9.5 65.5v29q0 26 7 52t22 48.5t38 40t54 26.5q-48 12 -78.5 50t-30.5 104v14q0 85 58.5 127t156.5 42q106 0 161 -42.5t55 -126.5v-14q0 -119 -112 -154q35 -8 59 -26t38.5 -41.5t20.5 -49.5t6 -50v-29q0 -36 -10 -68.5
t-36 -57t-70 -39.5t-112 -15zM294 342q-55 0 -91 -10.5t-57 -30.5t-29.5 -49.5t-8.5 -66.5v-8q0 -37 8.5 -65.5t29.5 -48.5t57 -30.5t91 -10.5t91 10t57 29.5t29.5 48.5t8.5 67v8q0 39 -9 68t-30 49t-57 30t-90 10zM294 661q-82 0 -129 -29.5t-47 -102.5v-12
q0 -68 40 -103.5t136 -35.5q52 0 86.5 9.5t54 27.5t27.5 43.5t8 58.5v12q0 72 -43 102t-133 30z" />
    <glyph glyph-name="nine.alt" unicode="&#xf809;" horiz-adv-x="550" 
d="M445 471q0 45 -8.5 80t-28.5 59.5t-52.5 37t-80.5 12.5q-41 0 -73 -8t-54 -28t-33.5 -54.5t-11.5 -86.5v-9q0 -47 8 -81.5t27.5 -56.5t51.5 -32.5t80 -10.5q40 0 72 8.5t55 27.5t35.5 49t12.5 74v19zM236 28q50 0 89 13t65.5 44.5t40.5 84t14 132.5v35q-24 -42 -74 -62
t-111 -20q-59 0 -97 17t-61 46.5t-32 68t-9 82.5v14q0 102 52 158.5t160 56.5q64 0 105.5 -18.5t64.5 -51t32 -76.5t9 -95v-143q0 -164 -59 -244t-194 -80q-40 0 -76 7t-62 17l9 34q24 -8 54.5 -14t79.5 -6z" />
    <glyph glyph-name="zero.sups" unicode="&#xf80a;" 
d="M220 436q60 0 88 33t28 117v34q0 44 -7.5 73.5t-22 47t-36 24.5t-50.5 7t-51 -7t-36.5 -24.5t-21.5 -47t-7 -73.5v-34q0 -84 28.5 -117t87.5 -33zM220 808q43 0 73 -13t48 -37t26 -58t8 -76v-41q0 -40 -8 -73.5t-26 -58t-47.5 -38t-73.5 -13.5q-43 0 -72.5 12.5t-48 36.5
t-26.5 58t-8 76v41q0 39 7.5 73t25.5 58.5t48 38.5t74 14z" />
    <glyph glyph-name="one.sups" unicode="&#xf80b;" 
d="M102 408l6 35h106v319l-121 -39l6 35l121 42h31v-357h103l-7 -35h-245z" />
    <glyph glyph-name="two.sups" unicode="&#xf80c;" 
d="M135 443h210l-7 -35h-241v60q0 48 19 84t74 56l52 19q20 7 32.5 15t19 17t9 20.5t2.5 25.5q0 38 -26 53t-68 15q-33 0 -60 -6t-56 -17l6 37q19 7 47 14t62 7q63 0 98.5 -23.5t35.5 -75.5v-6q0 -43 -20 -67t-67 -41l-55 -20q-38 -14 -52.5 -38.5t-14.5 -60.5v-33z" />
    <glyph glyph-name="three.sups" unicode="&#xf80d;" 
d="M146 631h76q23 0 37.5 5.5t23 15.5t11.5 22t3 26q0 39 -26 56t-70 17q-31 0 -60 -7t-51 -15l6 36q16 6 45 13.5t59 7.5q63 0 99 -26.5t36 -78.5v-5q0 -32 -15 -53t-39 -32q24 -9 41 -33.5t17 -60.5v-6q0 -57 -40 -85t-108 -28q-31 0 -64.5 7.5t-52.5 17.5l10 31
q49 -20 108 -20q50 0 79.5 17.5t29.5 62.5q0 15 -4 29.5t-13 26t-24 18t-38 6.5h-82z" />
    <glyph glyph-name="four.sups" unicode="&#xf80e;" 
d="M353 501h-43v-93h-37v93h-192v28l174 271h42l-172 -265h148v123l37 8v-131h50z" />
    <glyph glyph-name="five.sups" unicode="&#xf80f;" 
d="M202 400q-34 0 -63.5 6.5t-46.5 15.5l10 32q23 -9 46 -13.5t54 -4.5q50 0 78 18t28 63q0 28 -6.5 45t-19.5 26.5t-34 13t-49 3.5h-90l3 195h212l-6 -34h-171l-2 -125h61q75 0 108 -29t33 -89v-9q0 -56 -39.5 -85t-105.5 -29z" />
    <glyph glyph-name="six.sups" unicode="&#xf810;" 
d="M127 531q0 -45 24 -70t75 -25q21 0 38.5 3.5t30 13t20 27t7.5 45.5v5q0 52 -20 71.5t-71 19.5q-21 0 -40 -4t-33 -13t-22.5 -24.5t-8.5 -38.5v-10zM250 773q-26 0 -49 -6.5t-39.5 -23.5t-26 -45.5t-9.5 -72.5v-5q17 17 46.5 26.5t64.5 9.5q36 0 59.5 -9t37.5 -25.5
t19.5 -39t5.5 -50.5v-7q0 -63 -34.5 -94t-97.5 -31q-39 0 -65.5 10.5t-42 29t-22 44t-6.5 55.5v78q0 100 42 145.5t120 45.5q25 0 49 -5t42 -12l-10 -32q-17 6 -37 10t-47 4z" />
    <glyph glyph-name="seven.sups" unicode="&#xf811;" 
d="M307 766h-230l6 34h265v-28l-166 -364h-41z" />
    <glyph glyph-name="eight.sups" unicode="&#xf812;" 
d="M220 400q-42 0 -69 9.5t-43 24.5t-22 34t-6 38v17q0 25 13 49.5t49 39.5q-28 11 -41.5 33.5t-13.5 53.5v9q0 19 7.5 37.5t23.5 32t41 22t61 8.5q63 0 98 -25.5t35 -74.5v-9q0 -29 -15 -50.5t-42 -34.5q19 -6 31.5 -16.5t19.5 -23t10 -26t3 -25.5v-17q0 -21 -7 -40
t-23 -33.5t-43 -23.5t-67 -9zM220 595q-59 0 -81 -20t-22 -57v-5q0 -38 22 -58t81 -20q58 0 80 20t22 58v5q0 38 -22.5 57.5t-79.5 19.5zM220 774q-49 0 -73 -15.5t-24 -50.5v-7q0 -34 23 -52.5t74 -18.5q55 0 75.5 19.5t20.5 51.5v7q0 35 -24 50.5t-72 15.5z" />
    <glyph glyph-name="nine.sups" unicode="&#xf813;" 
d="M314 678q0 45 -22.5 70t-73.5 25q-21 0 -39 -3.5t-31.5 -13.5t-21 -27t-7.5 -44v-5q0 -51 22 -72t73 -21q21 0 39 4t31.5 13t21.5 24.5t8 38.5v11zM191 436q24 0 46 6.5t39.5 23.5t27.5 46t10 75q-17 -17 -44.5 -26t-61.5 -9q-68 0 -97 32.5t-29 93.5v7q0 58 35.5 90.5
t99.5 32.5q39 0 64.5 -10t41 -28.5t21.5 -44t6 -56.5v-78q0 -52 -11.5 -88t-32.5 -59t-51 -33.5t-67 -10.5q-25 0 -49 5t-42 12l10 33q17 -6 37 -10t47 -4z" />
    <glyph glyph-name="zero.sinf" unicode="&#xf814;" 
d="M220 -91q60 0 88 33t28 117v34q0 44 -7.5 73.5t-22 47t-36 24.5t-50.5 7t-51 -7t-36.5 -24.5t-21.5 -47t-7 -73.5v-34q0 -84 28.5 -117t87.5 -33zM220 281q43 0 73 -13t48 -37t26 -58t8 -76v-41q0 -40 -8 -73.5t-26 -58t-47.5 -38t-73.5 -13.5q-43 0 -72.5 12.5t-48 36.5
t-26.5 58t-8 76v41q0 39 7.5 73t25.5 58.5t48 38.5t74 14z" />
    <glyph glyph-name="one.sinf" unicode="&#xf815;" 
d="M102 -119l6 35h106v319l-121 -39l6 35l121 42h31v-357h103l-7 -35h-245z" />
    <glyph glyph-name="two.sinf" unicode="&#xf816;" 
d="M135 -84h210l-7 -35h-241v60q0 48 19 84t74 56l52 19q20 7 32.5 15t19 17t9 20.5t2.5 25.5q0 38 -26 53t-68 15q-33 0 -60 -6t-56 -17l6 37q19 7 47 14t62 7q63 0 98.5 -23.5t35.5 -75.5v-6q0 -43 -20 -67t-67 -41l-55 -20q-38 -14 -52.5 -38.5t-14.5 -60.5v-33z" />
    <glyph glyph-name="three.sinf" unicode="&#xf817;" 
d="M146 104h76q23 0 37.5 5.5t23 15.5t11.5 22t3 26q0 39 -26 56t-70 17q-31 0 -60 -7t-51 -15l6 36q16 6 45 13.5t59 7.5q63 0 99 -26.5t36 -78.5v-5q0 -32 -15 -53t-39 -32q24 -9 41 -33.5t17 -60.5v-6q0 -57 -40 -85t-108 -28q-31 0 -64.5 7.5t-52.5 17.5l10 31
q49 -20 108 -20q50 0 79.5 17.5t29.5 62.5q0 15 -4 29.5t-13 26t-24 18t-38 6.5h-82z" />
    <glyph glyph-name="four.sinf" unicode="&#xf818;" 
d="M353 -26h-43v-93h-37v93h-192v28l174 271h42l-172 -265h148v123l37 8v-131h50z" />
    <glyph glyph-name="five.sinf" unicode="&#xf819;" 
d="M202 -127q-34 0 -63.5 6.5t-46.5 15.5l10 32q23 -9 46 -13.5t54 -4.5q50 0 78 18t28 63q0 28 -6.5 45t-19.5 26.5t-34 13t-49 3.5h-90l3 195h212l-6 -34h-171l-2 -125h61q75 0 108 -29t33 -89v-9q0 -56 -39.5 -85t-105.5 -29z" />
    <glyph glyph-name="six.sinf" unicode="&#xf81a;" 
d="M127 4q0 -45 24 -70t75 -25q21 0 38.5 3.5t30 13t20 27t7.5 45.5v5q0 52 -20 71.5t-71 19.5q-21 0 -40 -4t-33 -13t-22.5 -24.5t-8.5 -38.5v-10zM250 246q-26 0 -49 -6.5t-39.5 -23.5t-26 -45.5t-9.5 -72.5v-5q17 17 46.5 26.5t64.5 9.5q36 0 59.5 -9t37.5 -25.5
t19.5 -39t5.5 -50.5v-7q0 -63 -34.5 -94t-97.5 -31q-39 0 -65.5 10.5t-42 29t-22 44t-6.5 55.5v78q0 100 42 145.5t120 45.5q25 0 49 -5t42 -12l-10 -32q-17 6 -37 10t-47 4z" />
    <glyph glyph-name="seven.sinf" unicode="&#xf81b;" 
d="M307 239h-230l6 34h265v-28l-166 -364h-41z" />
    <glyph glyph-name="eight.sinf" unicode="&#xf81c;" 
d="M220 -127q-42 0 -69 9.5t-43 24.5t-22 34t-6 38v17q0 25 13 49.5t49 39.5q-28 11 -41.5 33.5t-13.5 53.5v9q0 19 7.5 37.5t23.5 32t41 22t61 8.5q63 0 98 -25.5t35 -74.5v-9q0 -29 -15 -50.5t-42 -34.5q19 -6 31.5 -16.5t19.5 -23t10 -26t3 -25.5v-17q0 -21 -7 -40
t-23 -33.5t-43 -23.5t-67 -9zM220 68q-59 0 -81 -20t-22 -57v-5q0 -38 22 -58t81 -20q58 0 80 20t22 58v5q0 38 -22.5 57.5t-79.5 19.5zM220 247q-49 0 -73 -15.5t-24 -50.5v-7q0 -34 23 -52.5t74 -18.5q55 0 75.5 19.5t20.5 51.5v7q0 35 -24 50.5t-72 15.5z" />
    <glyph glyph-name="nine.sinf" unicode="&#xf81d;" 
d="M314 151q0 45 -22.5 70t-73.5 25q-21 0 -39 -3.5t-31.5 -13.5t-21 -27t-7.5 -44v-5q0 -51 22 -72t73 -21q21 0 39 4t31.5 13t21.5 24.5t8 38.5v11zM191 -91q24 0 46 6.5t39.5 23.5t27.5 46t10 75q-17 -17 -44.5 -26t-61.5 -9q-68 0 -97 32.5t-29 93.5v7q0 58 35.5 90.5
t99.5 32.5q39 0 64.5 -10t41 -28.5t21.5 -44t6 -56.5v-78q0 -52 -11.5 -88t-32.5 -59t-51 -33.5t-67 -10.5q-25 0 -49 5t-42 12l10 33q17 -6 37 -10t47 -4z" />
    <glyph glyph-name="hungarumlaut.cap" horiz-adv-x="500" 
d="M194 893h53l-104 -120h-43zM329 893h53l-104 -120h-43z" />
    <glyph glyph-name="cedilla.cap" horiz-adv-x="500" 
d="M241 0l-14 -51q97 -14 97 -77q0 -39 -27 -60.5t-75 -21.5q-25 0 -42.5 4.5t-31.5 14.5l10 28q18 -8 31 -11.5t33 -3.5q35 0 50 12.5t15 36.5t-25.5 35.5t-73.5 15.5l22 78h31z" />
    <glyph glyph-name="tilde.cap" horiz-adv-x="500" 
d="M215 824q-14 8 -27 13.5t-25 5.5q-17 0 -28 -15t-11 -55h-34q0 49 18 75.5t55 26.5q31 0 73 -24l47 -26q17 -9 31 -15t25 -6q18 0 27.5 15.5t9.5 53.5h34q0 -32 -7 -52t-17.5 -31t-23.5 -15t-25 -4q-14 0 -29 5t-41 19z" />
    <glyph glyph-name="ogonek.cap" horiz-adv-x="500" 
d="M258 -174q-32 0 -52.5 16t-20.5 45q0 38 26.5 69t80.5 61l23 -17q-29 -17 -47 -32t-28 -28t-13.5 -24t-3.5 -19q0 -15 10.5 -26t34.5 -11q18 0 45 8l-5 -32q-8 -5 -23 -7.5t-27 -2.5z" />
    <glyph glyph-name="ring.cap" horiz-adv-x="500" 
d="M347 829q0 -20 -7.5 -37t-20.5 -30t-30.5 -20.5t-38.5 -7.5t-38.5 7.5t-30.5 20.5t-20.5 30t-7.5 37q0 19 7.5 36.5t20.5 30.5t30.5 20.5t38.5 7.5t38.5 -7.5t30.5 -20.5t20.5 -30.5t7.5 -36.5zM312 829q0 28 -17 46.5t-45 18.5t-45 -18.5t-17 -46.5t17 -46.5t45 -18.5
t45 18.5t17 46.5z" />
    <glyph glyph-name="caron.cap" horiz-adv-x="500" 
d="M269 773h-38l-132 120h44l107 -90l108 90h43z" />
    <glyph glyph-name="macron.cap" horiz-adv-x="500" 
d="M130 843h239v-37h-239v37z" />
    <glyph glyph-name="dieresis.cap" horiz-adv-x="500" 
d="M176 863q14 0 24 -8.5t10 -28.5t-10 -28.5t-24 -8.5t-24 8.5t-10 28.5t10 28.5t24 8.5zM325 863q14 0 24 -8.5t10 -28.5t-10 -28.5t-24 -8.5t-24 8.5t-10 28.5t10 28.5t24 8.5z" />
    <glyph glyph-name="dotaccent.cap" horiz-adv-x="500" 
d="M250 863q14 0 24 -8.5t10 -28.5t-10 -28.5t-24 -8.5t-24 8.5t-10 28.5t10 28.5t24 8.5z" />
    <glyph glyph-name="circumflex.cap" horiz-adv-x="500" 
d="M231 893h38l132 -120h-44l-107 90l-108 -90h-43z" />
    <glyph glyph-name="acute.cap" horiz-adv-x="500" 
d="M297 893h61l-160 -120h-51z" />
    <glyph glyph-name="grave.cap" horiz-adv-x="500" 
d="M355 773h-51l-160 120h61z" />
    <glyph glyph-name="breve.cap" horiz-adv-x="500" 
d="M250 767q-121 0 -121 132h33q0 -47 20 -73.5t68 -26.5t68 26.5t20 73.5h33q0 -132 -121 -132z" />
    <glyph glyph-name="commaaccent.cap" horiz-adv-x="500" 
d="M210 -241l44 111q-25 7 -25 38q0 18 10.5 27t24.5 9q17 0 26.5 -9t9.5 -26q0 -13 -4 -25t-12 -28l-47 -97h-27z" />
    <glyph glyph-name="caron.alt" horiz-adv-x="500" 
d="M270 743l-17 -155h-31l8 155h40z" />
    <glyph glyph-name="commaaccent" unicode="&#xf6c3;" horiz-adv-x="500" 
d="M204 -237l42 106q-25 8 -25 36q0 17 10 26t24 9q34 0 34 -34q0 -12 -3.5 -23.5t-11.5 -26.5l-45 -93h-25z" />
    <glyph glyph-name="revcommaaccent" horiz-adv-x="500" 
d="M292 761l-42 -106q25 -8 25 -36q0 -17 -10 -26t-24 -9q-34 0 -34 34q0 12 3.5 23.5t11.5 26.5l45 93h25z" />
    <glyph glyph-name="acute.asc" horiz-adv-x="500" 
d="M297 918h61l-160 -120h-51z" />
    <glyph glyph-name="circumflex.asc" horiz-adv-x="500" 
d="M231 918h38l132 -120h-43l-108 91l-109 -91h-42z" />
    <glyph glyph-name="caron.alt.short" horiz-adv-x="500" 
d="M270 743l-17 -155h-31l8 155h40z" />
    <glyph glyph-name="Parenleft" horiz-adv-x="334" 
d="M70 457q0 83 8.5 146.5t34 106t71 64.5t120.5 22h9l-6 -33h-9q-59 0 -96 -18.5t-57.5 -56t-28 -93t-7.5 -129.5v-221q0 -74 7 -129.5t28 -93t59 -56t101 -18.5h9l-7 -33h-8q-72 0 -116.5 22t-69 64.5t-33.5 106t-9 146.5v203z" />
    <glyph glyph-name="Parenright" horiz-adv-x="334" 
d="M264 254q0 -83 -8.5 -146.5t-34 -106t-71 -64.5t-120.5 -22h-9l7 33h8q59 0 96 18.5t57.5 56t28 93t7.5 129.5v221q0 74 -7 129.5t-28 93t-59 56t-101 18.5h-9l7 33h8q72 0 116.5 -22t69 -64.5t33.5 -106t9 -146.5v-203z" />
    <glyph glyph-name="Hyphen" horiz-adv-x="404" 
d="M57 338v36h289v-36h-289z" />
    <glyph glyph-name="Slash" horiz-adv-x="355" 
d="M335 712l-275 -712h-40l275 712h40z" />
    <glyph glyph-name="At" horiz-adv-x="899" 
d="M491 539q-52 0 -88.5 -18t-59.5 -49.5t-33.5 -73t-10.5 -87.5q0 -34 6 -61t20 -45.5t37.5 -28t59.5 -9.5q70 0 104 37t47 112l33 196q-20 10 -48 18.5t-67 8.5zM587 179q60 4 102 29t67.5 63.5t37 87t11.5 99.5q0 140 -78 211.5t-227 71.5q-106 0 -180.5 -34.5t-122 -94
t-69 -139t-21.5 -168.5q0 -79 17.5 -141t56.5 -105t101 -65.5t151 -22.5q50 0 90.5 6t72.5 15t55 18.5t38 16.5l-9 -37q-50 -26 -117.5 -40.5t-138.5 -14.5q-74 0 -138.5 18.5t-113 61t-76.5 112.5t-28 173q0 55 9 112t30 110t54 99.5t81 81t111.5 54.5t145.5 20
q168 0 256.5 -83.5t88.5 -233.5q0 -61 -16 -118t-50.5 -100.5t-89 -69.5t-130.5 -26h-5l3 54q-9 -13 -21.5 -25.5t-30 -22.5t-40 -16t-51.5 -6q-72 0 -111.5 41.5t-39.5 135.5q0 55 14.5 104t43 85t71 57t98.5 21q49 0 89.5 -14t66.5 -29z" />
    <glyph glyph-name="Bracketleft" horiz-adv-x="344" 
d="M100 786h224l-7 -35h-178v-791h185l-7 -35h-217v861z" />
    <glyph glyph-name="Backslash" horiz-adv-x="355" 
d="M60 712l275 -712h-40l-275 712h40z" />
    <glyph glyph-name="Bracketright" horiz-adv-x="344" 
d="M244 -75h-224l7 35h178v791h-185l7 35h217v-861z" />
    <glyph glyph-name="Braceleft" horiz-adv-x="321" 
d="M126 627q0 40 7 71.5t25.5 53.5t50.5 33t82 11h10l-7 -33h-8q-34 0 -57 -6.5t-37.5 -21.5t-20.5 -39.5t-6 -59.5v-156q0 -43 -17.5 -75t-52.5 -49q35 -17 52.5 -49.5t17.5 -74.5v-157q0 -35 6 -59.5t20.5 -39.5t39 -21.5t60.5 -6.5h10l-7 -33h-8q-48 0 -79 11t-49 33
t-25 53t-7 72v142q0 53 -21.5 82t-66.5 31h-8v34h5q47 0 69 29.5t22 83.5v141z" />
    <glyph glyph-name="Braceright" horiz-adv-x="321" 
d="M195 84q0 -41 -7 -72t-25 -53t-50 -33t-83 -11h-10l7 33h8q34 0 57 6.5t37.5 21.5t20.5 39.5t6 59.5v156q0 43 17.5 75t52.5 49q-35 17 -52.5 49.5t-17.5 74.5v157q0 35 -6 59.5t-20.5 39.5t-39 21.5t-60.5 6.5h-10l7 33h8q48 0 79 -11t49 -33t25 -53.5t7 -71.5v-142
q0 -53 21.5 -82t66.5 -31h8v-34h-5q-47 0 -69 -29.5t-22 -83.5v-141z" />
    <glyph glyph-name="Guilsinglleft" horiz-adv-x="317" 
d="M40 370l217 184v-46l-179 -152l179 -152v-45l-217 184v27z" />
    <glyph glyph-name="Bullet" horiz-adv-x="332" 
d="M80 404q0 38 24 62t62 24t62 -24t24 -62t-24 -62t-62 -24t-62 24t-24 62z" />
    <glyph glyph-name="Endash" horiz-adv-x="500" 
d="M0 374h500v-36h-500v36z" />
    <glyph glyph-name="Emdash" horiz-adv-x="1000" 
d="M0 374h1000v-36h-1000v36z" />
    <glyph glyph-name="Guilsinglright" horiz-adv-x="317" 
d="M277 343l-217 -184v45l179 152l-179 152v46l217 -184v-27z" />
    <glyph glyph-name="Exclamdown" horiz-adv-x="266" 
d="M148 547l4 -192v-355h-39v254q0 32 0.5 60.5t0.5 40.5l4 192h30zM133 717q16 0 25.5 -9t9.5 -29t-9.5 -29t-25.5 -9t-25.5 9t-9.5 29t9.5 29t25.5 9z" />
    <glyph glyph-name="Guillemotleft" horiz-adv-x="510" 
d="M253 370l197 184v-46l-160 -152l160 -152v-45l-197 184v27zM40 370l197 184v-46l-160 -152l160 -152v-45l-197 184v27z" />
    <glyph glyph-name="Guillemotright" horiz-adv-x="510" 
d="M257 343l-197 -184v45l160 152l-160 152v46l197 -184v-27zM470 343l-197 -184v45l160 152l-160 152v46l197 -184v-27z" />
    <glyph glyph-name="Questiondown" horiz-adv-x="486" 
d="M280 28q51 0 95.5 9.5t77.5 22.5l-8 -39q-26 -11 -70 -21t-96 -10q-100 0 -160.5 44.5t-60.5 127.5v9q0 71 26.5 107.5t73.5 55.5l31 13q30 13 48 25.5t27.5 29t12.5 39.5t4 56l2 49h29q1 -11 1.5 -23.5t0.5 -28.5q0 -33 -3.5 -59.5t-14.5 -47.5t-31.5 -38t-53.5 -31
l-35 -15q-25 -10 -40 -23t-23.5 -29.5t-11 -37.5t-2.5 -46q0 -38 14 -64.5t38 -43t57 -24t72 -7.5zM297 640q-16 0 -25.5 9t-9.5 29t9.5 29t25.5 9t25.5 -9t9.5 -29t-9.5 -29t-25.5 -9z" />
    </font>
</defs>
</svg>
