<?xml version="1.0" standalone="no"?>
<!DOCTYPE svg PUBLIC "-//W3C//DTD SVG 1.1//EN" "http://www.w3.org/Graphics/SVG/1.1/DTD/svg11.dtd" >
<svg>
<metadata>
Created by FontForge 20120731 at Mon Apr 18 19:36:06 2016
 By www-data
Copyright 2014 Dalton Maag Ltd. Modification of this file requires prior written permission from Dalton Maag Ltd.
</metadata>
<defs>
<font id="Soleto-Bold" horiz-adv-x="500" >
  <font-face 
    font-family="Soleto"
    font-weight="700"
    font-stretch="normal"
    units-per-em="1000"
    panose-1="2 11 7 6 2 2 3 3 2 4"
    ascent="766"
    descent="-234"
    x-height="521"
    cap-height="712"
    bbox="-201 -292 1290 987"
    underline-thickness="82"
    underline-position="-81"
    unicode-range="U+0008-FB04"
  />
<missing-glyph 
d="M50 0v750h400v-750h-400zM400 50v650h-300v-650h300z" />
    <glyph glyph-name="f_f" unicode="ff" horiz-adv-x="748" 
d="M733 521l-16 -109h-133v-412h-148v412h-179v-412h-148v412h-96l16 109h81q0 50 11 92t35 72.5t62.5 47.5t93.5 17q35 0 60.5 -5.5t41.5 -11.5l-25 -104q-15 5 -27 7t-26 2q-25 0 -40.5 -7.5t-24 -22t-11.5 -36.5t-3 -51h180q0 50 12 92t38.5 72.5t68.5 47.5t103 17
q38 0 66.5 -5.5t45.5 -11.5l-25 -104q-19 5 -33.5 7t-31.5 2q-30 0 -49 -7.5t-29.5 -22t-14.5 -36.5t-4 -51h149z" />
    <glyph glyph-name="f_i" unicode="fi" horiz-adv-x="669" 
d="M444 412h-187v-412h-148v412h-96l16 109h81q0 50 10.5 92t34.5 72.5t62 47.5t92 17q33 0 58.5 -5.5t41.5 -11.5l-25 -104q-15 5 -26.5 7t-24.5 2q-25 0 -40 -8t-23 -23.5t-10.5 -37t-2.5 -48.5h335v-521h-148v412zM518 583q-47 0 -67 21t-20 56t20 56t67 21t67 -21
t20 -56t-20 -56t-67 -21z" />
    <glyph glyph-name="f_l" unicode="fl" horiz-adv-x="701" 
d="M406 521l-16 -109h-133v-412h-148v412h-96l16 109h81q0 50 11.5 92t37 72.5t66.5 47.5t100 17q37 0 64.5 -5.5t44.5 -11.5l-25 -104q-17 5 -31 7t-30 2q-29 0 -46.5 -7.5t-27.5 -22t-13.5 -36.5t-3.5 -51h149zM634 0h-148v743h148v-743z" />
    <glyph glyph-name="f_f_i" unicode="ffi" horiz-adv-x="996" 
d="M771 412h-187v-412h-148v412h-179v-412h-148v412h-96l16 109h81q0 50 11 92t35 72.5t62.5 47.5t93.5 17q35 0 60.5 -5.5t41.5 -11.5l-25 -104q-15 5 -27 7t-26 2q-25 0 -40.5 -7.5t-24 -22t-11.5 -36.5t-3 -51h180q0 50 10.5 92t34.5 72.5t62 47.5t92 17q33 0 58.5 -5.5
t41.5 -11.5l-25 -104q-15 5 -26.5 7t-24.5 2q-25 0 -40 -8t-23 -23.5t-10.5 -37t-2.5 -48.5h335v-521h-148v412zM845 583q-47 0 -67 21t-20 56t20 56t67 21t67 -21t20 -56t-20 -56t-67 -21z" />
    <glyph glyph-name="f_f_l" unicode="ffl" horiz-adv-x="1028" 
d="M733 521l-16 -109h-133v-412h-148v412h-179v-412h-148v412h-96l16 109h81q0 50 11 92t35 72.5t62.5 47.5t93.5 17q35 0 60.5 -5.5t41.5 -11.5l-25 -104q-15 5 -27 7t-26 2q-25 0 -40.5 -7.5t-24 -22t-11.5 -36.5t-3 -51h180q0 50 11.5 92t37 72.5t66.5 47.5t100 17
q37 0 64.5 -5.5t44.5 -11.5l-25 -104q-17 5 -31 7t-30 2q-29 0 -46.5 -7.5t-27.5 -22t-13.5 -36.5t-3.5 -51h149zM961 0h-148v743h148v-743z" />
    <glyph glyph-name="f_t" unicode="ft" horiz-adv-x="789" 
d="M448 412h-191v-412h-148v412h-96l16 109h81q0 50 12 92t36.5 72.5t62.5 47.5t89 17q32 0 57.5 -5.5t41.5 -11.5l-25 -104q-30 9 -50 9q-41 0 -59 -28.5t-18 -88.5h192v125l148 19v-144h156l-16 -109h-140v-219q0 -49 20.5 -69.5t71.5 -20.5q18 0 36 2t32 4l-17 -104
q-17 -6 -46 -10.5t-61 -4.5q-96 0 -140.5 48.5t-44.5 156.5v217z" />
    <glyph glyph-name="f_f_t" unicode="fft" horiz-adv-x="1116" 
d="M775 412h-191v-412h-148v412h-179v-412h-148v412h-96l16 109h81q0 50 11 92t35 72.5t62.5 47.5t93.5 17q35 0 60.5 -5.5t41.5 -11.5l-25 -104q-15 5 -27 7t-26 2q-25 0 -40.5 -7.5t-24 -22t-11.5 -36.5t-3 -51h180q0 50 12 92t36.5 72.5t62.5 47.5t89 17q32 0 57.5 -5.5
t41.5 -11.5l-25 -104q-30 9 -50 9q-41 0 -59 -28.5t-18 -88.5h192v125l148 19v-144h156l-16 -109h-140v-219q0 -49 20.5 -69.5t71.5 -20.5q18 0 36 2t32 4l-17 -104q-17 -6 -46 -10.5t-61 -4.5q-96 0 -140.5 48.5t-44.5 156.5v217z" />
    <glyph glyph-name=".notdef" 
d="M50 0v750h400v-750h-400zM400 50v650h-300v-650h300z" />
    <glyph glyph-name=".null" horiz-adv-x="0" 
 />
    <glyph glyph-name=".null" horiz-adv-x="0" 
 />
    <glyph glyph-name=".null" horiz-adv-x="0" 
 />
    <glyph glyph-name="nonmarkingreturn" unicode="&#x9;" horiz-adv-x="250" 
 />
    <glyph glyph-name="nonmarkingreturn" unicode="&#xd;" horiz-adv-x="250" 
 />
    <glyph glyph-name="space" unicode=" " horiz-adv-x="250" 
 />
    <glyph glyph-name="exclam" unicode="!" horiz-adv-x="321" 
d="M101 210l-9 130q-1 15 -2.5 44t-2.5 60t-1.5 57.5t-0.5 35.5v175h152v-175q0 -9 -0.5 -35.5t-1.5 -57.5t-2.5 -60t-2.5 -44l-9 -130h-120zM160 -10q-41 0 -64 18t-23 60t23 61t64 19q42 0 65 -19t23 -61t-23.5 -60t-64.5 -18z" />
    <glyph glyph-name="quotedbl" unicode="&#x22;" horiz-adv-x="451" 
d="M65 429l-9 115q-1 8 -1.5 21.5t-1.5 28.5l-1 30v26v88h133v-88q0 -11 -1 -26l-1 -30q0 -15 -0.5 -28.5t-1.5 -21.5l-9 -115h-107zM279 429l-9 115q-1 8 -1.5 21.5t-1.5 28.5l-1 30v26v88h133v-88q0 -11 -1 -26l-1 -30q0 -15 -0.5 -28.5t-1.5 -21.5l-9 -115h-107z" />
    <glyph glyph-name="numbersign" unicode="#" horiz-adv-x="671" 
d="M301 519h118l24 161h121l-24 -161h99l-21 -111h-95l-20 -134h100l-21 -111h-95l-24 -163h-121l24 163h-118l-24 -163h-121l24 163h-95l21 111h90l20 134h-95l21 111h91l24 161h121zM264 274h118l20 134h-118z" />
    <glyph glyph-name="dollar" unicode="$" horiz-adv-x="586" 
d="M327 764v-72q25 -1 50 -3.5t49 -6.5t45 -9t37 -11l-28 -110q-42 11 -77.5 16.5t-75.5 5.5v-177l23 -4q41 -7 74.5 -20t57 -35.5t36.5 -55.5t13 -79v-12q0 -87 -50.5 -139t-153.5 -62v-83h-70v80q-50 2 -103.5 11.5t-96.5 27.5l31 111q38 -14 80.5 -22t88.5 -10v179l-11 2
q-45 8 -80 22.5t-60 37.5t-38 55.5t-13 77.5v11q0 92 55 141.5t147 57.5v75h70zM398 190q0 37 -17.5 55t-53.5 27v-164q37 7 54 26t17 56zM188 490q0 -38 17 -55t52 -26v160q-37 -8 -53 -26.5t-16 -52.5z" />
    <glyph glyph-name="percent" unicode="%" horiz-adv-x="941" 
d="M597 683h125l-377 -683h-125zM732 89q32 0 45 23t13 72v26q0 56 -13 76t-43 20q-35 0 -48 -22.5t-13 -73.5v-26q0 -48 12.5 -71.5t46.5 -23.5zM733 400q48 0 81 -14t52.5 -39t28 -59.5t8.5 -75.5v-31q0 -41 -9 -76t-29 -60t-52.5 -39t-79.5 -14q-50 0 -83.5 15t-53 41
t-27.5 60t-8 73v31q0 43 9 77.5t29.5 59t53.5 38t80 13.5zM210 380q32 0 45 23t13 72v26q0 56 -13 76t-43 20q-35 0 -48 -22.5t-13 -73.5v-26q0 -48 12.5 -71.5t46.5 -23.5zM211 691q48 0 81 -14t52.5 -39t28 -59.5t8.5 -75.5v-31q0 -41 -9 -76t-29 -60t-52.5 -39t-79.5 -14
q-50 0 -83.5 15t-53 41t-27.5 60t-8 73v31q0 43 9 77.5t29.5 59t53.5 38t80 13.5z" />
    <glyph glyph-name="ampersand" unicode="&#x26;" horiz-adv-x="671" 
d="M314 727q83 0 129.5 -41t48.5 -113v-11q-2 -54 -33.5 -97.5t-102.5 -85.5l136 -168q5 20 7 40.5t2 43.5q0 20 -1 37t-3 34h115q6 -39 6 -78q0 -50 -11 -94.5t-34 -82.5l90 -111h-146l-30 36q-37 -23 -84 -37t-107 -14q-57 0 -104 11t-81 35t-52.5 61.5t-18.5 89.5v11
q0 38 10 67t29 53.5t47 46t64 43.5q-30 38 -45 74t-15 76v12q0 76 50 119t134 43zM318 101q31 0 55 6t43 17l-162 200q-41 -26 -58.5 -51t-17.5 -60v-9q0 -54 36.5 -78.5t103.5 -24.5zM315 622q-28 0 -45 -17.5t-17 -48.5v-6q0 -43 38 -90q34 19 58 41.5t24 55.5v6
q0 26 -15.5 42.5t-42.5 16.5z" />
    <glyph glyph-name="quotesingle" unicode="'" horiz-adv-x="237" 
d="M65 429l-9 115q-1 8 -1.5 21.5t-1.5 28.5l-1 30v26v88h133v-88q0 -11 -1 -26l-1 -30q0 -15 -0.5 -28.5t-1.5 -21.5l-9 -115h-107z" />
    <glyph glyph-name="parenleft" unicode="(" horiz-adv-x="391" 
d="M57 381q0 85 11.5 150.5t44.5 110.5t92 68t154 23h20l-18 -125h-19q-41 0 -67.5 -13.5t-42 -40.5t-21.5 -66t-6 -90v-211q0 -48 6 -86.5t22.5 -66t46.5 -42.5t79 -15h20l-18 -125h-19q-87 0 -142.5 23t-87 68t-43.5 110.5t-12 150.5v177z" />
    <glyph glyph-name="parenright" unicode=")" horiz-adv-x="391" 
d="M334 204q0 -85 -11.5 -150.5t-44.5 -110.5t-92 -68t-154 -23h-20l18 125h19q41 0 67.5 13.5t42 40.5t21.5 66t6 90v211q0 48 -6 86.5t-22.5 66t-46.5 42.5t-79 15h-20l18 125h19q87 0 142.5 -23t87 -68t43.5 -110.5t12 -150.5v-177z" />
    <glyph glyph-name="asterisk" unicode="*" horiz-adv-x="486" 
d="M243 436l-67 -104l-97 70l77 98l-121 33l36 111l116 -48l-5 118h124l-8 -117l118 47l35 -111l-120 -32l77 -99l-98 -70z" />
    <glyph glyph-name="plus" unicode="+" horiz-adv-x="586" 
d="M357 402h165v-118h-165v-167h-129v167h-164v118h164v166h129v-166z" />
    <glyph glyph-name="comma" unicode="," horiz-adv-x="266" 
d="M35 -146l53 162q-19 9 -28 26.5t-9 40.5q0 34 20.5 53.5t59.5 19.5q42 0 62 -20.5t20 -53.5q0 -21 -6.5 -39.5t-14.5 -37.5l-71 -151h-86z" />
    <glyph glyph-name="hyphen" unicode="-" horiz-adv-x="426" 
d="M46 228v124h334v-124h-334z" />
    <glyph glyph-name="period" unicode="." horiz-adv-x="266" 
d="M133 157q41 0 64 -20t23 -63t-23 -63.5t-64 -20.5t-64 20.5t-23 63.5t23 63t64 20z" />
    <glyph glyph-name="slash" unicode="/" horiz-adv-x="451" 
d="M429 712l-250 -712h-157l250 712h157z" />
    <glyph glyph-name="zero" unicode="0" horiz-adv-x="586" 
d="M39 385q0 72 12 130.5t41.5 100t79 63.5t123.5 22q76 0 125 -23.5t77.5 -65.5t39 -100t10.5 -127v-84q0 -72 -12 -130.5t-41.5 -100t-79 -63.5t-123.5 -22q-77 0 -125.5 23.5t-77 65.5t-39 100t-10.5 127v84zM188 301q0 -55 5 -92.5t17 -60.5t32.5 -33t50.5 -10t50.5 10
t32.5 33t17 60.5t5 92.5v84q0 55 -5 92.5t-17 60.5t-32.5 33t-50.5 10t-50.5 -10t-32.5 -33t-17 -60.5t-5 -92.5v-84z" />
    <glyph glyph-name="one" unicode="1" horiz-adv-x="586" 
d="M81 0l16 118h148v435l-167 -61l7 119l179 75h134v-568h141l-16 -118h-442z" />
    <glyph glyph-name="two" unicode="2" horiz-adv-x="586" 
d="M216 118h315l-16 -118h-446v121q0 40 5.5 76.5t22 68.5t46.5 58.5t78 46.5l72 30q27 11 43.5 21.5t25.5 22t12 23t3 25.5q0 45 -26.5 64t-86.5 19q-51 0 -105 -12t-97 -29l17 120q40 17 94 29t106 12q54 0 99 -11t77.5 -34t50.5 -59t18 -87v-9q0 -37 -8.5 -65.5
t-27 -51.5t-47.5 -42t-70 -35l-71 -30q-48 -20 -66 -49t-18 -81v-24z" />
    <glyph glyph-name="three" unicode="3" horiz-adv-x="586" 
d="M141 300l21 115h117q28 0 45 7t27 18t13.5 25t3.5 28q0 24 -9 40t-25 25.5t-38 13.5t-48 4q-49 0 -99 -10.5t-92 -25.5l17 120q38 15 88.5 25.5t106.5 10.5q62 0 108 -13.5t76 -37t44.5 -56.5t14.5 -72v-12q0 -50 -22 -85t-72 -58q51 -19 76.5 -62t25.5 -100v-14
q0 -41 -15 -77t-47 -62.5t-81.5 -41.5t-118.5 -15q-23 0 -50.5 2t-56 6.5t-56 11.5t-51.5 17l22 113q48 -16 95 -23t83 -7q66 0 99 22.5t33 73.5q0 19 -5 36t-17.5 30t-32.5 20.5t-50 7.5h-130z" />
    <glyph glyph-name="four" unicode="4" horiz-adv-x="586" 
d="M185 246h160v162l134 23v-185h77l-18 -114h-59v-132h-134v132h-312v100l265 454h147z" />
    <glyph glyph-name="five" unicode="5" horiz-adv-x="586" 
d="M251 -10q-20 0 -46 1.5t-53.5 5.5t-55 10t-51.5 15l22 114q43 -13 89.5 -19.5t86.5 -6.5q68 0 96.5 24t28.5 75q0 31 -9.5 51t-27.5 30.5t-45 14.5t-62 4h-144l11 377h391l-16 -118h-244l-4 -140h57q65 0 111 -14t74.5 -40.5t41.5 -65.5t13 -89v-16q0 -47 -15.5 -86
t-48 -67.5t-82 -44t-118.5 -15.5z" />
    <glyph glyph-name="six" unicode="6" horiz-adv-x="586" 
d="M195 220q0 -63 23 -91t77 -28q22 0 40 5t31 18t20 34t7 54v11q0 60 -21.5 88t-72.5 28q-21 0 -39.5 -5t-33 -16.5t-23 -30.5t-8.5 -48v-19zM358 577q-39 0 -69 -8.5t-51 -29t-32.5 -55t-12.5 -86.5q23 23 58.5 36.5t85.5 13.5q55 0 93 -16t61.5 -45t34 -69.5t10.5 -89.5
v-12q0 -52 -13 -94.5t-42 -73t-75 -47t-111 -16.5q-74 0 -121.5 21t-75 57t-38 84.5t-10.5 103.5v104q0 91 19.5 155.5t57 105.5t92 60.5t124.5 19.5q47 0 87 -7.5t73 -18.5l-28 -111q-33 10 -62 14t-55 4z" />
    <glyph glyph-name="seven" unicode="7" horiz-adv-x="586" 
d="M361 563h-316l16 123h452v-99l-219 -587h-153z" />
    <glyph glyph-name="eight" unicode="8" horiz-adv-x="586" 
d="M290 -15q-69 0 -116.5 15t-77 41t-42.5 62t-13 78v9q0 64 26.5 105.5t76.5 61.5q-45 20 -68.5 58t-23.5 94v10q0 40 13.5 73.5t42.5 57.5t74.5 37.5t110.5 13.5q64 0 109.5 -13.5t73.5 -37.5t41 -57.5t13 -73.5v-10q0 -54 -23.5 -93t-68.5 -59q50 -20 76.5 -60.5
t26.5 -106.5v-9q0 -42 -13.5 -78t-43.5 -62t-77.5 -41t-116.5 -15zM292 409q53 0 76 22t23 62v13q0 41 -23 62t-77 21t-77 -21t-23 -62v-13q0 -41 24 -62.5t77 -21.5zM291 97q58 0 84 23t26 71v11q0 47 -24 71t-86 24t-86 -24.5t-24 -70.5v-11q0 -47 26 -70.5t84 -23.5z" />
    <glyph glyph-name="nine" unicode="9" horiz-adv-x="586" 
d="M391 465q0 64 -23 92t-77 28q-22 0 -40 -5t-31 -18t-20 -34t-7 -54v-12q0 -60 21.5 -88t72.5 -28q22 0 41 5t33 17t22 31t8 47v19zM225 109q88 0 126.5 42t41.5 136q-28 -27 -64.5 -38.5t-79.5 -11.5q-53 0 -90.5 15.5t-61.5 44t-35.5 69t-11.5 91.5v12q0 53 13.5 96
t43 73t75 46.5t109.5 16.5q75 0 123 -21.5t75 -58t37 -84.5t10 -102v-104q0 -80 -16.5 -143.5t-52 -107.5t-92 -67t-135.5 -23q-48 0 -87.5 7.5t-74.5 18.5l28 111q34 -10 63 -14t56 -4z" />
    <glyph glyph-name="colon" unicode=":" horiz-adv-x="266" 
d="M133 157q41 0 64 -20t23 -63t-23 -63.5t-64 -20.5t-64 20.5t-23 63.5t23 63t64 20zM133 526q41 0 64 -20t23 -63t-23 -63.5t-64 -20.5t-64 20.5t-23 63.5t23 63t64 20z" />
    <glyph glyph-name="semicolon" unicode=";" horiz-adv-x="266" 
d="M35 -146l53 162q-19 9 -28 26.5t-9 40.5q0 34 20.5 53.5t59.5 19.5q42 0 62 -20.5t20 -53.5q0 -21 -6.5 -39.5t-14.5 -37.5l-71 -151h-86zM133 526q41 0 64 -20t23 -63t-23 -63.5t-64 -20.5t-64 20.5t-23 63.5t23 63t64 20z" />
    <glyph glyph-name="less" unicode="&#x3c;" horiz-adv-x="586" 
d="M228 340l277 -102v-131l-424 165v135l424 165v-130z" />
    <glyph glyph-name="equal" unicode="=" horiz-adv-x="586" 
d="M73 515h440v-119h-440v119zM73 286h440v-119h-440v119z" />
    <glyph glyph-name="greater" unicode="&#x3e;" horiz-adv-x="586" 
d="M81 238l276 102l-276 102v130l424 -165v-135l-424 -165v131z" />
    <glyph glyph-name="question" unicode="?" horiz-adv-x="513" 
d="M342 348q-34 -19 -50 -40.5t-18 -62.5l-2 -35h-123l-2 40q-3 63 17 101.5t66 64.5l37 21q32 17 44 33.5t12 45.5q0 44 -28 63t-94 19q-46 0 -90 -8.5t-84 -24.5l18 122q33 14 82.5 24.5t104.5 10.5q52 0 96 -11t76 -34t49.5 -57.5t17.5 -81.5v-8q0 -59 -21.5 -97.5
t-72.5 -65.5zM210 -10q-41 0 -64 18t-23 60t23 61t64 19q42 0 65 -19t23 -61t-23.5 -60t-64.5 -18z" />
    <glyph glyph-name="at" unicode="@" horiz-adv-x="917" 
d="M494 346q-28 0 -49 -12.5t-35 -33.5t-21 -49t-7 -59q0 -42 13 -61t42 -19q36 0 58 25t29 68l22 131q-11 4 -24.5 7t-27.5 3zM627 131q69 13 106 68t37 138q0 111 -67.5 165.5t-183.5 54.5q-84 0 -150.5 -27t-113 -76t-71 -118t-24.5 -152q0 -135 69 -208t217 -73
q41 0 80.5 5.5t75 13.5t66 18.5t53.5 20.5l-20 -102q-53 -25 -122.5 -40t-144.5 -15q-87 0 -157.5 23t-121 69t-77.5 115.5t-27 162.5q0 91 27.5 178t84.5 154.5t144.5 108.5t207.5 41q84 0 150.5 -21t113.5 -61t72 -97.5t25 -130.5q0 -70 -23.5 -129.5t-69 -102.5
t-112.5 -67t-154 -24l2 46q-21 -30 -49.5 -46t-70.5 -16q-69 0 -104 45t-35 128q0 56 15.5 104.5t45.5 84t75 56t104 20.5q47 0 90 -12.5t81 -34.5z" />
    <glyph glyph-name="A" unicode="A" horiz-adv-x="684" 
d="M453 176h-230l-53 -176h-148l237 712h160l243 -712h-156zM254 294h167l-83 273z" />
    <glyph glyph-name="B" unicode="B" horiz-adv-x="631" 
d="M73 0v712h284q57 0 98 -13.5t68 -38t39.5 -57.5t12.5 -72v-17q0 -46 -20.5 -83t-62.5 -58q48 -19 73.5 -62.5t25.5 -98.5v-16q0 -93 -60.5 -144.5t-187.5 -51.5h-270zM217 114h128q48 0 73.5 21t25.5 65v17q0 94 -103 94h-124v-197zM217 425h125q40 0 63.5 19.5
t23.5 58.5v14q0 81 -94 81h-118v-173z" />
    <glyph glyph-name="C" unicode="C" horiz-adv-x="577" 
d="M359 -10q-86 0 -143.5 20.5t-92.5 61t-49.5 101t-14.5 141.5v73q0 72 14.5 133t50.5 106t96 70.5t151 25.5q51 0 94 -8t71 -18l-25 -116q-24 8 -54.5 13t-66.5 5q-48 0 -81.5 -9.5t-54.5 -33.5t-30.5 -65t-9.5 -104v-66q0 -64 8.5 -104t28.5 -62.5t54.5 -31t87.5 -8.5
q29 0 66 3t75 10l-24 -120q-38 -9 -77 -13t-74 -4z" />
    <glyph glyph-name="D" unicode="D" horiz-adv-x="695" 
d="M73 712h250q91 0 151.5 -24t96.5 -66.5t50.5 -102t14.5 -129.5v-67q0 -71 -15 -130.5t-51 -102t-96.5 -66.5t-151.5 -24h-249v712zM225 124h84q43 0 75.5 10t54 34t32 63.5t10.5 98.5v53q0 60 -10.5 99.5t-32 63t-54 33t-75.5 9.5h-84v-464z" />
    <glyph glyph-name="E" unicode="E" horiz-adv-x="591" 
d="M550 712l-16 -119h-309v-172h293l-15 -119h-278v-183h325l-16 -119h-461v712h477z" />
    <glyph glyph-name="F" unicode="F" horiz-adv-x="558" 
d="M531 712l-17 -124h-289v-182h263l-17 -124h-246v-282h-152v712h458z" />
    <glyph glyph-name="G" unicode="G" horiz-adv-x="654" 
d="M409 598q-54 0 -91.5 -10t-60.5 -34.5t-33 -65.5t-10 -102v-64q0 -64 9 -104.5t29.5 -63.5t53.5 -31.5t81 -8.5q14 0 28.5 1t31.5 3v157h-89l14 118h218v-371q-42 -14 -103 -23t-127 -9q-81 0 -138.5 19.5t-93.5 60t-52.5 101.5t-16.5 144v73q0 75 16.5 136.5t55.5 105.5
t102.5 68t157.5 24q52 0 102 -9t82 -20l-25 -115q-29 8 -63 14t-78 6z" />
    <glyph glyph-name="H" unicode="H" horiz-adv-x="701" 
d="M628 712v-712h-152v311h-251v-311h-152v712h152v-274h251v274h152z" />
    <glyph glyph-name="I" unicode="I" horiz-adv-x="298" 
d="M225 0h-152v712h152v-712z" />
    <glyph glyph-name="J" unicode="J" horiz-adv-x="487" 
d="M45 129q21 -5 45.5 -10t54.5 -5q33 0 56.5 8t38.5 26.5t22 48.5t7 74v441h152v-441q0 -65 -13 -117t-42 -88.5t-77 -56t-118 -19.5q-43 0 -83 6.5t-68 17.5z" />
    <glyph glyph-name="K" unicode="K" horiz-adv-x="653" 
d="M218 311v-311h-145v712h145v-292l245 292h169l-289 -340l305 -372h-184z" />
    <glyph glyph-name="L" unicode="L" horiz-adv-x="553" 
d="M225 712v-588h306l-17 -124h-441v712h152z" />
    <glyph glyph-name="M" unicode="M" horiz-adv-x="805" 
d="M348 164l-133 293v-457h-142v712h153l179 -396l179 396h148v-712h-142v457l-133 -293h-109z" />
    <glyph glyph-name="N" unicode="N" horiz-adv-x="703" 
d="M208 712l280 -471v471h142v-712h-134l-280 471v-471h-143v712h135z" />
    <glyph glyph-name="O" unicode="O" horiz-adv-x="707" 
d="M214 312q0 -64 8.5 -103.5t26 -61.5t43.5 -30t61 -8q33 0 59 8t44 30.5t27.5 62t9.5 102.5v88q0 64 -8.5 103.5t-26 61.5t-43.5 30t-61 8q-33 0 -59 -8t-44 -30.5t-27.5 -62t-9.5 -102.5v-88zM648 314q0 -72 -13.5 -132.5t-47 -104t-90 -68t-143.5 -24.5q-89 0 -146 24.5
t-90 68t-46 104t-13 132.5v84q0 73 14 134t47.5 104t90 67t142.5 24q91 0 148.5 -25.5t90 -69.5t44.5 -104t12 -130v-84z" />
    <glyph glyph-name="P" unicode="P" horiz-adv-x="617" 
d="M225 255v-255h-152v712h291q58 0 99.5 -16.5t67.5 -45.5t38 -68.5t12 -84.5v-23q0 -219 -239 -219h-117zM225 375h103q103 0 103 97v19q0 101 -101 101h-105v-217z" />
    <glyph glyph-name="Q" unicode="Q" horiz-adv-x="707" 
d="M648 314q0 -47 -5.5 -89t-18 -78.5t-34 -66t-54.5 -50.5l85 -148h-139l-59 108q-16 -2 -33 -3.5t-36 -1.5q-91 0 -148.5 25.5t-90 69.5t-44.5 104.5t-12 129.5v84q0 73 14 134t47.5 104t90 67t142.5 24q91 0 148.5 -25.5t90 -69.5t44.5 -104t12 -130v-84zM214 312
q0 -65 8.5 -106t26 -63.5t43.5 -30.5t61 -8h7l-64 116h132l38 -67q13 23 20 61.5t7 97.5v88q0 64 -8.5 103.5t-26 61.5t-43.5 30t-61 8q-33 0 -59 -8t-44 -30.5t-27.5 -62t-9.5 -102.5v-88z" />
    <glyph glyph-name="R" unicode="R" horiz-adv-x="636" 
d="M588 478q0 -151 -128 -198l154 -280h-166l-132 262h-95v-262h-148v712h297q58 0 99.5 -16.5t68 -45t38.5 -67t12 -83.5v-22zM221 380h117q52 0 77 25t25 73v16q0 98 -99 98h-120v-212z" />
    <glyph glyph-name="S" unicode="S" horiz-adv-x="584" 
d="M257 -10q-61 0 -120 9t-100 23l25 117q41 -10 89.5 -18.5t99.5 -8.5q72 0 104.5 22t32.5 73q0 25 -7 41t-21.5 25.5t-36 14.5t-50.5 10l-49 8q-33 5 -65 17t-56.5 34.5t-40 58.5t-15.5 90q0 216 280 216q57 0 104.5 -8.5t88.5 -21.5l-23 -116q-35 10 -77.5 17t-91.5 7
q-74 0 -106 -19.5t-32 -67.5q0 -38 22.5 -57.5t79.5 -27.5l48 -7q35 -5 70.5 -16t64 -33.5t46 -60.5t17.5 -97q0 -115 -72 -169.5t-209 -54.5z" />
    <glyph glyph-name="T" unicode="T" horiz-adv-x="616" 
d="M594 712l-17 -124h-193v-588h-152v588h-210l17 124h555z" />
    <glyph glyph-name="U" unicode="U" horiz-adv-x="695" 
d="M346 -15q-84 0 -138 19.5t-85.5 58.5t-44 96.5t-12.5 133.5v419h152v-410q0 -55 6 -92t21 -59.5t40 -32t64 -9.5t63.5 9.5t39 32t20 59.5t5.5 92v410h152v-420q0 -74 -12.5 -131t-44 -96t-86.5 -59.5t-140 -20.5z" />
    <glyph glyph-name="V" unicode="V" horiz-adv-x="683" 
d="M185 712l158 -539l161 539h157l-242 -712h-157l-240 712h163z" />
    <glyph glyph-name="W" unicode="W" horiz-adv-x="915" 
d="M538 687l106 -495l103 520h147l-182 -712h-140l-113 510l-111 -510h-150l-177 712h156l97 -519l113 494h151z" />
    <glyph glyph-name="X" unicode="X" horiz-adv-x="683" 
d="M15 0l238 371l-211 341h173l129 -233l133 233h165l-210 -337l237 -375h-173l-156 262l-157 -262h-168z" />
    <glyph glyph-name="Y" unicode="Y" horiz-adv-x="643" 
d="M324 408l148 304h157l-233 -429v-283h-152v283l-230 429h167z" />
    <glyph glyph-name="Z" unicode="Z" horiz-adv-x="610" 
d="M379 590h-326l16 122h485v-101l-330 -489h350l-16 -122h-508v101z" />
    <glyph glyph-name="bracketleft" unicode="[" horiz-adv-x="394" 
d="M72 723h309l-18 -124h-143v-613h161l-18 -124h-291v861z" />
    <glyph glyph-name="backslash" unicode="\" horiz-adv-x="451" 
d="M179 712l250 -712h-157l-250 712h157z" />
    <glyph glyph-name="bracketright" unicode="]" horiz-adv-x="394" 
d="M322 -138h-309l18 124h144v613h-162l18 124h291v-861z" />
    <glyph glyph-name="asciicircum" unicode="^" horiz-adv-x="586" 
d="M230 712h126l173 -322h-138l-99 201l-96 -201h-138z" />
    <glyph glyph-name="underscore" unicode="_" 
d="M0 -71h500v-124h-500v124z" />
    <glyph glyph-name="grave" unicode="`" 
d="M387 593h-129l-145 147h154z" />
    <glyph glyph-name="a" unicode="a" horiz-adv-x="553" 
d="M175 159q0 -32 20 -48.5t65 -16.5q48 0 71 18t23 50v8q0 59 -84 59h-17q-78 0 -78 -65v-5zM38 160q0 46 13.5 77t38 50.5t59 28t76.5 8.5q43 0 75 -9t53 -29v27q0 58 -31.5 82.5t-97.5 24.5q-30 0 -63 -4.5t-80 -14.5l18 111q32 9 77 15t84 6q115 0 174 -51t59 -148v-334
h-125l-9 50q-24 -32 -62.5 -46t-85.5 -14q-37 0 -68.5 8.5t-55 27.5t-36.5 50t-13 76v8z" />
    <glyph glyph-name="b" unicode="b" horiz-adv-x="608" 
d="M405 280q0 72 -21 104.5t-74 32.5q-48 0 -71.5 -28t-23.5 -91v-181q17 -8 39 -12t43 -4q56 0 82 32.5t26 101.5v45zM555 248q0 -71 -18.5 -120.5t-53 -80.5t-83 -45t-107.5 -14q-66 0 -122.5 15t-103.5 41v699h148v-264q27 27 60.5 40.5t81.5 13.5q100 0 149 -61.5
t49 -191.5v-32z" />
    <glyph glyph-name="c" unicode="c" horiz-adv-x="482" 
d="M427 10q-26 -8 -59.5 -14t-75.5 -6q-68 0 -114 17.5t-74 50t-39.5 78t-11.5 102.5v49q0 55 14.5 100.5t45 77t78 49t114.5 17.5q43 0 79.5 -6.5t65.5 -15.5l-24 -105q-21 6 -44 10t-51 4q-71 0 -99.5 -29.5t-28.5 -100.5v-46q0 -40 8 -66.5t25 -42.5t43 -23t61 -7
q24 0 52 3t53 8z" />
    <glyph glyph-name="d" unicode="d" horiz-adv-x="608" 
d="M203 242q0 -75 21 -106.5t73 -31.5q49 0 72.5 28t23.5 91v175q-23 11 -43 16.5t-43 5.5q-54 0 -79 -32t-25 -101v-45zM53 277q0 66 15 114.5t43 80t67 46.5t86 15q38 0 69.5 -9.5t59.5 -26.5v246h148v-743h-129l-8 53q-9 -11 -22 -22.5t-31 -21t-42.5 -15.5t-57.5 -6
q-98 0 -148 62t-50 195v32z" />
    <glyph glyph-name="e" unicode="e" horiz-adv-x="569" 
d="M202 216q2 -33 9.5 -55t24.5 -36t45 -20t72 -6q43 0 78.5 4.5t66.5 9.5l-19 -102q-29 -10 -78 -16.5t-96 -6.5q-69 0 -117 16.5t-78 49t-43.5 79.5t-13.5 108v32q0 53 12 100.5t40 83t74.5 56t116.5 20.5q66 0 109 -18t69 -48.5t36.5 -69.5t10.5 -81v-40q0 -38 -13 -49
t-50 -11h-256zM294 427q-48 0 -70 -28t-24 -90h180v18q0 50 -20 75t-66 25z" />
    <glyph glyph-name="f" unicode="f" horiz-adv-x="421" 
d="M406 521l-16 -109h-133v-412h-148v412h-96l16 109h81q0 50 12 92t38.5 72.5t68.5 47.5t103 17q38 0 66.5 -5.5t45.5 -11.5l-25 -104q-19 5 -33.5 7t-31.5 2q-30 0 -49 -7.5t-29.5 -22t-14.5 -36.5t-4 -51h149z" />
    <glyph glyph-name="g" unicode="g" horiz-adv-x="608" 
d="M53 279q0 70 19 118.5t53.5 78.5t82.5 43.5t106 13.5q67 0 126.5 -16t100.5 -40v-439q0 -64 -16.5 -115t-50.5 -87t-86 -55t-122 -19q-18 0 -42 1.5t-50 5t-53.5 10t-51.5 16.5l23 110q35 -11 78.5 -18t79.5 -7q77 0 110 36t33 115v25q-9 -9 -21 -18.5t-29 -17.5t-40 -13
t-53 -5q-53 0 -90.5 17t-61 49t-34.5 77.5t-11 103.5v30zM203 250q0 -69 21 -100.5t73 -31.5q48 0 72 28t24 92v166q-15 7 -37.5 11.5t-44.5 4.5q-24 0 -44 -6.5t-34.5 -21.5t-22 -39.5t-7.5 -60.5v-42z" />
    <glyph glyph-name="h" unicode="h" horiz-adv-x="600" 
d="M67 0v743h148v-263q55 53 142 53q88 0 135.5 -47t47.5 -133v-353h-148v319q0 54 -19.5 76t-62.5 22q-51 0 -73 -27.5t-22 -86.5v-303h-148z" />
    <glyph glyph-name="i" unicode="i" horiz-adv-x="282" 
d="M141 583q-47 0 -67 21t-20 56t20 56t67 21t67 -21t20 -56t-20 -56t-67 -21zM67 521h148v-521h-148v521z" />
    <glyph glyph-name="j" unicode="j" horiz-adv-x="282" 
d="M67 521h148v-530q0 -114 -50.5 -171.5t-156.5 -57.5q-29 0 -63.5 6t-62.5 19l21 100q36 -12 77 -12q43 0 65 25t22 80v541zM141 583q-47 0 -67 21t-20 56t20 56t67 21t67 -21t20 -56t-20 -56t-67 -21z" />
    <glyph glyph-name="k" unicode="k" horiz-adv-x="572" 
d="M209 226v-226h-142v743h142v-404l179 182h168l-234 -232l242 -289h-171z" />
    <glyph glyph-name="l" unicode="l" horiz-adv-x="282" 
d="M215 0h-148v743h148v-743z" />
    <glyph glyph-name="m" unicode="m" horiz-adv-x="880" 
d="M67 0v521h129l8 -53q9 11 21.5 22.5t29.5 21t39 15.5t51 6q20 0 41 -3t40.5 -11t36.5 -22.5t29 -36.5q27 35 66 54t90 19q38 0 69.5 -10.5t54.5 -32.5t35.5 -56t12.5 -81v-353h-148v319q0 54 -17 76t-55 22q-18 0 -33 -5t-26 -17t-17 -32.5t-6 -51.5v-311h-148v320
q0 54 -17.5 75.5t-54.5 21.5q-43 0 -63 -27t-20 -87v-303h-148z" />
    <glyph glyph-name="n" unicode="n" horiz-adv-x="600" 
d="M67 0v521h129l8 -53q56 65 153 65q88 0 135.5 -47t47.5 -133v-353h-148v319q0 54 -19.5 76t-62.5 22q-51 0 -73 -27.5t-22 -86.5v-303h-148z" />
    <glyph glyph-name="o" unicode="o" horiz-adv-x="598" 
d="M545 240q0 -56 -12.5 -102.5t-41 -79.5t-76 -51.5t-116.5 -18.5q-74 0 -121.5 20.5t-75 55t-38.5 80t-11 96.5v41q0 55 12 101t40.5 79.5t75.5 52.5t118 19q72 0 119.5 -20t75.5 -54t39.5 -80t11.5 -98v-41zM203 228q0 -69 21.5 -98t73.5 -29q51 0 74 28.5t23 98.5v65
q0 69 -21.5 98t-73.5 29q-51 0 -74 -28.5t-23 -98.5v-65z" />
    <glyph glyph-name="p" unicode="p" horiz-adv-x="608" 
d="M405 280q0 73 -20.5 105t-73.5 32q-49 0 -72.5 -28t-23.5 -91v-173q23 -11 43 -16.5t43 -5.5q54 0 79 31t25 101v45zM555 245q0 -126 -55.5 -190.5t-155.5 -64.5q-73 0 -129 36v-258h-148v753h129l8 -52q26 31 63.5 47.5t89.5 16.5q99 0 148.5 -61.5t49.5 -194.5v-32z
" />
    <glyph glyph-name="q" unicode="q" horiz-adv-x="608" 
d="M203 242q0 -75 22 -105.5t73 -30.5q50 0 72.5 28.5t22.5 89.5v180q-14 7 -37.5 11.5t-44.5 4.5q-56 0 -82 -32.5t-26 -100.5v-45zM53 274q0 70 18.5 119.5t53 80.5t82.5 45t108 14q64 0 121.5 -15t104.5 -41v-709h-148v276q-27 -27 -60.5 -40.5t-81.5 -13.5
q-100 0 -149 61.5t-49 190.5v32z" />
    <glyph glyph-name="r" unicode="r" horiz-adv-x="431" 
d="M396 398q-10 3 -27.5 6.5t-37.5 3.5q-34 0 -56 -9t-35.5 -26t-19 -40.5t-5.5 -52.5v-280h-148v521h129l8 -57q9 10 21.5 21.5t30 21t41.5 15.5t55 6q21 0 36 -2.5t34 -8.5z" />
    <glyph glyph-name="s" unicode="s" 
d="M318 315q44 -6 72 -20.5t43.5 -34.5t21.5 -43.5t6 -47.5v-10q0 -37 -13 -68t-40.5 -53.5t-71.5 -35t-105 -12.5q-54 0 -105 8.5t-90 21.5l25 107q49 -13 88 -18.5t76 -5.5q48 0 71 10.5t23 40.5q0 21 -11 32t-37 14l-75 9q-75 9 -114.5 45.5t-39.5 101.5v12
q0 43 17.5 73.5t48.5 50.5t74.5 29.5t94.5 9.5q54 0 100.5 -8t73.5 -19l-26 -106q-36 11 -70 16.5t-73 5.5q-54 0 -78.5 -11t-24.5 -41q0 -20 11.5 -29t42.5 -13z" />
    <glyph glyph-name="t" unicode="t" horiz-adv-x="450" 
d="M258 412v-219q0 -49 20.5 -69.5t71.5 -20.5q18 0 36 2t32 4l-17 -104q-17 -6 -46 -10.5t-61 -4.5q-96 0 -140.5 48.5t-44.5 156.5v217h-96l16 109h81v125l148 19v-144h156l-16 -109h-140z" />
    <glyph glyph-name="u" unicode="u" horiz-adv-x="595" 
d="M528 521v-521h-129l-8 53q-26 -32 -64.5 -48.5t-86.5 -16.5q-40 0 -73 11t-57 33.5t-37 56t-13 79.5v353h148v-319q0 -54 19 -76t61 -22q48 0 70 26.5t22 87.5v303h148z" />
    <glyph glyph-name="v" unicode="v" horiz-adv-x="580" 
d="M15 521h166l111 -374l113 374h160l-197 -521h-156z" />
    <glyph glyph-name="w" unicode="w" horiz-adv-x="781" 
d="M391 332l-87 -332h-136l-153 521h152l74 -351l87 330h134l86 -329l76 350h142l-152 -521h-133z" />
    <glyph glyph-name="x" unicode="x" horiz-adv-x="564" 
d="M394 0l-115 175l-113 -175h-158l193 271l-176 250h162l97 -152l97 152h158l-177 -247l194 -274h-162z" />
    <glyph glyph-name="y" unicode="y" horiz-adv-x="580" 
d="M565 521l-218 -588q-15 -40 -32.5 -72t-42 -54t-58 -33.5t-80.5 -11.5q-15 0 -32 1.5t-33 4.5t-29.5 6.5t-22.5 7.5l19 102q15 -4 34 -6.5t38 -2.5q18 0 33 4t28 14.5t24.5 29t21.5 47.5l9 27l-209 524h165l120 -361l106 361h159z" />
    <glyph glyph-name="z" unicode="z" horiz-adv-x="519" 
d="M218 110h269l-16 -110h-428v98l254 312h-255l17 111h413v-97z" />
    <glyph glyph-name="braceleft" unicode="{" horiz-adv-x="387" 
d="M102 534q0 51 13.5 88t44.5 61.5t81 36.5t123 12h10l-18 -125h-6q-54 0 -78.5 -22.5t-24.5 -73.5v-102q0 -16 -3 -33t-11.5 -32.5t-23 -29t-36.5 -22.5q24 -9 38.5 -23.5t22.5 -30t10.5 -32t2.5 -30.5v-103q0 -48 27 -72t90 -24h10l-18 -125h-6q-131 0 -189.5 47
t-58.5 151v101q0 15 -3.5 28.5t-11 24t-20.5 17t-32 6.5h-17v130h16q21 0 34 7t20.5 18t10.5 24.5t3 27.5v100z" />
    <glyph glyph-name="bar" unicode="|" horiz-adv-x="290" 
d="M71 743h148v-918h-148v918z" />
    <glyph glyph-name="braceright" unicode="}" horiz-adv-x="387" 
d="M285 50q0 -51 -13.5 -88t-44.5 -61.5t-81 -36.5t-123 -12h-10l18 125h6q54 0 78.5 22.5t24.5 73.5v102q0 16 3 33t11.5 32.5t22.5 29t37 22.5q-24 9 -38.5 23.5t-22.5 30t-10.5 32t-2.5 30.5v103q0 48 -27 72t-90 24h-10l18 125h6q131 0 189.5 -47t58.5 -151v-101
q0 -15 3.5 -28.5t11 -24t20.5 -17t32 -6.5h17v-130h-16q-21 0 -34 -7t-20.5 -18t-10.5 -24.5t-3 -27.5v-100z" />
    <glyph glyph-name="asciitilde" unicode="~" horiz-adv-x="586" 
d="M534 446q0 -97 -32 -148.5t-103 -51.5q-26 0 -48.5 7.5t-47.5 22.5l-31 19q-20 13 -33 19.5t-27 6.5q-21 0 -30 -17.5t-9 -58.5h-121q0 97 32 148.5t103 51.5q26 0 48.5 -7.5t47.5 -22.5l31 -19q20 -13 33 -19.5t27 -6.5q21 0 30 17.5t9 58.5h121z" />
    <glyph glyph-name="Euro" unicode="&#x20ac;" horiz-adv-x="586" 
d="M465 220h-203q11 -61 52 -86.5t121 -25.5q29 0 58.5 3t64.5 10l-18 -120q-38 -8 -68.5 -12t-63.5 -4q-74 0 -125.5 15t-86 45t-53 74t-25.5 101h-79l13 82h60v78h-73l13 82h66q6 62 30 107t63 74.5t91.5 43.5t114.5 14q46 0 82.5 -5.5t64.5 -15.5l-25 -114
q-23 7 -52.5 10.5t-60.5 3.5q-72 0 -113 -26t-51 -92h217l-14 -82h-211v-78h225z" />
    <glyph glyph-name="uni20BA" unicode="&#x20ba;" horiz-adv-x="586" 
d="M264 303v-176q9 -3 25 -3q62 0 100.5 47.5t43.5 132.5l130 -15q0 -59 -17 -113.5t-54.5 -96t-98 -66.5t-147.5 -25q-40 0 -71.5 4t-54.5 9v247l-73 -28l-29 75l102 39v74l-73 -28l-29 75l102 39v192h144v-136l151 58l29 -76l-180 -69v-73l151 58l29 -76z" />
    <glyph glyph-name="quotesinglbase" unicode="&#x201a;" horiz-adv-x="266" 
d="M35 -146l53 162q-19 9 -28 26.5t-9 40.5q0 34 20.5 53.5t59.5 19.5q42 0 62 -20.5t20 -53.5q0 -21 -6.5 -39.5t-14.5 -37.5l-71 -151h-86z" />
    <glyph glyph-name="florin" unicode="&#x192;" horiz-adv-x="421" 
d="M109 412h-96l16 109h81q0 50 12 92t38.5 72.5t68.5 47.5t103 17q38 0 66.5 -5.5t45.5 -11.5l-25 -104q-19 5 -33.5 7t-31.5 2q-30 0 -49 -7.5t-29.5 -22t-14.5 -36.5t-4 -51h149l-16 -109h-133v-421q0 -114 -50.5 -171.5t-156.5 -57.5q-29 0 -63.5 6t-62.5 19l21 100
q36 -12 77 -12q43 0 65 25t22 80v432z" />
    <glyph glyph-name="quotedblbase" unicode="&#x201e;" horiz-adv-x="486" 
d="M35 -146l53 162q-19 9 -28 26.5t-9 40.5q0 34 20.5 53.5t59.5 19.5q42 0 62 -20.5t20 -53.5q0 -21 -6.5 -39.5t-14.5 -37.5l-71 -151h-86zM255 -146l53 162q-19 9 -28 26.5t-9 40.5q0 34 20.5 53.5t59.5 19.5q42 0 62 -20.5t20 -53.5q0 -21 -6.5 -39.5t-14.5 -37.5
l-71 -151h-86z" />
    <glyph glyph-name="ellipsis" unicode="&#x2026;" horiz-adv-x="865" 
d="M133 157q41 0 64 -20t23 -63t-23 -63.5t-64 -20.5t-64 20.5t-23 63.5t23 63t64 20zM432 157q41 0 64 -20t23 -63t-23 -63.5t-64 -20.5t-64 20.5t-23 63.5t23 63t64 20zM732 157q41 0 64 -20t23 -63t-23 -63.5t-64 -20.5t-64 20.5t-23 63.5t23 63t64 20z" />
    <glyph glyph-name="dagger" unicode="&#x2020;" horiz-adv-x="569" 
d="M208 374h-161v127h162v212h149v-212h164v-127h-164v-564h-150v564z" />
    <glyph glyph-name="daggerdbl" unicode="&#x2021;" horiz-adv-x="569" 
d="M358 50v-240h-150v240h-160v127h160v206h-161v126h162v204h149v-204h164v-126h-164v-206h164v-127h-164z" />
    <glyph glyph-name="circumflex" unicode="&#x2c6;" 
d="M249 669l-73 -76h-123l131 147h131l131 -147h-122z" />
    <glyph glyph-name="perthousand" unicode="&#x2030;" horiz-adv-x="1328" 
d="M594 683h125l-377 -683h-125zM732 89q32 0 45 23t13 72v26q0 56 -13 76t-43 20q-35 0 -48 -22.5t-13 -73.5v-26q0 -48 12.5 -71.5t46.5 -23.5zM733 400q48 0 81 -14t52.5 -39t28 -59.5t8.5 -75.5v-31q0 -41 -9 -76t-29 -60t-52.5 -39t-79.5 -14q-50 0 -83.5 15t-53 41
t-27.5 60t-8 73v31q0 43 9 77.5t29.5 59t53.5 38t80 13.5zM1119 89q32 0 45 23t13 72v26q0 56 -13 76t-43 20q-35 0 -48 -22.5t-13 -73.5v-26q0 -48 12.5 -71.5t46.5 -23.5zM1120 400q48 0 81 -14t52.5 -39t28 -59.5t8.5 -75.5v-31q0 -41 -9 -76t-29 -60t-52.5 -39
t-79.5 -14q-50 0 -83.5 15t-53 41t-27.5 60t-8 73v31q0 43 9 77.5t29.5 59t53.5 38t80 13.5zM210 380q32 0 45 23t13 72v26q0 56 -13 76t-43 20q-35 0 -48 -22.5t-13 -73.5v-26q0 -48 12.5 -71.5t46.5 -23.5zM211 691q48 0 81 -14t52.5 -39t28 -59.5t8.5 -75.5v-31
q0 -41 -9 -76t-29 -60t-52.5 -39t-79.5 -14q-50 0 -83.5 15t-53 41t-27.5 60t-8 73v31q0 43 9 77.5t29.5 59t53.5 38t80 13.5z" />
    <glyph glyph-name="Scaron" unicode="&#x160;" horiz-adv-x="584" 
d="M257 -10q-61 0 -120 9t-100 23l25 117q41 -10 89.5 -18.5t99.5 -8.5q72 0 104.5 22t32.5 73q0 25 -7 41t-21.5 25.5t-36 14.5t-50.5 10l-49 8q-33 5 -65 17t-56.5 34.5t-40 58.5t-15.5 90q0 216 280 216q57 0 104.5 -8.5t88.5 -21.5l-23 -116q-35 10 -77.5 17t-91.5 7
q-74 0 -106 -19.5t-32 -67.5q0 -38 22.5 -57.5t79.5 -27.5l48 -7q35 -5 70.5 -16t64 -33.5t46 -60.5t17.5 -97q0 -115 -72 -169.5t-209 -54.5zM305 841l65 62h133l-130 -132h-135l-129 132h133z" />
    <glyph glyph-name="guilsinglleft" unicode="&#x2039;" horiz-adv-x="332" 
d="M286 484v-128l-155 -97l155 -97v-128l-246 154v142z" />
    <glyph glyph-name="OE" unicode="&#x152;" horiz-adv-x="988" 
d="M947 712l-16 -119h-309v-172h293l-15 -119h-278v-183h325l-16 -119h-559q-91 0 -151.5 24t-96.5 66.5t-50.5 101.5t-14.5 130v67q0 71 15 130.5t51 102t96.5 66.5t151.5 24h574zM470 588h-84q-44 0 -76 -10.5t-53.5 -34.5t-32 -63.5t-10.5 -97.5v-53q0 -60 10.5 -99.5
t32 -63t53.5 -33t76 -9.5h84v464z" />
    <glyph glyph-name="quoteleft" unicode="&#x2018;" horiz-adv-x="266" 
d="M220 742l-53 -162q19 -9 28 -26.5t9 -40.5q0 -34 -20.5 -53.5t-59.5 -19.5q-42 0 -62 20.5t-20 53.5q0 21 6 39.5t15 37.5l71 151h86z" />
    <glyph glyph-name="quoteright" unicode="&#x2019;" horiz-adv-x="266" 
d="M46 443l53 162q-19 9 -28 26.5t-9 40.5q0 34 20.5 53.5t59.5 19.5q42 0 62 -20.5t20 -53.5q0 -21 -6 -39.5t-15 -37.5l-71 -151h-86z" />
    <glyph glyph-name="quotedblleft" unicode="&#x201c;" horiz-adv-x="488" 
d="M220 742l-53 -162q19 -9 28 -26.5t9 -40.5q0 -34 -20.5 -53.5t-59.5 -19.5q-42 0 -62 20.5t-20 53.5q0 21 6 39.5t15 37.5l71 151h86zM442 742l-53 -162q19 -9 28 -26.5t9 -40.5q0 -34 -20.5 -53.5t-59.5 -19.5q-42 0 -62 20.5t-20 53.5q0 21 6 39.5t15 37.5l71 151h86z
" />
    <glyph glyph-name="quotedblright" unicode="&#x201d;" horiz-adv-x="488" 
d="M46 443l53 162q-19 9 -28 26.5t-9 40.5q0 34 20.5 53.5t59.5 19.5q42 0 62 -20.5t20 -53.5q0 -21 -6 -39.5t-15 -37.5l-71 -151h-86zM268 443l53 162q-19 9 -28 26.5t-9 40.5q0 34 20.5 53.5t59.5 19.5q42 0 62 -20.5t20 -53.5q0 -21 -6 -39.5t-15 -37.5l-71 -151h-86z
" />
    <glyph glyph-name="bullet" unicode="&#x2022;" horiz-adv-x="421" 
d="M63 343q0 31 11.5 58t31 46.5t46.5 31t58 11.5t58.5 -11.5t47 -31t31 -46.5t11.5 -58q0 -32 -11.5 -59t-31 -46.5t-47 -31t-58.5 -11.5t-58 11.5t-46.5 31t-31 46.5t-11.5 59z" />
    <glyph glyph-name="endash" unicode="&#x2013;" 
d="M0 320h500v-110h-500v110z" />
    <glyph glyph-name="emdash" unicode="&#x2014;" horiz-adv-x="1000" 
d="M0 320h1000v-110h-1000v110z" />
    <glyph glyph-name="tilde" unicode="&#x2dc;" 
d="M67 604q0 70 29 106t79 36q23 0 41 -5t38 -17l21 -12q17 -10 26.5 -14.5t19.5 -4.5q14 0 23 13t9 35h80q0 -68 -28 -105t-80 -37q-23 0 -41 5t-38 17l-21 12q-17 10 -27 14.5t-19 4.5q-16 0 -24 -13t-8 -35h-80z" />
    <glyph glyph-name="trademark" unicode="&#x2122;" horiz-adv-x="910" 
d="M356 626h-97v-281h-104v281h-106l9 87h307zM574 419l-68 144v-218h-98v368h113l89 -191l89 191h109v-368h-98v218l-68 -144h-68z" />
    <glyph glyph-name="scaron" unicode="&#x161;" 
d="M318 315q44 -6 72 -20.5t43.5 -34.5t21.5 -43.5t6 -47.5v-10q0 -37 -13 -68t-40.5 -53.5t-71.5 -35t-105 -12.5q-54 0 -105 8.5t-90 21.5l25 107q49 -13 88 -18.5t76 -5.5q48 0 71 10.5t23 40.5q0 21 -11 32t-37 14l-75 9q-75 9 -114.5 45.5t-39.5 101.5v12
q0 43 17.5 73.5t48.5 50.5t74.5 29.5t94.5 9.5q54 0 100.5 -8t73.5 -19l-26 -106q-36 11 -70 16.5t-73 5.5q-54 0 -78.5 -11t-24.5 -41q0 -20 11.5 -29t42.5 -13zM186 740l75 -75l73 75h123l-131 -147h-131l-131 147h122z" />
    <glyph glyph-name="guilsinglright" unicode="&#x203a;" horiz-adv-x="332" 
d="M40 34v128l155 97l-155 97v128l246 -154v-142z" />
    <glyph glyph-name="oe" unicode="&#x153;" horiz-adv-x="906" 
d="M539 216q2 -33 9.5 -55t24.5 -36t45 -20t72 -6q43 0 78.5 4.5t66.5 9.5l-19 -102q-29 -10 -78 -16.5t-96 -6.5q-65 0 -109 16t-73 48q-25 -30 -64 -47t-97 -17q-72 0 -119.5 20t-75.5 54t-39.5 80t-11.5 98v41q0 53 11.5 99t40 80t75.5 53.5t119 19.5q60 0 99.5 -18.5
t63.5 -50.5q26 32 68 50.5t103 18.5q66 0 109 -18t69 -48.5t36.5 -69.5t10.5 -81v-40q0 -20 -3 -32t-10.5 -18t-19.5 -8t-30 -2h-256zM203 228q0 -69 21.5 -98t73.5 -29q51 0 74 28.5t23 98.5v65q0 69 -21.5 98t-73.5 29q-51 0 -74 -28.5t-23 -98.5v-65zM631 427
q-48 0 -70 -28t-24 -90h180v18q0 50 -20 75t-66 25z" />
    <glyph glyph-name="Ydieresis" unicode="&#x178;" horiz-adv-x="643" 
d="M324 408l148 304h157l-233 -429v-283h-152v283l-230 429h167zM426 768q-39 0 -56.5 18.5t-17.5 50.5t17.5 50.5t56.5 18.5q40 0 57.5 -18.5t17.5 -50.5t-17.5 -50.5t-57.5 -18.5zM213 768q-39 0 -56.5 18.5t-17.5 50.5t17.5 50.5t56.5 18.5q40 0 57.5 -18.5t17.5 -50.5
t-17.5 -50.5t-57.5 -18.5z" />
    <glyph glyph-name="uni00A0" unicode="&#xa0;" horiz-adv-x="250" 
 />
    <glyph glyph-name="exclamdown" unicode="&#xa1;" horiz-adv-x="321" 
d="M220 307l9 -130q1 -15 2.5 -44t2.5 -60t1.5 -57.5t0.5 -35.5v-175h-152v175q0 9 0.5 35.5t1.5 57.5t2.5 60t2.5 44l9 130h120zM161 527q41 0 64 -18t23 -60t-23 -61t-64 -19q-42 0 -65 19t-23 61t23.5 60t64.5 18z" />
    <glyph glyph-name="cent" unicode="&#xa2;" horiz-adv-x="586" 
d="M313 -79v73q-66 3 -110.5 22t-71 51.5t-37.5 77t-11 98.5v49q0 52 13 95t41 75t71.5 51t104.5 24v71h70v-71q31 -2 61 -7.5t56 -13.5l-24 -105q-25 6 -46 9.5t-47 4.5v-319q26 0 56 3t56 8l-18 -104q-38 -12 -94 -18v-74h-70zM233 247q0 -60 18 -91.5t62 -42.5v307
q-45 -10 -62.5 -39.5t-17.5 -87.5v-46z" />
    <glyph glyph-name="sterling" unicode="&#xa3;" horiz-adv-x="586" 
d="M408 587q-70 0 -102 -33t-32 -111v-39h204l-18 -109h-186v-182h270l-17 -113h-471l16 113h55v182h-71l16 109h55v38q0 67 18.5 116t53 80.5t83.5 47t109 15.5q36 0 74.5 -5.5t72.5 -17.5l-25 -107q-27 8 -52.5 12t-52.5 4z" />
    <glyph glyph-name="currency" unicode="&#xa4;" horiz-adv-x="586" 
d="M293 121q-32 0 -60 7t-53 19l-71 -70l-77 74l67 66q-36 53 -36 125q0 38 10 70.5t28 58.5l-69 67l77 73l73 -71q25 12 52.5 19t58.5 7q30 0 57.5 -7t52.5 -20l73 72l77 -73l-68 -67q17 -26 27 -57.5t10 -68.5q0 -38 -10 -70t-27 -58l68 -66l-77 -74l-73 70
q-49 -26 -110 -26zM293 221q54 0 86.5 34.5t32.5 87.5t-32.5 87.5t-86.5 34.5t-87 -34.5t-33 -87.5t33 -87.5t87 -34.5z" />
    <glyph glyph-name="yen" unicode="&#xa5;" horiz-adv-x="586" 
d="M159 686l133 -278l135 278h154l-172 -319h107l-13 -82h-136v-59h149l-13 -82h-136v-144h-149v144h-148l14 82h134v59h-148l14 82h92l-171 319h154z" />
    <glyph glyph-name="brokenbar" unicode="&#xa6;" horiz-adv-x="291" 
d="M71 397v346h149v-346h-149zM220 -175h-149v346h149v-346z" />
    <glyph glyph-name="section" unicode="&#xa7;" horiz-adv-x="570" 
d="M86 -19q47 -14 88 -20t83 -6q60 0 84 14.5t24 50.5q0 31 -17.5 45.5t-58.5 20.5l-64 10q-84 13 -123.5 52.5t-39.5 102.5v12q0 51 23.5 85t65.5 54q-24 10 -40 25t-26 33t-14.5 36.5t-4.5 36.5v10q0 39 13 70.5t41 53.5t73 34t108 12q56 0 105.5 -9t87.5 -25l-30 -107
q-40 14 -78.5 21t-77.5 7q-32 0 -52 -4.5t-30.5 -12.5t-14 -18.5t-3.5 -22.5q0 -28 17 -40.5t62 -20.5l68 -12q85 -15 123 -54t38 -107v-10q0 -46 -24 -81.5t-62 -57.5q77 -38 77 -130v-10q0 -47 -17.5 -80.5t-49.5 -55t-77.5 -31.5t-101.5 -10q-45 0 -96 7t-105 25z
M192 282q0 -35 15.5 -52.5t45.5 -23.5l15 -3q10 -2 21.5 -3t18.5 -1q35 0 56.5 22t21.5 60q0 35 -15.5 52.5t-45.5 23.5l-15 3q-10 2 -21.5 3t-18.5 1q-35 0 -56.5 -22t-21.5 -60z" />
    <glyph glyph-name="dieresis" unicode="&#xa8;" 
d="M353 594q-39 0 -56 19t-17 51t17 51t56 19t56.5 -19.5t17.5 -51.5t-17.5 -50.5t-56.5 -18.5zM146 594q-39 0 -56 19t-17 51t17 51t56 19t56.5 -19.5t17.5 -51.5t-17.5 -50.5t-56.5 -18.5z" />
    <glyph glyph-name="copyright" unicode="&#xa9;" horiz-adv-x="895" 
d="M485 490q-61 0 -85.5 -29t-24.5 -99q0 -40 7.5 -66.5t22.5 -42t37.5 -22t53.5 -6.5q20 0 38.5 2t39.5 5l-12 -84q-21 -6 -46 -9t-49 -3q-46 0 -83.5 11.5t-64 36.5t-41 63.5t-14.5 91.5v44q0 51 14.5 88t40.5 61t62.5 35.5t80.5 11.5q32 0 62 -5t47 -11l-11 -81
q-11 3 -33 5.5t-42 2.5zM447 658q-66 0 -122 -21t-96.5 -60t-63.5 -95t-23 -125q0 -68 22.5 -124t63 -96t96.5 -61.5t124 -21.5q66 0 122 21t96.5 60t63.5 94.5t23 124.5q0 68 -22.5 124t-63 96t-96.5 62t-124 22zM446 -35q-87 0 -160 28.5t-126 80.5t-82.5 124t-29.5 158
q0 88 31 160.5t85 124t127.5 79.5t158.5 28q86 0 159 -28.5t126 -80.5t82.5 -123.5t29.5 -158.5q0 -89 -31 -161.5t-85 -123.5t-127 -79t-158 -28z" />
    <glyph glyph-name="ordfeminine" unicode="&#xaa;" horiz-adv-x="413" 
d="M159 377q-24 0 -45.5 5t-37.5 17t-25.5 32t-9.5 51v10q0 31 9.5 51.5t26.5 33t40.5 17.5t51.5 5q58 0 84 -23v15q0 40 -19 56t-61 16q-25 0 -50.5 -4.5t-50.5 -10.5l15 83q18 5 47.5 9t61.5 4q82 0 120.5 -34t38.5 -98v-229h-91l-6 34q-14 -21 -39.5 -30.5t-59.5 -9.5z
M193 448q59 0 59 44v5q0 19 -12.5 30t-41.5 11h-7q-28 0 -40 -10.5t-12 -32.5v-4q0 -23 12.5 -33t41.5 -10z" />
    <glyph glyph-name="guillemotleft" unicode="&#xab;" horiz-adv-x="534" 
d="M245 484v-128l-113 -97l113 -97v-128l-205 167v117zM488 484v-128l-113 -97l113 -97v-128l-205 167v117z" />
    <glyph glyph-name="logicalnot" unicode="&#xac;" horiz-adv-x="586" 
d="M66 348v114h436v-269h-127v155h-309z" />
    <glyph glyph-name="uni00AD" unicode="&#xad;" horiz-adv-x="426" 
d="M46 228v124h334v-124h-334z" />
    <glyph glyph-name="registered" unicode="&#xae;" horiz-adv-x="642" 
d="M360 365l-42 83h-22v-83h-71v248h106q48 0 73.5 -21.5t25.5 -59.5v-6q0 -51 -44 -69l52 -92h-78zM296 557v-56h25q22 0 29.5 6.5t7.5 19.5v4q0 26 -34 26h-28zM319 224q-58 0 -105.5 19t-82 53t-53.5 81t-19 104t19.5 105t54.5 82.5t83.5 54t107.5 19.5q58 0 105.5 -19
t81.5 -52.5t53 -80.5t19 -104t-19.5 -105.5t-54 -83t-83.5 -54t-107 -19.5zM321 286q46 0 82 14.5t61 41t38 62.5t13 79q0 44 -13.5 80t-38.5 62t-61 40.5t-81 14.5t-81 -14.5t-61 -41t-38 -62.5t-13 -79q0 -44 13.5 -80t38 -62t60.5 -40.5t81 -14.5z" />
    <glyph glyph-name="macron" unicode="&#xaf;" 
d="M107 720h285v-98h-285v98z" />
    <glyph glyph-name="degree" unicode="&#xb0;" horiz-adv-x="389" 
d="M30 591q0 36 12.5 65.5t34.5 50t52 31.5t65 11t65 -11t52.5 -31.5t35 -50t12.5 -65.5t-12.5 -65.5t-35 -50.5t-52.5 -32t-65 -11t-65 11t-52 32t-34.5 50.5t-12.5 65.5zM124 591q0 -35 20 -54.5t50 -19.5t50 19.5t20 54.5t-20 54t-50 19t-50 -19t-20 -54z" />
    <glyph glyph-name="plusminus" unicode="&#xb1;" horiz-adv-x="586" 
d="M522 119v-118h-458v118h458zM357 465h165v-118h-165v-167h-129v167h-164v118h164v166h129v-166z" />
    <glyph glyph-name="acute" unicode="&#xb4;" 
d="M232 740h155l-145 -147h-130z" />
    <glyph glyph-name="mu" unicode="&#xb5;" horiz-adv-x="602" 
d="M280 -12q-37 0 -65 14v-234h-148v753h148v-322q0 -54 19 -76t61 -22q30 0 48.5 10t28 26t12.5 36.5t3 41.5v306h148v-521h-129l-8 53q-17 -29 -46.5 -47t-71.5 -18z" />
    <glyph glyph-name="paragraph" unicode="&#xb6;" horiz-adv-x="696" 
d="M294 279h-27q-54 0 -94.5 16.5t-68.5 44.5t-42 65.5t-14 80.5v21q0 43 14.5 81t42.5 65.5t68 43.5t90 16h360v-899h-117v798h-95v-798h-117v465z" />
    <glyph glyph-name="periodcentered" unicode="&#xb7;" horiz-adv-x="266" 
d="M133 486q41 0 64 -20t23 -63t-23 -63.5t-64 -20.5t-64 20.5t-23 63.5t23 63t64 20z" />
    <glyph glyph-name="cedilla" unicode="&#xb8;" 
d="M369 -134q0 -26 -11 -46t-30.5 -33.5t-46 -20t-57.5 -6.5q-27 0 -51.5 4.5t-41.5 12.5l21 71q31 -9 60 -9q55 0 55 33q0 8 -3 14.5t-12.5 11.5t-27 8.5t-45.5 5.5l22 88h81l-10 -42q97 -16 97 -92z" />
    <glyph glyph-name="ordmasculine" unicode="&#xba;" horiz-adv-x="440" 
d="M393 548q0 -47 -12.5 -80t-35 -53.5t-54.5 -30t-71 -9.5t-71 9.5t-54.5 30t-35 53.5t-12.5 80v23q0 51 14.5 84.5t38.5 53t55.5 27.5t64.5 8q39 0 71 -9.5t54.5 -30t35 -53.5t12.5 -80v-23zM152 547q0 -47 16.5 -68.5t51.5 -21.5t51.5 21.5t16.5 68.5v25q0 47 -16.5 68.5
t-51.5 21.5t-51.5 -21.5t-16.5 -68.5v-25z" />
    <glyph glyph-name="guillemotright" unicode="&#xbb;" horiz-adv-x="534" 
d="M289 34v128l113 97l-113 97v128l205 -167v-117zM46 34v128l113 97l-113 97v128l205 -167v-117z" />
    <glyph glyph-name="onequarter" unicode="&#xbc;" horiz-adv-x="974" 
d="M632 683h125l-377 -683h-125zM873 159h45l-11 -85h-33v-74h-105v74h-180v78l132 240h110l-126 -233h64v78l104 14v-92zM352 291h-273l13 87h79v205l-91 -33l4 89l111 44h90v-305h81z" />
    <glyph glyph-name="onehalf" unicode="&#xbd;" horiz-adv-x="974" 
d="M610 683h125l-377 -683h-125zM620 379q58 21 121 21q73 0 111 -27t38 -85v-8q0 -22 -5.5 -38t-17.5 -29.5t-30.5 -25.5t-43.5 -25l-32 -17q-21 -11 -31 -22t-11 -34h178l-11 -89h-278v76q0 52 23 85.5t68 55.5l45 22q21 11 28 20t7 20q0 17 -12.5 24t-45.5 7
q-28 0 -55 -5t-55 -13zM352 291h-273l13 87h79v205l-91 -33l4 89l111 44h90v-305h81z" />
    <glyph glyph-name="threequarters" unicode="&#xbe;" horiz-adv-x="974" 
d="M614 683h125l-377 -683h-125zM873 159h45l-11 -85h-33v-74h-105v74h-180v78l132 240h110l-126 -233h64v78l104 14v-92zM91 670q27 9 56.5 15t62.5 6q73 0 110 -27.5t37 -75.5v-7q0 -29 -11.5 -48.5t-34.5 -33.5q23 -15 36.5 -38.5t13.5 -50.5v-9q0 -54 -41 -86t-115 -32
q-42 0 -76 7t-57 17l20 83q30 -11 53 -15t43 -4q30 0 45.5 9t15.5 32q0 21 -14.5 30t-39.5 9h-62l10 82h56q21 0 34 9t13 29q0 18 -14.5 25.5t-39.5 7.5q-41 0 -110 -19z" />
    <glyph glyph-name="questiondown" unicode="&#xbf;" horiz-adv-x="513" 
d="M171 169q34 19 50 40.5t18 62.5l2 35h123l2 -40q3 -63 -17 -101.5t-66 -64.5l-37 -21q-32 -17 -44 -33.5t-12 -45.5q0 -44 28 -63t94 -19q46 0 90 8.5t84 24.5l-18 -122q-33 -14 -82.5 -24.5t-104.5 -10.5q-53 0 -96.5 11t-75.5 34t-49.5 57.5t-17.5 81.5v8
q0 59 21.5 97.5t72.5 65.5zM303 527q41 0 64 -18t23 -60t-23 -61t-64 -19q-42 0 -65 19t-23 61t23.5 60t64.5 18z" />
    <glyph glyph-name="Agrave" unicode="&#xc0;" horiz-adv-x="684" 
d="M453 176h-230l-53 -176h-148l237 712h160l243 -712h-156zM254 294h167l-83 273zM417 771h-139l-164 132h165z" />
    <glyph glyph-name="Aacute" unicode="&#xc1;" horiz-adv-x="684" 
d="M453 176h-230l-53 -176h-148l237 712h160l243 -712h-156zM254 294h167l-83 273zM398 903h165l-164 -132h-139z" />
    <glyph glyph-name="Acircumflex" unicode="&#xc2;" horiz-adv-x="684" 
d="M453 176h-230l-53 -176h-148l237 712h160l243 -712h-156zM254 294h167l-83 273zM343 833l-64 -62h-133l131 132h134l130 -132h-133z" />
    <glyph glyph-name="Atilde" unicode="&#xc3;" horiz-adv-x="684" 
d="M453 176h-230l-53 -176h-148l237 712h160l243 -712h-156zM254 294h167l-83 273zM535 915q0 -44 -9.5 -72.5t-25.5 -45.5t-36.5 -23.5t-42.5 -6.5q-23 0 -42 7.5t-41 21.5l-17 10q-14 8 -26 13.5t-23 5.5q-35 0 -35 -54h-84q0 43 9 71.5t25 45.5t36.5 24t43.5 7t42 -7.5
t41 -21.5l17 -10q14 -8 26 -13.5t23 -5.5q35 0 35 54h84z" />
    <glyph glyph-name="Adieresis" unicode="&#xc4;" horiz-adv-x="684" 
d="M453 176h-230l-53 -176h-148l237 712h160l243 -712h-156zM254 294h167l-83 273zM445 768q-39 0 -56.5 18.5t-17.5 50.5t17.5 50.5t56.5 18.5q40 0 57.5 -18.5t17.5 -50.5t-17.5 -50.5t-57.5 -18.5zM232 768q-39 0 -56.5 18.5t-17.5 50.5t17.5 50.5t56.5 18.5
q40 0 57.5 -18.5t17.5 -50.5t-17.5 -50.5t-57.5 -18.5z" />
    <glyph glyph-name="Aring" unicode="&#xc5;" horiz-adv-x="684" 
d="M453 176h-230l-53 -176h-148l230 692q-21 16 -33.5 40.5t-12.5 57.5q0 30 10 53t27.5 39.5t41 25t50.5 8.5t51.5 -8.5t42.5 -24t28.5 -38.5t10.5 -53q0 -32 -11.5 -56t-31.5 -41l237 -695h-156zM254 294h167l-83 273zM337 736q24 0 39 15.5t15 39.5q0 23 -15 39t-39 16
t-39 -15.5t-15 -39.5t15 -39.5t39 -15.5z" />
    <glyph glyph-name="AE" unicode="&#xc6;" horiz-adv-x="1023" 
d="M509 0v176h-233l-93 -176h-161l396 712h564l-16 -119h-309v-172h293l-15 -119h-278v-183h325l-16 -119h-457zM338 293h171v299h-13z" />
    <glyph glyph-name="Ccedilla" unicode="&#xc7;" horiz-adv-x="577" 
d="M442 -138q0 -26 -11.5 -46t-31.5 -33.5t-47.5 -20t-58.5 -6.5q-28 0 -53 4.5t-43 12.5l21 71q33 -9 66 -9q56 0 56 33q0 8 -3 14.5t-13 11.5t-29 8.5t-50 5.5l21 90q-59 10 -98.5 35t-63.5 64.5t-34.5 93.5t-10.5 123v73q0 72 14.5 133t50.5 106t96 70.5t151 25.5
q51 0 94 -8t71 -18l-25 -116q-24 8 -54.5 13t-66.5 5q-48 0 -81.5 -9.5t-54.5 -33.5t-30.5 -65t-9.5 -104v-66q0 -64 8.5 -104t28.5 -62.5t54.5 -31t87.5 -8.5q29 0 66 3t75 10l-24 -120q-38 -9 -77 -13t-74 -4h-13l-8 -36q104 -16 104 -92z" />
    <glyph glyph-name="Egrave" unicode="&#xc8;" horiz-adv-x="591" 
d="M550 712l-16 -119h-309v-172h293l-15 -119h-278v-183h325l-16 -119h-461v712h477zM439 771h-139l-164 132h165z" />
    <glyph glyph-name="Eacute" unicode="&#xc9;" horiz-adv-x="591" 
d="M550 712l-16 -119h-309v-172h293l-15 -119h-278v-183h325l-16 -119h-461v712h477zM340 903h165l-164 -132h-139z" />
    <glyph glyph-name="Ecircumflex" unicode="&#xca;" horiz-adv-x="591" 
d="M550 712l-16 -119h-309v-172h293l-15 -119h-278v-183h325l-16 -119h-461v712h477zM314 833l-64 -62h-133l131 132h134l130 -132h-133z" />
    <glyph glyph-name="Edieresis" unicode="&#xcb;" horiz-adv-x="591" 
d="M550 712l-16 -119h-309v-172h293l-15 -119h-278v-183h325l-16 -119h-461v712h477zM419 768q-39 0 -56.5 18.5t-17.5 50.5t17.5 50.5t56.5 18.5q40 0 57.5 -18.5t17.5 -50.5t-17.5 -50.5t-57.5 -18.5zM206 768q-39 0 -56.5 18.5t-17.5 50.5t17.5 50.5t56.5 18.5
q40 0 57.5 -18.5t17.5 -50.5t-17.5 -50.5t-57.5 -18.5z" />
    <glyph glyph-name="Igrave" unicode="&#xcc;" horiz-adv-x="298" 
d="M225 0h-152v712h152v-712zM228 771h-139l-164 132h165z" />
    <glyph glyph-name="Iacute" unicode="&#xcd;" horiz-adv-x="298" 
d="M225 0h-152v712h152v-712zM209 903h165l-164 -132h-139z" />
    <glyph glyph-name="Icircumflex" unicode="&#xce;" horiz-adv-x="298" 
d="M225 0h-152v712h152v-712zM150 833l-64 -62h-133l131 132h134l130 -132h-133z" />
    <glyph glyph-name="Idieresis" unicode="&#xcf;" horiz-adv-x="298" 
d="M225 0h-152v712h152v-712zM256 768q-39 0 -56.5 18.5t-17.5 50.5t17.5 50.5t56.5 18.5q40 0 57.5 -18.5t17.5 -50.5t-17.5 -50.5t-57.5 -18.5zM43 768q-39 0 -56.5 18.5t-17.5 50.5t17.5 50.5t56.5 18.5q40 0 57.5 -18.5t17.5 -50.5t-17.5 -50.5t-57.5 -18.5z" />
    <glyph glyph-name="Eth" unicode="&#xd0;" horiz-adv-x="722" 
d="M100 309h-90v102h90v301h250q84 0 143 -20.5t97 -61t55.5 -101t17.5 -139.5v-67q0 -71 -15 -130.5t-51 -102t-96.5 -66.5t-151.5 -24h-249v309zM252 411h146v-102h-146v-185h84q43 0 75.5 10t54 34t32 63.5t10.5 98.5v53q0 60 -10.5 99.5t-32 63t-54 33t-75.5 9.5h-84
v-177z" />
    <glyph glyph-name="Ntilde" unicode="&#xd1;" horiz-adv-x="703" 
d="M208 712l280 -471v471h142v-712h-134l-280 471v-471h-143v712h135zM541 915q0 -44 -9.5 -72.5t-25.5 -45.5t-36.5 -23.5t-42.5 -6.5q-23 0 -42 7.5t-41 21.5l-17 10q-14 8 -26 13.5t-23 5.5q-35 0 -35 -54h-84q0 43 9 71.5t25 45.5t36.5 24t43.5 7t42 -7.5t41 -21.5
l17 -10q14 -8 26 -13.5t23 -5.5q35 0 35 54h84z" />
    <glyph glyph-name="Ograve" unicode="&#xd2;" horiz-adv-x="707" 
d="M214 312q0 -64 8.5 -103.5t26 -61.5t43.5 -30t61 -8q33 0 59 8t44 30.5t27.5 62t9.5 102.5v88q0 64 -8.5 103.5t-26 61.5t-43.5 30t-61 8q-33 0 -59 -8t-44 -30.5t-27.5 -62t-9.5 -102.5v-88zM648 314q0 -72 -13.5 -132.5t-47 -104t-90 -68t-143.5 -24.5q-89 0 -146 24.5
t-90 68t-46 104t-13 132.5v84q0 73 14 134t47.5 104t90 67t142.5 24q91 0 148.5 -25.5t90 -69.5t44.5 -104t12 -130v-84zM474 771h-139l-164 132h165z" />
    <glyph glyph-name="Oacute" unicode="&#xd3;" horiz-adv-x="707" 
d="M214 312q0 -64 8.5 -103.5t26 -61.5t43.5 -30t61 -8q33 0 59 8t44 30.5t27.5 62t9.5 102.5v88q0 64 -8.5 103.5t-26 61.5t-43.5 30t-61 8q-33 0 -59 -8t-44 -30.5t-27.5 -62t-9.5 -102.5v-88zM648 314q0 -72 -13.5 -132.5t-47 -104t-90 -68t-143.5 -24.5q-89 0 -146 24.5
t-90 68t-46 104t-13 132.5v84q0 73 14 134t47.5 104t90 67t142.5 24q91 0 148.5 -25.5t90 -69.5t44.5 -104t12 -130v-84zM376 903h165l-164 -132h-139z" />
    <glyph glyph-name="Ocircumflex" unicode="&#xd4;" horiz-adv-x="707" 
d="M214 312q0 -64 8.5 -103.5t26 -61.5t43.5 -30t61 -8q33 0 59 8t44 30.5t27.5 62t9.5 102.5v88q0 64 -8.5 103.5t-26 61.5t-43.5 30t-61 8q-33 0 -59 -8t-44 -30.5t-27.5 -62t-9.5 -102.5v-88zM648 314q0 -72 -13.5 -132.5t-47 -104t-90 -68t-143.5 -24.5q-89 0 -146 24.5
t-90 68t-46 104t-13 132.5v84q0 73 14 134t47.5 104t90 67t142.5 24q91 0 148.5 -25.5t90 -69.5t44.5 -104t12 -130v-84zM351 833l-64 -62h-133l131 132h134l130 -132h-133z" />
    <glyph glyph-name="Otilde" unicode="&#xd5;" horiz-adv-x="707" 
d="M214 312q0 -64 8.5 -103.5t26 -61.5t43.5 -30t61 -8q33 0 59 8t44 30.5t27.5 62t9.5 102.5v88q0 64 -8.5 103.5t-26 61.5t-43.5 30t-61 8q-33 0 -59 -8t-44 -30.5t-27.5 -62t-9.5 -102.5v-88zM648 314q0 -72 -13.5 -132.5t-47 -104t-90 -68t-143.5 -24.5q-89 0 -146 24.5
t-90 68t-46 104t-13 132.5v84q0 73 14 134t47.5 104t90 67t142.5 24q91 0 148.5 -25.5t90 -69.5t44.5 -104t12 -130v-84zM544 915q0 -44 -9.5 -72.5t-25.5 -45.5t-36.5 -23.5t-42.5 -6.5q-23 0 -42 7.5t-41 21.5l-17 10q-14 8 -26 13.5t-23 5.5q-35 0 -35 -54h-84
q0 43 9 71.5t25 45.5t36.5 24t43.5 7t42 -7.5t41 -21.5l17 -10q14 -8 26 -13.5t23 -5.5q35 0 35 54h84z" />
    <glyph glyph-name="Odieresis" unicode="&#xd6;" horiz-adv-x="707" 
d="M214 312q0 -64 8.5 -103.5t26 -61.5t43.5 -30t61 -8q33 0 59 8t44 30.5t27.5 62t9.5 102.5v88q0 64 -8.5 103.5t-26 61.5t-43.5 30t-61 8q-33 0 -59 -8t-44 -30.5t-27.5 -62t-9.5 -102.5v-88zM648 314q0 -72 -13.5 -132.5t-47 -104t-90 -68t-143.5 -24.5q-89 0 -146 24.5
t-90 68t-46 104t-13 132.5v84q0 73 14 134t47.5 104t90 67t142.5 24q91 0 148.5 -25.5t90 -69.5t44.5 -104t12 -130v-84zM459 768q-39 0 -56.5 18.5t-17.5 50.5t17.5 50.5t56.5 18.5q40 0 57.5 -18.5t17.5 -50.5t-17.5 -50.5t-57.5 -18.5zM246 768q-39 0 -56.5 18.5
t-17.5 50.5t17.5 50.5t56.5 18.5q40 0 57.5 -18.5t17.5 -50.5t-17.5 -50.5t-57.5 -18.5z" />
    <glyph glyph-name="multiply" unicode="&#xd7;" horiz-adv-x="586" 
d="M385 330l134 -133l-92 -93l-134 134l-133 -133l-93 92l133 133l-133 135l92 91l134 -133l134 133l92 -91z" />
    <glyph glyph-name="Oslash" unicode="&#xd8;" horiz-adv-x="707" 
d="M648 314q0 -74 -14 -134.5t-47.5 -103.5t-90.5 -67t-142 -24q-59 0 -103 10.5t-77 30.5l-55 -77l-76 55l64 89q-27 43 -37.5 99t-10.5 122v84q0 73 14 134t47.5 104t90 67t142.5 24q58 0 102 -10.5t77 -30.5l56 79l76 -55l-65 -90q28 -44 38.5 -100t10.5 -122v-84z
M498 401q0 20 -1 38t-3 34l-242 -339q18 -17 43 -23.5t58 -6.5q34 0 61 8.5t45.5 31t28.5 63t10 104.5v90zM209 311q0 -41 3 -71l242 338q-18 17 -43 23.5t-57 6.5q-34 0 -61 -8.5t-45.5 -31t-28.5 -63t-10 -104.5v-90z" />
    <glyph glyph-name="Ugrave" unicode="&#xd9;" horiz-adv-x="695" 
d="M346 -15q-84 0 -138 19.5t-85.5 58.5t-44 96.5t-12.5 133.5v419h152v-410q0 -55 6 -92t21 -59.5t40 -32t64 -9.5t63.5 9.5t39 32t20 59.5t5.5 92v410h152v-420q0 -74 -12.5 -131t-44 -96t-86.5 -59.5t-140 -20.5zM454 771h-139l-164 132h165z" />
    <glyph glyph-name="Uacute" unicode="&#xda;" horiz-adv-x="695" 
d="M346 -15q-84 0 -138 19.5t-85.5 58.5t-44 96.5t-12.5 133.5v419h152v-410q0 -55 6 -92t21 -59.5t40 -32t64 -9.5t63.5 9.5t39 32t20 59.5t5.5 92v410h152v-420q0 -74 -12.5 -131t-44 -96t-86.5 -59.5t-140 -20.5zM384 903h165l-164 -132h-139z" />
    <glyph glyph-name="Ucircumflex" unicode="&#xdb;" horiz-adv-x="695" 
d="M346 -15q-84 0 -138 19.5t-85.5 58.5t-44 96.5t-12.5 133.5v419h152v-410q0 -55 6 -92t21 -59.5t40 -32t64 -9.5t63.5 9.5t39 32t20 59.5t5.5 92v410h152v-420q0 -74 -12.5 -131t-44 -96t-86.5 -59.5t-140 -20.5zM347 833l-64 -62h-133l131 132h134l130 -132h-133z" />
    <glyph glyph-name="Udieresis" unicode="&#xdc;" horiz-adv-x="695" 
d="M346 -15q-84 0 -138 19.5t-85.5 58.5t-44 96.5t-12.5 133.5v419h152v-410q0 -55 6 -92t21 -59.5t40 -32t64 -9.5t63.5 9.5t39 32t20 59.5t5.5 92v410h152v-420q0 -74 -12.5 -131t-44 -96t-86.5 -59.5t-140 -20.5zM454 768q-39 0 -56.5 18.5t-17.5 50.5t17.5 50.5
t56.5 18.5q40 0 57.5 -18.5t17.5 -50.5t-17.5 -50.5t-57.5 -18.5zM241 768q-39 0 -56.5 18.5t-17.5 50.5t17.5 50.5t56.5 18.5q40 0 57.5 -18.5t17.5 -50.5t-17.5 -50.5t-57.5 -18.5z" />
    <glyph glyph-name="Yacute" unicode="&#xdd;" horiz-adv-x="643" 
d="M324 408l148 304h157l-233 -429v-283h-152v283l-230 429h167zM361 903h165l-164 -132h-139z" />
    <glyph glyph-name="Thorn" unicode="&#xde;" horiz-adv-x="627" 
d="M225 138v-138h-152v712h152v-117h139q57 0 98.5 -16t67.5 -45t38.5 -68.5t12.5 -85.5v-23q0 -219 -239 -219h-117zM225 258h103q103 0 103 97v19q0 101 -101 101h-105v-217z" />
    <glyph glyph-name="germandbls" unicode="&#xdf;" horiz-adv-x="623" 
d="M381 -9q-25 0 -55 3.5t-53 11.5l21 106q13 -4 30 -6t29 -2q87 0 87 112q0 60 -26.5 85.5t-84.5 25.5h-47l14 108h27q88 0 88 104v8q0 16 -4 32.5t-14.5 29.5t-28.5 21t-46 8q-55 0 -79 -34t-24 -105v-499h-148v488q0 263 253 263q52 0 95.5 -12t74.5 -36t48.5 -60.5
t17.5 -85.5v-7q0 -52 -19.5 -90.5t-68.5 -64.5q57 -20 88.5 -65t31.5 -115v-14q0 -100 -55.5 -155t-151.5 -55z" />
    <glyph glyph-name="agrave" unicode="&#xe0;" horiz-adv-x="553" 
d="M175 159q0 -32 20 -48.5t65 -16.5q48 0 71 18t23 50v8q0 59 -84 59h-17q-78 0 -78 -65v-5zM38 160q0 46 13.5 77t38 50.5t59 28t76.5 8.5q43 0 75 -9t53 -29v27q0 58 -31.5 82.5t-97.5 24.5q-30 0 -63 -4.5t-80 -14.5l18 111q32 9 77 15t84 6q115 0 174 -51t59 -148v-334
h-125l-9 50q-24 -32 -62.5 -46t-85.5 -14q-37 0 -68.5 8.5t-55 27.5t-36.5 50t-13 76v8zM381 593h-129l-145 147h154z" />
    <glyph glyph-name="aacute" unicode="&#xe1;" horiz-adv-x="553" 
d="M175 159q0 -32 20 -48.5t65 -16.5q48 0 71 18t23 50v8q0 59 -84 59h-17q-78 0 -78 -65v-5zM38 160q0 46 13.5 77t38 50.5t59 28t76.5 8.5q43 0 75 -9t53 -29v27q0 58 -31.5 82.5t-97.5 24.5q-30 0 -63 -4.5t-80 -14.5l18 111q32 9 77 15t84 6q115 0 174 -51t59 -148v-334
h-125l-9 50q-24 -32 -62.5 -46t-85.5 -14q-37 0 -68.5 8.5t-55 27.5t-36.5 50t-13 76v8zM304 740h155l-145 -147h-130z" />
    <glyph glyph-name="acircumflex" unicode="&#xe2;" horiz-adv-x="553" 
d="M175 159q0 -32 20 -48.5t65 -16.5q48 0 71 18t23 50v8q0 59 -84 59h-17q-78 0 -78 -65v-5zM38 160q0 46 13.5 77t38 50.5t59 28t76.5 8.5q43 0 75 -9t53 -29v27q0 58 -31.5 82.5t-97.5 24.5q-30 0 -63 -4.5t-80 -14.5l18 111q32 9 77 15t84 6q115 0 174 -51t59 -148v-334
h-125l-9 50q-24 -32 -62.5 -46t-85.5 -14q-37 0 -68.5 8.5t-55 27.5t-36.5 50t-13 76v8zM281 669l-73 -76h-123l131 147h131l131 -147h-122z" />
    <glyph glyph-name="atilde" unicode="&#xe3;" horiz-adv-x="553" 
d="M175 159q0 -32 20 -48.5t65 -16.5q48 0 71 18t23 50v8q0 59 -84 59h-17q-78 0 -78 -65v-5zM38 160q0 46 13.5 77t38 50.5t59 28t76.5 8.5q43 0 75 -9t53 -29v27q0 58 -31.5 82.5t-97.5 24.5q-30 0 -63 -4.5t-80 -14.5l18 111q32 9 77 15t84 6q115 0 174 -51t59 -148v-334
h-125l-9 50q-24 -32 -62.5 -46t-85.5 -14q-37 0 -68.5 8.5t-55 27.5t-36.5 50t-13 76v8zM98 604q0 70 29 106t79 36q23 0 41 -5t38 -17l21 -12q17 -10 26.5 -14.5t19.5 -4.5q14 0 23 13t9 35h80q0 -68 -28 -105t-80 -37q-23 0 -41 5t-38 17l-21 12q-17 10 -27 14.5t-19 4.5
q-16 0 -24 -13t-8 -35h-80z" />
    <glyph glyph-name="adieresis" unicode="&#xe4;" horiz-adv-x="553" 
d="M175 159q0 -32 20 -48.5t65 -16.5q48 0 71 18t23 50v8q0 59 -84 59h-17q-78 0 -78 -65v-5zM38 160q0 46 13.5 77t38 50.5t59 28t76.5 8.5q43 0 75 -9t53 -29v27q0 58 -31.5 82.5t-97.5 24.5q-30 0 -63 -4.5t-80 -14.5l18 111q32 9 77 15t84 6q115 0 174 -51t59 -148v-334
h-125l-9 50q-24 -32 -62.5 -46t-85.5 -14q-37 0 -68.5 8.5t-55 27.5t-36.5 50t-13 76v8zM382 594q-39 0 -56 19t-17 51t17 51t56 19t56.5 -19.5t17.5 -51.5t-17.5 -50.5t-56.5 -18.5zM175 594q-39 0 -56 19t-17 51t17 51t56 19t56.5 -19.5t17.5 -51.5t-17.5 -50.5
t-56.5 -18.5z" />
    <glyph glyph-name="aring" unicode="&#xe5;" horiz-adv-x="553" 
d="M175 159q0 -32 20 -48.5t65 -16.5q48 0 71 18t23 50v8q0 59 -84 59h-17q-78 0 -78 -65v-5zM38 160q0 46 13.5 77t38 50.5t59 28t76.5 8.5q43 0 75 -9t53 -29v27q0 58 -31.5 82.5t-97.5 24.5q-30 0 -63 -4.5t-80 -14.5l18 111q32 9 77 15t84 6q115 0 174 -51t59 -148v-334
h-125l-9 50q-24 -32 -62.5 -46t-85.5 -14q-37 0 -68.5 8.5t-55 27.5t-36.5 50t-13 76v8zM274 652q23 0 38 15t15 40q0 24 -15 39t-38 15t-38 -15t-15 -39t15 -39.5t38 -15.5zM275 584q-27 0 -50.5 8t-41 23.5t-28 38.5t-10.5 52q0 28 10 51t27 39t40 24.5t50 8.5t50.5 -8
t41.5 -23.5t28.5 -38t10.5 -51.5t-10 -52t-27.5 -39t-40.5 -24.5t-50 -8.5z" />
    <glyph glyph-name="ae" unicode="&#xe6;" horiz-adv-x="856" 
d="M38 160q0 46 13.5 77t38 50.5t59 28t76.5 8.5q43 0 75 -9t53 -29v27q0 56 -30 81.5t-97 25.5q-32 0 -65 -4.5t-80 -14.5l18 111q29 9 70.5 15t77.5 6q115 0 172 -63q27 30 69.5 46.5t99.5 16.5q63 0 105 -18t67.5 -48.5t36.5 -69.5t11 -81v-40q0 -20 -3 -32t-10.5 -18
t-19.5 -8t-30 -2h-256q2 -33 9.5 -55t24.5 -36t45 -20t72 -6q43 0 78.5 4.5t66.5 9.5l-19 -102q-14 -5 -33.5 -9t-42 -7t-46.5 -5t-46 -2q-75 0 -123.5 20.5t-77.5 60.5q-22 -40 -66.5 -59.5t-106.5 -19.5q-40 0 -74 8.5t-59 27.5t-39 50t-14 76v8zM175 159q0 -65 85 -65
q48 0 71 18t23 50v8q0 59 -84 59h-17q-78 0 -78 -65v-5zM581 427q-48 0 -70 -28t-24 -90h180v18q0 50 -20 75t-66 25z" />
    <glyph glyph-name="ccedilla" unicode="&#xe7;" horiz-adv-x="482" 
d="M382 -134q0 -26 -11 -46t-30.5 -33.5t-46 -20t-57.5 -6.5q-27 0 -51.5 4.5t-41.5 12.5l21 71q31 -9 60 -9q55 0 55 33q0 8 -3 14.5t-12.5 11.5t-27 8.5t-45.5 5.5l21 86q-45 9 -75.5 30t-49.5 51.5t-27 70.5t-8 88v49q0 55 14.5 100.5t45 77t78 49t114.5 17.5
q43 0 79.5 -6.5t65.5 -15.5l-24 -105q-21 6 -44 10t-51 4q-71 0 -99.5 -29.5t-28.5 -100.5v-46q0 -40 8 -66.5t25 -42.5t43 -23t61 -7q24 0 52 3t53 8l-18 -104q-26 -8 -59.5 -14t-75.5 -6l-7 -32q97 -16 97 -92z" />
    <glyph glyph-name="egrave" unicode="&#xe8;" horiz-adv-x="569" 
d="M202 216q2 -33 9.5 -55t24.5 -36t45 -20t72 -6q43 0 78.5 4.5t66.5 9.5l-19 -102q-29 -10 -78 -16.5t-96 -6.5q-69 0 -117 16.5t-78 49t-43.5 79.5t-13.5 108v32q0 53 12 100.5t40 83t74.5 56t116.5 20.5q66 0 109 -18t69 -48.5t36.5 -69.5t10.5 -81v-40q0 -38 -13 -49
t-50 -11h-256zM294 427q-48 0 -70 -28t-24 -90h180v18q0 50 -20 75t-66 25zM394 593h-129l-145 147h154z" />
    <glyph glyph-name="eacute" unicode="&#xe9;" horiz-adv-x="569" 
d="M202 216q2 -33 9.5 -55t24.5 -36t45 -20t72 -6q43 0 78.5 4.5t66.5 9.5l-19 -102q-29 -10 -78 -16.5t-96 -6.5q-69 0 -117 16.5t-78 49t-43.5 79.5t-13.5 108v32q0 53 12 100.5t40 83t74.5 56t116.5 20.5q66 0 109 -18t69 -48.5t36.5 -69.5t10.5 -81v-40q0 -38 -13 -49
t-50 -11h-256zM294 427q-48 0 -70 -28t-24 -90h180v18q0 50 -20 75t-66 25zM311 740h155l-145 -147h-130z" />
    <glyph glyph-name="ecircumflex" unicode="&#xea;" horiz-adv-x="569" 
d="M202 216q2 -33 9.5 -55t24.5 -36t45 -20t72 -6q43 0 78.5 4.5t66.5 9.5l-19 -102q-29 -10 -78 -16.5t-96 -6.5q-69 0 -117 16.5t-78 49t-43.5 79.5t-13.5 108v32q0 53 12 100.5t40 83t74.5 56t116.5 20.5q66 0 109 -18t69 -48.5t36.5 -69.5t10.5 -81v-40q0 -38 -13 -49
t-50 -11h-256zM294 427q-48 0 -70 -28t-24 -90h180v18q0 50 -20 75t-66 25zM286 669l-73 -76h-123l131 147h131l131 -147h-122z" />
    <glyph glyph-name="edieresis" unicode="&#xeb;" horiz-adv-x="569" 
d="M202 216q2 -33 9.5 -55t24.5 -36t45 -20t72 -6q43 0 78.5 4.5t66.5 9.5l-19 -102q-29 -10 -78 -16.5t-96 -6.5q-69 0 -117 16.5t-78 49t-43.5 79.5t-13.5 108v32q0 53 12 100.5t40 83t74.5 56t116.5 20.5q66 0 109 -18t69 -48.5t36.5 -69.5t10.5 -81v-40q0 -38 -13 -49
t-50 -11h-256zM294 427q-48 0 -70 -28t-24 -90h180v18q0 50 -20 75t-66 25zM397 594q-39 0 -56 19t-17 51t17 51t56 19t56.5 -19.5t17.5 -51.5t-17.5 -50.5t-56.5 -18.5zM190 594q-39 0 -56 19t-17 51t17 51t56 19t56.5 -19.5t17.5 -51.5t-17.5 -50.5t-56.5 -18.5z" />
    <glyph glyph-name="igrave" unicode="&#xec;" horiz-adv-x="282" 
d="M67 521h148v-521h-148v521zM222 593h-129l-145 147h154z" />
    <glyph glyph-name="iacute" unicode="&#xed;" horiz-adv-x="282" 
d="M67 521h148v-521h-148v521zM181 740h155l-145 -147h-130z" />
    <glyph glyph-name="icircumflex" unicode="&#xee;" horiz-adv-x="282" 
d="M67 521h148v-521h-148v521zM138 669l-73 -76h-123l131 147h131l131 -147h-122z" />
    <glyph glyph-name="idieresis" unicode="&#xef;" horiz-adv-x="282" 
d="M67 521h148v-521h-148v521zM245 594q-39 0 -56 19t-17 51t17 51t56 19t56.5 -19.5t17.5 -51.5t-17.5 -50.5t-56.5 -18.5zM38 594q-39 0 -56 19t-17 51t17 51t56 19t56.5 -19.5t17.5 -51.5t-17.5 -50.5t-56.5 -18.5z" />
    <glyph glyph-name="eth" unicode="&#xf0;" horiz-adv-x="598" 
d="M187 612l100 25q-11 14 -23 27t-26 26l101 85q26 -26 48.5 -51t41.5 -51l118 30l19 -77l-92 -23q40 -75 56 -151.5t16 -159.5q0 -84 -14.5 -142t-45.5 -94t-78 -52t-111 -16q-127 0 -185.5 57.5t-58.5 178.5v27q0 66 17.5 112.5t47 75.5t68 42.5t80.5 13.5q40 0 67.5 -10
t46.5 -25q-17 59 -45 109l-130 -32zM398 241q0 79 -21 110.5t-76 31.5q-54 0 -76 -30.5t-22 -96.5v-29q0 -39 6 -63.5t18 -38.5t29.5 -19t40.5 -5q29 0 48.5 7t31 23.5t16.5 43.5t5 66z" />
    <glyph glyph-name="ntilde" unicode="&#xf1;" horiz-adv-x="600" 
d="M67 0v521h129l8 -53q56 65 153 65q88 0 135.5 -47t47.5 -133v-353h-148v319q0 54 -19.5 76t-62.5 22q-51 0 -73 -27.5t-22 -86.5v-303h-148zM128 604q0 70 29 106t79 36q23 0 41 -5t38 -17l21 -12q17 -10 26.5 -14.5t19.5 -4.5q14 0 23 13t9 35h80q0 -68 -28 -105
t-80 -37q-23 0 -41 5t-38 17l-21 12q-17 10 -27 14.5t-19 4.5q-16 0 -24 -13t-8 -35h-80z" />
    <glyph glyph-name="ograve" unicode="&#xf2;" horiz-adv-x="598" 
d="M545 240q0 -56 -12.5 -102.5t-41 -79.5t-76 -51.5t-116.5 -18.5q-74 0 -121.5 20.5t-75 55t-38.5 80t-11 96.5v41q0 55 12 101t40.5 79.5t75.5 52.5t118 19q72 0 119.5 -20t75.5 -54t39.5 -80t11.5 -98v-41zM203 228q0 -69 21.5 -98t73.5 -29q51 0 74 28.5t23 98.5v65
q0 69 -21.5 98t-73.5 29q-51 0 -74 -28.5t-23 -98.5v-65zM399 593h-129l-145 147h154z" />
    <glyph glyph-name="oacute" unicode="&#xf3;" horiz-adv-x="598" 
d="M545 240q0 -56 -12.5 -102.5t-41 -79.5t-76 -51.5t-116.5 -18.5q-74 0 -121.5 20.5t-75 55t-38.5 80t-11 96.5v41q0 55 12 101t40.5 79.5t75.5 52.5t118 19q72 0 119.5 -20t75.5 -54t39.5 -80t11.5 -98v-41zM203 228q0 -69 21.5 -98t73.5 -29q51 0 74 28.5t23 98.5v65
q0 69 -21.5 98t-73.5 29q-51 0 -74 -28.5t-23 -98.5v-65zM322 740h155l-145 -147h-130z" />
    <glyph glyph-name="ocircumflex" unicode="&#xf4;" horiz-adv-x="598" 
d="M545 240q0 -56 -12.5 -102.5t-41 -79.5t-76 -51.5t-116.5 -18.5q-74 0 -121.5 20.5t-75 55t-38.5 80t-11 96.5v41q0 55 12 101t40.5 79.5t75.5 52.5t118 19q72 0 119.5 -20t75.5 -54t39.5 -80t11.5 -98v-41zM203 228q0 -69 21.5 -98t73.5 -29q51 0 74 28.5t23 98.5v65
q0 69 -21.5 98t-73.5 29q-51 0 -74 -28.5t-23 -98.5v-65zM298 669l-73 -76h-123l131 147h131l131 -147h-122z" />
    <glyph glyph-name="otilde" unicode="&#xf5;" horiz-adv-x="598" 
d="M545 240q0 -56 -12.5 -102.5t-41 -79.5t-76 -51.5t-116.5 -18.5q-74 0 -121.5 20.5t-75 55t-38.5 80t-11 96.5v41q0 55 12 101t40.5 79.5t75.5 52.5t118 19q72 0 119.5 -20t75.5 -54t39.5 -80t11.5 -98v-41zM203 228q0 -69 21.5 -98t73.5 -29q51 0 74 28.5t23 98.5v65
q0 69 -21.5 98t-73.5 29q-51 0 -74 -28.5t-23 -98.5v-65zM116 604q0 70 29 106t79 36q23 0 41 -5t38 -17l21 -12q17 -10 26.5 -14.5t19.5 -4.5q14 0 23 13t9 35h80q0 -68 -28 -105t-80 -37q-23 0 -41 5t-38 17l-21 12q-17 10 -27 14.5t-19 4.5q-16 0 -24 -13t-8 -35h-80z
" />
    <glyph glyph-name="odieresis" unicode="&#xf6;" horiz-adv-x="598" 
d="M545 240q0 -56 -12.5 -102.5t-41 -79.5t-76 -51.5t-116.5 -18.5q-74 0 -121.5 20.5t-75 55t-38.5 80t-11 96.5v41q0 55 12 101t40.5 79.5t75.5 52.5t118 19q72 0 119.5 -20t75.5 -54t39.5 -80t11.5 -98v-41zM203 228q0 -69 21.5 -98t73.5 -29q51 0 74 28.5t23 98.5v65
q0 69 -21.5 98t-73.5 29q-51 0 -74 -28.5t-23 -98.5v-65zM402 594q-39 0 -56 19t-17 51t17 51t56 19t56.5 -19.5t17.5 -51.5t-17.5 -50.5t-56.5 -18.5zM195 594q-39 0 -56 19t-17 51t17 51t56 19t56.5 -19.5t17.5 -51.5t-17.5 -50.5t-56.5 -18.5z" />
    <glyph glyph-name="divide" unicode="&#xf7;" horiz-adv-x="586" 
d="M520 402v-119h-454v119h454zM291 459q-39 0 -56 19t-17 51t17 52t56 20t56 -20t17 -52t-17 -51t-56 -19zM291 84q-39 0 -56 19t-17 51t17 52t56 20t56 -20t17 -52t-17 -51t-56 -19z" />
    <glyph glyph-name="oslash" unicode="&#xf8;" horiz-adv-x="598" 
d="M545 240q0 -52 -11 -98t-39 -80t-75.5 -54t-120.5 -20q-42 0 -74 6.5t-58 18.5l-42 -59l-64 46l43 61q-29 35 -40 80.5t-11 98.5v41q0 55 12 101t40.5 79.5t75.5 52.5t118 19q38 0 69 -6t56 -17l41 58l65 -46l-41 -58q31 -35 43.5 -82t12.5 -101v-41zM236 110
q21 -14 62 -14q54 0 78 29.5t24 101.5v67q0 24 -3 42zM198 210q0 -7 1 -15l156 219q-22 11 -55 11q-54 0 -78 -29.5t-24 -101.5v-84z" />
    <glyph glyph-name="ugrave" unicode="&#xf9;" horiz-adv-x="595" 
d="M528 521v-521h-129l-8 53q-26 -32 -64.5 -48.5t-86.5 -16.5q-40 0 -73 11t-57 33.5t-37 56t-13 79.5v353h148v-319q0 -54 19 -76t61 -22q48 0 70 26.5t22 87.5v303h148zM397 593h-129l-145 147h154z" />
    <glyph glyph-name="uacute" unicode="&#xfa;" horiz-adv-x="595" 
d="M528 521v-521h-129l-8 53q-26 -32 -64.5 -48.5t-86.5 -16.5q-40 0 -73 11t-57 33.5t-37 56t-13 79.5v353h148v-319q0 -54 19 -76t61 -22q48 0 70 26.5t22 87.5v303h148zM309 740h155l-145 -147h-130z" />
    <glyph glyph-name="ucircumflex" unicode="&#xfb;" horiz-adv-x="595" 
d="M528 521v-521h-129l-8 53q-26 -32 -64.5 -48.5t-86.5 -16.5q-40 0 -73 11t-57 33.5t-37 56t-13 79.5v353h148v-319q0 -54 19 -76t61 -22q48 0 70 26.5t22 87.5v303h148zM290 669l-73 -76h-123l131 147h131l131 -147h-122z" />
    <glyph glyph-name="udieresis" unicode="&#xfc;" horiz-adv-x="595" 
d="M528 521v-521h-129l-8 53q-26 -32 -64.5 -48.5t-86.5 -16.5q-40 0 -73 11t-57 33.5t-37 56t-13 79.5v353h148v-319q0 -54 19 -76t61 -22q48 0 70 26.5t22 87.5v303h148zM397 594q-39 0 -56 19t-17 51t17 51t56 19t56.5 -19.5t17.5 -51.5t-17.5 -50.5t-56.5 -18.5z
M190 594q-39 0 -56 19t-17 51t17 51t56 19t56.5 -19.5t17.5 -51.5t-17.5 -50.5t-56.5 -18.5z" />
    <glyph glyph-name="yacute" unicode="&#xfd;" horiz-adv-x="580" 
d="M565 521l-218 -588q-15 -40 -32.5 -72t-42 -54t-58 -33.5t-80.5 -11.5q-15 0 -32 1.5t-33 4.5t-29.5 6.5t-22.5 7.5l19 102q15 -4 34 -6.5t38 -2.5q18 0 33 4t28 14.5t24.5 29t21.5 47.5l9 27l-209 524h165l120 -361l106 361h159zM315 740h155l-145 -147h-130z" />
    <glyph glyph-name="thorn" unicode="&#xfe;" horiz-adv-x="608" 
d="M405 280q0 73 -20.5 105t-73.5 32q-49 0 -72.5 -28t-23.5 -91v-173q23 -11 43 -16.5t43 -5.5q54 0 79 31t25 101v45zM555 245q0 -126 -55.5 -190.5t-155.5 -64.5q-73 0 -129 36v-258h-148v975h148v-262q25 25 60 38.5t82 13.5q99 0 148.5 -61.5t49.5 -194.5v-32z" />
    <glyph glyph-name="ydieresis" unicode="&#xff;" horiz-adv-x="580" 
d="M565 521l-218 -588q-15 -40 -32.5 -72t-42 -54t-58 -33.5t-80.5 -11.5q-15 0 -32 1.5t-33 4.5t-29.5 6.5t-22.5 7.5l19 102q15 -4 34 -6.5t38 -2.5q18 0 33 4t28 14.5t24.5 29t21.5 47.5l9 27l-209 524h165l120 -361l106 361h159zM398 594q-39 0 -56 19t-17 51t17 51
t56 19t56.5 -19.5t17.5 -51.5t-17.5 -50.5t-56.5 -18.5zM191 594q-39 0 -56 19t-17 51t17 51t56 19t56.5 -19.5t17.5 -51.5t-17.5 -50.5t-56.5 -18.5z" />
    <glyph glyph-name="Amacron" unicode="&#x100;" horiz-adv-x="684" 
d="M453 176h-230l-53 -176h-148l237 712h160l243 -712h-156zM254 294h167l-83 273zM195 894h291v-102h-291v102z" />
    <glyph glyph-name="amacron" unicode="&#x101;" horiz-adv-x="553" 
d="M175 159q0 -32 20 -48.5t65 -16.5q48 0 71 18t23 50v8q0 59 -84 59h-17q-78 0 -78 -65v-5zM38 160q0 46 13.5 77t38 50.5t59 28t76.5 8.5q43 0 75 -9t53 -29v27q0 58 -31.5 82.5t-97.5 24.5q-30 0 -63 -4.5t-80 -14.5l18 111q32 9 77 15t84 6q115 0 174 -51t59 -148v-334
h-125l-9 50q-24 -32 -62.5 -46t-85.5 -14q-37 0 -68.5 8.5t-55 27.5t-36.5 50t-13 76v8zM131 720h285v-98h-285v98z" />
    <glyph glyph-name="Abreve" unicode="&#x102;" horiz-adv-x="684" 
d="M453 176h-230l-53 -176h-148l237 712h160l243 -712h-156zM254 294h167l-83 273zM339 763q-78 0 -122 40t-44 118h101q5 -73 65 -73q62 0 64 73h102q0 -78 -44 -118t-122 -40z" />
    <glyph glyph-name="abreve" unicode="&#x103;" horiz-adv-x="553" 
d="M175 159q0 -32 20 -48.5t65 -16.5q48 0 71 18t23 50v8q0 59 -84 59h-17q-78 0 -78 -65v-5zM38 160q0 46 13.5 77t38 50.5t59 28t76.5 8.5q43 0 75 -9t53 -29v27q0 58 -31.5 82.5t-97.5 24.5q-30 0 -63 -4.5t-80 -14.5l18 111q32 9 77 15t84 6q115 0 174 -51t59 -148v-334
h-125l-9 50q-24 -32 -62.5 -46t-85.5 -14q-37 0 -68.5 8.5t-55 27.5t-36.5 50t-13 76v8zM280 670q29 0 45.5 16.5t18.5 56.5h96q0 -77 -40 -116.5t-120 -39.5q-81 0 -120.5 40.5t-39.5 115.5h96q2 -40 18.5 -56.5t45.5 -16.5z" />
    <glyph glyph-name="Aogonek" unicode="&#x104;" horiz-adv-x="684" 
d="M453 176h-230l-53 -176h-148l237 712h160l243 -712q-39 -24 -60 -46t-21 -41q0 -29 45 -29q17 0 36 4l-11 -84q-15 -7 -37 -11.5t-46 -4.5q-51 0 -78 22t-27 59q0 20 8 38.5t21.5 35t31 31t36.5 26.5h-54zM254 294h167l-83 273z" />
    <glyph glyph-name="aogonek" unicode="&#x105;" horiz-adv-x="553" 
d="M38 160q0 46 13.5 77t38 50.5t59 28t76.5 8.5q43 0 75 -9t53 -29v27q0 58 -31.5 82.5t-97.5 24.5q-30 0 -63 -4.5t-80 -14.5l18 111q32 9 77 15t84 6q115 0 174 -51t59 -148v-334q-10 -6 -24 -16t-27 -22t-22 -26t-9 -27q0 -28 45 -28q10 0 18.5 1t19.5 3l-13 -82
q-15 -7 -36 -11t-44 -4q-51 0 -77.5 20.5t-26.5 58.5q0 21 8 39.5t21 35t30.5 31.5t35.5 27h-24l-9 50q-24 -32 -62.5 -46t-85.5 -14q-37 0 -68.5 8.5t-55 27.5t-36.5 50t-13 76v8zM175 159q0 -32 20 -48.5t65 -16.5q48 0 71 18t23 50v8q0 59 -84 59h-17q-78 0 -78 -65v-5z
" />
    <glyph glyph-name="Cacute" unicode="&#x106;" horiz-adv-x="577" 
d="M359 -10q-86 0 -143.5 20.5t-92.5 61t-49.5 101t-14.5 141.5v73q0 72 14.5 133t50.5 106t96 70.5t151 25.5q51 0 94 -8t71 -18l-25 -116q-24 8 -54.5 13t-66.5 5q-48 0 -81.5 -9.5t-54.5 -33.5t-30.5 -65t-9.5 -104v-66q0 -64 8.5 -104t28.5 -62.5t54.5 -31t87.5 -8.5
q29 0 66 3t75 10l-24 -120q-38 -9 -77 -13t-74 -4zM374 903h165l-164 -132h-139z" />
    <glyph glyph-name="cacute" unicode="&#x107;" horiz-adv-x="482" 
d="M427 10q-26 -8 -59.5 -14t-75.5 -6q-68 0 -114 17.5t-74 50t-39.5 78t-11.5 102.5v49q0 55 14.5 100.5t45 77t78 49t114.5 17.5q43 0 79.5 -6.5t65.5 -15.5l-24 -105q-21 6 -44 10t-51 4q-71 0 -99.5 -29.5t-28.5 -100.5v-46q0 -40 8 -66.5t25 -42.5t43 -23t61 -7
q24 0 52 3t53 8zM320 740h155l-145 -147h-130z" />
    <glyph glyph-name="Ccircumflex" unicode="&#x108;" horiz-adv-x="577" 
d="M359 -10q-86 0 -143.5 20.5t-92.5 61t-49.5 101t-14.5 141.5v73q0 72 14.5 133t50.5 106t96 70.5t151 25.5q51 0 94 -8t71 -18l-25 -116q-24 8 -54.5 13t-66.5 5q-48 0 -81.5 -9.5t-54.5 -33.5t-30.5 -65t-9.5 -104v-66q0 -64 8.5 -104t28.5 -62.5t54.5 -31t87.5 -8.5
q29 0 66 3t75 10l-24 -120q-38 -9 -77 -13t-74 -4zM342 833l-64 -62h-133l131 132h134l130 -132h-133z" />
    <glyph glyph-name="ccircumflex" unicode="&#x109;" horiz-adv-x="482" 
d="M427 10q-26 -8 -59.5 -14t-75.5 -6q-68 0 -114 17.5t-74 50t-39.5 78t-11.5 102.5v49q0 55 14.5 100.5t45 77t78 49t114.5 17.5q43 0 79.5 -6.5t65.5 -15.5l-24 -105q-21 6 -44 10t-51 4q-71 0 -99.5 -29.5t-28.5 -100.5v-46q0 -40 8 -66.5t25 -42.5t43 -23t61 -7
q24 0 52 3t53 8zM281 669l-73 -76h-123l131 147h131l131 -147h-122z" />
    <glyph glyph-name="Cdotaccent" unicode="&#x10a;" horiz-adv-x="577" 
d="M359 -10q-86 0 -143.5 20.5t-92.5 61t-49.5 101t-14.5 141.5v73q0 72 14.5 133t50.5 106t96 70.5t151 25.5q51 0 94 -8t71 -18l-25 -116q-24 8 -54.5 13t-66.5 5q-48 0 -81.5 -9.5t-54.5 -33.5t-30.5 -65t-9.5 -104v-66q0 -64 8.5 -104t28.5 -62.5t54.5 -31t87.5 -8.5
q29 0 66 3t75 10l-24 -120q-38 -9 -77 -13t-74 -4zM343 762q-48 0 -69 21.5t-21 57.5t21 57.5t69 21.5t69 -21.5t21 -57.5t-21 -57.5t-69 -21.5z" />
    <glyph glyph-name="cdotaccent" unicode="&#x10b;" horiz-adv-x="482" 
d="M427 10q-26 -8 -59.5 -14t-75.5 -6q-68 0 -114 17.5t-74 50t-39.5 78t-11.5 102.5v49q0 55 14.5 100.5t45 77t78 49t114.5 17.5q43 0 79.5 -6.5t65.5 -15.5l-24 -105q-21 6 -44 10t-51 4q-71 0 -99.5 -29.5t-28.5 -100.5v-46q0 -40 8 -66.5t25 -42.5t43 -23t61 -7
q24 0 52 3t53 8zM282 583q-47 0 -67 21t-20 56t20 56t67 21t67 -21t20 -56t-20 -56t-67 -21z" />
    <glyph glyph-name="Ccaron" unicode="&#x10c;" horiz-adv-x="577" 
d="M359 -10q-86 0 -143.5 20.5t-92.5 61t-49.5 101t-14.5 141.5v73q0 72 14.5 133t50.5 106t96 70.5t151 25.5q51 0 94 -8t71 -18l-25 -116q-24 8 -54.5 13t-66.5 5q-48 0 -81.5 -9.5t-54.5 -33.5t-30.5 -65t-9.5 -104v-66q0 -64 8.5 -104t28.5 -62.5t54.5 -31t87.5 -8.5
q29 0 66 3t75 10l-24 -120q-38 -9 -77 -13t-74 -4zM349 841l65 62h133l-130 -132h-135l-129 132h133z" />
    <glyph glyph-name="ccaron" unicode="&#x10d;" horiz-adv-x="482" 
d="M427 10q-26 -8 -59.5 -14t-75.5 -6q-68 0 -114 17.5t-74 50t-39.5 78t-11.5 102.5v49q0 55 14.5 100.5t45 77t78 49t114.5 17.5q43 0 79.5 -6.5t65.5 -15.5l-24 -105q-21 6 -44 10t-51 4q-71 0 -99.5 -29.5t-28.5 -100.5v-46q0 -40 8 -66.5t25 -42.5t43 -23t61 -7
q24 0 52 3t53 8zM200 740l75 -75l73 75h123l-131 -147h-131l-131 147h122z" />
    <glyph glyph-name="Dcaron" unicode="&#x10e;" horiz-adv-x="695" 
d="M73 712h250q91 0 151.5 -24t96.5 -66.5t50.5 -102t14.5 -129.5v-67q0 -71 -15 -130.5t-51 -102t-96.5 -66.5t-151.5 -24h-249v712zM225 124h84q43 0 75.5 10t54 34t32 63.5t10.5 98.5v53q0 60 -10.5 99.5t-32 63t-54 33t-75.5 9.5h-84v-464zM329 841l65 62h133l-130 -132
h-135l-129 132h133z" />
    <glyph glyph-name="dcaron" unicode="&#x10f;" horiz-adv-x="745" 
d="M203 242q0 -75 21 -106.5t73 -31.5q49 0 72.5 28t23.5 91v175q-23 11 -43 16.5t-43 5.5q-54 0 -79 -32t-25 -101v-45zM53 277q0 66 15 114.5t43 80t67 46.5t86 15q38 0 69.5 -9.5t59.5 -26.5v246h148v-743h-129l-8 53q-9 -11 -22 -22.5t-31 -21t-42.5 -15.5t-57.5 -6
q-98 0 -148 62t-50 195v32zM750 743l-36 -204h-101l6 204h131z" />
    <glyph glyph-name="Dcroat" unicode="&#x110;" horiz-adv-x="722" 
d="M100 309h-90v102h90v301h250q84 0 143 -20.5t97 -61t55.5 -101t17.5 -139.5v-67q0 -71 -15 -130.5t-51 -102t-96.5 -66.5t-151.5 -24h-249v309zM252 411h146v-102h-146v-185h84q43 0 75.5 10t54 34t32 63.5t10.5 98.5v53q0 60 -10.5 99.5t-32 63t-54 33t-75.5 9.5h-84
v-177z" />
    <glyph glyph-name="dcroat" unicode="&#x111;" horiz-adv-x="608" 
d="M246 673h147v70h148v-70h68v-88h-68v-585h-129l-8 53q-9 -11 -22 -22.5t-31 -21t-42.5 -15.5t-57.5 -6q-98 0 -148 62t-50 195v32q0 66 15 114.5t43 80t67 46.5t86 15q38 0 69.5 -9.5t59.5 -26.5v88h-147v88zM203 242q0 -40 5.5 -66.5t17.5 -42.5t29.5 -22.5t41.5 -6.5
q49 0 72.5 28t23.5 91v175q-23 11 -43 16.5t-43 5.5q-54 0 -79 -32t-25 -101v-45z" />
    <glyph glyph-name="Emacron" unicode="&#x112;" horiz-adv-x="591" 
d="M550 712l-16 -119h-309v-172h293l-15 -119h-278v-183h325l-16 -119h-461v712h477zM170 894h291v-102h-291v102z" />
    <glyph glyph-name="emacron" unicode="&#x113;" horiz-adv-x="569" 
d="M202 216q2 -33 9.5 -55t24.5 -36t45 -20t72 -6q43 0 78.5 4.5t66.5 9.5l-19 -102q-29 -10 -78 -16.5t-96 -6.5q-69 0 -117 16.5t-78 49t-43.5 79.5t-13.5 108v32q0 53 12 100.5t40 83t74.5 56t116.5 20.5q66 0 109 -18t69 -48.5t36.5 -69.5t10.5 -81v-40q0 -38 -13 -49
t-50 -11h-256zM294 427q-48 0 -70 -28t-24 -90h180v18q0 50 -20 75t-66 25zM148 720h285v-98h-285v98z" />
    <glyph glyph-name="Ebreve" unicode="&#x114;" horiz-adv-x="591" 
d="M550 712l-16 -119h-309v-172h293l-15 -119h-278v-183h325l-16 -119h-461v712h477zM315 763q-78 0 -122 40t-44 118h101q5 -73 65 -73q62 0 64 73h102q0 -78 -44 -118t-122 -40z" />
    <glyph glyph-name="ebreve" unicode="&#x115;" horiz-adv-x="569" 
d="M202 216q2 -33 9.5 -55t24.5 -36t45 -20t72 -6q43 0 78.5 4.5t66.5 9.5l-19 -102q-29 -10 -78 -16.5t-96 -6.5q-69 0 -117 16.5t-78 49t-43.5 79.5t-13.5 108v32q0 53 12 100.5t40 83t74.5 56t116.5 20.5q66 0 109 -18t69 -48.5t36.5 -69.5t10.5 -81v-40q0 -38 -13 -49
t-50 -11h-256zM294 427q-48 0 -70 -28t-24 -90h180v18q0 50 -20 75t-66 25zM287 670q29 0 45.5 16.5t18.5 56.5h96q0 -77 -40 -116.5t-120 -39.5q-81 0 -120.5 40.5t-39.5 115.5h96q2 -40 18.5 -56.5t45.5 -16.5z" />
    <glyph glyph-name="Edotaccent" unicode="&#x116;" horiz-adv-x="591" 
d="M550 712l-16 -119h-309v-172h293l-15 -119h-278v-183h325l-16 -119h-461v712h477zM319 762q-48 0 -69 21.5t-21 57.5t21 57.5t69 21.5t69 -21.5t21 -57.5t-21 -57.5t-69 -21.5z" />
    <glyph glyph-name="edotaccent" unicode="&#x117;" horiz-adv-x="569" 
d="M202 216q2 -33 9.5 -55t24.5 -36t45 -20t72 -6q43 0 78.5 4.5t66.5 9.5l-19 -102q-29 -10 -78 -16.5t-96 -6.5q-69 0 -117 16.5t-78 49t-43.5 79.5t-13.5 108v32q0 53 12 100.5t40 83t74.5 56t116.5 20.5q66 0 109 -18t69 -48.5t36.5 -69.5t10.5 -81v-40q0 -38 -13 -49
t-50 -11h-256zM294 427q-48 0 -70 -28t-24 -90h180v18q0 50 -20 75t-66 25zM292 583q-47 0 -67 21t-20 56t20 56t67 21t67 -21t20 -56t-20 -56t-67 -21z" />
    <glyph glyph-name="Eogonek" unicode="&#x118;" horiz-adv-x="591" 
d="M453 -87q0 -29 45 -29q17 0 36 4l-11 -84q-15 -7 -37 -11.5t-46 -4.5q-51 0 -78 22t-27 59q0 20 8 38.5t21.5 35t31 31t36.5 26.5h-359v712h477l-16 -119h-309v-172h293l-15 -119h-278v-183h325l-16 -119q-39 -24 -60 -46t-21 -41z" />
    <glyph glyph-name="eogonek" unicode="&#x119;" horiz-adv-x="569" 
d="M397 -91q0 -28 45 -28q10 0 18.5 1t19.5 3l-13 -82q-15 -7 -36 -11t-44 -4q-51 0 -77.5 20.5t-26.5 58.5q0 36 19 66.5t50 56.5q-14 -2 -26 -2h-21q-69 0 -117 16.5t-78 49t-43.5 79.5t-13.5 108v32q0 53 12 100.5t40 83t74.5 56t116.5 20.5q66 0 109 -18t69 -48.5
t36.5 -69.5t10.5 -81v-40q0 -21 -3.5 -33t-11.5 -18t-20 -7.5t-28 -1.5h-256q2 -33 9.5 -55t24.5 -36t45 -20t72 -6q43 0 78.5 4.5t66.5 9.5l-19 -102q-12 -8 -26.5 -19.5t-27 -25.5t-20.5 -28.5t-8 -28.5zM294 427q-48 0 -70 -28t-24 -90h180v18q0 50 -20 75t-66 25z" />
    <glyph glyph-name="Ecaron" unicode="&#x11a;" horiz-adv-x="591" 
d="M550 712l-16 -119h-309v-172h293l-15 -119h-278v-183h325l-16 -119h-461v712h477zM318 841l65 62h133l-130 -132h-135l-129 132h133z" />
    <glyph glyph-name="ecaron" unicode="&#x11b;" horiz-adv-x="569" 
d="M202 216q2 -33 9.5 -55t24.5 -36t45 -20t72 -6q43 0 78.5 4.5t66.5 9.5l-19 -102q-29 -10 -78 -16.5t-96 -6.5q-69 0 -117 16.5t-78 49t-43.5 79.5t-13.5 108v32q0 53 12 100.5t40 83t74.5 56t116.5 20.5q66 0 109 -18t69 -48.5t36.5 -69.5t10.5 -81v-40q0 -38 -13 -49
t-50 -11h-256zM294 427q-48 0 -70 -28t-24 -90h180v18q0 50 -20 75t-66 25zM215 740l75 -75l73 75h123l-131 -147h-131l-131 147h122z" />
    <glyph glyph-name="Gcircumflex" unicode="&#x11c;" horiz-adv-x="654" 
d="M409 598q-54 0 -91.5 -10t-60.5 -34.5t-33 -65.5t-10 -102v-64q0 -64 9 -104.5t29.5 -63.5t53.5 -31.5t81 -8.5q14 0 28.5 1t31.5 3v157h-89l14 118h218v-371q-42 -14 -103 -23t-127 -9q-81 0 -138.5 19.5t-93.5 60t-52.5 101.5t-16.5 144v73q0 75 16.5 136.5t55.5 105.5
t102.5 68t157.5 24q52 0 102 -9t82 -20l-25 -115q-29 8 -63 14t-78 6zM352 833l-64 -62h-133l131 132h134l130 -132h-133z" />
    <glyph glyph-name="gcircumflex" unicode="&#x11d;" horiz-adv-x="608" 
d="M53 279q0 70 19 118.5t53.5 78.5t82.5 43.5t106 13.5q67 0 126.5 -16t100.5 -40v-439q0 -64 -16.5 -115t-50.5 -87t-86 -55t-122 -19q-18 0 -42 1.5t-50 5t-53.5 10t-51.5 16.5l23 110q35 -11 78.5 -18t79.5 -7q77 0 110 36t33 115v25q-9 -9 -21 -18.5t-29 -17.5t-40 -13
t-53 -5q-53 0 -90.5 17t-61 49t-34.5 77.5t-11 103.5v30zM203 250q0 -69 21 -100.5t73 -31.5q48 0 72 28t24 92v166q-15 7 -37.5 11.5t-44.5 4.5q-24 0 -44 -6.5t-34.5 -21.5t-22 -39.5t-7.5 -60.5v-42zM312 669l-73 -76h-123l131 147h131l131 -147h-122z" />
    <glyph glyph-name="Gbreve" unicode="&#x11e;" horiz-adv-x="654" 
d="M409 598q-54 0 -91.5 -10t-60.5 -34.5t-33 -65.5t-10 -102v-64q0 -64 9 -104.5t29.5 -63.5t53.5 -31.5t81 -8.5q14 0 28.5 1t31.5 3v157h-89l14 118h218v-371q-42 -14 -103 -23t-127 -9q-81 0 -138.5 19.5t-93.5 60t-52.5 101.5t-16.5 144v73q0 75 16.5 136.5t55.5 105.5
t102.5 68t157.5 24q52 0 102 -9t82 -20l-25 -115q-29 8 -63 14t-78 6zM359 763q-78 0 -122 40t-44 118h101q5 -73 65 -73q62 0 64 73h102q0 -78 -44 -118t-122 -40z" />
    <glyph glyph-name="gbreve" unicode="&#x11f;" horiz-adv-x="608" 
d="M53 279q0 70 19 118.5t53.5 78.5t82.5 43.5t106 13.5q67 0 126.5 -16t100.5 -40v-439q0 -64 -16.5 -115t-50.5 -87t-86 -55t-122 -19q-18 0 -42 1.5t-50 5t-53.5 10t-51.5 16.5l23 110q35 -11 78.5 -18t79.5 -7q77 0 110 36t33 115v25q-9 -9 -21 -18.5t-29 -17.5t-40 -13
t-53 -5q-53 0 -90.5 17t-61 49t-34.5 77.5t-11 103.5v30zM203 250q0 -69 21 -100.5t73 -31.5q48 0 72 28t24 92v166q-15 7 -37.5 11.5t-44.5 4.5q-24 0 -44 -6.5t-34.5 -21.5t-22 -39.5t-7.5 -60.5v-42zM318 670q29 0 45.5 16.5t18.5 56.5h96q0 -77 -40 -116.5t-120 -39.5
q-81 0 -120.5 40.5t-39.5 115.5h96q2 -40 18.5 -56.5t45.5 -16.5z" />
    <glyph glyph-name="Gdotaccent" unicode="&#x120;" horiz-adv-x="654" 
d="M409 598q-54 0 -91.5 -10t-60.5 -34.5t-33 -65.5t-10 -102v-64q0 -64 9 -104.5t29.5 -63.5t53.5 -31.5t81 -8.5q14 0 28.5 1t31.5 3v157h-89l14 118h218v-371q-42 -14 -103 -23t-127 -9q-81 0 -138.5 19.5t-93.5 60t-52.5 101.5t-16.5 144v73q0 75 16.5 136.5t55.5 105.5
t102.5 68t157.5 24q52 0 102 -9t82 -20l-25 -115q-29 8 -63 14t-78 6zM361 762q-48 0 -69 21.5t-21 57.5t21 57.5t69 21.5t69 -21.5t21 -57.5t-21 -57.5t-69 -21.5z" />
    <glyph glyph-name="gdotaccent" unicode="&#x121;" horiz-adv-x="608" 
d="M53 279q0 70 19 118.5t53.5 78.5t82.5 43.5t106 13.5q67 0 126.5 -16t100.5 -40v-439q0 -64 -16.5 -115t-50.5 -87t-86 -55t-122 -19q-18 0 -42 1.5t-50 5t-53.5 10t-51.5 16.5l23 110q35 -11 78.5 -18t79.5 -7q77 0 110 36t33 115v25q-9 -9 -21 -18.5t-29 -17.5t-40 -13
t-53 -5q-53 0 -90.5 17t-61 49t-34.5 77.5t-11 103.5v30zM203 250q0 -69 21 -100.5t73 -31.5q48 0 72 28t24 92v166q-15 7 -37.5 11.5t-44.5 4.5q-24 0 -44 -6.5t-34.5 -21.5t-22 -39.5t-7.5 -60.5v-42zM316 583q-47 0 -67 21t-20 56t20 56t67 21t67 -21t20 -56t-20 -56
t-67 -21z" />
    <glyph glyph-name="Gcommaaccent" unicode="&#x122;" horiz-adv-x="654" 
d="M409 598q-54 0 -91.5 -10t-60.5 -34.5t-33 -65.5t-10 -102v-64q0 -64 9 -104.5t29.5 -63.5t53.5 -31.5t81 -8.5q14 0 28.5 1t31.5 3v157h-89l14 118h218v-371q-42 -14 -103 -23t-127 -9q-81 0 -138.5 19.5t-93.5 60t-52.5 101.5t-16.5 144v73q0 75 16.5 136.5t55.5 105.5
t102.5 68t157.5 24q52 0 102 -9t82 -20l-25 -115q-29 8 -63 14t-78 6zM278 -292l39 107q-17 8 -26 24.5t-9 38.5q0 29 19.5 48.5t58.5 19.5q38 0 58 -17.5t20 -46.5q0 -17 -6 -33.5t-16 -37.5l-48 -103h-90z" />
    <glyph glyph-name="gcommaaccent" unicode="&#x123;" horiz-adv-x="608" 
d="M53 279q0 70 19 118.5t53.5 78.5t82.5 43.5t106 13.5q67 0 126.5 -16t100.5 -40v-439q0 -64 -16.5 -115t-50.5 -87t-86 -55t-122 -19q-18 0 -42 1.5t-50 5t-53.5 10t-51.5 16.5l23 110q35 -11 78.5 -18t79.5 -7q77 0 110 36t33 115v25q-9 -9 -21 -18.5t-29 -17.5t-40 -13
t-53 -5q-53 0 -90.5 17t-61 49t-34.5 77.5t-11 103.5v30zM203 250q0 -69 21 -100.5t73 -31.5q48 0 72 28t24 92v166q-15 7 -37.5 11.5t-44.5 4.5q-24 0 -44 -6.5t-34.5 -21.5t-22 -39.5t-7.5 -60.5v-42zM397 813l-38 -103q18 -8 26 -24t8 -35q0 -29 -18 -47.5t-55 -18.5
t-55 17.5t-18 44.5q0 16 5 31.5t15 35.5l46 99h84z" />
    <glyph glyph-name="Hcircumflex" unicode="&#x124;" horiz-adv-x="701" 
d="M628 712v-712h-152v311h-251v-311h-152v712h152v-274h251v274h152zM347 833l-64 -62h-133l131 132h134l130 -132h-133z" />
    <glyph glyph-name="hcircumflex" unicode="&#x125;" horiz-adv-x="600" 
d="M67 0v743h148v-263q55 53 142 53q88 0 135.5 -47t47.5 -133v-353h-148v319q0 54 -19.5 76t-62.5 22q-51 0 -73 -27.5t-22 -86.5v-303h-148zM262 855l-64 -63h-133l131 132h134l130 -132h-133z" />
    <glyph glyph-name="Hbar" unicode="&#x126;" horiz-adv-x="718" 
d="M636 712v-98h72v-93h-72v-521h-152v296h-251v-296h-152v521h-71v93h71v98h152v-98h251v98h152zM484 423v98h-251v-98h251z" />
    <glyph glyph-name="hbar" unicode="&#x127;" horiz-adv-x="600" 
d="M-1 673h68v70h148v-70h147v-88h-147v-108q55 53 142 53q88 0 135.5 -47t47.5 -133v-350h-148v316q0 54 -19.5 76t-62.5 22q-51 0 -73 -27.5t-22 -86.5v-300h-148v585h-68v88z" />
    <glyph glyph-name="Itilde" unicode="&#x128;" horiz-adv-x="298" 
d="M225 0h-152v712h152v-712zM341 915q0 -44 -9.5 -72.5t-25.5 -45.5t-36.5 -23.5t-42.5 -6.5q-23 0 -42 7.5t-41 21.5l-17 10q-14 8 -26 13.5t-23 5.5q-35 0 -35 -54h-84q0 43 9 71.5t25 45.5t36.5 24t43.5 7t42 -7.5t41 -21.5l17 -10q14 -8 26 -13.5t23 -5.5q35 0 35 54
h84z" />
    <glyph glyph-name="itilde" unicode="&#x129;" horiz-adv-x="282" 
d="M67 521h148v-521h-148v521zM-41 604q0 70 29 106t79 36q23 0 41 -5t38 -17l21 -12q17 -10 26.5 -14.5t19.5 -4.5q14 0 23 13t9 35h80q0 -68 -28 -105t-80 -37q-23 0 -41 5t-38 17l-21 12q-17 10 -27 14.5t-19 4.5q-16 0 -24 -13t-8 -35h-80z" />
    <glyph glyph-name="Imacron" unicode="&#x12a;" horiz-adv-x="298" 
d="M225 0h-152v712h152v-712zM5 894h291v-102h-291v102z" />
    <glyph glyph-name="imacron" unicode="&#x12b;" horiz-adv-x="282" 
d="M67 521h148v-521h-148v521zM0 720h285v-98h-285v98z" />
    <glyph glyph-name="Ibreve" unicode="&#x12c;" horiz-adv-x="298" 
d="M225 0h-152v712h152v-712zM150 763q-78 0 -122 40t-44 118h101q5 -73 65 -73q62 0 64 73h102q0 -78 -44 -118t-122 -40z" />
    <glyph glyph-name="ibreve" unicode="&#x12d;" horiz-adv-x="282" 
d="M67 521h148v-521h-148v521zM142 670q29 0 45.5 16.5t18.5 56.5h96q0 -77 -40 -116.5t-120 -39.5q-81 0 -120.5 40.5t-39.5 115.5h96q2 -40 18.5 -56.5t45.5 -16.5z" />
    <glyph glyph-name="Iogonek" unicode="&#x12e;" horiz-adv-x="298" 
d="M144 -87q0 -29 45 -29q17 0 36 4l-11 -84q-15 -7 -37 -11.5t-46 -4.5q-51 0 -78 22t-27 59q0 20 8 38.5t21.5 35t31 31t36.5 26.5h-50v712h152v-712q-39 -24 -60 -46t-21 -41z" />
    <glyph glyph-name="iogonek" unicode="&#x12f;" horiz-adv-x="282" 
d="M67 521h148v-521q-10 -6 -24 -16t-27 -22t-22 -26t-9 -27q0 -28 45 -28q10 0 18.5 1t19.5 3l-13 -82q-15 -7 -36 -11t-44 -4q-51 0 -77.5 20.5t-26.5 58.5q0 21 8 39.5t21 35t30.5 31.5t35.5 27h-47v521zM141 583q-47 0 -67 21t-20 56t20 56t67 21t67 -21t20 -56t-20 -56
t-67 -21z" />
    <glyph glyph-name="Idotaccent" unicode="&#x130;" horiz-adv-x="298" 
d="M225 0h-152v712h152v-712zM150 762q-48 0 -69 21.5t-21 57.5t21 57.5t69 21.5t69 -21.5t21 -57.5t-21 -57.5t-69 -21.5z" />
    <glyph glyph-name="dotlessi" unicode="&#x131;" horiz-adv-x="282" 
d="M67 521h148v-521h-148v521z" />
    <glyph glyph-name="i.locl" horiz-adv-x="282" 
d="M141 583q-47 0 -67 21t-20 56t20 56t67 21t67 -21t20 -56t-20 -56t-67 -21zM67 521h148v-521h-148v521z" />
    <glyph glyph-name="IJ" unicode="&#x132;" horiz-adv-x="785" 
d="M225 0h-152v712h152v-712zM343 129q21 -5 45.5 -10t54.5 -5q33 0 56.5 8t38.5 26.5t22 48.5t7 74v441h152v-441q0 -65 -13 -117t-42 -88.5t-77 -56t-118 -19.5q-43 0 -83 6.5t-68 17.5z" />
    <glyph glyph-name="ij" unicode="&#x133;" horiz-adv-x="564" 
d="M141 583q-47 0 -67 21t-20 56t20 56t67 21t67 -21t20 -56t-20 -56t-67 -21zM67 521h148v-521h-148v521zM349 521h148v-530q0 -114 -50.5 -171.5t-156.5 -57.5q-29 0 -63.5 6t-62.5 19l21 100q36 -12 77 -12q43 0 65 25t22 80v541zM423 583q-47 0 -67 21t-20 56t20 56
t67 21t67 -21t20 -56t-20 -56t-67 -21z" />
    <glyph glyph-name="Jcircumflex" unicode="&#x134;" horiz-adv-x="487" 
d="M45 129q21 -5 45.5 -10t54.5 -5q33 0 56.5 8t38.5 26.5t22 48.5t7 74v441h152v-441q0 -65 -13 -117t-42 -88.5t-77 -56t-118 -19.5q-43 0 -83 6.5t-68 17.5zM347 833l-64 -62h-133l131 132h134l130 -132h-133z" />
    <glyph glyph-name="jcircumflex" unicode="&#x135;" horiz-adv-x="282" 
d="M67 521h148v-530q0 -114 -50.5 -171.5t-156.5 -57.5q-29 0 -63.5 6t-62.5 19l21 100q36 -12 77 -12q43 0 65 25t22 80v541zM141 669l-73 -76h-123l131 147h131l131 -147h-122z" />
    <glyph glyph-name="Kcommaaccent" unicode="&#x136;" horiz-adv-x="653" 
d="M218 311v-311h-145v712h145v-292l245 292h169l-289 -340l305 -372h-184zM251 -292l39 107q-17 8 -26 24.5t-9 38.5q0 29 19.5 48.5t58.5 19.5q38 0 58 -17.5t20 -46.5q0 -17 -6 -33.5t-16 -37.5l-48 -103h-90z" />
    <glyph glyph-name="kcommaaccent" unicode="&#x137;" horiz-adv-x="572" 
d="M209 226v-226h-142v743h142v-404l179 182h168l-234 -232l242 -289h-171zM212 -287l38 103q-18 8 -26 24t-8 35q0 29 18 47.5t55 18.5t55 -17.5t18 -44.5q0 -16 -5 -31.5t-15 -35.5l-46 -99h-84z" />
    <glyph glyph-name="kgreenlandic" unicode="&#x138;" horiz-adv-x="572" 
d="M209 206v-206h-142v521h142v-202l179 202h168l-234 -250l242 -271h-171z" />
    <glyph glyph-name="Lacute" unicode="&#x139;" horiz-adv-x="553" 
d="M225 712v-588h306l-17 -124h-441v712h152zM211 903h165l-164 -132h-139z" />
    <glyph glyph-name="lacute" unicode="&#x13a;" horiz-adv-x="282" 
d="M215 0h-148v743h148v-743zM199 924h165l-164 -132h-139z" />
    <glyph glyph-name="Lcommaaccent" unicode="&#x13b;" horiz-adv-x="553" 
d="M225 712v-588h306l-17 -124h-441v712h152zM213 -292l39 107q-17 8 -26 24.5t-9 38.5q0 29 19.5 48.5t58.5 19.5q38 0 58 -17.5t20 -46.5q0 -17 -6 -33.5t-16 -37.5l-48 -103h-90z" />
    <glyph glyph-name="lcommaaccent" unicode="&#x13c;" horiz-adv-x="282" 
d="M215 0h-148v743h148v-743zM62 -287l38 103q-18 8 -26 24t-8 35q0 29 18 47.5t55 18.5t55 -17.5t18 -44.5q0 -16 -5 -31.5t-15 -35.5l-46 -99h-84z" />
    <glyph glyph-name="Lcaron" unicode="&#x13d;" horiz-adv-x="553" 
d="M225 712v-588h306l-17 -124h-441v712h152zM434 743l-36 -204h-101l6 204h131z" />
    <glyph glyph-name="lcaron" unicode="&#x13e;" horiz-adv-x="419" 
d="M215 0h-148v743h148v-743zM424 743l-36 -204h-101l6 204h131z" />
    <glyph glyph-name="Ldot" unicode="&#x13f;" horiz-adv-x="553" 
d="M225 712v-588h306l-17 -124h-441v712h152zM426 490q41 0 64 -20t23 -63t-23 -63.5t-64 -20.5t-64 20.5t-23 63.5t23 63t64 20z" />
    <glyph glyph-name="ldot" unicode="&#x140;" horiz-adv-x="441" 
d="M215 0h-148v743h148v-743zM362 486q41 0 64 -20t23 -63t-23 -63.5t-64 -20.5t-64 20.5t-23 63.5t23 63t64 20z" />
    <glyph glyph-name="Lslash" unicode="&#x141;" horiz-adv-x="566" 
d="M238 712v-261l167 97v-128l-167 -97v-199h306l-17 -124h-441v235l-76 -44v128l76 44v349h152z" />
    <glyph glyph-name="lslash" unicode="&#x142;" horiz-adv-x="349" 
d="M248 472l96 57v-105l-96 -57v-367h-148v281l-95 -56v105l95 56v357h148v-271z" />
    <glyph glyph-name="Nacute" unicode="&#x143;" horiz-adv-x="703" 
d="M208 712l280 -471v471h142v-712h-134l-280 471v-471h-143v712h135zM382 903h165l-164 -132h-139z" />
    <glyph glyph-name="nacute" unicode="&#x144;" horiz-adv-x="600" 
d="M67 0v521h129l8 -53q56 65 153 65q88 0 135.5 -47t47.5 -133v-353h-148v319q0 54 -19.5 76t-62.5 22q-51 0 -73 -27.5t-22 -86.5v-303h-148zM330 740h155l-145 -147h-130z" />
    <glyph glyph-name="Ncommaaccent" unicode="&#x145;" horiz-adv-x="703" 
d="M208 712l280 -471v471h142v-712h-134l-280 471v-471h-143v712h135zM280 -292l39 107q-17 8 -26 24.5t-9 38.5q0 29 19.5 48.5t58.5 19.5q38 0 58 -17.5t20 -46.5q0 -17 -6 -33.5t-16 -37.5l-48 -103h-90z" />
    <glyph glyph-name="ncommaaccent" unicode="&#x146;" horiz-adv-x="600" 
d="M67 0v521h129l8 -53q56 65 153 65q88 0 135.5 -47t47.5 -133v-353h-148v319q0 54 -19.5 76t-62.5 22q-51 0 -73 -27.5t-22 -86.5v-303h-148zM227 -287l38 103q-18 8 -26 24t-8 35q0 29 18 47.5t55 18.5t55 -17.5t18 -44.5q0 -16 -5 -31.5t-15 -35.5l-46 -99h-84z" />
    <glyph glyph-name="Ncaron" unicode="&#x147;" horiz-adv-x="703" 
d="M208 712l280 -471v471h142v-712h-134l-280 471v-471h-143v712h135zM350 841l65 62h133l-130 -132h-135l-129 132h133z" />
    <glyph glyph-name="ncaron" unicode="&#x148;" horiz-adv-x="600" 
d="M67 0v521h129l8 -53q56 65 153 65q88 0 135.5 -47t47.5 -133v-353h-148v319q0 54 -19.5 76t-62.5 22q-51 0 -73 -27.5t-22 -86.5v-303h-148zM229 740l75 -75l73 75h123l-131 -147h-131l-131 147h122z" />
    <glyph glyph-name="napostrophe" unicode="&#x149;" horiz-adv-x="719" 
d="M186 0v521h129l8 -53q56 65 153 65q88 0 135.5 -47t47.5 -133v-353h-148v319q0 54 -19.5 76t-62.5 22q-51 0 -73 -27.5t-22 -86.5v-303h-148zM1 443l53 162q-19 9 -28 26.5t-9 40.5q0 34 20.5 53.5t59.5 19.5q42 0 62 -20.5t20 -53.5q0 -21 -6 -39.5t-15 -37.5l-71 -151
h-86z" />
    <glyph glyph-name="Eng" unicode="&#x14a;" horiz-adv-x="703" 
d="M208 712l280 -471v471h142v-670q0 -65 -10.5 -117t-36.5 -88t-72 -55.5t-116 -19.5q-42 0 -76.5 5.5t-61.5 16.5l25 116q15 -4 39 -9t50 -5q63 0 90 27t30 95l-275 463v-471h-143v712h135z" />
    <glyph glyph-name="eng" unicode="&#x14b;" horiz-adv-x="600" 
d="M67 0v521h129l8 -53q56 65 153 65q88 0 135.5 -47t47.5 -133v-362q0 -229 -201 -229q-28 0 -61.5 6t-60.5 19l21 100q34 -12 72 -12q41 0 61.5 25t20.5 80v339q0 54 -19.5 76t-62.5 22q-51 0 -73 -27.5t-22 -86.5v-303h-148z" />
    <glyph glyph-name="Omacron" unicode="&#x14c;" horiz-adv-x="707" 
d="M214 312q0 -64 8.5 -103.5t26 -61.5t43.5 -30t61 -8q33 0 59 8t44 30.5t27.5 62t9.5 102.5v88q0 64 -8.5 103.5t-26 61.5t-43.5 30t-61 8q-33 0 -59 -8t-44 -30.5t-27.5 -62t-9.5 -102.5v-88zM648 314q0 -72 -13.5 -132.5t-47 -104t-90 -68t-143.5 -24.5q-89 0 -146 24.5
t-90 68t-46 104t-13 132.5v84q0 73 14 134t47.5 104t90 67t142.5 24q91 0 148.5 -25.5t90 -69.5t44.5 -104t12 -130v-84zM208 894h291v-102h-291v102z" />
    <glyph glyph-name="omacron" unicode="&#x14d;" horiz-adv-x="598" 
d="M545 240q0 -56 -12.5 -102.5t-41 -79.5t-76 -51.5t-116.5 -18.5q-74 0 -121.5 20.5t-75 55t-38.5 80t-11 96.5v41q0 55 12 101t40.5 79.5t75.5 52.5t118 19q72 0 119.5 -20t75.5 -54t39.5 -80t11.5 -98v-41zM203 228q0 -69 21.5 -98t73.5 -29q51 0 74 28.5t23 98.5v65
q0 69 -21.5 98t-73.5 29q-51 0 -74 -28.5t-23 -98.5v-65zM157 720h285v-98h-285v98z" />
    <glyph glyph-name="Obreve" unicode="&#x14e;" horiz-adv-x="707" 
d="M214 312q0 -64 8.5 -103.5t26 -61.5t43.5 -30t61 -8q33 0 59 8t44 30.5t27.5 62t9.5 102.5v88q0 64 -8.5 103.5t-26 61.5t-43.5 30t-61 8q-33 0 -59 -8t-44 -30.5t-27.5 -62t-9.5 -102.5v-88zM648 314q0 -72 -13.5 -132.5t-47 -104t-90 -68t-143.5 -24.5q-89 0 -146 24.5
t-90 68t-46 104t-13 132.5v84q0 73 14 134t47.5 104t90 67t142.5 24q91 0 148.5 -25.5t90 -69.5t44.5 -104t12 -130v-84zM353 763q-78 0 -122 40t-44 118h101q5 -73 65 -73q62 0 64 73h102q0 -78 -44 -118t-122 -40z" />
    <glyph glyph-name="obreve" unicode="&#x14f;" horiz-adv-x="598" 
d="M545 240q0 -56 -12.5 -102.5t-41 -79.5t-76 -51.5t-116.5 -18.5q-74 0 -121.5 20.5t-75 55t-38.5 80t-11 96.5v41q0 55 12 101t40.5 79.5t75.5 52.5t118 19q72 0 119.5 -20t75.5 -54t39.5 -80t11.5 -98v-41zM203 228q0 -69 21.5 -98t73.5 -29q51 0 74 28.5t23 98.5v65
q0 69 -21.5 98t-73.5 29q-51 0 -74 -28.5t-23 -98.5v-65zM299 670q29 0 45.5 16.5t18.5 56.5h96q0 -77 -40 -116.5t-120 -39.5q-81 0 -120.5 40.5t-39.5 115.5h96q2 -40 18.5 -56.5t45.5 -16.5z" />
    <glyph glyph-name="Ohungarumlaut" unicode="&#x150;" horiz-adv-x="707" 
d="M214 312q0 -64 8.5 -103.5t26 -61.5t43.5 -30t61 -8q33 0 59 8t44 30.5t27.5 62t9.5 102.5v88q0 64 -8.5 103.5t-26 61.5t-43.5 30t-61 8q-33 0 -59 -8t-44 -30.5t-27.5 -62t-9.5 -102.5v-88zM648 314q0 -72 -13.5 -132.5t-47 -104t-90 -68t-143.5 -24.5q-89 0 -146 24.5
t-90 68t-46 104t-13 132.5v84q0 73 14 134t47.5 104t90 67t142.5 24q91 0 148.5 -25.5t90 -69.5t44.5 -104t12 -130v-84zM272 903h146l-129 -132h-127zM486 903h146l-129 -132h-127z" />
    <glyph glyph-name="ohungarumlaut" unicode="&#x151;" horiz-adv-x="598" 
d="M545 240q0 -56 -12.5 -102.5t-41 -79.5t-76 -51.5t-116.5 -18.5q-74 0 -121.5 20.5t-75 55t-38.5 80t-11 96.5v41q0 55 12 101t40.5 79.5t75.5 52.5t118 19q72 0 119.5 -20t75.5 -54t39.5 -80t11.5 -98v-41zM203 228q0 -69 21.5 -98t73.5 -29q51 0 74 28.5t23 98.5v65
q0 69 -21.5 98t-73.5 29q-51 0 -74 -28.5t-23 -98.5v-65zM228 740h135l-124 -146h-111zM418 740h135l-124 -146h-111z" />
    <glyph glyph-name="Racute" unicode="&#x154;" horiz-adv-x="636" 
d="M588 478q0 -151 -128 -198l154 -280h-166l-132 262h-95v-262h-148v712h297q58 0 99.5 -16.5t68 -45t38.5 -67t12 -83.5v-22zM221 380h117q52 0 77 25t25 73v16q0 98 -99 98h-120v-212zM347 903h165l-164 -132h-139z" />
    <glyph glyph-name="racute" unicode="&#x155;" horiz-adv-x="431" 
d="M396 398q-10 3 -27.5 6.5t-37.5 3.5q-34 0 -56 -9t-35.5 -26t-19 -40.5t-5.5 -52.5v-280h-148v521h129l8 -57q9 10 21.5 21.5t30 21t41.5 15.5t55 6q21 0 36 -2.5t34 -8.5zM270 740h155l-145 -147h-130z" />
    <glyph glyph-name="Rcommaaccent" unicode="&#x156;" horiz-adv-x="636" 
d="M588 478q0 -151 -128 -198l154 -280h-166l-132 262h-95v-262h-148v712h297q58 0 99.5 -16.5t68 -45t38.5 -67t12 -83.5v-22zM221 380h117q52 0 77 25t25 73v16q0 98 -99 98h-120v-212zM254 -292l39 107q-17 8 -26 24.5t-9 38.5q0 29 19.5 48.5t58.5 19.5q38 0 58 -17.5
t20 -46.5q0 -17 -6 -33.5t-16 -37.5l-48 -103h-90z" />
    <glyph glyph-name="rcommaaccent" unicode="&#x157;" horiz-adv-x="431" 
d="M396 398q-10 3 -27.5 6.5t-37.5 3.5q-34 0 -56 -9t-35.5 -26t-19 -40.5t-5.5 -52.5v-280h-148v521h129l8 -57q9 10 21.5 21.5t30 21t41.5 15.5t55 6q21 0 36 -2.5t34 -8.5zM63 -287l38 103q-18 8 -26 24t-8 35q0 29 18 47.5t55 18.5t55 -17.5t18 -44.5q0 -16 -5 -31.5
t-15 -35.5l-46 -99h-84z" />
    <glyph glyph-name="Rcaron" unicode="&#x158;" horiz-adv-x="636" 
d="M588 478q0 -151 -128 -198l154 -280h-166l-132 262h-95v-262h-148v712h297q58 0 99.5 -16.5t68 -45t38.5 -67t12 -83.5v-22zM221 380h117q52 0 77 25t25 73v16q0 98 -99 98h-120v-212zM313 841l65 62h133l-130 -132h-135l-129 132h133z" />
    <glyph glyph-name="rcaron" unicode="&#x159;" horiz-adv-x="431" 
d="M396 398q-10 3 -27.5 6.5t-37.5 3.5q-34 0 -56 -9t-35.5 -26t-19 -40.5t-5.5 -52.5v-280h-148v521h129l8 -57q9 10 21.5 21.5t30 21t41.5 15.5t55 6q21 0 36 -2.5t34 -8.5zM168 740l75 -75l73 75h123l-131 -147h-131l-131 147h122z" />
    <glyph glyph-name="Sacute" unicode="&#x15a;" horiz-adv-x="584" 
d="M257 -10q-61 0 -120 9t-100 23l25 117q41 -10 89.5 -18.5t99.5 -8.5q72 0 104.5 22t32.5 73q0 25 -7 41t-21.5 25.5t-36 14.5t-50.5 10l-49 8q-33 5 -65 17t-56.5 34.5t-40 58.5t-15.5 90q0 216 280 216q57 0 104.5 -8.5t88.5 -21.5l-23 -116q-35 10 -77.5 17t-91.5 7
q-74 0 -106 -19.5t-32 -67.5q0 -38 22.5 -57.5t79.5 -27.5l48 -7q35 -5 70.5 -16t64 -33.5t46 -60.5t17.5 -97q0 -115 -72 -169.5t-209 -54.5zM346 903h165l-164 -132h-139z" />
    <glyph glyph-name="sacute" unicode="&#x15b;" 
d="M318 315q44 -6 72 -20.5t43.5 -34.5t21.5 -43.5t6 -47.5v-10q0 -37 -13 -68t-40.5 -53.5t-71.5 -35t-105 -12.5q-54 0 -105 8.5t-90 21.5l25 107q49 -13 88 -18.5t76 -5.5q48 0 71 10.5t23 40.5q0 21 -11 32t-37 14l-75 9q-75 9 -114.5 45.5t-39.5 101.5v12
q0 43 17.5 73.5t48.5 50.5t74.5 29.5t94.5 9.5q54 0 100.5 -8t73.5 -19l-26 -106q-36 11 -70 16.5t-73 5.5q-54 0 -78.5 -11t-24.5 -41q0 -20 11.5 -29t42.5 -13zM283 740h155l-145 -147h-130z" />
    <glyph glyph-name="Scircumflex" unicode="&#x15c;" horiz-adv-x="584" 
d="M257 -10q-61 0 -120 9t-100 23l25 117q41 -10 89.5 -18.5t99.5 -8.5q72 0 104.5 22t32.5 73q0 25 -7 41t-21.5 25.5t-36 14.5t-50.5 10l-49 8q-33 5 -65 17t-56.5 34.5t-40 58.5t-15.5 90q0 216 280 216q57 0 104.5 -8.5t88.5 -21.5l-23 -116q-35 10 -77.5 17t-91.5 7
q-74 0 -106 -19.5t-32 -67.5q0 -38 22.5 -57.5t79.5 -27.5l48 -7q35 -5 70.5 -16t64 -33.5t46 -60.5t17.5 -97q0 -115 -72 -169.5t-209 -54.5zM306 833l-64 -62h-133l131 132h134l130 -132h-133z" />
    <glyph glyph-name="scircumflex" unicode="&#x15d;" 
d="M318 315q44 -6 72 -20.5t43.5 -34.5t21.5 -43.5t6 -47.5v-10q0 -37 -13 -68t-40.5 -53.5t-71.5 -35t-105 -12.5q-54 0 -105 8.5t-90 21.5l25 107q49 -13 88 -18.5t76 -5.5q48 0 71 10.5t23 40.5q0 21 -11 32t-37 14l-75 9q-75 9 -114.5 45.5t-39.5 101.5v12
q0 43 17.5 73.5t48.5 50.5t74.5 29.5t94.5 9.5q54 0 100.5 -8t73.5 -19l-26 -106q-36 11 -70 16.5t-73 5.5q-54 0 -78.5 -11t-24.5 -41q0 -20 11.5 -29t42.5 -13zM264 669l-73 -76h-123l131 147h131l131 -147h-122z" />
    <glyph glyph-name="Scedilla" unicode="&#x15e;" horiz-adv-x="584" 
d="M399 -138q0 -26 -11.5 -46t-31.5 -33.5t-47.5 -20t-58.5 -6.5q-28 0 -53 4.5t-43 12.5l21 71q33 -9 66 -9q56 0 56 33q0 8 -3 14t-13 11t-29 8.5t-50 6.5l20 83q-53 2 -101.5 10.5t-83.5 20.5l25 117q41 -10 89.5 -18.5t99.5 -8.5q72 0 104.5 22t32.5 73q0 25 -7 41
t-21.5 25.5t-36 14.5t-50.5 10l-49 8q-33 5 -65 17t-56.5 34.5t-40 58.5t-15.5 90q0 216 280 216q57 0 104.5 -8.5t88.5 -21.5l-23 -116q-35 10 -77.5 17t-91.5 7q-74 0 -106 -19.5t-32 -67.5q0 -38 22.5 -57.5t79.5 -27.5l48 -7q35 -5 70.5 -16t64 -33.5t46 -60.5t17.5 -97
q0 -106 -60 -160t-175 -62l-8 -38q104 -16 104 -92z" />
    <glyph glyph-name="scedilla" unicode="&#x15f;" 
d="M362 -134q0 -26 -11 -46t-30.5 -33.5t-46 -20t-57.5 -6.5q-27 0 -51.5 4.5t-41.5 12.5l21 71q31 -9 60 -9q55 0 55 33q0 8 -3 14.5t-12.5 11.5t-27 8.5t-45.5 5.5l20 79q-44 3 -84 10.5t-72 18.5l25 107q49 -13 88 -18.5t76 -5.5q48 0 71 10.5t23 40.5q0 21 -11 32
t-37 14l-75 9q-75 9 -114.5 45.5t-39.5 101.5v12q0 43 17.5 73.5t48.5 50.5t74.5 29.5t94.5 9.5q54 0 100.5 -8t73.5 -19l-26 -106q-36 11 -70 16.5t-73 5.5q-54 0 -78.5 -11t-24.5 -41q0 -20 11.5 -29t42.5 -13l85 -11q44 -6 72 -20.5t43.5 -34.5t21.5 -43.5t6 -47.5v-10
q0 -72 -46 -115.5t-142 -51.5l-8 -34q97 -16 97 -92z" />
    <glyph glyph-name="uni0162" unicode="&#x162;" horiz-adv-x="616" 
d="M430 -138q0 -26 -11.5 -46t-31.5 -33.5t-47.5 -20t-58.5 -6.5q-28 0 -53 4.5t-43 12.5l21 71q33 -9 66 -9q56 0 56 33q0 8 -3.5 14.5t-13.5 11.5t-29 8.5t-49 5.5l22 92h-23v588h-210l17 124h555l-17 -124h-193v-588h-48l-10 -46q104 -16 104 -92z" />
    <glyph glyph-name="uni0163" unicode="&#x163;" horiz-adv-x="450" 
d="M376 -134q0 -26 -11 -46t-30.5 -33.5t-46 -20t-57.5 -6.5q-27 0 -51.5 4.5t-41.5 12.5l21 71q31 -9 60 -9q55 0 55 33q0 8 -3 14.5t-12.5 11.5t-27 8.5t-45.5 5.5l22 91q-51 18 -75 64.5t-24 127.5v217h-96l16 109h81v125l148 19v-144h156l-16 -109h-140v-219
q0 -49 20.5 -69.5t71.5 -20.5q18 0 36 2t32 4l-17 -104q-17 -6 -46 -10.5t-61 -4.5h-8l-7 -32q97 -16 97 -92z" />
    <glyph glyph-name="Tcaron" unicode="&#x164;" horiz-adv-x="616" 
d="M594 712l-17 -124h-193v-588h-152v588h-210l17 124h555zM307 841l65 62h133l-130 -132h-135l-129 132h133z" />
    <glyph glyph-name="tcaron" unicode="&#x165;" horiz-adv-x="440" 
d="M258 412v-219q0 -49 20.5 -69.5t71.5 -20.5q18 0 36 2t32 4l-17 -104q-17 -6 -46 -10.5t-61 -4.5q-96 0 -140.5 48.5t-44.5 156.5v217h-96l16 109h81v125l148 19v-144h156l-16 -109h-140zM453 743l-28 -159h-100l6 159h122z" />
    <glyph glyph-name="Tbar" unicode="&#x166;" horiz-adv-x="616" 
d="M594 712l-17 -124h-193v-195h131v-97h-131v-296h-152v296h-132v97h132v195h-210l17 124h555z" />
    <glyph glyph-name="tbar" unicode="&#x167;" horiz-adv-x="445" 
d="M258 412v-85h141v-94h-141v-40q0 -51 22.5 -70.5t71.5 -19.5q18 0 36.5 2t32.5 4l-17 -104q-17 -6 -46 -10.5t-61 -4.5q-96 0 -140.5 48.5t-44.5 156.5v38h-91v94h91v85h-96l16 109h81v125l145 19v-144h159l-16 -109h-143z" />
    <glyph glyph-name="Utilde" unicode="&#x168;" horiz-adv-x="695" 
d="M346 -15q-84 0 -138 19.5t-85.5 58.5t-44 96.5t-12.5 133.5v419h152v-410q0 -55 6 -92t21 -59.5t40 -32t64 -9.5t63.5 9.5t39 32t20 59.5t5.5 92v410h152v-420q0 -74 -12.5 -131t-44 -96t-86.5 -59.5t-140 -20.5zM538 915q0 -44 -9.5 -72.5t-25.5 -45.5t-36.5 -23.5
t-42.5 -6.5q-23 0 -42 7.5t-41 21.5l-17 10q-14 8 -26 13.5t-23 5.5q-35 0 -35 -54h-84q0 43 9 71.5t25 45.5t36.5 24t43.5 7t42 -7.5t41 -21.5l17 -10q14 -8 26 -13.5t23 -5.5q35 0 35 54h84z" />
    <glyph glyph-name="utilde" unicode="&#x169;" horiz-adv-x="595" 
d="M528 521v-521h-129l-8 53q-26 -32 -64.5 -48.5t-86.5 -16.5q-40 0 -73 11t-57 33.5t-37 56t-13 79.5v353h148v-319q0 -54 19 -76t61 -22q48 0 70 26.5t22 87.5v303h148zM111 604q0 70 29 106t79 36q23 0 41 -5t38 -17l21 -12q17 -10 26.5 -14.5t19.5 -4.5q14 0 23 13
t9 35h80q0 -68 -28 -105t-80 -37q-23 0 -41 5t-38 17l-21 12q-17 10 -27 14.5t-19 4.5q-16 0 -24 -13t-8 -35h-80z" />
    <glyph glyph-name="Umacron" unicode="&#x16a;" horiz-adv-x="695" 
d="M346 -15q-84 0 -138 19.5t-85.5 58.5t-44 96.5t-12.5 133.5v419h152v-410q0 -55 6 -92t21 -59.5t40 -32t64 -9.5t63.5 9.5t39 32t20 59.5t5.5 92v410h152v-420q0 -74 -12.5 -131t-44 -96t-86.5 -59.5t-140 -20.5zM202 894h291v-102h-291v102z" />
    <glyph glyph-name="umacron" unicode="&#x16b;" horiz-adv-x="595" 
d="M528 521v-521h-129l-8 53q-26 -32 -64.5 -48.5t-86.5 -16.5q-40 0 -73 11t-57 33.5t-37 56t-13 79.5v353h148v-319q0 -54 19 -76t61 -22q48 0 70 26.5t22 87.5v303h148zM152 720h285v-98h-285v98z" />
    <glyph glyph-name="Ubreve" unicode="&#x16c;" horiz-adv-x="695" 
d="M346 -15q-84 0 -138 19.5t-85.5 58.5t-44 96.5t-12.5 133.5v419h152v-410q0 -55 6 -92t21 -59.5t40 -32t64 -9.5t63.5 9.5t39 32t20 59.5t5.5 92v410h152v-420q0 -74 -12.5 -131t-44 -96t-86.5 -59.5t-140 -20.5zM347 763q-78 0 -122 40t-44 118h101q5 -73 65 -73
q62 0 64 73h102q0 -78 -44 -118t-122 -40z" />
    <glyph glyph-name="ubreve" unicode="&#x16d;" horiz-adv-x="595" 
d="M528 521v-521h-129l-8 53q-26 -32 -64.5 -48.5t-86.5 -16.5q-40 0 -73 11t-57 33.5t-37 56t-13 79.5v353h148v-319q0 -54 19 -76t61 -22q48 0 70 26.5t22 87.5v303h148zM294 670q29 0 45.5 16.5t18.5 56.5h96q0 -77 -40 -116.5t-120 -39.5q-81 0 -120.5 40.5t-39.5 115.5
h96q2 -40 18.5 -56.5t45.5 -16.5z" />
    <glyph glyph-name="Uring" unicode="&#x16e;" horiz-adv-x="695" 
d="M346 -15q-84 0 -138 19.5t-85.5 58.5t-44 96.5t-12.5 133.5v419h152v-410q0 -55 6 -92t21 -59.5t40 -32t64 -9.5t63.5 9.5t39 32t20 59.5t5.5 92v410h152v-420q0 -74 -12.5 -131t-44 -96t-86.5 -59.5t-140 -20.5zM347 807q24 0 39 15.5t15 39.5q0 23 -15 39t-39 16
t-39 -15.5t-15 -39.5t15 -39.5t39 -15.5zM348 737q-27 0 -51 8t-42 24t-28.5 39t-10.5 53q0 31 10.5 54.5t28 39.5t41 24t49.5 8q27 0 51.5 -8.5t42.5 -24t28.5 -38.5t10.5 -53q0 -29 -10 -52.5t-28 -40t-41.5 -25t-50.5 -8.5z" />
    <glyph glyph-name="uring" unicode="&#x16f;" horiz-adv-x="595" 
d="M528 521v-521h-129l-8 53q-26 -32 -64.5 -48.5t-86.5 -16.5q-40 0 -73 11t-57 33.5t-37 56t-13 79.5v353h148v-319q0 -54 19 -76t61 -22q48 0 70 26.5t22 87.5v303h148zM294 652q23 0 38 15t15 40q0 24 -15 39t-38 15t-38 -15t-15 -39t15 -39.5t38 -15.5zM295 584
q-27 0 -50.5 8t-41 23.5t-28 38.5t-10.5 52q0 28 10 51t27 39t40 24.5t50 8.5t50.5 -8t41.5 -23.5t28.5 -38t10.5 -51.5t-10 -52t-27.5 -39t-40.5 -24.5t-50 -8.5z" />
    <glyph glyph-name="Uhungarumlaut" unicode="&#x170;" horiz-adv-x="695" 
d="M346 -15q-84 0 -138 19.5t-85.5 58.5t-44 96.5t-12.5 133.5v419h152v-410q0 -55 6 -92t21 -59.5t40 -32t64 -9.5t63.5 9.5t39 32t20 59.5t5.5 92v410h152v-420q0 -74 -12.5 -131t-44 -96t-86.5 -59.5t-140 -20.5zM266 903h146l-129 -132h-127zM480 903h146l-129 -132
h-127z" />
    <glyph glyph-name="uhungarumlaut" unicode="&#x171;" horiz-adv-x="595" 
d="M528 521v-521h-129l-8 53q-26 -32 -64.5 -48.5t-86.5 -16.5q-40 0 -73 11t-57 33.5t-37 56t-13 79.5v353h148v-319q0 -54 19 -76t61 -22q48 0 70 26.5t22 87.5v303h148zM215 740h135l-124 -146h-111zM405 740h135l-124 -146h-111z" />
    <glyph glyph-name="Uogonek" unicode="&#x172;" horiz-adv-x="695" 
d="M346 -15q-84 0 -138 19.5t-85.5 58.5t-44 96.5t-12.5 133.5v419h152v-410q0 -55 6 -92t21 -59.5t40 -32t64 -9.5t63.5 9.5t39 32t20 59.5t5.5 92v410h152v-420q0 -58 -7.5 -106t-26 -84.5t-49.5 -62.5t-78 -39q-80 -49 -80 -87q0 -29 45 -29q17 0 36 4l-11 -84
q-15 -7 -37 -11.5t-46 -4.5q-51 0 -78 22t-27 59q0 19 7 36t18 31t24.5 26.5t26.5 22.5z" />
    <glyph glyph-name="uogonek" unicode="&#x173;" horiz-adv-x="595" 
d="M528 521v-521q-10 -6 -24 -16t-27 -22t-22 -26t-9 -27q0 -28 45 -28q10 0 18.5 1t19.5 3l-13 -82q-15 -7 -36 -11t-44 -4q-51 0 -77.5 20.5t-26.5 58.5q0 21 8 39.5t21 35t30.5 31.5t35.5 27h-28l-8 53q-26 -32 -64.5 -48.5t-86.5 -16.5q-40 0 -73 11t-57 33.5t-37 56
t-13 79.5v353h148v-319q0 -54 19 -76t61 -22q48 0 70 26.5t22 87.5v303h148z" />
    <glyph glyph-name="Wcircumflex" unicode="&#x174;" horiz-adv-x="915" 
d="M538 687l106 -495l103 520h147l-182 -712h-140l-113 510l-111 -510h-150l-177 712h156l97 -519l113 494h151zM457 833l-64 -62h-133l131 132h134l130 -132h-133z" />
    <glyph glyph-name="wcircumflex" unicode="&#x175;" horiz-adv-x="781" 
d="M391 332l-87 -332h-136l-153 521h152l74 -351l87 330h134l86 -329l76 350h142l-152 -521h-133zM389 669l-73 -76h-123l131 147h131l131 -147h-122z" />
    <glyph glyph-name="Ycircumflex" unicode="&#x176;" horiz-adv-x="643" 
d="M324 408l148 304h157l-233 -429v-283h-152v283l-230 429h167zM320 833l-64 -62h-133l131 132h134l130 -132h-133z" />
    <glyph glyph-name="ycircumflex" unicode="&#x177;" horiz-adv-x="580" 
d="M565 521l-218 -588q-15 -40 -32.5 -72t-42 -54t-58 -33.5t-80.5 -11.5q-15 0 -32 1.5t-33 4.5t-29.5 6.5t-22.5 7.5l19 102q15 -4 34 -6.5t38 -2.5q18 0 33 4t28 14.5t24.5 29t21.5 47.5l9 27l-209 524h165l120 -361l106 361h159zM288 669l-73 -76h-123l131 147h131
l131 -147h-122z" />
    <glyph glyph-name="Zacute" unicode="&#x179;" horiz-adv-x="610" 
d="M379 590h-326l16 122h485v-101l-330 -489h350l-16 -122h-508v101zM338 903h165l-164 -132h-139z" />
    <glyph glyph-name="zacute" unicode="&#x17a;" horiz-adv-x="519" 
d="M218 110h269l-16 -110h-428v98l254 312h-255l17 111h413v-97zM297 740h155l-145 -147h-130z" />
    <glyph glyph-name="Zdotaccent" unicode="&#x17b;" horiz-adv-x="610" 
d="M379 590h-326l16 122h485v-101l-330 -489h350l-16 -122h-508v101zM310 762q-48 0 -69 21.5t-21 57.5t21 57.5t69 21.5t69 -21.5t21 -57.5t-21 -57.5t-69 -21.5z" />
    <glyph glyph-name="zdotaccent" unicode="&#x17c;" horiz-adv-x="519" 
d="M218 110h269l-16 -110h-428v98l254 312h-255l17 111h413v-97zM261 583q-47 0 -67 21t-20 56t20 56t67 21t67 -21t20 -56t-20 -56t-67 -21z" />
    <glyph glyph-name="Zcaron" unicode="&#x17d;" horiz-adv-x="610" 
d="M379 590h-326l16 122h485v-101l-330 -489h350l-16 -122h-508v101zM311 841l65 62h133l-130 -132h-135l-129 132h133z" />
    <glyph glyph-name="zcaron" unicode="&#x17e;" horiz-adv-x="519" 
d="M218 110h269l-16 -110h-428v98l254 312h-255l17 111h413v-97zM183 740l75 -75l73 75h123l-131 -147h-131l-131 147h122z" />
    <glyph glyph-name="longs" unicode="&#x17f;" horiz-adv-x="301" 
d="M215 0h-148v511q0 54 12 98.5t38.5 75.5t69 48t103.5 17q38 0 66.5 -5.5t45.5 -11.5l-25 -104q-19 5 -33.5 7t-30.5 2q-32 0 -51 -7.5t-29.5 -23.5t-14 -40t-3.5 -58v-509z" />
    <glyph glyph-name="Scommaaccent" unicode="&#x218;" horiz-adv-x="584" 
d="M257 -10q-61 0 -120 9t-100 23l25 117q41 -10 89.5 -18.5t99.5 -8.5q72 0 104.5 22t32.5 73q0 25 -7 41t-21.5 25.5t-36 14.5t-50.5 10l-49 8q-33 5 -65 17t-56.5 34.5t-40 58.5t-15.5 90q0 216 280 216q57 0 104.5 -8.5t88.5 -21.5l-23 -116q-35 10 -77.5 17t-91.5 7
q-74 0 -106 -19.5t-32 -67.5q0 -38 22.5 -57.5t79.5 -27.5l48 -7q35 -5 70.5 -16t64 -33.5t46 -60.5t17.5 -97q0 -115 -72 -169.5t-209 -54.5zM199 -292l39 107q-17 8 -26 24.5t-9 38.5q0 29 19.5 48.5t58.5 19.5q38 0 58 -17.5t20 -46.5q0 -17 -6 -33.5t-16 -37.5l-48 -103
h-90z" />
    <glyph glyph-name="scommaaccent" unicode="&#x219;" 
d="M318 315q44 -6 72 -20.5t43.5 -34.5t21.5 -43.5t6 -47.5v-10q0 -37 -13 -68t-40.5 -53.5t-71.5 -35t-105 -12.5q-54 0 -105 8.5t-90 21.5l25 107q49 -13 88 -18.5t76 -5.5q48 0 71 10.5t23 40.5q0 21 -11 32t-37 14l-75 9q-75 9 -114.5 45.5t-39.5 101.5v12
q0 43 17.5 73.5t48.5 50.5t74.5 29.5t94.5 9.5q54 0 100.5 -8t73.5 -19l-26 -106q-36 11 -70 16.5t-73 5.5q-54 0 -78.5 -11t-24.5 -41q0 -20 11.5 -29t42.5 -13zM158 -287l38 103q-18 8 -26 24t-8 35q0 29 18 47.5t55 18.5t55 -17.5t18 -44.5q0 -16 -5 -31.5t-15 -35.5
l-46 -99h-84z" />
    <glyph glyph-name="uni021A" unicode="&#x21a;" horiz-adv-x="616" 
d="M594 712l-17 -124h-193v-588h-152v588h-210l17 124h555zM220 -292l39 107q-17 8 -26 24.5t-9 38.5q0 29 19.5 48.5t58.5 19.5q38 0 58 -17.5t20 -46.5q0 -17 -6 -33.5t-16 -37.5l-48 -103h-90z" />
    <glyph glyph-name="uni021B" unicode="&#x21b;" horiz-adv-x="450" 
d="M258 412v-219q0 -49 20.5 -69.5t71.5 -20.5q18 0 36 2t32 4l-17 -104q-17 -6 -46 -10.5t-61 -4.5q-96 0 -140.5 48.5t-44.5 156.5v217h-96l16 109h81v125l148 19v-144h156l-16 -109h-140zM167 -287l38 103q-18 8 -26 24t-8 35q0 29 18 47.5t55 18.5t55 -17.5t18 -44.5
q0 -16 -5 -31.5t-15 -35.5l-46 -99h-84z" />
    <glyph glyph-name="dotlessj" unicode="&#x237;" horiz-adv-x="282" 
d="M67 521h148v-530q0 -114 -50.5 -171.5t-156.5 -57.5q-29 0 -63.5 6t-62.5 19l21 100q36 -12 77 -12q43 0 65 25t22 80v541z" />
    <glyph glyph-name="apostrophe" unicode="&#x2bc;" horiz-adv-x="266" 
d="M46 443l53 162q-19 9 -28 26.5t-9 40.5q0 34 20.5 53.5t59.5 19.5q42 0 62 -20.5t20 -53.5q0 -21 -6 -39.5t-15 -37.5l-71 -151h-86z" />
    <glyph glyph-name="caron" unicode="&#x2c7;" 
d="M175 740l75 -75l73 75h123l-131 -147h-131l-131 147h122z" />
    <glyph glyph-name="uni02C9" unicode="&#x2c9;" 
d="M107 720h285v-98h-285v98z" />
    <glyph glyph-name="breve" unicode="&#x2d8;" 
d="M250 670q29 0 45.5 16.5t18.5 56.5h96q0 -77 -40 -116.5t-120 -39.5q-81 0 -120.5 40.5t-39.5 115.5h96q2 -40 18.5 -56.5t45.5 -16.5z" />
    <glyph glyph-name="dotaccent" unicode="&#x2d9;" 
d="M250 583q-47 0 -67 21t-20 56t20 56t67 21t67 -21t20 -56t-20 -56t-67 -21z" />
    <glyph glyph-name="ring" unicode="&#x2da;" 
d="M250 652q23 0 38 15t15 40q0 24 -15 39t-38 15t-38 -15t-15 -39t15 -39.5t38 -15.5zM251 584q-27 0 -50.5 8t-41 23.5t-28 38.5t-10.5 52q0 28 10 51t27 39t40 24.5t50 8.5t50.5 -8t41.5 -23.5t28.5 -38t10.5 -51.5t-10 -52t-27.5 -39t-40.5 -24.5t-50 -8.5z" />
    <glyph glyph-name="ogonek" unicode="&#x2db;" 
d="M265 -91q0 -28 45 -28q10 0 18.5 1t19.5 3l-13 -82q-15 -7 -36 -11t-44 -4q-51 0 -77.5 20.5t-26.5 58.5q0 21 8.5 40.5t23 36.5t32.5 32t38 28l94 -4q-10 -6 -24 -16t-27 -22t-22 -26t-9 -27z" />
    <glyph glyph-name="hungarumlaut" unicode="&#x2dd;" 
d="M137 740h135l-124 -146h-111zM327 740h135l-124 -146h-111z" />
    <glyph glyph-name="uni20B9" unicode="&#x20b9;" horiz-adv-x="586" 
d="M538 686l-14 -82h-114q19 -20 29 -43.5t15 -50.5h83l-13 -83h-68q-6 -80 -58 -127.5t-141 -55.5l234 -244h-183l-233 243v105h117q54 0 83 19.5t37 59.5h-237v83h238q-5 38 -32 57.5t-72 19.5h-135v99h464z" />
    <glyph glyph-name="Wgrave" unicode="&#x1e80;" horiz-adv-x="915" 
d="M538 687l106 -495l103 520h147l-182 -712h-140l-113 510l-111 -510h-150l-177 712h156l97 -519l113 494h151zM570 771h-139l-164 132h165z" />
    <glyph glyph-name="wgrave" unicode="&#x1e81;" horiz-adv-x="781" 
d="M391 332l-87 -332h-136l-153 521h152l74 -351l87 330h134l86 -329l76 350h142l-152 -521h-133zM500 593h-129l-145 147h154z" />
    <glyph glyph-name="Wacute" unicode="&#x1e82;" horiz-adv-x="915" 
d="M538 687l106 -495l103 520h147l-182 -712h-140l-113 510l-111 -510h-150l-177 712h156l97 -519l113 494h151zM508 903h165l-164 -132h-139z" />
    <glyph glyph-name="wacute" unicode="&#x1e83;" horiz-adv-x="781" 
d="M391 332l-87 -332h-136l-153 521h152l74 -351l87 330h134l86 -329l76 350h142l-152 -521h-133zM434 740h155l-145 -147h-130z" />
    <glyph glyph-name="Wdieresis" unicode="&#x1e84;" horiz-adv-x="915" 
d="M538 687l106 -495l103 520h147l-182 -712h-140l-113 510l-111 -510h-150l-177 712h156l97 -519l113 494h151zM566 768q-39 0 -56.5 18.5t-17.5 50.5t17.5 50.5t56.5 18.5q40 0 57.5 -18.5t17.5 -50.5t-17.5 -50.5t-57.5 -18.5zM353 768q-39 0 -56.5 18.5t-17.5 50.5
t17.5 50.5t56.5 18.5q40 0 57.5 -18.5t17.5 -50.5t-17.5 -50.5t-57.5 -18.5z" />
    <glyph glyph-name="wdieresis" unicode="&#x1e85;" horiz-adv-x="781" 
d="M391 332l-87 -332h-136l-153 521h152l74 -351l87 330h134l86 -329l76 350h142l-152 -521h-133zM494 594q-39 0 -56 19t-17 51t17 51t56 19t56.5 -19.5t17.5 -51.5t-17.5 -50.5t-56.5 -18.5zM287 594q-39 0 -56 19t-17 51t17 51t56 19t56.5 -19.5t17.5 -51.5t-17.5 -50.5
t-56.5 -18.5z" />
    <glyph glyph-name="Ygrave" unicode="&#x1ef2;" horiz-adv-x="643" 
d="M324 408l148 304h157l-233 -429v-283h-152v283l-230 429h167zM424 771h-139l-164 132h165z" />
    <glyph glyph-name="ygrave" unicode="&#x1ef3;" horiz-adv-x="580" 
d="M565 521l-218 -588q-15 -40 -32.5 -72t-42 -54t-58 -33.5t-80.5 -11.5q-15 0 -32 1.5t-33 4.5t-29.5 6.5t-22.5 7.5l19 102q15 -4 34 -6.5t38 -2.5q18 0 33 4t28 14.5t24.5 29t21.5 47.5l9 27l-209 524h165l120 -361l106 361h159zM391 593h-129l-145 147h154z" />
    <glyph glyph-name="fraction" unicode="&#x2044;" horiz-adv-x="100" 
d="M176 683h125l-377 -683h-125z" />
    <glyph glyph-name="zerosuperior" unicode="&#x2070;" horiz-adv-x="441" 
d="M221 380q32 0 45 23t13 72v26q0 56 -13 76t-43 20q-35 0 -48 -22.5t-13 -73.5v-26q0 -48 12.5 -71.5t46.5 -23.5zM222 691q48 0 81 -14t52.5 -39t28 -59.5t8.5 -75.5v-31q0 -41 -9 -76t-29 -60t-52.5 -39t-79.5 -14q-50 0 -83.5 15t-53 41t-27.5 60t-8 73v31q0 43 9 77.5
t29.5 59t53.5 38t80 13.5z" />
    <glyph glyph-name="onesuperior" unicode="&#xb9;" horiz-adv-x="441" 
d="M352 291h-273l13 87h79v205l-91 -33l4 89l111 44h90v-305h81z" />
    <glyph glyph-name="twosuperior" unicode="&#xb2;" horiz-adv-x="441" 
d="M87 670q58 21 121 21q73 0 111 -27t38 -85v-8q0 -22 -5.5 -38t-17.5 -29.5t-30.5 -25.5t-43.5 -25l-32 -17q-21 -11 -31 -22t-11 -34h178l-11 -89h-278v76q0 52 23 85.5t68 55.5l45 22q21 11 28 20t7 20q0 17 -12.5 24t-45.5 7q-28 0 -55 -5t-55 -13z" />
    <glyph glyph-name="threesuperior" unicode="&#xb3;" horiz-adv-x="441" 
d="M91 670q27 9 56.5 15t62.5 6q73 0 110 -27.5t37 -75.5v-7q0 -29 -11.5 -48.5t-34.5 -33.5q23 -15 36.5 -38.5t13.5 -50.5v-9q0 -54 -41 -86t-115 -32q-42 0 -76 7t-57 17l20 83q30 -11 53 -15t43 -4q30 0 45.5 9t15.5 32q0 21 -14.5 30t-39.5 9h-62l10 82h56q21 0 34 9
t13 29q0 18 -14.5 25.5t-39.5 7.5q-41 0 -110 -19z" />
    <glyph glyph-name="foursuperior" unicode="&#x2074;" horiz-adv-x="441" 
d="M340 450h45l-11 -85h-33v-74h-105v74h-180v78l132 240h110l-126 -233h64v78l104 14v-92z" />
    <glyph glyph-name="fivesuperior" unicode="&#x2075;" horiz-adv-x="441" 
d="M255 416q0 25 -15 34t-53 9h-96l7 224h254l-9 -89h-149l-2 -50h23q82 0 117.5 -29.5t35.5 -92.5v-10q0 -65 -44 -97t-129 -32q-38 0 -71.5 6.5t-54.5 15.5l24 88q25 -10 48 -14t49 -4q36 0 50.5 10t14.5 31z" />
    <glyph glyph-name="sixsuperior" unicode="&#x2076;" horiz-adv-x="441" 
d="M226 283q-157 0 -157 168v42q0 198 179 198q33 0 61.5 -5t51.5 -12l-22 -88q-18 6 -39 10.5t-44 4.5q-14 0 -28 -2.5t-25 -9.5t-18.5 -20.5t-9.5 -35.5q24 14 69 14q28 0 52 -6.5t42 -21t28.5 -37.5t10.5 -56v-6q0 -65 -39.5 -101t-111.5 -36zM227 374q21 0 33.5 12
t12.5 34v4q0 20 -11.5 32.5t-34.5 12.5q-24 0 -38 -12t-14 -32v-4q0 -23 14 -35t38 -12z" />
    <glyph glyph-name="sevensuperior" unicode="&#x2077;" horiz-adv-x="441" 
d="M357 683v-76l-132 -316h-121l129 299h-175l14 93h285z" />
    <glyph glyph-name="eightsuperior" unicode="&#x2078;" horiz-adv-x="441" 
d="M222 283q-83 0 -122.5 30t-39.5 89v5q0 25 11.5 50.5t34.5 40.5q-17 13 -27.5 33.5t-10.5 45.5v5q0 29 11.5 50t31.5 34t48.5 19t62.5 6q33 0 61 -5.5t48 -18.5t31 -34t11 -51v-5q0 -28 -10 -47t-28 -32q23 -16 35 -39.5t12 -51.5v-5q0 -59 -41 -89t-119 -30zM222 455
q-27 0 -40.5 -11.5t-13.5 -29.5v-4q0 -19 13.5 -31.5t40.5 -12.5q25 0 38 12.5t13 31.5v4q0 18 -13 29.5t-38 11.5zM222 613q-22 0 -35.5 -9t-13.5 -28v-4q0 -18 12 -28.5t37 -10.5q21 0 33.5 10t12.5 29v4q0 19 -13 28t-33 9z" />
    <glyph glyph-name="ninesuperior" unicode="&#x2079;" horiz-adv-x="441" 
d="M214 691q78 0 117 -41t39 -127v-40q0 -200 -181 -200q-33 0 -62 5.5t-50 13.5l23 88q16 -6 36.5 -10.5t44.5 -4.5q39 0 58.5 16t23.5 51q-24 -14 -70 -14q-61 0 -96 29.5t-35 90.5v9q0 65 39 99.5t113 34.5zM215 602q-23 0 -36.5 -11t-13.5 -34v-6q0 -45 50 -45
q23 0 36.5 11.5t13.5 31.5v7q0 23 -13.5 34.5t-36.5 11.5z" />
    <glyph glyph-name="zeroinferior" unicode="&#x2080;" horiz-adv-x="441" 
d="M221 89q32 0 45 23t13 72v26q0 56 -13 76t-43 20q-35 0 -48 -22.5t-13 -73.5v-26q0 -48 12.5 -71.5t46.5 -23.5zM222 400q48 0 81 -14t52.5 -39t28 -59.5t8.5 -75.5v-31q0 -41 -9 -76t-29 -60t-52.5 -39t-79.5 -14q-50 0 -83.5 15t-53 41t-27.5 60t-8 73v31q0 43 9 77.5
t29.5 59t53.5 38t80 13.5z" />
    <glyph glyph-name="oneinferior" unicode="&#x2081;" horiz-adv-x="441" 
d="M352 0h-273l13 87h79v205l-91 -33l4 89l111 44h90v-305h81z" />
    <glyph glyph-name="twoinferior" unicode="&#x2082;" horiz-adv-x="441" 
d="M87 379q58 21 121 21q73 0 111 -27t38 -85v-8q0 -22 -5.5 -38t-17.5 -29.5t-30.5 -25.5t-43.5 -25l-32 -17q-21 -11 -31 -22t-11 -34h178l-11 -89h-278v76q0 52 23 85.5t68 55.5l45 22q21 11 28 20t7 20q0 17 -12.5 24t-45.5 7q-28 0 -55 -5t-55 -13z" />
    <glyph glyph-name="threeinferior" unicode="&#x2083;" horiz-adv-x="441" 
d="M91 379q27 9 56.5 15t62.5 6q73 0 110 -27.5t37 -75.5v-7q0 -29 -11.5 -48.5t-34.5 -33.5q23 -15 36.5 -38.5t13.5 -50.5v-9q0 -54 -41 -86t-115 -32q-42 0 -76 7t-57 17l20 83q30 -11 53 -15t43 -4q30 0 45.5 9t15.5 32q0 21 -14.5 30t-39.5 9h-62l10 82h56q21 0 34 9
t13 29q0 18 -14.5 25.5t-39.5 7.5q-41 0 -110 -19z" />
    <glyph glyph-name="fourinferior" unicode="&#x2084;" horiz-adv-x="441" 
d="M340 159h45l-11 -85h-33v-74h-105v74h-180v78l132 240h110l-126 -233h64v78l104 14v-92z" />
    <glyph glyph-name="fiveinferior" unicode="&#x2085;" horiz-adv-x="441" 
d="M255 125q0 25 -15 34t-53 9h-96l7 224h254l-9 -89h-149l-2 -50h23q82 0 117.5 -29.5t35.5 -92.5v-10q0 -65 -44 -97t-129 -32q-38 0 -71.5 6.5t-54.5 15.5l24 88q25 -10 48 -14t49 -4q36 0 50.5 10t14.5 31z" />
    <glyph glyph-name="sixinferior" unicode="&#x2086;" horiz-adv-x="441" 
d="M226 -8q-157 0 -157 168v42q0 198 179 198q33 0 61.5 -5t51.5 -12l-22 -88q-18 6 -39 10.5t-44 4.5q-14 0 -28 -2.5t-25 -9.5t-18.5 -20.5t-9.5 -35.5q24 14 69 14q28 0 52 -6.5t42 -21t28.5 -37.5t10.5 -56v-6q0 -65 -39.5 -101t-111.5 -36zM227 83q21 0 33.5 12
t12.5 34v4q0 20 -11.5 32.5t-34.5 12.5q-24 0 -38 -12t-14 -32v-4q0 -23 14 -35t38 -12z" />
    <glyph glyph-name="seveninferior" unicode="&#x2087;" horiz-adv-x="441" 
d="M357 392v-76l-132 -316h-121l129 299h-175l14 93h285z" />
    <glyph glyph-name="eightinferior" unicode="&#x2088;" horiz-adv-x="441" 
d="M222 -8q-83 0 -122.5 30t-39.5 89v5q0 25 11.5 50.5t34.5 40.5q-17 13 -27.5 33.5t-10.5 45.5v5q0 29 11.5 50t31.5 34t48.5 19t62.5 6q33 0 61 -5.5t48 -18.5t31 -34t11 -51v-5q0 -28 -10 -47t-28 -32q23 -16 35 -39.5t12 -51.5v-5q0 -59 -41 -89t-119 -30zM222 164
q-27 0 -40.5 -11.5t-13.5 -29.5v-4q0 -19 13.5 -31.5t40.5 -12.5q25 0 38 12.5t13 31.5v4q0 18 -13 29.5t-38 11.5zM222 322q-22 0 -35.5 -9t-13.5 -28v-4q0 -18 12 -28.5t37 -10.5q21 0 33.5 10t12.5 29v4q0 19 -13 28t-33 9z" />
    <glyph glyph-name="nineinferior" unicode="&#x2089;" horiz-adv-x="441" 
d="M214 400q78 0 117 -41t39 -127v-40q0 -200 -181 -200q-33 0 -62 5.5t-50 13.5l23 88q16 -6 36.5 -10.5t44.5 -4.5q39 0 58.5 16t23.5 51q-24 -14 -70 -14q-61 0 -96 29.5t-35 90.5v9q0 65 39 99.5t113 34.5zM215 311q-23 0 -36.5 -11t-13.5 -34v-6q0 -45 50 -45
q23 0 36.5 11.5t13.5 31.5v7q0 23 -13.5 34.5t-36.5 11.5z" />
    <glyph glyph-name="afii61289" unicode="&#x2113;" horiz-adv-x="536" 
d="M17 199l104 76v244q0 100 46 152.5t132 52.5q34 0 64.5 -9.5t53 -29.5t35.5 -53t13 -79q0 -85 -50 -162t-165 -161v-12q0 -27 3.5 -48t13 -35.5t26 -21.5t42.5 -7q28 0 51.5 6.5t47.5 17.5l34 -98q-35 -22 -74.5 -34t-87.5 -12q-33 0 -62.5 7t-53.5 25t-40.5 48t-23.5 76
l-52 -37zM250 371q45 39 67 83.5t22 91.5q0 35 -11.5 48.5t-31.5 13.5q-25 0 -35.5 -20t-10.5 -63v-154z" />
    <glyph glyph-name="estimated" unicode="&#x212e;" horiz-adv-x="785" 
d="M389 656q-70 0 -123 -16.5t-89 -52.5v-211h431v211q-39 33 -93.5 51t-125.5 18zM691 149q-29 -45 -61 -75.5t-68 -49t-78 -26.5t-91 -8q-83 0 -148 27.5t-109.5 74.5t-68 111t-23.5 137t23 136.5t67.5 109.5t108.5 72.5t146 26.5t147 -25t110 -71t69.5 -109.5
t25.5 -139.5h-564v-245q38 -38 89.5 -58t127.5 -20q93 0 159 33.5t116 113.5z" />
    <glyph glyph-name="onethird" unicode="&#x2153;" horiz-adv-x="974" 
d="M622 683h125l-377 -683h-125zM624 379q27 9 56.5 15t62.5 6q73 0 110 -27.5t37 -75.5v-7q0 -29 -11.5 -48.5t-34.5 -33.5q23 -15 36.5 -38.5t13.5 -50.5v-9q0 -54 -41 -86t-115 -32q-42 0 -76 7t-57 17l20 83q30 -11 53 -15t43 -4q30 0 45.5 9t15.5 32q0 21 -14.5 30
t-39.5 9h-62l10 82h56q21 0 34 9t13 29q0 18 -14.5 25.5t-39.5 7.5q-41 0 -110 -19zM352 291h-273l13 87h79v205l-91 -33l4 89l111 44h90v-305h81z" />
    <glyph glyph-name="twothirds" unicode="&#x2154;" horiz-adv-x="974" 
d="M622 683h125l-377 -683h-125zM624 379q27 9 56.5 15t62.5 6q73 0 110 -27.5t37 -75.5v-7q0 -29 -11.5 -48.5t-34.5 -33.5q23 -15 36.5 -38.5t13.5 -50.5v-9q0 -54 -41 -86t-115 -32q-42 0 -76 7t-57 17l20 83q30 -11 53 -15t43 -4q30 0 45.5 9t15.5 32q0 21 -14.5 30
t-39.5 9h-62l10 82h56q21 0 34 9t13 29q0 18 -14.5 25.5t-39.5 7.5q-41 0 -110 -19zM87 670q58 21 121 21q73 0 111 -27t38 -85v-8q0 -22 -5.5 -38t-17.5 -29.5t-30.5 -25.5t-43.5 -25l-32 -17q-21 -11 -31 -22t-11 -34h178l-11 -89h-278v76q0 52 23 85.5t68 55.5l45 22
q21 11 28 20t7 20q0 17 -12.5 24t-45.5 7q-28 0 -55 -5t-55 -13z" />
    <glyph glyph-name="oneeighth" unicode="&#x215b;" horiz-adv-x="974" 
d="M613 683h125l-377 -683h-125zM746 -8q-83 0 -122.5 30t-39.5 89v5q0 25 11.5 50.5t34.5 40.5q-17 13 -27.5 33.5t-10.5 45.5v5q0 29 11.5 50t31.5 34t48.5 19t62.5 6q33 0 61 -5.5t48 -18.5t31 -34t11 -51v-5q0 -28 -10 -47t-28 -32q23 -16 35 -39.5t12 -51.5v-5
q0 -59 -41 -89t-119 -30zM746 164q-27 0 -40.5 -11.5t-13.5 -29.5v-4q0 -19 13.5 -31.5t40.5 -12.5q25 0 38 12.5t13 31.5v4q0 18 -13 29.5t-38 11.5zM746 322q-22 0 -35.5 -9t-13.5 -28v-4q0 -18 12 -28.5t37 -10.5q21 0 33.5 10t12.5 29v4q0 19 -13 28t-33 9zM352 291
h-273l13 87h79v205l-91 -33l4 89l111 44h90v-305h81z" />
    <glyph glyph-name="threeeighths" unicode="&#x215c;" horiz-adv-x="974" 
d="M605 683h125l-377 -683h-125zM746 -8q-83 0 -122.5 30t-39.5 89v5q0 25 11.5 50.5t34.5 40.5q-17 13 -27.5 33.5t-10.5 45.5v5q0 29 11.5 50t31.5 34t48.5 19t62.5 6q33 0 61 -5.5t48 -18.5t31 -34t11 -51v-5q0 -28 -10 -47t-28 -32q23 -16 35 -39.5t12 -51.5v-5
q0 -59 -41 -89t-119 -30zM746 164q-27 0 -40.5 -11.5t-13.5 -29.5v-4q0 -19 13.5 -31.5t40.5 -12.5q25 0 38 12.5t13 31.5v4q0 18 -13 29.5t-38 11.5zM746 322q-22 0 -35.5 -9t-13.5 -28v-4q0 -18 12 -28.5t37 -10.5q21 0 33.5 10t12.5 29v4q0 19 -13 28t-33 9zM91 670
q27 9 56.5 15t62.5 6q73 0 110 -27.5t37 -75.5v-7q0 -29 -11.5 -48.5t-34.5 -33.5q23 -15 36.5 -38.5t13.5 -50.5v-9q0 -54 -41 -86t-115 -32q-42 0 -76 7t-57 17l20 83q30 -11 53 -15t43 -4q30 0 45.5 9t15.5 32q0 21 -14.5 30t-39.5 9h-62l10 82h56q21 0 34 9t13 29
q0 18 -14.5 25.5t-39.5 7.5q-41 0 -110 -19z" />
    <glyph glyph-name="fiveeighths" unicode="&#x215d;" horiz-adv-x="974" 
d="M604 683h125l-377 -683h-125zM746 -8q-83 0 -122.5 30t-39.5 89v5q0 25 11.5 50.5t34.5 40.5q-17 13 -27.5 33.5t-10.5 45.5v5q0 29 11.5 50t31.5 34t48.5 19t62.5 6q33 0 61 -5.5t48 -18.5t31 -34t11 -51v-5q0 -28 -10 -47t-28 -32q23 -16 35 -39.5t12 -51.5v-5
q0 -59 -41 -89t-119 -30zM746 164q-27 0 -40.5 -11.5t-13.5 -29.5v-4q0 -19 13.5 -31.5t40.5 -12.5q25 0 38 12.5t13 31.5v4q0 18 -13 29.5t-38 11.5zM746 322q-22 0 -35.5 -9t-13.5 -28v-4q0 -18 12 -28.5t37 -10.5q21 0 33.5 10t12.5 29v4q0 19 -13 28t-33 9zM255 416
q0 25 -15 34t-53 9h-96l7 224h254l-9 -89h-149l-2 -50h23q82 0 117.5 -29.5t35.5 -92.5v-10q0 -65 -44 -97t-129 -32q-38 0 -71.5 6.5t-54.5 15.5l24 88q25 -10 48 -14t49 -4q36 0 50.5 10t14.5 31z" />
    <glyph glyph-name="seveneighths" unicode="&#x215e;" horiz-adv-x="974" 
d="M581 683h125l-377 -683h-125zM746 -8q-83 0 -122.5 30t-39.5 89v5q0 25 11.5 50.5t34.5 40.5q-17 13 -27.5 33.5t-10.5 45.5v5q0 29 11.5 50t31.5 34t48.5 19t62.5 6q33 0 61 -5.5t48 -18.5t31 -34t11 -51v-5q0 -28 -10 -47t-28 -32q23 -16 35 -39.5t12 -51.5v-5
q0 -59 -41 -89t-119 -30zM746 164q-27 0 -40.5 -11.5t-13.5 -29.5v-4q0 -19 13.5 -31.5t40.5 -12.5q25 0 38 12.5t13 31.5v4q0 18 -13 29.5t-38 11.5zM746 322q-22 0 -35.5 -9t-13.5 -28v-4q0 -18 12 -28.5t37 -10.5q21 0 33.5 10t12.5 29v4q0 19 -13 28t-33 9zM376 683v-76
l-132 -316h-121l129 299h-175l14 93h285z" />
    <glyph glyph-name="onefifth" unicode="&#x2155;" horiz-adv-x="974" 
d="M613 683h125l-377 -683h-125zM788 125q0 25 -15 34t-53 9h-96l7 224h254l-9 -89h-149l-2 -50h23q82 0 117.5 -29.5t35.5 -92.5v-10q0 -65 -44 -97t-129 -32q-38 0 -71.5 6.5t-54.5 15.5l24 88q25 -10 48 -14t49 -4q36 0 50.5 10t14.5 31zM352 291h-273l13 87h79v205
l-91 -33l4 89l111 44h90v-305h81z" />
    <glyph glyph-name="twofifths" unicode="&#x2156;" horiz-adv-x="974" 
d="M613 683h125l-377 -683h-125zM788 125q0 25 -15 34t-53 9h-96l7 224h254l-9 -89h-149l-2 -50h23q82 0 117.5 -29.5t35.5 -92.5v-10q0 -65 -44 -97t-129 -32q-38 0 -71.5 6.5t-54.5 15.5l24 88q25 -10 48 -14t49 -4q36 0 50.5 10t14.5 31zM87 670q58 21 121 21
q73 0 111 -27t38 -85v-8q0 -22 -5.5 -38t-17.5 -29.5t-30.5 -25.5t-43.5 -25l-32 -17q-21 -11 -31 -22t-11 -34h178l-11 -89h-278v76q0 52 23 85.5t68 55.5l45 22q21 11 28 20t7 20q0 17 -12.5 24t-45.5 7q-28 0 -55 -5t-55 -13z" />
    <glyph glyph-name="threefifths" unicode="&#x2157;" horiz-adv-x="974" 
d="M598 683h125l-377 -683h-125zM788 125q0 25 -15 34t-53 9h-96l7 224h254l-9 -89h-149l-2 -50h23q82 0 117.5 -29.5t35.5 -92.5v-10q0 -65 -44 -97t-129 -32q-38 0 -71.5 6.5t-54.5 15.5l24 88q25 -10 48 -14t49 -4q36 0 50.5 10t14.5 31zM91 670q27 9 56.5 15t62.5 6
q73 0 110 -27.5t37 -75.5v-7q0 -29 -11.5 -48.5t-34.5 -33.5q23 -15 36.5 -38.5t13.5 -50.5v-9q0 -54 -41 -86t-115 -32q-42 0 -76 7t-57 17l20 83q30 -11 53 -15t43 -4q30 0 45.5 9t15.5 32q0 21 -14.5 30t-39.5 9h-62l10 82h56q21 0 34 9t13 29q0 18 -14.5 25.5t-39.5 7.5
q-41 0 -110 -19z" />
    <glyph glyph-name="fourfifths" unicode="&#x2158;" horiz-adv-x="974" 
d="M617 683h125l-377 -683h-125zM788 125q0 25 -15 34t-53 9h-96l7 224h254l-9 -89h-149l-2 -50h23q82 0 117.5 -29.5t35.5 -92.5v-10q0 -65 -44 -97t-129 -32q-38 0 -71.5 6.5t-54.5 15.5l24 88q25 -10 48 -14t49 -4q36 0 50.5 10t14.5 31zM340 450h45l-11 -85h-33v-74
h-105v74h-180v78l132 240h110l-126 -233h64v78l104 14v-92z" />
    <glyph glyph-name="onesixth" unicode="&#x2159;" horiz-adv-x="974" 
d="M614 683h125l-377 -683h-125zM749 -8q-157 0 -157 168v42q0 198 179 198q33 0 61.5 -5t51.5 -12l-22 -88q-18 6 -39 10.5t-44 4.5q-14 0 -28 -2.5t-25 -9.5t-18.5 -20.5t-9.5 -35.5q24 14 69 14q28 0 52 -6.5t42 -21t28.5 -37.5t10.5 -56v-6q0 -65 -39.5 -101t-111.5 -36
zM750 83q21 0 33.5 12t12.5 34v4q0 20 -11.5 32.5t-34.5 12.5q-24 0 -38 -12t-14 -32v-4q0 -23 14 -35t38 -12zM352 291h-273l13 87h79v205l-91 -33l4 89l111 44h90v-305h81z" />
    <glyph glyph-name="fivesixths" unicode="&#x215a;" horiz-adv-x="974" 
d="M610 683h125l-377 -683h-125zM749 -8q-157 0 -157 168v42q0 198 179 198q33 0 61.5 -5t51.5 -12l-22 -88q-18 6 -39 10.5t-44 4.5q-14 0 -28 -2.5t-25 -9.5t-18.5 -20.5t-9.5 -35.5q24 14 69 14q28 0 52 -6.5t42 -21t28.5 -37.5t10.5 -56v-6q0 -65 -39.5 -101t-111.5 -36
zM750 83q21 0 33.5 12t12.5 34v4q0 20 -11.5 32.5t-34.5 12.5q-24 0 -38 -12t-14 -32v-4q0 -23 14 -35t38 -12zM255 416q0 25 -15 34t-53 9h-96l7 224h254l-9 -89h-149l-2 -50h23q82 0 117.5 -29.5t35.5 -92.5v-10q0 -65 -44 -97t-129 -32q-38 0 -71.5 6.5t-54.5 15.5l24 88
q25 -10 48 -14t49 -4q36 0 50.5 10t14.5 31z" />
    <glyph glyph-name="oneseventh" unicode="&#x2150;" horiz-adv-x="974" 
d="M605 683h125l-377 -683h-125zM900 392v-76l-132 -316h-121l129 299h-175l14 93h285zM352 291h-273l13 87h79v205l-91 -33l4 89l111 44h90v-305h81z" />
    <glyph glyph-name="twosevenths" unicode="&#xf507;" horiz-adv-x="974" 
d="M611 683h125l-377 -683h-125zM900 392v-76l-132 -316h-121l129 299h-175l14 93h285zM87 670q58 21 121 21q73 0 111 -27t38 -85v-8q0 -22 -5.5 -38t-17.5 -29.5t-30.5 -25.5t-43.5 -25l-32 -17q-21 -11 -31 -22t-11 -34h178l-11 -89h-278v76q0 52 23 85.5t68 55.5l45 22
q21 11 28 20t7 20q0 17 -12.5 24t-45.5 7q-28 0 -55 -5t-55 -13z" />
    <glyph glyph-name="threesevenths" unicode="&#xf508;" horiz-adv-x="974" 
d="M599 683h125l-377 -683h-125zM900 392v-76l-132 -316h-121l129 299h-175l14 93h285zM91 670q27 9 56.5 15t62.5 6q73 0 110 -27.5t37 -75.5v-7q0 -29 -11.5 -48.5t-34.5 -33.5q23 -15 36.5 -38.5t13.5 -50.5v-9q0 -54 -41 -86t-115 -32q-42 0 -76 7t-57 17l20 83
q30 -11 53 -15t43 -4q30 0 45.5 9t15.5 32q0 21 -14.5 30t-39.5 9h-62l10 82h56q21 0 34 9t13 29q0 18 -14.5 25.5t-39.5 7.5q-41 0 -110 -19z" />
    <glyph glyph-name="foursevenths" unicode="&#xf509;" horiz-adv-x="974" 
d="M603 683h125l-377 -683h-125zM900 392v-76l-132 -316h-121l129 299h-175l14 93h285zM340 450h45l-11 -85h-33v-74h-105v74h-180v78l132 240h110l-126 -233h64v78l104 14v-92z" />
    <glyph glyph-name="fivesevenths" unicode="&#xf50a;" horiz-adv-x="974" 
d="M601 683h125l-377 -683h-125zM900 392v-76l-132 -316h-121l129 299h-175l14 93h285zM255 416q0 25 -15 34t-53 9h-96l7 224h254l-9 -89h-149l-2 -50h23q82 0 117.5 -29.5t35.5 -92.5v-10q0 -65 -44 -97t-129 -32q-38 0 -71.5 6.5t-54.5 15.5l24 88q25 -10 48 -14t49 -4
q36 0 50.5 10t14.5 31z" />
    <glyph glyph-name="sixsevenths" unicode="&#xf50b;" horiz-adv-x="974" 
d="M606 683h125l-377 -683h-125zM900 392v-76l-132 -316h-121l129 299h-175l14 93h285zM226 283q-157 0 -157 168v42q0 198 179 198q33 0 61.5 -5t51.5 -12l-22 -88q-18 6 -39 10.5t-44 4.5q-14 0 -28 -2.5t-25 -9.5t-18.5 -20.5t-9.5 -35.5q24 14 69 14q28 0 52 -6.5
t42 -21t28.5 -37.5t10.5 -56v-6q0 -65 -39.5 -101t-111.5 -36zM227 374q21 0 33.5 12t12.5 34v4q0 20 -11.5 32.5t-34.5 12.5q-24 0 -38 -12t-14 -32v-4q0 -23 14 -35t38 -12z" />
    <glyph glyph-name="oneninth" unicode="&#x2151;" horiz-adv-x="974" 
d="M613 683h125l-377 -683h-125zM747 400q78 0 117 -41t39 -127v-40q0 -200 -181 -200q-33 0 -62 5.5t-50 13.5l23 88q16 -6 36.5 -10.5t44.5 -4.5q39 0 58.5 16t23.5 51q-24 -14 -70 -14q-61 0 -96 29.5t-35 90.5v9q0 65 39 99.5t113 34.5zM748 311q-23 0 -36.5 -11
t-13.5 -34v-6q0 -45 50 -45q23 0 36.5 11.5t13.5 31.5v7q0 23 -13.5 34.5t-36.5 11.5zM352 291h-273l13 87h79v205l-91 -33l4 89l111 44h90v-305h81z" />
    <glyph glyph-name="twoninths" unicode="&#xf50d;" horiz-adv-x="974" 
d="M613 683h125l-377 -683h-125zM747 400q78 0 117 -41t39 -127v-40q0 -200 -181 -200q-33 0 -62 5.5t-50 13.5l23 88q16 -6 36.5 -10.5t44.5 -4.5q39 0 58.5 16t23.5 51q-24 -14 -70 -14q-61 0 -96 29.5t-35 90.5v9q0 65 39 99.5t113 34.5zM748 311q-23 0 -36.5 -11
t-13.5 -34v-6q0 -45 50 -45q23 0 36.5 11.5t13.5 31.5v7q0 23 -13.5 34.5t-36.5 11.5zM87 670q58 21 121 21q73 0 111 -27t38 -85v-8q0 -22 -5.5 -38t-17.5 -29.5t-30.5 -25.5t-43.5 -25l-32 -17q-21 -11 -31 -22t-11 -34h178l-11 -89h-278v76q0 52 23 85.5t68 55.5l45 22
q21 11 28 20t7 20q0 17 -12.5 24t-45.5 7q-28 0 -55 -5t-55 -13z" />
    <glyph glyph-name="fourninths" unicode="&#xf50e;" horiz-adv-x="974" 
d="M618 683h125l-377 -683h-125zM747 400q78 0 117 -41t39 -127v-40q0 -200 -181 -200q-33 0 -62 5.5t-50 13.5l23 88q16 -6 36.5 -10.5t44.5 -4.5q39 0 58.5 16t23.5 51q-24 -14 -70 -14q-61 0 -96 29.5t-35 90.5v9q0 65 39 99.5t113 34.5zM748 311q-23 0 -36.5 -11
t-13.5 -34v-6q0 -45 50 -45q23 0 36.5 11.5t13.5 31.5v7q0 23 -13.5 34.5t-36.5 11.5zM340 450h45l-11 -85h-33v-74h-105v74h-180v78l132 240h110l-126 -233h64v78l104 14v-92z" />
    <glyph glyph-name="fiveninths" unicode="&#xf50f;" horiz-adv-x="974" 
d="M615 683h125l-377 -683h-125zM747 400q78 0 117 -41t39 -127v-40q0 -200 -181 -200q-33 0 -62 5.5t-50 13.5l23 88q16 -6 36.5 -10.5t44.5 -4.5q39 0 58.5 16t23.5 51q-24 -14 -70 -14q-61 0 -96 29.5t-35 90.5v9q0 65 39 99.5t113 34.5zM748 311q-23 0 -36.5 -11
t-13.5 -34v-6q0 -45 50 -45q23 0 36.5 11.5t13.5 31.5v7q0 23 -13.5 34.5t-36.5 11.5zM255 416q0 25 -15 34t-53 9h-96l7 224h254l-9 -89h-149l-2 -50h23q82 0 117.5 -29.5t35.5 -92.5v-10q0 -65 -44 -97t-129 -32q-38 0 -71.5 6.5t-54.5 15.5l24 88q25 -10 48 -14t49 -4
q36 0 50.5 10t14.5 31z" />
    <glyph glyph-name="sevenninths" unicode="&#xf510;" horiz-adv-x="974" 
d="M583 683h125l-377 -683h-125zM747 400q78 0 117 -41t39 -127v-40q0 -200 -181 -200q-33 0 -62 5.5t-50 13.5l23 88q16 -6 36.5 -10.5t44.5 -4.5q39 0 58.5 16t23.5 51q-24 -14 -70 -14q-61 0 -96 29.5t-35 90.5v9q0 65 39 99.5t113 34.5zM748 311q-23 0 -36.5 -11
t-13.5 -34v-6q0 -45 50 -45q23 0 36.5 11.5t13.5 31.5v7q0 23 -13.5 34.5t-36.5 11.5zM377 683v-76l-132 -316h-121l129 299h-175l14 93h285z" />
    <glyph glyph-name="eightninths" unicode="&#xf511;" horiz-adv-x="974" 
d="M611 683h125l-377 -683h-125zM747 400q78 0 117 -41t39 -127v-40q0 -200 -181 -200q-33 0 -62 5.5t-50 13.5l23 88q16 -6 36.5 -10.5t44.5 -4.5q39 0 58.5 16t23.5 51q-24 -14 -70 -14q-61 0 -96 29.5t-35 90.5v9q0 65 39 99.5t113 34.5zM748 311q-23 0 -36.5 -11
t-13.5 -34v-6q0 -45 50 -45q23 0 36.5 11.5t13.5 31.5v7q0 23 -13.5 34.5t-36.5 11.5zM222 283q-83 0 -122.5 30t-39.5 89v5q0 25 11.5 50.5t34.5 40.5q-17 13 -27.5 33.5t-10.5 45.5v5q0 29 11.5 50t31.5 34t48.5 19t62.5 6q33 0 61 -5.5t48 -18.5t31 -34t11 -51v-5
q0 -28 -10 -47t-28 -32q23 -16 35 -39.5t12 -51.5v-5q0 -59 -41 -89t-119 -30zM222 455q-27 0 -40.5 -11.5t-13.5 -29.5v-4q0 -19 13.5 -31.5t40.5 -12.5q25 0 38 12.5t13 31.5v4q0 18 -13 29.5t-38 11.5zM222 613q-22 0 -35.5 -9t-13.5 -28v-4q0 -18 12 -28.5t37 -10.5
q21 0 33.5 10t12.5 29v4q0 19 -13 28t-33 9z" />
    <glyph glyph-name="partialdiff" unicode="&#x2202;" horiz-adv-x="597" 
d="M257 -15q-50 0 -91 14t-70 42t-45 69.5t-16 97.5q0 62 20 109t53.5 78.5t78.5 47.5t95 16q39 0 76 -11t62 -31q0 20 -1.5 38t-3.5 33q-12 74 -51 107t-114 33q-38 0 -76.5 -7.5t-73.5 -18.5l22 112q29 11 71.5 19t88.5 8q61 0 111.5 -17.5t86.5 -57.5t56 -106.5
t20 -163.5q0 -90 -18 -165t-55 -130t-93.5 -85.5t-132.5 -30.5zM269 105q31 0 55 14t41.5 39.5t28 61t15.5 78.5q-17 22 -43.5 36t-62.5 14q-26 0 -49.5 -8.5t-41 -25t-28 -41.5t-10.5 -59q0 -54 26.5 -81.5t68.5 -27.5z" />
    <glyph glyph-name="Delta" unicode="&#x2206;" horiz-adv-x="681" 
d="M339 567l-133 -445h265zM659 0h-637l237 712h162z" />
    <glyph glyph-name="product" unicode="&#x220f;" horiz-adv-x="770" 
d="M495 588h-220v-675h-152v675h-100l16 124h708l-16 -124h-84v-675h-152v675z" />
    <glyph glyph-name="summation" unicode="&#x2211;" horiz-adv-x="580" 
d="M201 14h349l-15 -122h-499v100l221 326l-219 296v98h512l-16 -122h-314l198 -265z" />
    <glyph glyph-name="uni2126" unicode="&#x2126;" horiz-adv-x="712" 
d="M668 119l-16 -119h-248v108q25 21 42 43t28 52t16 72t5 104q0 58 -5.5 100.5t-21 70.5t-42.5 41t-70 13t-70.5 -13t-43 -41t-21 -70.5t-5.5 -100.5q0 -62 5 -104t16 -72t28.5 -52t42.5 -43v-108h-265l17 119h94q-43 36 -68 103t-25 167q0 89 17.5 153t53.5 105t92 60.5
t133 19.5q82 0 138 -21.5t90.5 -64t49.5 -105.5t15 -146q0 -100 -25 -167.5t-68 -103.5h111z" />
    <glyph glyph-name="minus" unicode="&#x2212;" horiz-adv-x="586" 
d="M522 402v-118h-458v118h458z" />
    <glyph glyph-name="uni2215" unicode="&#x2215;" horiz-adv-x="100" 
d="M176 683h125l-377 -683h-125z" />
    <glyph glyph-name="uni2219" unicode="&#x2219;" horiz-adv-x="266" 
d="M133 452q41 0 64 -20t23 -63t-23 -63.5t-64 -20.5t-64 20.5t-23 63.5t23 63t64 20z" />
    <glyph glyph-name="radical" unicode="&#x221a;" horiz-adv-x="733" 
d="M256 537l125 -393l249 735h138l-309 -879h-155l-149 419h-111v118h212z" />
    <glyph glyph-name="infinity" unicode="&#x221e;" horiz-adv-x="775" 
d="M222 542q54 0 94 -23t69 -67q31 45 71 69t97 24q88 0 137.5 -52.5t49.5 -146.5q0 -95 -49.5 -147.5t-139.5 -52.5q-56 0 -96 23t-70 69q-30 -43 -69.5 -66.5t-97.5 -23.5q-47 0 -81 14.5t-57 40.5t-34 62t-11 79q0 94 50 146t137 52zM543 430q-30 0 -53 -20t-48 -65
q26 -48 48.5 -66.5t50.5 -18.5q38 0 55.5 23t17.5 62q0 41 -18.5 63t-52.5 22zM232 263q29 0 51 20t45 63q-24 45 -46.5 63t-49.5 18q-35 0 -53.5 -22.5t-18.5 -59.5t18 -59.5t54 -22.5z" />
    <glyph glyph-name="integral" unicode="&#x222b;" horiz-adv-x="403" 
d="M142 -232q-38 0 -73.5 7t-50.5 13l22 111q8 -2 26.5 -5.5t38.5 -3.5q45 0 63 20.5t18 59.5q0 25 -4.5 50.5t-6.5 34.5l-86 414q-8 35 -12 59.5t-4 49.5q0 45 14 79.5t39.5 58t61 35.5t77.5 12q16 0 33 -1.5t33 -4t29.5 -6t22.5 -6.5l-23 -113q-8 2 -24.5 5.5t-34.5 3.5
q-42 0 -59 -21.5t-17 -56.5q0 -22 4.5 -46.5t6.5 -36.5l85 -411q8 -36 12 -62.5t4 -52.5q0 -48 -14.5 -83t-41 -58t-62 -34t-77.5 -11z" />
    <glyph glyph-name="approxequal" unicode="&#x2248;" horiz-adv-x="586" 
d="M534 550q0 -97 -32 -148.5t-103 -51.5q-26 0 -48.5 7.5t-47.5 22.5l-31 19q-20 13 -33 19.5t-27 6.5q-21 0 -30 -17.5t-9 -58.5h-121q0 97 32 148.5t103 51.5q26 0 48.5 -7.5t47.5 -22.5l31 -19q20 -13 33 -19.5t27 -6.5q21 0 30 17.5t9 58.5h121zM534 294
q0 -97 -32 -148.5t-103 -51.5q-26 0 -48.5 7.5t-47.5 22.5l-31 19q-20 13 -33 19.5t-27 6.5q-21 0 -30 -17.5t-9 -58.5h-121q0 97 32 148.5t103 51.5q26 0 48.5 -7.5t47.5 -22.5l31 -19q20 -13 33 -19.5t27 -6.5q21 0 30 17.5t9 58.5h121z" />
    <glyph glyph-name="notequal" unicode="&#x2260;" horiz-adv-x="586" 
d="M328 515l46 95h95l-46 -95h90v-119h-146l-53 -110h199v-119h-256l-46 -97h-97l46 97h-87v119h145l53 110h-198v119h255z" />
    <glyph glyph-name="lessequal" unicode="&#x2264;" horiz-adv-x="586" 
d="M228 401l277 -86v-131l-425 149v136l425 148v-129zM505 118v-118h-425v118h425z" />
    <glyph glyph-name="greaterequal" unicode="&#x2265;" horiz-adv-x="586" 
d="M80 487v130l425 -148v-136l-425 -149v130l277 86zM505 118v-118h-425v118h425z" />
    <glyph glyph-name="lozenge" unicode="&#x25ca;" horiz-adv-x="676" 
d="M271 712h134l240 -356l-240 -356h-134l-240 356zM338 120l158 236l-158 236l-158 -236z" />
    <glyph glyph-name="fi" unicode="&#xf001;" horiz-adv-x="669" 
d="M444 412h-187v-412h-148v412h-96l16 109h81q0 50 10.5 92t34.5 72.5t62 47.5t92 17q33 0 58.5 -5.5t41.5 -11.5l-25 -104q-15 5 -26.5 7t-24.5 2q-25 0 -40 -8t-23 -23.5t-10.5 -37t-2.5 -48.5h335v-521h-148v412zM518 583q-47 0 -67 21t-20 56t20 56t67 21t67 -21
t20 -56t-20 -56t-67 -21z" />
    <glyph glyph-name="fl" unicode="&#xf002;" horiz-adv-x="701" 
d="M406 521l-16 -109h-133v-412h-148v412h-96l16 109h81q0 50 11.5 92t37 72.5t66.5 47.5t100 17q37 0 64.5 -5.5t44.5 -11.5l-25 -104q-17 5 -31 7t-30 2q-29 0 -46.5 -7.5t-27.5 -22t-13.5 -36.5t-3.5 -51h149zM634 0h-148v743h148v-743z" />
    <glyph glyph-name="uni03A9" unicode="&#x3a9;" horiz-adv-x="712" 
d="M668 119l-16 -119h-248v108q25 21 42 43t28 52t16 72t5 104q0 58 -5.5 100.5t-21 70.5t-42.5 41t-70 13t-70.5 -13t-43 -41t-21 -70.5t-5.5 -100.5q0 -62 5 -104t16 -72t28.5 -52t42.5 -43v-108h-265l17 119h94q-43 36 -68 103t-25 167q0 89 17.5 153t53.5 105t92 60.5
t133 19.5q82 0 138 -21.5t90.5 -64t49.5 -105.5t15 -146q0 -100 -25 -167.5t-68 -103.5h111z" />
    <glyph glyph-name="pi" unicode="&#x3c0;" horiz-adv-x="657" 
d="M13 408l21 113h610l-21 -113h-70v-408h-148v408h-154v-408h-148v408h-90z" />
    <glyph glyph-name="uni0394" unicode="&#x394;" horiz-adv-x="681" 
d="M339 567l-133 -445h265zM659 0h-637l237 712h162z" />
    <glyph glyph-name="uni03BC" unicode="&#x3bc;" horiz-adv-x="602" 
d="M280 -12q-37 0 -65 14v-234h-148v753h148v-322q0 -54 19 -76t61 -22q30 0 48.5 10t28 26t12.5 36.5t3 41.5v306h148v-521h-129l-8 53q-17 -29 -46.5 -47t-71.5 -18z" />
    <glyph glyph-name="zero.alt" unicode="&#xf800;" horiz-adv-x="617" 
d="M54 385q0 72 12 130.5t41.5 100t79 63.5t123.5 22q76 0 125 -23.5t77.5 -65.5t39 -100t10.5 -127v-84q0 -72 -12 -130.5t-41.5 -100t-79 -63.5t-123.5 -22q-77 0 -125.5 23.5t-77 65.5t-39 100t-10.5 127v84zM203 301q0 -55 5 -92.5t17 -60.5t32.5 -33t50.5 -10t50.5 10
t32.5 33t17 60.5t5 92.5v84q0 55 -5 92.5t-17 60.5t-32.5 33t-50.5 10t-50.5 -10t-32.5 -33t-17 -60.5t-5 -92.5v-84z" />
    <glyph glyph-name="one.alt" unicode="&#xf801;" horiz-adv-x="502" 
d="M38 0l16 118h148v435l-167 -61l7 119l179 75h134v-568h141l-16 -118h-442z" />
    <glyph glyph-name="two.alt" unicode="&#xf802;" horiz-adv-x="581" 
d="M212 118h315l-16 -118h-446v121q0 40 5.5 76.5t22 68.5t46.5 58.5t78 46.5l72 30q27 11 43.5 21.5t25.5 22t12 23t3 25.5q0 45 -26.5 64t-86.5 19q-51 0 -105 -12t-97 -29l17 120q40 17 94 29t106 12q54 0 99 -11t77.5 -34t50.5 -59t18 -87v-9q0 -37 -8.5 -65.5
t-27 -51.5t-47.5 -42t-70 -35l-71 -30q-48 -20 -66 -49t-18 -81v-24z" />
    <glyph glyph-name="three.alt" unicode="&#xf803;" horiz-adv-x="564" 
d="M124 300l21 115h117q28 0 45 7t27 18t13.5 25t3.5 28q0 24 -9 40t-25 25.5t-38 13.5t-48 4q-49 0 -99 -10.5t-92 -25.5l17 120q38 15 88.5 25.5t106.5 10.5q62 0 108 -13.5t76 -37t44.5 -56.5t14.5 -72v-12q0 -50 -22 -85t-72 -58q51 -19 76.5 -62t25.5 -100v-14
q0 -41 -15 -77t-47 -62.5t-81.5 -41.5t-118.5 -15q-23 0 -50.5 2t-56 6.5t-56 11.5t-51.5 17l22 113q48 -16 95 -23t83 -7q66 0 99 22.5t33 73.5q0 19 -5 36t-17.5 30t-32.5 20.5t-50 7.5h-130z" />
    <glyph glyph-name="four.alt" unicode="&#xf804;" horiz-adv-x="573" 
d="M180 246h160v162l134 23v-185h77l-18 -114h-59v-132h-134v132h-312v100l265 454h147z" />
    <glyph glyph-name="five.alt" unicode="&#xf805;" horiz-adv-x="547" 
d="M240 -10q-20 0 -46 1.5t-53.5 5.5t-55 10t-51.5 15l22 114q43 -13 89.5 -19.5t86.5 -6.5q68 0 96.5 24t28.5 75q0 31 -9.5 51t-27.5 30.5t-45 14.5t-62 4h-144l11 377h391l-16 -118h-244l-4 -140h57q65 0 111 -14t74.5 -40.5t41.5 -65.5t13 -89v-16q0 -47 -15.5 -86
t-48 -67.5t-82 -44t-118.5 -15.5z" />
    <glyph glyph-name="six.alt" unicode="&#xf806;" horiz-adv-x="577" 
d="M193 220q0 -63 23 -91t77 -28q22 0 40 5t31 18t20 34t7 54v11q0 60 -21.5 88t-72.5 28q-21 0 -39.5 -5t-33 -16.5t-23 -30.5t-8.5 -48v-19zM356 577q-39 0 -69 -8.5t-51 -29t-32.5 -55t-12.5 -86.5q23 23 58.5 36.5t85.5 13.5q55 0 93 -16t61.5 -45t34 -69.5t10.5 -89.5
v-12q0 -52 -13 -94.5t-42 -73t-75 -47t-111 -16.5q-74 0 -121.5 21t-75 57t-38 84.5t-10.5 103.5v104q0 91 19.5 155.5t57 105.5t92 60.5t124.5 19.5q47 0 87 -7.5t73 -18.5l-28 -111q-33 10 -62 14t-55 4z" />
    <glyph glyph-name="seven.alt" unicode="&#xf807;" horiz-adv-x="525" 
d="M339 563h-316l16 123h452v-99l-219 -587h-153z" />
    <glyph glyph-name="eight.alt" unicode="&#xf808;" horiz-adv-x="610" 
d="M303 -15q-69 0 -116.5 15t-77 41t-42.5 62t-13 78v9q0 64 26.5 105.5t76.5 61.5q-45 20 -68.5 58t-23.5 94v10q0 40 13.5 73.5t42.5 57.5t74.5 37.5t110.5 13.5q64 0 109.5 -13.5t73.5 -37.5t41 -57.5t13 -73.5v-10q0 -54 -23.5 -93t-68.5 -59q50 -20 76.5 -60.5
t26.5 -106.5v-9q0 -42 -13.5 -78t-43.5 -62t-77.5 -41t-116.5 -15zM305 409q53 0 76 22t23 62v13q0 41 -23 62t-77 21t-77 -21t-23 -62v-13q0 -41 24 -62.5t77 -21.5zM304 97q58 0 84 23t26 71v11q0 47 -24 71t-86 24t-86 -24.5t-24 -70.5v-11q0 -47 26 -70.5t84 -23.5z" />
    <glyph glyph-name="nine.alt" unicode="&#xf809;" horiz-adv-x="577" 
d="M385 465q0 64 -23 92t-77 28q-22 0 -40 -5t-31 -18t-20 -34t-7 -54v-12q0 -60 21.5 -88t72.5 -28q22 0 41 5t33 17t22 31t8 47v19zM219 109q88 0 126.5 42t41.5 136q-28 -27 -64.5 -38.5t-79.5 -11.5q-53 0 -90.5 15.5t-61.5 44t-35.5 69t-11.5 91.5v12q0 53 13.5 96
t43 73t75 46.5t109.5 16.5q75 0 123 -21.5t75 -58t37 -84.5t10 -102v-104q0 -80 -16.5 -143.5t-52 -107.5t-92 -67t-135.5 -23q-48 0 -87.5 7.5t-74.5 18.5l28 111q34 -10 63 -14t56 -4z" />
    <glyph glyph-name="zero.sups" unicode="&#xf80a;" horiz-adv-x="441" 
d="M221 497q32 0 45 23t13 72v26q0 56 -13 76t-43 20q-35 0 -48 -22.5t-13 -73.5v-26q0 -48 12.5 -71.5t46.5 -23.5zM222 808q48 0 81 -14t52.5 -39t28 -59.5t8.5 -75.5v-31q0 -41 -9 -76t-29 -60t-52.5 -39t-79.5 -14q-50 0 -83.5 15t-53 41t-27.5 60t-8 73v31q0 43 9 77.5
t29.5 59t53.5 38t80 13.5z" />
    <glyph glyph-name="one.sups" unicode="&#xf80b;" horiz-adv-x="441" 
d="M352 408h-273l13 87h79v205l-91 -33l4 89l111 44h90v-305h81z" />
    <glyph glyph-name="two.sups" unicode="&#xf80c;" horiz-adv-x="441" 
d="M87 787q58 21 121 21q73 0 111 -27t38 -85v-8q0 -22 -5.5 -38t-17.5 -29.5t-30.5 -25.5t-43.5 -25l-32 -17q-21 -11 -31 -22t-11 -34h178l-11 -89h-278v76q0 52 23 85.5t68 55.5l45 22q21 11 28 20t7 20q0 17 -12.5 24t-45.5 7q-28 0 -55 -5t-55 -13z" />
    <glyph glyph-name="three.sups" unicode="&#xf80d;" horiz-adv-x="441" 
d="M91 787q27 9 56.5 15t62.5 6q73 0 110 -27.5t37 -75.5v-7q0 -29 -11.5 -48.5t-34.5 -33.5q23 -15 36.5 -38.5t13.5 -50.5v-9q0 -54 -41 -86t-115 -32q-42 0 -76 7t-57 17l20 83q30 -11 53 -15t43 -4q30 0 45.5 9t15.5 32q0 21 -14.5 30t-39.5 9h-62l10 82h56q21 0 34 9
t13 29q0 18 -14.5 25.5t-39.5 7.5q-41 0 -110 -19z" />
    <glyph glyph-name="four.sups" unicode="&#xf80e;" horiz-adv-x="441" 
d="M340 567h45l-11 -85h-33v-74h-105v74h-180v78l132 240h110l-126 -233h64v78l104 14v-92z" />
    <glyph glyph-name="five.sups" unicode="&#xf80f;" horiz-adv-x="441" 
d="M255 533q0 25 -15 34t-53 9h-96l7 224h254l-9 -89h-149l-2 -50h23q82 0 117.5 -29.5t35.5 -92.5v-10q0 -65 -44 -97t-129 -32q-38 0 -71.5 6.5t-54.5 15.5l24 88q25 -10 48 -14t49 -4q36 0 50.5 10t14.5 31z" />
    <glyph glyph-name="six.sups" unicode="&#xf810;" horiz-adv-x="441" 
d="M226 400q-157 0 -157 168v42q0 198 179 198q33 0 61.5 -5t51.5 -12l-22 -88q-18 6 -39 10.5t-44 4.5q-14 0 -28 -2.5t-25 -9.5t-18.5 -20.5t-9.5 -35.5q24 14 69 14q28 0 52 -6.5t42 -21t28.5 -37.5t10.5 -56v-6q0 -65 -39.5 -101t-111.5 -36zM227 491q21 0 33.5 12
t12.5 34v4q0 20 -11.5 32.5t-34.5 12.5q-24 0 -38 -12t-14 -32v-4q0 -23 14 -35t38 -12z" />
    <glyph glyph-name="seven.sups" unicode="&#xf811;" horiz-adv-x="441" 
d="M357 800v-76l-132 -316h-121l129 299h-175l14 93h285z" />
    <glyph glyph-name="eight.sups" unicode="&#xf812;" horiz-adv-x="441" 
d="M222 400q-83 0 -122.5 30t-39.5 89v5q0 25 11.5 50.5t34.5 40.5q-17 13 -27.5 33.5t-10.5 45.5v5q0 29 11.5 50t31.5 34t48.5 19t62.5 6q33 0 61 -5.5t48 -18.5t31 -34t11 -51v-5q0 -28 -10 -47t-28 -32q23 -16 35 -39.5t12 -51.5v-5q0 -59 -41 -89t-119 -30zM222 572
q-27 0 -40.5 -11.5t-13.5 -29.5v-4q0 -19 13.5 -31.5t40.5 -12.5q25 0 38 12.5t13 31.5v4q0 18 -13 29.5t-38 11.5zM222 730q-22 0 -35.5 -9t-13.5 -28v-4q0 -18 12 -28.5t37 -10.5q21 0 33.5 10t12.5 29v4q0 19 -13 28t-33 9z" />
    <glyph glyph-name="nine.sups" unicode="&#xf813;" horiz-adv-x="441" 
d="M214 808q78 0 117 -41t39 -127v-40q0 -200 -181 -200q-33 0 -62 5.5t-50 13.5l23 88q16 -6 36.5 -10.5t44.5 -4.5q39 0 58.5 16t23.5 51q-24 -14 -70 -14q-61 0 -96 29.5t-35 90.5v9q0 65 39 99.5t113 34.5zM215 719q-23 0 -36.5 -11t-13.5 -34v-6q0 -45 50 -45
q23 0 36.5 11.5t13.5 31.5v7q0 23 -13.5 34.5t-36.5 11.5z" />
    <glyph glyph-name="zero.sinf" unicode="&#xf814;" horiz-adv-x="441" 
d="M221 -30q32 0 45 23t13 72v26q0 56 -13 76t-43 20q-35 0 -48 -22.5t-13 -73.5v-26q0 -48 12.5 -71.5t46.5 -23.5zM222 281q48 0 81 -14t52.5 -39t28 -59.5t8.5 -75.5v-31q0 -41 -9 -76t-29 -60t-52.5 -39t-79.5 -14q-50 0 -83.5 15t-53 41t-27.5 60t-8 73v31q0 43 9 77.5
t29.5 59t53.5 38t80 13.5z" />
    <glyph glyph-name="one.sinf" unicode="&#xf815;" horiz-adv-x="441" 
d="M352 -119h-273l13 87h79v205l-91 -33l4 89l111 44h90v-305h81z" />
    <glyph glyph-name="two.sinf" unicode="&#xf816;" horiz-adv-x="441" 
d="M87 260q58 21 121 21q73 0 111 -27t38 -85v-8q0 -22 -5.5 -38t-17.5 -29.5t-30.5 -25.5t-43.5 -25l-32 -17q-21 -11 -31 -22t-11 -34h178l-11 -89h-278v76q0 52 23 85.5t68 55.5l45 22q21 11 28 20t7 20q0 17 -12.5 24t-45.5 7q-28 0 -55 -5t-55 -13z" />
    <glyph glyph-name="three.sinf" unicode="&#xf817;" horiz-adv-x="441" 
d="M91 260q27 9 56.5 15t62.5 6q73 0 110 -27.5t37 -75.5v-7q0 -29 -11.5 -48.5t-34.5 -33.5q23 -15 36.5 -38.5t13.5 -50.5v-9q0 -54 -41 -86t-115 -32q-42 0 -76 7t-57 17l20 83q30 -11 53 -15t43 -4q30 0 45.5 9t15.5 32q0 21 -14.5 30t-39.5 9h-62l10 82h56q21 0 34 9
t13 29q0 18 -14.5 25.5t-39.5 7.5q-41 0 -110 -19z" />
    <glyph glyph-name="four.sinf" unicode="&#xf818;" horiz-adv-x="441" 
d="M340 40h45l-11 -85h-33v-74h-105v74h-180v78l132 240h110l-126 -233h64v78l104 14v-92z" />
    <glyph glyph-name="five.sinf" unicode="&#xf819;" horiz-adv-x="441" 
d="M255 6q0 25 -15 34t-53 9h-96l7 224h254l-9 -89h-149l-2 -50h23q82 0 117.5 -29.5t35.5 -92.5v-10q0 -65 -44 -97t-129 -32q-38 0 -71.5 6.5t-54.5 15.5l24 88q25 -10 48 -14t49 -4q36 0 50.5 10t14.5 31z" />
    <glyph glyph-name="six.sinf" unicode="&#xf81a;" horiz-adv-x="441" 
d="M226 -127q-157 0 -157 168v42q0 198 179 198q33 0 61.5 -5t51.5 -12l-22 -88q-18 6 -39 10.5t-44 4.5q-14 0 -28 -2.5t-25 -9.5t-18.5 -20.5t-9.5 -35.5q24 14 69 14q28 0 52 -6.5t42 -21t28.5 -37.5t10.5 -56v-6q0 -65 -39.5 -101t-111.5 -36zM227 -36q21 0 33.5 12
t12.5 34v4q0 20 -11.5 32.5t-34.5 12.5q-24 0 -38 -12t-14 -32v-4q0 -23 14 -35t38 -12z" />
    <glyph glyph-name="seven.sinf" unicode="&#xf81b;" horiz-adv-x="441" 
d="M357 273v-76l-132 -316h-121l129 299h-175l14 93h285z" />
    <glyph glyph-name="eight.sinf" unicode="&#xf81c;" horiz-adv-x="441" 
d="M222 -127q-83 0 -122.5 30t-39.5 89v5q0 25 11.5 50.5t34.5 40.5q-17 13 -27.5 33.5t-10.5 45.5v5q0 29 11.5 50t31.5 34t48.5 19t62.5 6q33 0 61 -5.5t48 -18.5t31 -34t11 -51v-5q0 -28 -10 -47t-28 -32q23 -16 35 -39.5t12 -51.5v-5q0 -59 -41 -89t-119 -30zM222 45
q-27 0 -40.5 -11.5t-13.5 -29.5v-4q0 -19 13.5 -31.5t40.5 -12.5q25 0 38 12.5t13 31.5v4q0 18 -13 29.5t-38 11.5zM222 203q-22 0 -35.5 -9t-13.5 -28v-4q0 -18 12 -28.5t37 -10.5q21 0 33.5 10t12.5 29v4q0 19 -13 28t-33 9z" />
    <glyph glyph-name="nine.sinf" unicode="&#xf81d;" horiz-adv-x="441" 
d="M214 281q78 0 117 -41t39 -127v-40q0 -200 -181 -200q-33 0 -62 5.5t-50 13.5l23 88q16 -6 36.5 -10.5t44.5 -4.5q39 0 58.5 16t23.5 51q-24 -14 -70 -14q-61 0 -96 29.5t-35 90.5v9q0 65 39 99.5t113 34.5zM215 192q-23 0 -36.5 -11t-13.5 -34v-6q0 -45 50 -45
q23 0 36.5 11.5t13.5 31.5v7q0 23 -13.5 34.5t-36.5 11.5z" />
    <glyph glyph-name="hungarumlaut.cap" 
d="M125 903h146l-129 -132h-127zM339 903h146l-129 -132h-127z" />
    <glyph glyph-name="cedilla.cap" 
d="M372 -138q0 -26 -11.5 -46t-31.5 -33.5t-47.5 -20t-58.5 -6.5q-28 0 -53 4.5t-43 12.5l21 71q33 -9 66 -9q56 0 56 33q0 8 -3 14t-13 11t-29 8.5t-50 6.5l22 92h81l-10 -46q104 -16 104 -92z" />
    <glyph glyph-name="tilde.cap" 
d="M441 915q0 -44 -9.5 -72.5t-25.5 -45.5t-36.5 -23.5t-42.5 -6.5q-23 0 -42 7.5t-41 21.5l-17 10q-14 8 -26 13.5t-23 5.5q-35 0 -35 -54h-84q0 43 9 71.5t25 45.5t36.5 24t43.5 7t42 -7.5t41 -21.5l17 -10q14 -8 26 -13.5t23 -5.5q35 0 35 54h84z" />
    <glyph glyph-name="ogonek.cap" 
d="M268 -87q0 -29 45 -29q17 0 36 4l-11 -84q-15 -7 -37 -11.5t-46 -4.5q-51 0 -78 22t-27 59q0 21 9 40t23.5 36t33 32t38.5 27l95 -4q-39 -24 -60 -46t-21 -41z" />
    <glyph glyph-name="ring.cap" 
d="M250 807q24 0 39 15.5t15 39.5q0 23 -15 39t-39 16t-39 -15.5t-15 -39.5t15 -39.5t39 -15.5zM251 737q-27 0 -51 8t-42 24t-28.5 39t-10.5 53q0 31 10.5 54.5t28 39.5t41 24t49.5 8q27 0 51.5 -8.5t42.5 -24t28.5 -38.5t10.5 -53q0 -29 -10 -52.5t-28 -40t-41.5 -25
t-50.5 -8.5z" />
    <glyph glyph-name="caron.cap" 
d="M249 841l65 62h133l-130 -132h-135l-129 132h133z" />
    <glyph glyph-name="macron.cap" 
d="M104 894h291v-102h-291v102z" />
    <glyph glyph-name="dieresis.cap" 
d="M356 768q-39 0 -56.5 18.5t-17.5 50.5t17.5 50.5t56.5 18.5q40 0 57.5 -18.5t17.5 -50.5t-17.5 -50.5t-57.5 -18.5zM143 768q-39 0 -56.5 18.5t-17.5 50.5t17.5 50.5t56.5 18.5q40 0 57.5 -18.5t17.5 -50.5t-17.5 -50.5t-57.5 -18.5z" />
    <glyph glyph-name="dotaccent.cap" 
d="M250 762q-48 0 -69 21.5t-21 57.5t21 57.5t69 21.5t69 -21.5t21 -57.5t-21 -57.5t-69 -21.5z" />
    <glyph glyph-name="circumflex.cap" 
d="M249 833l-64 -62h-133l131 132h134l130 -132h-133z" />
    <glyph glyph-name="acute.cap" 
d="M236 903h165l-164 -132h-139z" />
    <glyph glyph-name="grave.cap" 
d="M401 771h-139l-164 132h165z" />
    <glyph glyph-name="breve.cap" 
d="M250 763q-78 0 -122 40t-44 118h101q5 -73 65 -73q62 0 64 73h102q0 -78 -44 -118t-122 -40z" />
    <glyph glyph-name="commaaccent.cap" 
d="M170 -292l39 107q-17 8 -26 24.5t-9 38.5q0 29 19.5 48.5t58.5 19.5q38 0 58 -17.5t20 -46.5q0 -17 -6 -33.5t-16 -37.5l-48 -103h-90z" />
    <glyph glyph-name="caron.alt" 
d="M318 743l-36 -204h-101l6 204h131z" />
    <glyph glyph-name="commaaccent" unicode="&#xf6c3;" 
d="M175 -287l38 103q-18 8 -26 24t-8 35q0 29 18 47.5t55 18.5t55 -17.5t18 -44.5q0 -16 -5 -31.5t-15 -35.5l-46 -99h-84z" />
    <glyph glyph-name="revcommaaccent" 
d="M325 813l-38 -103q18 -8 26 -24t8 -35q0 -29 -18 -47.5t-55 -18.5t-55 17.5t-18 44.5q0 16 5 31.5t15 35.5l46 99h84z" />
    <glyph glyph-name="acute.asc" 
d="M236 924h165l-164 -132h-139z" />
    <glyph glyph-name="circumflex.asc" 
d="M249 855l-64 -63h-133l131 132h134l130 -132h-133z" />
    <glyph glyph-name="caron.alt.short" 
d="M313 743l-28 -159h-100l6 159h122z" />
    <glyph glyph-name="Parenleft" horiz-adv-x="391" 
d="M57 444q0 85 11.5 150.5t44.5 110.5t92 68t154 23h20l-18 -125h-19q-41 0 -67.5 -13.5t-42 -40.5t-21.5 -66t-6 -90v-211q0 -48 6 -86.5t22.5 -66t46.5 -42.5t79 -15h20l-18 -125h-19q-87 0 -142.5 23t-87 68t-43.5 110.5t-12 150.5v177z" />
    <glyph glyph-name="Parenright" horiz-adv-x="391" 
d="M334 267q0 -85 -11.5 -150.5t-44.5 -110.5t-92 -68t-154 -23h-20l18 125h19q41 0 67.5 13.5t42 40.5t21.5 66t6 90v211q0 48 -6 86.5t-22.5 66t-46.5 42.5t-79 15h-20l18 125h19q87 0 142.5 -23t87 -68t43.5 -110.5t12 -150.5v-177z" />
    <glyph glyph-name="Hyphen" horiz-adv-x="426" 
d="M46 294v124h334v-124h-334z" />
    <glyph glyph-name="Slash" horiz-adv-x="451" 
d="M429 712l-250 -712h-157l250 712h157z" />
    <glyph glyph-name="At" horiz-adv-x="917" 
d="M494 472q-28 0 -49 -12.5t-35 -33.5t-21 -49t-7 -59q0 -42 13 -61t42 -19q36 0 58 25t29 68l22 131q-11 4 -24.5 7t-27.5 3zM627 257q69 13 106 68t37 138q0 111 -67.5 165.5t-183.5 54.5q-84 0 -150.5 -27t-113 -76t-71 -118t-24.5 -152q0 -135 69 -208t217 -73
q41 0 80.5 5.5t75 13.5t66 18.5t53.5 20.5l-20 -102q-53 -25 -122.5 -40t-144.5 -15q-87 0 -157.5 23t-121 69t-77.5 115.5t-27 162.5q0 91 27.5 178t84.5 154.5t144.5 108.5t207.5 41q84 0 150.5 -21t113.5 -61t72 -97.5t25 -130.5q0 -70 -23.5 -129.5t-69 -102.5
t-112.5 -67t-154 -24l2 46q-21 -30 -49.5 -46t-70.5 -16q-69 0 -104 45t-35 128q0 56 15.5 104.5t45.5 84t75 56t104 20.5q47 0 90 -12.5t81 -34.5z" />
    <glyph glyph-name="Bracketleft" horiz-adv-x="394" 
d="M72 786h309l-18 -124h-143v-613h161l-18 -124h-291v861z" />
    <glyph glyph-name="Backslash" horiz-adv-x="451" 
d="M179 712l250 -712h-157l-250 712h157z" />
    <glyph glyph-name="Bracketright" horiz-adv-x="394" 
d="M322 -75h-309l18 124h144v613h-162l18 124h291v-861z" />
    <glyph glyph-name="Braceleft" horiz-adv-x="387" 
d="M102 597q0 51 13.5 88t44.5 61.5t81 36.5t123 12h10l-18 -125h-6q-54 0 -78.5 -22.5t-24.5 -73.5v-102q0 -16 -3 -33t-11.5 -32.5t-23 -29t-36.5 -22.5q24 -9 38.5 -23.5t22.5 -30t10.5 -32t2.5 -30.5v-103q0 -48 27 -72t90 -24h10l-18 -125h-6q-131 0 -189.5 47
t-58.5 151v101q0 15 -3.5 28.5t-11 24t-20.5 17t-32 6.5h-17v130h16q21 0 34 7t20.5 18t10.5 24.5t3 27.5v100z" />
    <glyph glyph-name="Braceright" horiz-adv-x="387" 
d="M285 113q0 -51 -13.5 -88t-44.5 -61.5t-81 -36.5t-123 -12h-10l18 125h6q54 0 78.5 22.5t24.5 73.5v102q0 16 3 33t11.5 32.5t22.5 29t37 22.5q-24 9 -38.5 23.5t-22.5 30t-10.5 32t-2.5 30.5v103q0 48 -27 72t-90 24h-10l18 125h6q131 0 189.5 -47t58.5 -151v-101
q0 -15 3.5 -28.5t11 -24t20.5 -17t32 -6.5h17v-130h-16q-21 0 -34 -7t-20.5 -18t-10.5 -24.5t-3 -27.5v-100z" />
    <glyph glyph-name="Guilsinglleft" horiz-adv-x="332" 
d="M286 581v-128l-155 -97l155 -97v-128l-246 154v142z" />
    <glyph glyph-name="Bullet" horiz-adv-x="421" 
d="M63 424q0 31 11.5 58t31 46.5t46.5 31t58 11.5t58.5 -11.5t47 -31t31 -46.5t11.5 -58q0 -32 -11.5 -59t-31 -46.5t-47 -31t-58.5 -11.5t-58 11.5t-46.5 31t-31 46.5t-11.5 59z" />
    <glyph glyph-name="Endash" 
d="M0 411h500v-110h-500v110z" />
    <glyph glyph-name="Emdash" horiz-adv-x="1000" 
d="M0 411h1000v-110h-1000v110z" />
    <glyph glyph-name="Guilsinglright" horiz-adv-x="332" 
d="M46 131v128l155 97l-155 97v128l246 -154v-142z" />
    <glyph glyph-name="Exclamdown" horiz-adv-x="321" 
d="M220 502l9 -130q1 -15 2.5 -44t2.5 -60t1.5 -57.5t0.5 -35.5v-175h-152v175q0 9 0.5 35.5t1.5 57.5t2.5 60t2.5 44l9 130h120zM161 722q41 0 64 -18t23 -60t-23 -61t-64 -19q-42 0 -65 19t-23 61t23.5 60t64.5 18z" />
    <glyph glyph-name="Guillemotleft" horiz-adv-x="534" 
d="M245 581v-128l-113 -97l113 -97v-128l-205 167v117zM488 581v-128l-113 -97l113 -97v-128l-205 167v117z" />
    <glyph glyph-name="Guillemotright" horiz-adv-x="534" 
d="M289 131v128l113 97l-113 97v128l205 -167v-117zM46 131v128l113 97l-113 97v128l205 -167v-117z" />
    <glyph glyph-name="Questiondown" horiz-adv-x="513" 
d="M171 364q34 19 50 40.5t18 62.5l2 35h123l2 -40q3 -63 -17 -101.5t-66 -64.5l-37 -21q-32 -17 -44 -33.5t-12 -45.5q0 -44 28 -63t94 -19q46 0 90 8.5t84 24.5l-18 -122q-33 -14 -82.5 -24.5t-104.5 -10.5q-53 0 -96.5 11t-75.5 34t-49.5 57.5t-17.5 81.5v8
q0 59 21.5 97.5t72.5 65.5zM303 722q41 0 64 -18t23 -60t-23 -61t-64 -19q-42 0 -65 19t-23 61t23.5 60t64.5 18z" />
    </font>
</defs>
</svg>
