<?xml version="1.0" standalone="no"?>
<!DOCTYPE svg PUBLIC "-//W3C//DTD SVG 1.1//EN" "http://www.w3.org/Graphics/SVG/1.1/DTD/svg11.dtd" >
<svg>
<metadata>
Created by FontForge 20120731 at Mon Apr 18 19:36:59 2016
 By www-data
Copyright 2014 Dalton Maag Ltd. Modification of this file requires prior written permission from Dalton Maag Ltd.
</metadata>
<defs>
<font id="Soleto-Light" horiz-adv-x="441" >
  <font-face 
    font-family="Soleto Light"
    font-weight="300"
    font-stretch="normal"
    units-per-em="1000"
    panose-1="2 11 4 6 2 2 3 3 2 4"
    ascent="766"
    descent="-234"
    x-height="511"
    cap-height="712"
    bbox="-203 -251 1223 938"
    underline-thickness="82"
    underline-position="-81"
    unicode-range="U+0008-FB04"
  />
<missing-glyph horiz-adv-x="500" 
d="M50 0v750h400v-750h-400zM400 50v650h-300v-650h300z" />
    <glyph glyph-name="f_f" unicode="ff" horiz-adv-x="678" 
d="M660 511l-10 -51h-154v-460h-61v460h-250v-460h-61v460h-103l9 51h94q0 125 44.5 182t135.5 57q20 0 40 -3.5t34 -8.5l-13 -49q-11 3 -25 5.5t-34 2.5q-33 0 -56 -9.5t-37.5 -31.5t-21 -57.5t-6.5 -87.5h250q0 125 47 182t144 57q20 0 41.5 -3.5t36.5 -8.5l-13 -49
q-11 3 -26.5 5.5t-37.5 2.5q-37 0 -62 -10t-40.5 -32.5t-22 -57.5t-6.5 -86h164z" />
    <glyph glyph-name="f_i" unicode="fi" horiz-adv-x="578" 
d="M436 460h-251v-460h-61v460h-103l9 51h94q0 127 46 183t134 56q20 0 40 -3.5t34 -8.5l-13 -49q-14 5 -29.5 6.5t-29.5 1.5q-35 0 -58.5 -10.5t-37.5 -33t-19.5 -58t-5.5 -84.5h313v-511h-62v460zM466 709q45 0 45 -45q0 -44 -45 -44q-44 0 -44 44q0 45 44 45z" />
    <glyph glyph-name="f_l" unicode="fl" horiz-adv-x="582" 
d="M349 511l-10 -51h-154v-460h-61v460h-103l9 51h94q0 125 44.5 182t135.5 57q20 0 40 -3.5t34 -8.5l-13 -49q-11 3 -25.5 5.5t-33.5 2.5q-33 0 -56 -9.5t-37.5 -31.5t-21 -57.5t-6.5 -87.5h164zM443 743h59v-743h-59v743z" />
    <glyph glyph-name="f_f_i" unicode="ffi" horiz-adv-x="891" 
d="M747 460h-251v-460h-61v460h-250v-460h-61v460h-103l9 51h94q0 125 44.5 182t135.5 57q20 0 40 -3.5t34 -8.5l-13 -49q-11 3 -25.5 5.5t-33.5 2.5q-33 0 -56 -9.5t-37.5 -31.5t-21 -57.5t-6.5 -87.5h250q0 125 44.5 182t135.5 57q20 0 40 -3.5t34 -8.5l-13 -49
q-11 3 -25.5 5.5t-33.5 2.5q-33 0 -56 -9.5t-37.5 -31.5t-21 -57.5t-6.5 -87.5h313v-511h-62v460zM777 709q45 0 45 -45q0 -44 -45 -44q-44 0 -44 44q0 45 44 45z" />
    <glyph glyph-name="f_f_l" unicode="ffl" horiz-adv-x="897" 
d="M664 511l-10 -51h-154v-460h-61v460h-254v-460h-61v460h-103l9 51h94q0 125 44.5 182t135.5 57q20 0 40 -3.5t34 -8.5l-13 -49q-14 5 -29.5 6.5t-29.5 1.5q-68 0 -94.5 -42.5t-26.5 -143.5h254q0 125 44.5 182t135.5 57q20 0 40 -3.5t34 -8.5l-13 -49q-14 5 -29.5 6.5
t-29.5 1.5q-68 0 -94.5 -42.5t-26.5 -143.5h164zM758 743h59v-743h-59v743z" />
    <glyph glyph-name="f_t" unicode="ft" horiz-adv-x="706" 
d="M498 460v-296q0 -36 6 -59.5t19.5 -37.5t33.5 -19.5t49 -5.5q19 0 33 2.5t32 5.5l-9 -49q-31 -11 -73 -11q-36 0 -64 8t-47.5 28t-29.5 53.5t-10 85.5v295h-253v-460h-61v460h-103l9 51h94q0 125 45.5 182t138.5 57q20 0 40.5 -3.5t34.5 -8.5l-13 -49q-11 3 -25 5.5
t-36 2.5q-35 0 -59 -10t-38.5 -32.5t-20.5 -57.5t-6 -86h253v133l60 11v-144h171l-10 -51h-161z" />
    <glyph glyph-name="f_f_t" unicode="fft" horiz-adv-x="1017" 
d="M124 460h-103l9 51h94q0 125 44.5 182t135.5 57q20 0 40 -3.5t34 -8.5l-13 -49q-11 3 -25 5.5t-34 2.5q-68 0 -94.5 -42.5t-26.5 -143.5h250q0 118 43.5 178.5t140.5 60.5q20 0 40.5 -3.5t34.5 -8.5l-13 -49q-11 3 -26 5.5t-35 2.5q-35 0 -59 -10t-38.5 -32.5
t-20.5 -57.5t-6 -86h253v133l60 11v-144h171l-10 -51h-161v-296q0 -36 6 -59.5t19.5 -37.5t33.5 -19.5t49 -5.5q19 0 34 2.5t31 5.5l-9 -49q-31 -11 -73 -11q-36 0 -64 8t-47.5 28t-29.5 53.5t-10 85.5v295h-253v-460h-61v460h-250v-460h-61v460z" />
    <glyph glyph-name=".notdef" horiz-adv-x="500" 
d="M50 0v750h400v-750h-400zM400 50v650h-300v-650h300z" />
    <glyph glyph-name=".null" horiz-adv-x="0" 
 />
    <glyph glyph-name=".null" horiz-adv-x="0" 
 />
    <glyph glyph-name=".null" horiz-adv-x="0" 
 />
    <glyph glyph-name="nonmarkingreturn" unicode="&#x9;" horiz-adv-x="250" 
 />
    <glyph glyph-name="nonmarkingreturn" unicode="&#xd;" horiz-adv-x="250" 
 />
    <glyph glyph-name="space" unicode=" " horiz-adv-x="250" 
 />
    <glyph glyph-name="exclam" unicode="!" horiz-adv-x="266" 
d="M108 176l-5 177q0 12 -0.5 41t-0.5 60v258h63v-198q0 -28 -0.5 -59.5t-1 -60.5t-0.5 -41l-5 -177h-50zM133 88q46 0 46 -47q0 -46 -46 -46t-46 46q0 47 46 47z" />
    <glyph glyph-name="quotedbl" unicode="&#x22;" horiz-adv-x="378" 
d="M89 475l-6 116q-1 19 -1 41v102h60v-55q0 -24 -0.5 -46.5t-1.5 -41.5l-6 -116h-45zM243 475l-6 116q-1 19 -1 41v102h60v-55q0 -24 -0.5 -46.5t-1.5 -41.5l-6 -116h-45z" />
    <glyph glyph-name="numbersign" unicode="#" horiz-adv-x="670" 
d="M401 181h-199l-26 -181h-54l27 181h-102l9 50h100l33 221h-102l9 50h100l27 181h53l-27 -181h199l27 181h53l-27 -181h107l-10 -50h-104l-33 -221h107l-10 -50h-104l-26 -181h-54zM209 231h199l33 221h-199z" />
    <glyph glyph-name="dollar" unicode="$" horiz-adv-x="586" 
d="M313 691q53 -1 97.5 -9.5t73.5 -19.5l-13 -50q-30 9 -68.5 16.5t-89.5 8.5v-265l40 -7q43 -7 73 -22.5t48 -38t26 -51t8 -62.5v-10q0 -39 -10.5 -72.5t-34 -58t-60.5 -40t-90 -18.5v-81h-48v80q-55 1 -105 9.5t-77 19.5l13 49q31 -11 73.5 -18t95.5 -7v279l-19 3
q-88 14 -129.5 54.5t-41.5 112.5v10q0 81 48 128.5t142 57.5v69h48v-67zM313 315v-270q72 5 103.5 36.5t31.5 100.5q0 26 -4.5 47t-18 37.5t-37.5 28.5t-63 18zM134 501q0 -59 30.5 -85t93.5 -35l7 -1v255q-65 -6 -98 -37t-33 -97z" />
    <glyph glyph-name="percent" unicode="%" horiz-adv-x="882" 
d="M619 683h63l-420 -683h-63zM673 44q27 0 46 6.5t31 22t18 42t6 65.5v31q0 41 -6 68t-18.5 42.5t-31.5 22t-44 6.5q-26 0 -45 -6.5t-31.5 -22.5t-18.5 -43t-6 -67v-31q0 -38 6 -64t18 -42t31 -23t45 -7zM674 401q45 0 75.5 -13.5t49 -38t26.5 -58.5t8 -76v-38
q0 -40 -8 -74t-26.5 -58.5t-49.5 -38.5t-76 -14q-35 0 -64.5 9.5t-50.5 31t-32.5 57t-11.5 87.5v38q0 40 8 74t26.5 59t49 39t76.5 14zM209 335q27 0 46 6.5t31 22t18 42t6 65.5v31q0 41 -6 68t-18.5 42.5t-31.5 22t-44 6.5q-26 0 -45 -6.5t-31.5 -22.5t-18.5 -43t-6 -67
v-31q0 -38 6 -64t18 -42t31 -23t45 -7zM210 692q45 0 75.5 -13.5t49 -38t26.5 -58.5t8 -76v-38q0 -40 -8 -74t-26.5 -58.5t-49.5 -38.5t-76 -14q-35 0 -64.5 9.5t-50.5 31t-32.5 57t-11.5 87.5v38q0 40 8 74t26.5 59t49 39t76.5 14z" />
    <glyph glyph-name="ampersand" unicode="&#x26;" horiz-adv-x="624" 
d="M40 191q0 39 13 71t35.5 58t53 47.5t65.5 39.5q-32 43 -52 83t-20 80v13q0 31 11 57t31.5 45.5t50 30.5t66.5 11q68 0 106 -36t38 -101v-10q0 -35 -12 -62t-32.5 -49.5t-48.5 -40.5t-59 -34l195 -247q28 54 28 136q0 17 -1 33.5t-3 31.5h52q2 -13 3.5 -31t1.5 -39
q0 -54 -12.5 -97.5t-33.5 -77.5l83 -103h-65l-51 63q-35 -35 -91 -56.5t-128 -21.5q-109 0 -166.5 49.5t-57.5 143.5v13zM268 38q57 0 106 17t76 48l-212 266q-31 -16 -56.5 -32.5t-43.5 -37t-28 -47t-10 -62.5v-10q0 -66 40 -104t128 -38zM189 572q0 -35 18.5 -69.5
t47.5 -70.5q27 12 50.5 25.5t41 30.5t27.5 39t10 52v8q0 45 -24.5 68t-69.5 23q-47 0 -74 -24.5t-27 -71.5v-10z" />
    <glyph glyph-name="quotesingle" unicode="'" horiz-adv-x="224" 
d="M89 475l-6 116q-1 19 -1 41v102h60v-55q0 -24 -0.5 -46.5t-1.5 -41.5l-6 -116h-45z" />
    <glyph glyph-name="parenleft" unicode="(" horiz-adv-x="346" 
d="M67 382q0 82 8 147t33 110.5t72.5 69.5t127.5 24h20l-11 -53h-17q-53 0 -86.5 -17t-52 -51.5t-25 -86.5t-6.5 -123v-219q0 -71 6 -123t25 -86.5t54 -51.5t93 -17h20l-11 -53h-17q-75 0 -121 24t-71 69.5t-33 110.5t-8 147v179z" />
    <glyph glyph-name="parenright" unicode=")" horiz-adv-x="346" 
d="M279 203q0 -82 -8 -147t-33 -110.5t-73 -69.5t-127 -24h-20l11 53h17q54 0 87 17t51.5 51.5t25 86.5t6.5 123v219q0 71 -6 123t-25 86.5t-54 51.5t-93 17h-20l11 53h17q75 0 121 -24t71 -69.5t33 -110.5t8 -147v-179z" />
    <glyph glyph-name="asterisk" unicode="*" horiz-adv-x="453" 
d="M149 388l-44 29l82 115l-132 36l16 51l131 -45l-3 135h56l-3 -135l130 45l16 -51l-132 -36l82 -115l-44 -29l-77 117z" />
    <glyph glyph-name="plus" unicode="+" horiz-adv-x="586" 
d="M323 370h182v-54h-182v-187h-59v187h-183v54h183v186h59v-186z" />
    <glyph glyph-name="comma" unicode="," horiz-adv-x="266" 
d="M65 -124l49 128q-27 9 -27 43q0 20 12 31.5t32 11.5q21 0 32.5 -11.5t11.5 -30.5q0 -14 -4.5 -26.5t-12.5 -29.5l-54 -116h-39z" />
    <glyph glyph-name="hyphen" unicode="-" horiz-adv-x="398" 
d="M50 260v55h298v-55h-298z" />
    <glyph glyph-name="period" unicode="." horiz-adv-x="266" 
d="M133 90q46 0 46 -48q0 -47 -46 -47t-46 47q0 48 46 48z" />
    <glyph glyph-name="slash" unicode="/" horiz-adv-x="376" 
d="M356 712l-269 -712h-67l270 712h66z" />
    <glyph glyph-name="zero" unicode="0" horiz-adv-x="586" 
d="M291 40q46 0 78.5 12.5t52.5 42t29 79t9 123.5v88q0 76 -9 126t-29 79.5t-52 41t-79 11.5t-78.5 -12t-51 -41.5t-28 -79.5t-8.5 -125v-88q0 -75 9 -124.5t28.5 -79t51 -41.5t77.5 -12zM291 698q71 0 116.5 -21t71.5 -60.5t36 -97.5t10 -131v-93q0 -71 -10.5 -128.5
t-37 -98t-72 -62t-114.5 -21.5q-71 0 -115.5 20.5t-70 60t-35 97.5t-9.5 132v93q0 72 10 129t36 97.5t70.5 62t113.5 21.5z" />
    <glyph glyph-name="one" unicode="1" horiz-adv-x="586" 
d="M120 0l9 55h160v567l-179 -62l2 54l181 69h59v-628h163l-10 -55h-385z" />
    <glyph glyph-name="two" unicode="2" horiz-adv-x="586" 
d="M147 55h344l-10 -55h-397v108q0 42 7 78t23.5 66t45 54t72.5 42l89 36q28 11 47.5 22t32.5 26t19 35.5t6 51.5q0 35 -12 58t-33.5 36.5t-51.5 19t-67 5.5q-47 0 -94.5 -11.5t-85.5 -25.5l10 58q18 7 40.5 13.5t46 11t46.5 7t43 2.5q50 0 91 -10t70.5 -30.5t45.5 -51.5
t16 -74v-9q0 -39 -9 -67t-26.5 -49t-43.5 -37t-61 -30l-93 -38q-36 -15 -58 -33t-33.5 -41t-15.5 -51.5t-4 -63.5v-53z" />
    <glyph glyph-name="three" unicode="3" horiz-adv-x="586" 
d="M172 384h108q42 0 68 10.5t40.5 28.5t19.5 41t5 47q0 66 -41.5 96.5t-118.5 30.5q-47 0 -92 -10t-84 -24l10 56q31 12 75.5 22.5t96.5 10.5q104 0 161.5 -45.5t57.5 -128.5v-8q0 -56 -23.5 -94t-73.5 -57q29 -10 49 -27t32.5 -39t18 -48t5.5 -53v-9q0 -43 -15.5 -79
t-46 -61.5t-76 -39.5t-105.5 -14q-25 0 -51.5 2.5t-51.5 7t-47.5 11t-38.5 13.5l13 51q38 -14 81.5 -22t94.5 -8q90 0 134 35t44 109q0 33 -7.5 59.5t-25 45t-47.5 28.5t-75 10h-103z" />
    <glyph glyph-name="four" unicode="4" horiz-adv-x="586" 
d="M518 152h-82v-152h-61v152h-325v46l265 485h66l-264 -476h258v222l61 13v-235h92z" />
    <glyph glyph-name="five" unicode="5" horiz-adv-x="586" 
d="M253 -10q-50 0 -95.5 8.5t-78.5 22.5l12 52q35 -11 76 -19t90 -8q91 0 132 37t41 118q0 43 -11 71t-33.5 44.5t-57 23.5t-81.5 7h-139l5 336h351l-10 -54h-283l-4 -227h94q64 0 108.5 -12.5t72.5 -37.5t40.5 -61.5t12.5 -85.5v-13q0 -97 -61.5 -149.5t-180.5 -52.5z" />
    <glyph glyph-name="six" unicode="6" horiz-adv-x="586" 
d="M141 215q0 -41 8 -73t26.5 -55t49 -35t75.5 -12q36 0 64.5 7.5t49 26t31 50t10.5 79.5v8q0 45 -8 77t-26 52.5t-47 29.5t-72 9q-77 0 -119 -36t-42 -112v-16zM342 638q-51 0 -88.5 -13t-62.5 -42.5t-37.5 -76.5t-12.5 -115v-28q23 35 68.5 53.5t106.5 18.5
q57 0 95.5 -15.5t62 -44t34 -69t10.5 -89.5v-12q0 -109 -55.5 -164.5t-163.5 -55.5q-66 0 -108.5 18.5t-67 51t-34 76.5t-9.5 94v141q0 77 14 138t45 103t81.5 64t123.5 22q41 0 77 -7t64 -17l-13 -50q-26 8 -59 13.5t-71 5.5z" />
    <glyph glyph-name="seven" unicode="7" horiz-adv-x="586" 
d="M424 629h-354l10 54h410v-46l-247 -637h-65z" />
    <glyph glyph-name="eight" unicode="8" horiz-adv-x="586" 
d="M290 -15q-68 0 -113 15.5t-71.5 41t-37.5 59t-11 70.5v25q0 61 32.5 104.5t86.5 60.5q-49 15 -77.5 54t-28.5 98v12q0 35 12 66.5t38 55t68.5 37.5t102.5 14q109 0 165 -44t56 -129v-12q0 -59 -28 -96.5t-80 -55.5q57 -15 88.5 -58.5t31.5 -106.5v-25q0 -36 -10.5 -69.5
t-37 -59.5t-72 -41.5t-114.5 -15.5zM290 333q-49 0 -81 -9.5t-51.5 -28t-27.5 -45t-8 -59.5v-11q0 -33 8.5 -59t28.5 -44t52.5 -27.5t79.5 -9.5t79 9t52 27t28.5 44t8.5 60v11q0 34 -8.5 60.5t-28 44.5t-52 27.5t-80.5 9.5zM290 643q-81 0 -119.5 -28t-38.5 -91v-11
q0 -63 37.5 -94.5t120.5 -31.5q45 0 76 8.5t49.5 25t26.5 39.5t8 53v11q0 63 -39.5 91t-120.5 28z" />
    <glyph glyph-name="nine" unicode="9" horiz-adv-x="586" 
d="M445 468q0 42 -8.5 74.5t-27 55t-49 34t-74.5 11.5q-36 0 -64.5 -7.5t-48.5 -25.5t-31 -49.5t-11 -79.5v-9q0 -89 34.5 -128t118.5 -39q36 0 66 8t51 25.5t32.5 45.5t11.5 68v16zM244 45q49 0 86.5 12.5t63 42t38.5 77t13 116.5v28q-23 -35 -68 -53.5t-106 -18.5
q-56 0 -95 16t-63 45t-34.5 69t-10.5 87v13q0 106 55 162.5t165 56.5q53 0 93.5 -13t68.5 -41.5t42 -74.5t14 -111v-141q0 -169 -64 -248t-200 -79q-42 0 -77.5 7t-63.5 17l13 50q24 -7 55.5 -13t74.5 -6z" />
    <glyph glyph-name="colon" unicode=":" horiz-adv-x="266" 
d="M133 516q46 0 46 -48q0 -47 -46 -47t-46 47q0 48 46 48zM133 91q46 0 46 -48q0 -47 -46 -47t-46 47q0 48 46 48z" />
    <glyph glyph-name="semicolon" unicode=";" horiz-adv-x="266" 
d="M66 -123l49 128q-27 9 -27 43q0 20 12 31.5t32 11.5q21 0 32.5 -11.5t11.5 -30.5q0 -14 -4.5 -26.5t-12.5 -29.5l-54 -116h-39zM133 516q46 0 46 -48q0 -47 -46 -47t-46 47q0 48 46 48z" />
    <glyph glyph-name="less" unicode="&#x3c;" horiz-adv-x="586" 
d="M90 370l406 173v-57l-344 -144l344 -143v-59l-406 173v57z" />
    <glyph glyph-name="equal" unicode="=" horiz-adv-x="586" 
d="M499 271v-55h-412v55h412zM499 465v-55h-412v55h412z" />
    <glyph glyph-name="greater" unicode="&#x3e;" horiz-adv-x="586" 
d="M496 313l-406 -173v59l344 143l-344 144v57l406 -173v-57z" />
    <glyph glyph-name="question" unicode="?" horiz-adv-x="492" 
d="M203 667q-45 0 -90.5 -9.5t-80.5 -23.5l9 56q34 14 78.5 23t90.5 9q111 0 169.5 -48.5t58.5 -134.5q0 -36 -7.5 -62t-21 -45t-31.5 -32.5t-38 -22.5l-32 -15q-27 -13 -44 -24t-26.5 -26t-13.5 -36.5t-5 -54.5l-2 -45h-49q0 6 -1 21.5t-1 23.5q0 34 3 60.5t13.5 48
t30 38.5t52.5 32l36 16q16 7 29.5 16.5t23 23t14.5 33.5t5 49q0 65 -45 97t-125 32zM193 88q47 0 47 -47q0 -46 -47 -46q-45 0 -45 46q0 47 45 47z" />
    <glyph glyph-name="at" unicode="@" horiz-adv-x="897" 
d="M484 399q-46 0 -79.5 -16t-55 -44.5t-32 -67.5t-10.5 -86q0 -68 23.5 -99t78.5 -31q57 0 93.5 35t49.5 112l30 176q-18 8 -42.5 14.5t-55.5 6.5zM583 71q52 3 91 24.5t64.5 56t38 80.5t12.5 99q0 70 -21 121.5t-60.5 85.5t-95.5 50.5t-126 16.5q-98 0 -169.5 -30.5
t-117.5 -86t-68 -132t-22 -167.5q0 -169 77 -250.5t247 -81.5q49 0 89.5 6t72.5 14.5t56.5 18t41.5 17.5l-11 -50q-46 -23 -113 -39t-147 -16q-79 0 -146 19t-116 63t-77 115.5t-28 176.5q0 91 23.5 176t74.5 151t133 105.5t199 39.5q86 0 152.5 -22.5t112 -64t69 -101
t23.5 -132.5q0 -65 -18.5 -122t-56.5 -99.5t-96.5 -67.5t-137.5 -25l4 56q-23 -34 -59 -52.5t-83 -18.5q-72 0 -108.5 45.5t-36.5 130.5q0 54 14.5 102.5t44 85t73 58t102.5 21.5q38 0 79 -10t76 -29z" />
    <glyph glyph-name="A" unicode="A" horiz-adv-x="639" 
d="M469 217h-305l-75 -217h-64l254 712h77l258 -712h-69zM184 275h265l-133 376z" />
    <glyph glyph-name="B" unicode="B" horiz-adv-x="608" 
d="M92 0v712h250q55 0 92.5 -14t60.5 -37t33 -53.5t10 -64.5v-23q0 -56 -26.5 -93t-71.5 -53q31 -7 53 -23.5t36.5 -39.5t21.5 -50.5t7 -57.5v-23q0 -40 -12.5 -73t-39 -57t-67 -37t-96.5 -13h-251zM155 53h192q73 0 109.5 30t36.5 98v25q0 139 -149 139h-189v-292zM155 399
h189q64 0 98 30t34 84v22q0 125 -143 125h-178v-261z" />
    <glyph glyph-name="C" unicode="C" horiz-adv-x="558" 
d="M375 666q-66 0 -111.5 -12.5t-73 -44.5t-40 -86t-12.5 -138v-64q0 -81 12 -133.5t40 -84t73 -44t110 -12.5q15 0 33 1t35.5 3t33.5 4.5t27 4.5l-11 -53q-27 -7 -58.5 -12t-63.5 -5q-91 0 -148.5 21t-90.5 62.5t-45 103t-12 142.5v69q0 84 14.5 147t49 104.5t92 62
t143.5 20.5q40 0 75 -6.5t61 -15.5l-12 -50q-26 6 -58.5 11t-62.5 5z" />
    <glyph glyph-name="D" unicode="D" horiz-adv-x="676" 
d="M92 712h221q86 0 142 -23.5t89 -65t46 -98.5t13 -124v-90q0 -69 -14.5 -126t-48 -98.5t-89.5 -64t-140 -22.5h-219v712zM156 56h152q56 0 99 12.5t72.5 42.5t44.5 80t15 125v80q0 73 -14 122.5t-42.5 80t-71.5 44t-101 13.5h-154v-600z" />
    <glyph glyph-name="E" unicode="E" horiz-adv-x="572" 
d="M518 712l-10 -55h-352v-259h329l-10 -57h-319v-286h362l-10 -55h-416v712h426z" />
    <glyph glyph-name="F" unicode="F" horiz-adv-x="533" 
d="M498 712l-10 -55h-333v-269h297l-9 -56h-288v-332h-63v712h406z" />
    <glyph glyph-name="G" unicode="G" horiz-adv-x="623" 
d="M348 314l11 56h191v-351q-16 -6 -38.5 -11.5t-47 -9.5t-48.5 -6t-44 -2q-98 0 -157 24t-90.5 67t-41.5 103.5t-10 133.5v72q0 80 14 142t48.5 104t93.5 64t150 22q39 0 80.5 -7t70.5 -18l-13 -51q-28 8 -62.5 14t-76.5 6q-65 0 -110.5 -12.5t-74.5 -44.5t-42 -86
t-13 -137v-67q0 -80 12.5 -133t40.5 -84t73 -43.5t111 -12.5q32 0 62 3t55 9v256h-144z" />
    <glyph glyph-name="H" unicode="H" horiz-adv-x="684" 
d="M592 712v-712h-64v343h-372v-343h-64v712h64v-309h372v309h64z" />
    <glyph glyph-name="I" unicode="I" horiz-adv-x="248" 
d="M156 712v-712h-64v712h64z" />
    <glyph glyph-name="J" unicode="J" horiz-adv-x="430" 
d="M135 -10q-38 0 -69.5 5.5t-50.5 11.5l12 50q20 -5 44.5 -8t52.5 -3q50 0 81.5 12.5t49 40t24 70.5t6.5 103v440h63v-457q0 -61 -10 -110t-34 -83.5t-65 -53t-104 -18.5z" />
    <glyph glyph-name="K" unicode="K" horiz-adv-x="582" 
d="M153 712v-321l320 321h72l-342 -342l362 -370h-80l-332 341v-341h-61v712h61z" />
    <glyph glyph-name="L" unicode="L" horiz-adv-x="516" 
d="M155 712v-654h348l-10 -58h-401v712h63z" />
    <glyph glyph-name="M" unicode="M" horiz-adv-x="772" 
d="M152 712l235 -465l233 465h60v-712h-60v597l-207 -414h-54l-207 408v-591h-60v712h60z" />
    <glyph glyph-name="N" unicode="N" horiz-adv-x="680" 
d="M157 712l371 -613v613h60v-712h-65l-371 613v-613h-60v712h65z" />
    <glyph glyph-name="O" unicode="O" horiz-adv-x="680" 
d="M339 40q53 0 91.5 12t63 43t36.5 84t12 134v86q0 84 -12 137t-37 83t-63.5 41.5t-90.5 11.5q-51 0 -89 -11.5t-62.5 -42t-37 -83.5t-12.5 -136v-86q0 -81 11.5 -134t36 -84t62.5 -43t91 -12zM341 727q79 0 130.5 -21.5t81.5 -63.5t42 -102.5t12 -138.5v-90
q0 -75 -12 -135.5t-42.5 -103t-82.5 -65t-132 -22.5t-131 21.5t-81 63t-41.5 102t-11.5 139.5v90q0 74 12 134t42 103t82 66t132 23z" />
    <glyph glyph-name="P" unicode="P" horiz-adv-x="596" 
d="M155 288v-288h-63v712h256q52 0 90.5 -15t63.5 -41.5t37 -63t12 -79.5v-25q0 -41 -11.5 -77t-37 -63.5t-68 -43.5t-103.5 -16h-176zM155 342h172q84 0 121.5 35t37.5 111v19q0 76 -35 113t-114 37h-182v-315z" />
    <glyph glyph-name="Q" unicode="Q" horiz-adv-x="680" 
d="M341 727q79 0 130.5 -21.5t81.5 -63.5t42 -102.5t12 -138.5v-90q0 -120 -28 -189t-87 -103l94 -136h-65l-78 115q-23 -6 -49 -9.5t-56 -3.5q-80 0 -131 21.5t-81 63t-41.5 102t-11.5 139.5v90q0 74 12 134t42 103t82 66t132 23zM339 40q39 0 71 6l-72 107h63l59 -87
q42 25 62 83.5t20 163.5v86q0 84 -12 137t-37 83t-63.5 41.5t-90.5 11.5q-51 0 -89 -11.5t-62.5 -42t-37 -83.5t-12.5 -136v-86q0 -81 11.5 -134t36 -84t62.5 -43t91 -12z" />
    <glyph glyph-name="R" unicode="R" horiz-adv-x="617" 
d="M344 301h-190v-301h-62v712h261q52 0 89.5 -15t62 -41t36.5 -62.5t12 -78.5v-16q0 -44 -11.5 -76.5t-31.5 -55.5t-46 -37t-55 -20l167 -310h-72zM154 356h175q81 0 120 33.5t39 108.5v11q0 75 -35.5 111.5t-114.5 36.5h-184v-301z" />
    <glyph glyph-name="S" unicode="S" horiz-adv-x="563" 
d="M337 388q50 -8 83 -24.5t52.5 -41t27.5 -55.5t8 -66v-12q0 -44 -15.5 -80.5t-47 -63t-79.5 -41t-113 -14.5q-54 0 -107 9t-89 22l12 53q38 -11 85 -19.5t101 -8.5q103 0 146.5 36.5t43.5 115.5q0 25 -5.5 47t-19.5 39.5t-39.5 29t-65.5 17.5l-90 13q-90 13 -128.5 57.5
t-38.5 123.5v5q0 47 17.5 83t50.5 60t80 36.5t105 12.5q51 0 96.5 -8.5t79.5 -21.5l-14 -51q-34 11 -78 18t-89 7q-100 0 -143.5 -35.5t-43.5 -106.5q0 -55 27.5 -83.5t98.5 -38.5z" />
    <glyph glyph-name="T" unicode="T" horiz-adv-x="581" 
d="M556 657h-235v-657h-64v657h-242l10 55h541z" />
    <glyph glyph-name="U" unicode="U" horiz-adv-x="674" 
d="M335 -15q-76 0 -125 18.5t-77.5 56t-39.5 92.5t-11 129v431h63v-432q0 -69 10.5 -115.5t34 -74t60.5 -39t90 -11.5q54 0 90 11.5t58 39.5t31.5 74t9.5 114v433h63v-432q0 -73 -11.5 -128.5t-40.5 -92.5t-79 -55.5t-126 -18.5z" />
    <glyph glyph-name="V" unicode="V" horiz-adv-x="645" 
d="M553 712h67l-256 -712h-81l-258 712h68l231 -647z" />
    <glyph glyph-name="W" unicode="W" horiz-adv-x="863" 
d="M774 712h63l-183 -712h-77l-146 605l-151 -605h-79l-175 712h67l148 -645l157 617h70l149 -617z" />
    <glyph glyph-name="X" unicode="X" horiz-adv-x="616" 
d="M345 381l254 -381h-75l-219 330l-217 -330h-71l253 381l-221 331h76l186 -282l184 282h70z" />
    <glyph glyph-name="Y" unicode="Y" horiz-adv-x="591" 
d="M295 356l209 356h67l-246 -416v-296h-63v295l-242 417h71z" />
    <glyph glyph-name="Z" unicode="Z" horiz-adv-x="582" 
d="M454 657h-395l10 55h458v-49l-406 -608h411l-10 -55h-472v49z" />
    <glyph glyph-name="bracketleft" unicode="[" horiz-adv-x="355" 
d="M94 723h242l-11 -55h-169v-751h180l-11 -55h-231v861z" />
    <glyph glyph-name="backslash" unicode="\" horiz-adv-x="376" 
d="M86 712l270 -712h-66l-270 712h66z" />
    <glyph glyph-name="bracketright" unicode="]" horiz-adv-x="355" 
d="M261 -138h-242l11 55h169v751h-180l11 55h231v-861z" />
    <glyph glyph-name="asciicircum" unicode="^" horiz-adv-x="586" 
d="M263 713h59l162 -296h-60l-132 245l-130 -245h-59z" />
    <glyph glyph-name="underscore" unicode="_" horiz-adv-x="500" 
d="M0 -88h500v-52h-500v52z" />
    <glyph glyph-name="grave" unicode="`" horiz-adv-x="500" 
d="M350 592h-60l-142 141h72z" />
    <glyph glyph-name="a" unicode="a" horiz-adv-x="535" 
d="M110 151q0 -58 30.5 -84t103.5 -26q43 0 73 9t48.5 24.5t27 37t8.5 46.5v8q0 30 -11 50t-30 32t-45 17t-56 5h-16q-39 0 -64.5 -7.5t-41 -22t-21.5 -35t-6 -47.5v-7zM50 157q0 83 49.5 121.5t150.5 38.5q52 0 91 -12t60 -36v50q0 82 -39.5 117t-121.5 35q-35 0 -73 -5
t-70 -12l10 49q27 8 64.5 14t74.5 6q48 0 87 -10.5t67.5 -33.5t44 -60t15.5 -89v-330h-53l-5 60q-26 -37 -66 -53.5t-96 -16.5q-94 0 -142 37t-48 118v12z" />
    <glyph glyph-name="b" unicode="b" horiz-adv-x="576" 
d="M278 -12q-51 0 -101.5 12.5t-96.5 37.5v705h61v-300q27 42 68.5 61t98.5 19q45 0 83 -13t65 -42t42 -75t15 -113v-46q0 -124 -60 -185t-175 -61zM275 41q48 0 81.5 11.5t54.5 36.5t30 63.5t9 91.5v23q0 48 -7 86t-24 64.5t-46.5 40t-74.5 13.5q-35 0 -64 -9t-49.5 -30
t-32 -55t-11.5 -83v-224q29 -14 61 -21.5t73 -7.5z" />
    <glyph glyph-name="c" unicode="c" horiz-adv-x="472" 
d="M409 8q-24 -8 -55.5 -13t-57.5 -5q-63 0 -107.5 15.5t-72.5 46.5t-40.5 76t-12.5 105v42q0 58 13 104t42 77.5t75 48t111 16.5q28 0 58.5 -5t53.5 -13l-14 -49q-20 6 -46 10t-51 4q-48 0 -82 -10t-55.5 -33.5t-31.5 -61.5t-10 -95v-27q0 -55 10.5 -93t32.5 -61.5t57 -34
t85 -10.5q25 0 51 4t55 10z" />
    <glyph glyph-name="d" unicode="d" horiz-adv-x="576" 
d="M126 249q0 -51 7 -89.5t24 -65t45.5 -39.5t72.5 -13q45 0 76 12t49.5 34.5t26.5 54.5t8 71v223q-36 19 -69.5 26.5t-71.5 7.5q-47 0 -79.5 -12.5t-52 -37.5t-28 -63t-8.5 -90v-19zM63 278q0 66 16 112.5t45.5 76t70 43t89.5 13.5q47 0 81 -8.5t70 -25.5v254h61v-743h-54
l-6 70q-28 -43 -71 -62.5t-106 -19.5q-196 0 -196 248v42z" />
    <glyph glyph-name="e" unicode="e" horiz-adv-x="536" 
d="M123 234q1 -53 10 -89.5t31.5 -60t60 -34t94.5 -10.5q31 0 66 4.5t60 10.5l-8 -49q-23 -8 -59.5 -13t-70.5 -5q-68 0 -115 15.5t-75.5 46t-41 76.5t-12.5 108v39q0 57 12 103t38 79t67 50.5t99 17.5q51 0 88 -15.5t61 -43t35 -65t11 -82.5v-29q0 -30 -8.5 -42t-37.5 -12
h-305zM275 471q-38 0 -66.5 -10t-47.5 -32.5t-28.5 -58.5t-9.5 -89h294v35q0 77 -34 116t-108 39z" />
    <glyph glyph-name="f" unicode="f" horiz-adv-x="367" 
d="M349 511l-10 -51h-154v-460h-61v460h-103l9 51h94q0 124 47 181.5t144 57.5q20 0 41.5 -3.5t36.5 -8.5l-13 -49q-11 3 -26.5 5.5t-37.5 2.5q-37 0 -62 -10t-40.5 -32.5t-22 -57.5t-6.5 -86h164z" />
    <glyph glyph-name="g" unicode="g" horiz-adv-x="575" 
d="M125 254q0 -48 7 -85.5t24.5 -63t46 -38.5t71.5 -13q81 0 120.5 42.5t39.5 136.5v209q-28 14 -57.5 21t-73.5 7q-91 0 -134.5 -47.5t-43.5 -156.5v-12zM495 10q0 -57 -13 -103t-41 -78.5t-72 -49.5t-105 -17q-92 0 -180 27l13 51q43 -12 82.5 -18t87.5 -6t80 14t51.5 41
t27.5 65.5t8 87.5v59q-10 -16 -24.5 -30.5t-35 -26t-48.5 -18t-66 -6.5q-44 0 -80 12.5t-62 41t-40.5 74t-14.5 112.5v34q0 63 17 109t48.5 77t75 46t96.5 15q57 0 106 -12.5t89 -34.5v-466z" />
    <glyph glyph-name="h" unicode="h" horiz-adv-x="575" 
d="M80 0v743h61v-301q25 38 69 59.5t107 21.5q90 0 136.5 -45.5t46.5 -134.5v-343h-61v313q0 83 -31 119.5t-107 36.5q-81 0 -120.5 -39.5t-39.5 -124.5v-305h-61z" />
    <glyph glyph-name="i" unicode="i" horiz-adv-x="222" 
d="M80 511h62v-511h-62v511zM110 709q45 0 45 -45q0 -44 -45 -44q-44 0 -44 44q0 45 44 45z" />
    <glyph glyph-name="j" unicode="j" horiz-adv-x="222" 
d="M142 511v-561q0 -54 -11.5 -90t-32.5 -58t-49.5 -31t-62.5 -9q-21 0 -42.5 3.5t-39.5 10.5l11 48q14 -5 31 -7t34 -2q26 0 45 6.5t31 22t18 42t6 66.5v559h62zM110 709q45 0 45 -45q0 -44 -45 -44q-44 0 -44 44q0 45 44 45z" />
    <glyph glyph-name="k" unicode="k" horiz-adv-x="482" 
d="M140 265v-265h-60v743h60v-429l230 197h80l-259 -221l277 -290h-80z" />
    <glyph glyph-name="l" unicode="l" horiz-adv-x="221" 
d="M80 743h61v-743h-61v743z" />
    <glyph glyph-name="m" unicode="m" horiz-adv-x="846" 
d="M80 0v511h52l8 -70q22 38 63 60t92 22q110 0 147 -86q23 40 62.5 63t99.5 23q81 0 124 -44t43 -130v-349h-61v317q0 84 -27.5 118t-91.5 34q-69 0 -102 -38t-33 -107v-324h-61v317q0 81 -25 116.5t-92 35.5q-36 0 -61.5 -12t-42.5 -33t-25 -50t-8 -63v-311h-61z" />
    <glyph glyph-name="n" unicode="n" horiz-adv-x="575" 
d="M80 0v511h52l8 -72q23 38 67.5 61t109.5 23q89 0 136 -46t47 -137v-340h-61v310q0 85 -31 122t-107 37q-82 0 -121 -41t-39 -127v-301h-61z" />
    <glyph glyph-name="o" unicode="o" horiz-adv-x="573" 
d="M287 523q65 0 108 -16.5t68.5 -48t36 -76t10.5 -99.5v-54q0 -55 -12 -99.5t-38 -76t-69 -48.5t-104 -17q-65 0 -108 16.5t-69 48t-36.5 76t-10.5 100.5v54q0 55 12.5 99.5t39.5 76t69.5 48t102.5 16.5zM287 41q45 0 76 10.5t50 34t27 60t8 87.5v45q0 53 -8.5 89.5
t-27.5 59.5t-50 33.5t-75 10.5q-45 0 -76 -11t-50 -34t-27 -60t-8 -88v-44q0 -52 8 -88.5t27 -60t50 -34t76 -10.5z" />
    <glyph glyph-name="p" unicode="p" horiz-adv-x="576" 
d="M451 265q0 48 -6.5 86t-24 64.5t-46.5 40t-74 13.5t-75.5 -11.5t-49 -34t-26.5 -55t-8 -75.5v-214q35 -19 67 -27.5t77 -8.5q47 0 78.5 12.5t51 37.5t28 62.5t8.5 86.5v23zM513 231q0 -63 -16 -108.5t-45 -75t-69 -43.5t-88 -14q-24 0 -43.5 2t-37.5 6.5t-35.5 11.5
t-37.5 17v-259h-61v743h52l8 -69q54 81 176 81q44 0 80.5 -13t62.5 -42t40 -76t14 -114v-47z" />
    <glyph glyph-name="q" unicode="q" horiz-adv-x="575" 
d="M125 246q0 -48 7 -86t23.5 -64t45 -39.5t71.5 -13.5q83 0 122.5 44.5t39.5 132.5v223q-31 14 -62 21t-72 7q-95 0 -135 -48.5t-40 -154.5v-22zM63 276q0 66 16.5 112.5t47.5 76.5t74 44t96 14q55 0 104.5 -12.5t93.5 -34.5v-708h-61v302q-27 -40 -69 -60t-105 -20
q-44 0 -80.5 13t-62.5 42.5t-40 76t-14 113.5v41z" />
    <glyph glyph-name="r" unicode="r" horiz-adv-x="380" 
d="M349 458q-15 3 -31 5t-29 2q-75 0 -111 -45.5t-36 -143.5v-276h-62v511h52l9 -80q47 87 159 87q16 0 32.5 -2.5t27.5 -5.5z" />
    <glyph glyph-name="s" unicode="s" horiz-adv-x="473" 
d="M198 240q-79 11 -111.5 43.5t-32.5 92.5v4q0 36 16 62.5t44 44t66.5 26t84.5 8.5q43 0 79.5 -6.5t65.5 -15.5l-12 -50q-28 9 -61 14.5t-81 5.5q-29 0 -54.5 -4.5t-44.5 -14.5t-30 -27t-11 -42q0 -19 4 -33t14.5 -24t28.5 -16.5t46 -10.5l81 -11q68 -9 101.5 -42.5
t33.5 -98.5v-6q0 -73 -55 -111t-153 -38q-46 0 -88 6.5t-77 17.5l11 49q38 -11 74.5 -16t81.5 -5q71 0 107 23t36 76q0 18 -3 32.5t-13 26t-27.5 19t-47.5 11.5z" />
    <glyph glyph-name="t" unicode="t" horiz-adv-x="393" 
d="M185 458v-296q0 -36 6.5 -59.5t20 -37t34 -18.5t47.5 -5q17 0 33.5 2.5t31.5 5.5l-9 -49q-31 -11 -73 -11q-37 0 -65.5 8.5t-47.5 28.5t-28.5 53t-9.5 83v295h-103l9 53h94v133l60 11v-144h171l-10 -53h-161z" />
    <glyph glyph-name="u" unicode="u" horiz-adv-x="571" 
d="M491 511v-511h-52l-8 72q-26 -42 -71 -63t-105 -21q-89 0 -134.5 47t-45.5 136v340h61v-310q0 -86 31 -122.5t105 -36.5q81 0 119.5 41t38.5 127v301h61z" />
    <glyph glyph-name="v" unicode="v" horiz-adv-x="549" 
d="M35 511h69l171 -448l172 448h67l-206 -511h-68z" />
    <glyph glyph-name="w" unicode="w" horiz-adv-x="747" 
d="M373 421l-123 -421h-67l-148 511h66l118 -443l120 420h69l122 -421l119 444h63l-146 -511h-68z" />
    <glyph glyph-name="x" unicode="x" horiz-adv-x="489" 
d="M34 511h70l142 -202l142 202h66l-176 -247l191 -264h-71l-156 221l-156 -221h-66l191 266z" />
    <glyph glyph-name="y" unicode="y" horiz-adv-x="548" 
d="M446 511h67l-224 -574q-21 -53 -40.5 -87t-40.5 -53.5t-45 -27t-53 -7.5q-21 0 -40 4t-35 10l11 46q11 -3 27 -5t30 -2q23 0 40.5 4.5t31.5 18t27.5 38.5t28.5 66l20 53l-216 516h68l179 -442z" />
    <glyph glyph-name="z" unicode="z" horiz-adv-x="493" 
d="M118 50h333l-8 -50h-399v44l323 417h-316l9 50h381v-44z" />
    <glyph glyph-name="braceleft" unicode="{" horiz-adv-x="335" 
d="M121 558q0 43 8 75.5t29 54.5t57 33.5t92 11.5h20l-11 -53h-18q-30 0 -52 -5.5t-36 -19.5t-20.5 -37t-6.5 -58v-145q0 -48 -19.5 -78t-51.5 -44q32 -14 51.5 -44.5t19.5 -77.5v-146q0 -34 6 -57t20 -37t38 -20t60 -6h20l-11 -53h-16q-52 0 -86.5 11.5t-55 33.5t-29 54.5
t-8.5 75.5v133q0 54 -22.5 80t-61.5 26h-10v54h8q86 0 86 105v133z" />
    <glyph glyph-name="bar" unicode="|" horiz-adv-x="243" 
d="M90 743h63v-918h-63v918z" />
    <glyph glyph-name="braceright" unicode="}" horiz-adv-x="335" 
d="M214 27q0 -43 -8.5 -75.5t-29.5 -54.5t-57 -33.5t-91 -11.5h-20l11 53h18q30 0 52 5.5t36 19.5t20.5 37t6.5 58v145q0 48 19.5 78t51.5 44q-32 14 -51.5 44.5t-19.5 77.5v146q0 34 -6 57t-20 37t-38 20t-60 6h-20l11 53h16q52 0 86.5 -11.5t55 -33.5t29 -54.5t8.5 -75.5
v-133q0 -54 22.5 -80t61.5 -26h10v-54h-8q-86 0 -86 -105v-133z" />
    <glyph glyph-name="asciitilde" unicode="~" horiz-adv-x="586" 
d="M335 350q22 -13 37 -20.5t32 -7.5q32 0 43.5 23t11.5 80h53q0 -44 -7 -74.5t-20.5 -49.5t-33 -27t-44.5 -8q-18 0 -38 7t-48 24l-72 42q-26 15 -39 20t-28 5q-32 0 -43.5 -22t-11.5 -80h-53q0 46 7.5 76.5t21 48.5t33 25.5t42.5 7.5q20 0 40.5 -6.5t47.5 -22.5z" />
    <glyph glyph-name="Euro" unicode="&#x20ac;" horiz-adv-x="586" 
d="M404 42q36 0 65.5 3t62.5 9l-10 -53q-32 -9 -60.5 -12.5t-62.5 -3.5q-73 0 -123.5 15.5t-82.5 46.5t-48.5 77t-20.5 108h-76l10 51h64v114h-74l10 52h66q5 61 22.5 107.5t50 78t81.5 47.5t117 16q44 0 79 -6t62 -16l-12 -48q-29 6 -58.5 10t-67.5 4q-53 0 -91 -9t-63 -31
t-38.5 -59.5t-18.5 -93.5h274l-10 -52h-266v-114h276l-10 -51h-263q4 -52 18 -88t40 -58.5t65 -33t93 -10.5z" />
    <glyph glyph-name="uni20BA" unicode="&#x20ba;" horiz-adv-x="586" 
d="M122 458v225h61v-198l222 99l17 -44l-239 -108v-104l222 100l17 -45l-239 -107v-223q28 -5 57 -5q55 0 98.5 18t74 51t47 78.5t16.5 99.5l57 -7q0 -60 -18 -114t-55.5 -95.5t-95 -66t-136.5 -24.5q-33 0 -59.5 3.5t-46.5 8.5v249l-68 -30l-17 45l85 37v104l-68 -30
l-17 45z" />
    <glyph glyph-name="quotesinglbase" unicode="&#x201a;" horiz-adv-x="266" 
d="M65 -124l49 128q-27 9 -27 43q0 20 12 31.5t32 11.5q21 0 32.5 -11.5t11.5 -30.5q0 -14 -4.5 -26.5t-12.5 -29.5l-54 -116h-39z" />
    <glyph glyph-name="florin" unicode="&#x192;" horiz-adv-x="367" 
d="M349 511l-10 -51h-154v-507q0 -94 -37.5 -141t-116.5 -47q-26 0 -46.5 4t-36.5 10l11 48q12 -4 28.5 -6.5t36.5 -2.5q56 0 78 30.5t22 106.5v505h-103l9 51h94q0 124 47 181.5t141 57.5q24 0 45 -3.5t36 -8.5l-13 -49q-16 5 -32.5 6.5t-31.5 1.5q-37 0 -62 -10
t-40.5 -32.5t-22 -57.5t-6.5 -86h164z" />
    <glyph glyph-name="quotedblbase" unicode="&#x201e;" horiz-adv-x="428" 
d="M65 -124l49 128q-27 9 -27 43q0 20 12 31.5t32 11.5q21 0 32.5 -11.5t11.5 -30.5q0 -14 -4.5 -26.5t-12.5 -29.5l-54 -116h-39zM227 -124l49 128q-27 9 -27 43q0 20 12 31.5t32 11.5q21 0 32.5 -11.5t11.5 -30.5q0 -14 -4.5 -26.5t-12.5 -29.5l-54 -116h-39z" />
    <glyph glyph-name="ellipsis" unicode="&#x2026;" horiz-adv-x="730" 
d="M133 90q46 0 46 -48q0 -47 -46 -47t-46 47q0 48 46 48zM367 90q46 0 46 -48q0 -47 -46 -47t-46 47q0 48 46 48zM597 90q46 0 46 -48q0 -47 -46 -47t-46 47q0 48 46 48z" />
    <glyph glyph-name="dagger" unicode="&#x2020;" horiz-adv-x="497" 
d="M462 416h-183v-594h-62v594h-182v55h182v242h62v-242h183v-55z" />
    <glyph glyph-name="daggerdbl" unicode="&#x2021;" horiz-adv-x="497" 
d="M279 77v-255h-62v255h-182v56h182v290h-182v56h182v234h62v-234h183v-56h-183v-290h183v-56h-183z" />
    <glyph glyph-name="circumflex" unicode="&#x2c6;" horiz-adv-x="500" 
d="M278 733l132 -141h-59l-101 99l-101 -99h-59l132 141h56z" />
    <glyph glyph-name="perthousand" unicode="&#x2030;" horiz-adv-x="1272" 
d="M619 683h63l-420 -683h-63zM673 44q27 0 46 6.5t31 22t18 42t6 65.5v31q0 41 -6 68t-18.5 42.5t-31.5 22t-44 6.5q-26 0 -45 -6.5t-31.5 -22.5t-18.5 -43t-6 -67v-31q0 -38 6 -64t18 -42t31 -23t45 -7zM674 401q45 0 75.5 -13.5t49 -38t26.5 -58.5t8 -76v-38
q0 -40 -8 -74t-26.5 -58.5t-49.5 -38.5t-76 -14q-35 0 -64.5 9.5t-50.5 31t-32.5 57t-11.5 87.5v38q0 40 8 74t26.5 59t49 39t76.5 14zM1063 44q27 0 46 6.5t31 22t18 42t6 65.5v31q0 41 -6 68t-18.5 42.5t-31.5 22t-44 6.5q-26 0 -45 -6.5t-31.5 -22.5t-18.5 -43t-6 -67
v-31q0 -38 6 -64t18 -42t31 -23t45 -7zM1064 401q45 0 75.5 -13.5t49 -38t26.5 -58.5t8 -76v-38q0 -40 -8 -74t-26.5 -58.5t-49.5 -38.5t-76 -14q-35 0 -64.5 9.5t-50.5 31t-32.5 57t-11.5 87.5v38q0 40 8 74t26.5 59t49 39t76.5 14zM209 335q27 0 46 6.5t31 22t18 42
t6 65.5v31q0 41 -6 68t-18.5 42.5t-31.5 22t-44 6.5q-26 0 -45 -6.5t-31.5 -22.5t-18.5 -43t-6 -67v-31q0 -38 6 -64t18 -42t31 -23t45 -7zM210 692q45 0 75.5 -13.5t49 -38t26.5 -58.5t8 -76v-38q0 -40 -8 -74t-26.5 -58.5t-49.5 -38.5t-76 -14q-35 0 -64.5 9.5t-50.5 31
t-32.5 57t-11.5 87.5v38q0 40 8 74t26.5 59t49 39t76.5 14z" />
    <glyph glyph-name="Scaron" unicode="&#x160;" horiz-adv-x="563" 
d="M337 388q50 -8 83 -24.5t52.5 -41t27.5 -55.5t8 -66v-12q0 -44 -15.5 -80.5t-47 -63t-79.5 -41t-113 -14.5q-54 0 -107 9t-89 22l12 53q38 -11 85 -19.5t101 -8.5q103 0 146.5 36.5t43.5 115.5q0 25 -5.5 47t-19.5 39.5t-39.5 29t-65.5 17.5l-90 13q-90 13 -128.5 57.5
t-38.5 123.5v5q0 47 17.5 83t50.5 60t80 36.5t105 12.5q51 0 96.5 -8.5t79.5 -21.5l-14 -51q-34 11 -78 18t-89 7q-100 0 -143.5 -35.5t-43.5 -106.5q0 -55 27.5 -83.5t98.5 -38.5zM329 773h-60l-131 122h66l95 -80l96 80h65z" />
    <glyph glyph-name="guilsinglleft" unicode="&#x2039;" horiz-adv-x="319" 
d="M261 463v-64l-174 -140l174 -140v-63l-223 178v51z" />
    <glyph glyph-name="OE" unicode="&#x152;" horiz-adv-x="960" 
d="M906 712l-10 -55h-352v-259h329l-10 -57h-319v-286h362l-10 -55h-556q-80 0 -131.5 21.5t-81.5 63.5t-42 103t-12 140v56q0 73 11.5 133.5t41.5 104t82.5 67t133.5 23.5h564zM482 657h-142q-52 0 -90 -12t-62.5 -42.5t-36.5 -84t-12 -136.5v-51q0 -81 11.5 -134.5
t35.5 -85t62.5 -44t92.5 -12.5h141v602z" />
    <glyph glyph-name="quoteleft" unicode="&#x2018;" horiz-adv-x="266" 
d="M190 745l-50 -128q28 -9 28 -42q0 -20 -12.5 -32t-31.5 -12q-22 0 -33 12t-11 31q0 14 4 26.5t12 29.5l54 115h40z" />
    <glyph glyph-name="quoteright" unicode="&#x2019;" horiz-adv-x="266" 
d="M76 531l49 128q-14 5 -20.5 16.5t-6.5 26.5q0 20 12.5 31.5t31.5 11.5q22 0 33 -11.5t11 -30.5q0 -14 -4 -26.5t-12 -29.5l-54 -116h-40z" />
    <glyph glyph-name="quotedblleft" unicode="&#x201c;" horiz-adv-x="428" 
d="M190 745l-50 -128q28 -9 28 -42q0 -20 -12.5 -32t-31.5 -12q-22 0 -33 12t-11 31q0 14 4 26.5t12 29.5l54 115h40zM352 745l-50 -128q28 -9 28 -42q0 -20 -12.5 -32t-31.5 -12q-22 0 -33 12t-11 31q0 14 4 26.5t12 29.5l54 115h40z" />
    <glyph glyph-name="quotedblright" unicode="&#x201d;" horiz-adv-x="428" 
d="M76 531l49 128q-14 5 -20.5 16.5t-6.5 26.5q0 20 12.5 31.5t31.5 11.5q22 0 33 -11.5t11 -30.5q0 -14 -4 -26.5t-12 -29.5l-54 -116h-40zM238 531l49 128q-14 5 -20.5 16.5t-6.5 26.5q0 20 12.5 31.5t31.5 11.5q22 0 33 -11.5t11 -30.5q0 -14 -4 -26.5t-12 -29.5
l-54 -116h-40z" />
    <glyph glyph-name="bullet" unicode="&#x2022;" horiz-adv-x="351" 
d="M76 354q0 43 28 71t72 28q43 0 71 -28t28 -71t-28 -71t-71 -28q-44 0 -72 28t-28 71z" />
    <glyph glyph-name="endash" unicode="&#x2013;" horiz-adv-x="500" 
d="M0 308h500v-52h-500v52z" />
    <glyph glyph-name="emdash" unicode="&#x2014;" horiz-adv-x="1000" 
d="M0 308h1000v-52h-1000v52z" />
    <glyph glyph-name="tilde" unicode="&#x2dc;" horiz-adv-x="500" 
d="M216 655q-13 8 -24 12.5t-21 4.5q-35 0 -35 -57h-41q0 52 19.5 78t54.5 26q14 0 29 -5t35 -16l41 -23q17 -10 30.5 -16t24.5 -6q34 0 34 58h41q0 -54 -20 -79t-56 -25q-17 0 -33.5 6t-37.5 18z" />
    <glyph glyph-name="trademark" unicode="&#x2122;" horiz-adv-x="794" 
d="M304 713l-8 -46h-115v-310h-51v310h-122l7 46h289zM428 713l118 -226l116 226h58v-356h-49v280l-104 -201h-43l-104 196v-275h-47v356h55z" />
    <glyph glyph-name="scaron" unicode="&#x161;" horiz-adv-x="473" 
d="M198 240q-79 11 -111.5 43.5t-32.5 92.5v4q0 36 16 62.5t44 44t66.5 26t84.5 8.5q43 0 79.5 -6.5t65.5 -15.5l-12 -50q-28 9 -61 14.5t-81 5.5q-29 0 -54.5 -4.5t-44.5 -14.5t-30 -27t-11 -42q0 -19 4 -33t14.5 -24t28.5 -16.5t46 -10.5l81 -11q68 -9 101.5 -42.5
t33.5 -98.5v-6q0 -73 -55 -111t-153 -38q-46 0 -88 6.5t-77 17.5l11 49q38 -11 74.5 -16t81.5 -5q71 0 107 23t36 76q0 18 -3 32.5t-13 26t-27.5 19t-47.5 11.5zM225 592l-132 141h59l101 -99l101 99h58l-131 -141h-56z" />
    <glyph glyph-name="guilsinglright" unicode="&#x203a;" horiz-adv-x="319" 
d="M58 56v63l174 140l-174 140v64l223 -178v-51z" />
    <glyph glyph-name="oe" unicode="&#x153;" horiz-adv-x="923" 
d="M510 234q1 -52 10 -88.5t31.5 -60t60 -34t94.5 -10.5q32 0 66.5 4.5t59.5 10.5l-8 -50q-23 -8 -59.5 -13t-70.5 -5q-90 0 -141 26t-74 79q-23 -51 -68.5 -78t-123.5 -27q-66 0 -109.5 17t-69 48.5t-35.5 76t-10 99.5v54q0 54 12 98.5t38.5 76t69 48.5t104.5 17
q154 0 195 -109q47 109 184 109q51 0 88 -15.5t61 -43t35 -65t11 -82.5v-29q0 -30 -8.5 -42t-37.5 -12h-305zM450 285q0 49 -8.5 84t-27.5 57.5t-50.5 33.5t-76.5 11q-47 0 -78 -11.5t-49.5 -35t-26.5 -60t-8 -86.5v-44q0 -51 8 -87.5t26.5 -60t49.5 -34.5t78 -11
q46 0 77.5 11t50.5 34.5t27 60t8 86.5v52zM662 471q-38 0 -66.5 -10t-47.5 -32.5t-28.5 -58.5t-9.5 -89h294v35q0 35 -7 63.5t-23.5 49t-44 31.5t-67.5 11z" />
    <glyph glyph-name="Ydieresis" unicode="&#x178;" horiz-adv-x="591" 
d="M295 356l209 356h67l-246 -416v-296h-63v295l-242 417h71zM214 872q43 0 43 -44q0 -43 -43 -43t-43 43q0 44 43 44zM377 872q43 0 43 -44q0 -43 -43 -43t-43 43q0 44 43 44z" />
    <glyph glyph-name="uni00A0" unicode="&#xa0;" horiz-adv-x="250" 
 />
    <glyph glyph-name="exclamdown" unicode="&#xa1;" horiz-adv-x="266" 
d="M158 335l5 -178q0 -12 0.5 -41t0.5 -61v-257h-63v198q0 28 0.5 59.5t1 60.5t0.5 41l5 178h50zM133 516q46 0 46 -46q0 -47 -46 -47t-46 47q0 46 46 46z" />
    <glyph glyph-name="cent" unicode="&#xa2;" horiz-adv-x="586" 
d="M300 -2q-56 4 -94 22t-61.5 49t-34 75t-10.5 100v42q0 110 46.5 173.5t153.5 74.5v75h48v-72q69 0 124 -20l-13 -48q-50 14 -111 14v-434q27 0 61 4t64 10l-9 -48q-22 -8 -52.5 -13t-63.5 -6v-74h-48v76zM164 252q0 -49 7 -84.5t22.5 -60t41.5 -38t65 -18.5v429
q-37 -5 -62.5 -17.5t-42 -36t-24 -60t-7.5 -87.5v-27z" />
    <glyph glyph-name="sterling" unicode="&#xa3;" horiz-adv-x="586" 
d="M490 628q-26 8 -56.5 12.5t-58.5 4.5q-54 0 -89 -11.5t-55.5 -38t-29 -70t-8.5 -108.5v-43h240l-10 -52h-230v-270h316l-9 -52h-444l10 52h65v270h-74l9 52h65v42q0 70 12 123t40.5 88.5t75.5 53t117 17.5q32 0 65.5 -5.5t60.5 -15.5z" />
    <glyph glyph-name="currency" unicode="&#xa4;" horiz-adv-x="586" 
d="M56 141l73 72q-20 26 -31.5 58.5t-11.5 70.5t11.5 71t32.5 59l-74 71l37 36l74 -73q26 20 57.5 30.5t68.5 10.5q73 0 126 -42l74 74l36 -36l-73 -72q20 -26 32 -58.5t12 -69.5q0 -38 -12 -71.5t-32 -59.5l72 -71l-36 -36l-73 73q-52 -41 -126 -41q-37 0 -69 10.5
t-58 30.5l-73 -72zM138 342q0 -33 10.5 -61t30.5 -49t49 -33t65 -12t64.5 12t48.5 33t30.5 49t10.5 61t-10.5 61.5t-30.5 49t-48.5 32.5t-64.5 12t-65 -12t-49 -32.5t-30.5 -49t-10.5 -61.5z" />
    <glyph glyph-name="yen" unicode="&#xa5;" horiz-adv-x="586" 
d="M97 349h136l-201 334h69l190 -324l195 324h68l-205 -334h146l-10 -52h-163v-79h173l-10 -52h-163v-166h-63v166h-172l10 52h162v79h-172z" />
    <glyph glyph-name="brokenbar" unicode="&#xa6;" horiz-adv-x="242" 
d="M90 420v323h62v-323h-62zM152 149v-324h-62v324h62z" />
    <glyph glyph-name="section" unicode="&#xa7;" horiz-adv-x="570" 
d="M250 -158q-47 0 -93.5 8.5t-84.5 24.5l13 49q38 -14 81.5 -21t87.5 -7q172 0 172 117q0 45 -30.5 70.5t-96.5 31.5l-66 6q-87 8 -126 46.5t-39 107.5v6q0 47 27 82.5t66 52.5q-40 17 -60 50t-20 77v8q0 41 18 71.5t49 50.5t73.5 30t92.5 10q44 0 82 -7t79 -21l-16 -51
q-36 12 -71.5 18t-77.5 6q-85 0 -126 -27t-41 -84q0 -42 25 -67.5t92 -33.5l70 -8q39 -5 69.5 -14.5t51.5 -26.5t32.5 -43.5t11.5 -64.5v-5q0 -43 -24.5 -82t-66.5 -59q45 -19 64.5 -51.5t19.5 -74.5v-7q0 -37 -15.5 -67.5t-45.5 -53t-74.5 -35t-102.5 -12.5zM435 287
q0 49 -29 69.5t-86 27.5l-56 7q-6 1 -12 1h-10q-48 0 -80.5 -28.5t-32.5 -82.5q0 -50 27.5 -75t82.5 -31l27 -3q17 -2 29.5 -2.5t17.5 -0.5q60 0 91 31.5t31 86.5z" />
    <glyph glyph-name="dieresis" unicode="&#xa8;" horiz-adv-x="500" 
d="M172 705q43 0 43 -42q0 -45 -43 -45t-43 43q0 44 43 44zM328 705q43 0 43 -44q0 -43 -43 -43t-43 44q0 43 43 43z" />
    <glyph glyph-name="copyright" unicode="&#xa9;" horiz-adv-x="873" 
d="M439 734q84 0 154.5 -28t121.5 -78.5t79.5 -119.5t28.5 -150q0 -83 -29.5 -152.5t-81.5 -119.5t-123 -78.5t-154 -28.5q-85 0 -155.5 28t-121.5 78.5t-79.5 119.5t-28.5 151t29.5 151t81.5 119.5t123.5 79t154.5 28.5zM435 25q74 0 136 24.5t107 68.5t70.5 105t25.5 133
t-24.5 132.5t-68.5 104.5t-106 69t-137 25q-74 0 -136 -25t-107 -69t-70.5 -104.5t-25.5 -132.5t24.5 -133t69 -105t106 -68.5t136.5 -24.5zM259 383q0 101 52 151t152 50q25 0 49.5 -4.5t42.5 -11.5l-9 -41q-16 5 -38 7.5t-41 2.5q-41 0 -70.5 -8t-48.5 -26.5t-28 -50
t-9 -78.5v-30q0 -46 8.5 -77.5t27.5 -51t49 -28.5t74 -9q24 0 45 3t43 8l-6 -43q-19 -6 -44.5 -10t-48.5 -4q-54 0 -92 14t-62 40t-35 63.5t-11 84.5v49z" />
    <glyph glyph-name="ordfeminine" unicode="&#xaa;" horiz-adv-x="377" 
d="M172 426q46 0 71 19.5t25 50.5v7q0 65 -88 65h-6q-42 0 -62.5 -16t-20.5 -54v-5q0 -35 18.5 -51t62.5 -16zM269 600q0 51 -22.5 75t-74.5 24q-25 0 -50 -4t-48 -9l7 42q21 6 45.5 10t51.5 4q139 0 139 -133v-215h-43l-4 31q-18 -21 -46 -30.5t-60 -9.5q-60 0 -90.5 24.5
t-30.5 77.5v10q0 109 130 109q30 0 54.5 -6.5t41.5 -20.5v21z" />
    <glyph glyph-name="guillemotleft" unicode="&#xab;" horiz-adv-x="514" 
d="M237 463v-64l-150 -140l150 -140v-63l-199 180v47zM456 463v-64l-150 -140l150 -140v-63l-199 180v47z" />
    <glyph glyph-name="logicalnot" unicode="&#xac;" horiz-adv-x="586" 
d="M488 440v-226h-57v173h-352v53h409z" />
    <glyph glyph-name="uni00AD" unicode="&#xad;" horiz-adv-x="398" 
d="M50 260v55h298v-55h-298z" />
    <glyph glyph-name="registered" unicode="&#xae;" horiz-adv-x="579" 
d="M353 354l-60 104h-52v-104h-41v268h102q41 0 64 -19.5t23 -59.5v-8q0 -29 -13.5 -46t-37.5 -23l66 -112h-51zM241 495h48q29 0 43.5 9t14.5 31v6q0 26 -13.5 35.5t-36.5 9.5h-56v-91zM289 242q-53 0 -98.5 18.5t-79 51.5t-52.5 77.5t-19 96.5t19 96.5t52.5 77.5
t79.5 51.5t99 18.5t98.5 -18.5t79 -51t52.5 -77t19 -96.5q0 -53 -19 -97.5t-52.5 -77.5t-79.5 -51.5t-99 -18.5zM290 282q44 0 82 15.5t65.5 42.5t43 64.5t15.5 81.5t-15.5 81.5t-43.5 64.5t-65.5 42.5t-82.5 15.5q-44 0 -82 -15.5t-65.5 -42.5t-43 -64.5t-15.5 -81.5
t15.5 -81.5t43.5 -64.5t65.5 -42.5t82.5 -15.5z" />
    <glyph glyph-name="macron" unicode="&#xaf;" horiz-adv-x="500" 
d="M127 679h249v-48h-249v48z" />
    <glyph glyph-name="degree" unicode="&#xb0;" horiz-adv-x="381" 
d="M191 748q33 0 61 -12t48 -32t31.5 -47t11.5 -58q0 -32 -11.5 -59t-31.5 -46.5t-48 -31t-61 -11.5t-61 11t-48.5 30.5t-32 46.5t-11.5 60q0 32 11.5 59t32 47t48.5 31.5t61 11.5zM191 496q45 0 74.5 28t29.5 75q0 46 -29.5 75t-74.5 29t-75 -29t-30 -75t29.5 -74.5
t75.5 -28.5z" />
    <glyph glyph-name="plusminus" unicode="&#xb1;" horiz-adv-x="586" 
d="M493 56v-55h-412v55h412zM323 384h182v-54h-182v-187h-59v187h-183v54h183v186h59v-186z" />
    <glyph glyph-name="acute" unicode="&#xb4;" horiz-adv-x="500" 
d="M280 733h72l-142 -141h-60z" />
    <glyph glyph-name="mu" unicode="&#xb5;" horiz-adv-x="577" 
d="M285 -12q-55 0 -91 18t-53 45v-283h-61v743h61v-304q0 -85 35.5 -125.5t110.5 -40.5q72 0 110.5 41t38.5 126v303h61v-511h-52l-7 74q-22 -40 -62.5 -63t-90.5 -23z" />
    <glyph glyph-name="paragraph" unicode="&#xb6;" horiz-adv-x="678" 
d="M48 519q0 37 12.5 72t38 62t63.5 43.5t88 16.5h336v-900h-55v852h-144v-852h-56v478h-67q-59 0 -100.5 18t-67 46.5t-37 63.5t-11.5 69v31z" />
    <glyph glyph-name="periodcentered" unicode="&#xb7;" horiz-adv-x="266" 
d="M133 408q46 0 46 -48q0 -47 -46 -47t-46 47q0 48 46 48z" />
    <glyph glyph-name="cedilla" unicode="&#xb8;" horiz-adv-x="500" 
d="M251 0l-14 -51q42 -8 65.5 -26.5t23.5 -53.5q0 -39 -29 -62t-77 -23q-23 0 -42.5 5t-32.5 13l12 37q11 -5 26.5 -9t33.5 -4q58 0 58 42q0 15 -7 24t-19 14t-28 7.5t-35 4.5l23 82h42z" />
    <glyph glyph-name="ordmasculine" unicode="&#xba;" horiz-adv-x="403" 
d="M45 582q0 77 41 118.5t117 41.5q75 0 115 -41t40 -117v-36q0 -77 -40.5 -120t-117.5 -43q-75 0 -115 41.5t-40 117.5v38zM97 549q0 -61 25 -90.5t79 -29.5q55 0 80 30t25 90v30q0 60 -25 90t-79 30t-79.5 -30t-25.5 -91v-29z" />
    <glyph glyph-name="guillemotright" unicode="&#xbb;" horiz-adv-x="514" 
d="M277 56v63l150 140l-150 140v64l199 -180v-47zM58 56v63l150 140l-150 140v64l199 -180v-47z" />
    <glyph glyph-name="onequarter" unicode="&#xbc;" horiz-adv-x="960" 
d="M675 683h63l-420 -683h-63zM875 87h-44v-87h-51v87h-190v42l165 264h60l-163 -258h128v113l51 10v-123h52zM100 291l7 49h96v289l-108 -35l2 47l116 42h47v-343h99l-9 -49h-250z" />
    <glyph glyph-name="onehalf" unicode="&#xbd;" horiz-adv-x="960" 
d="M659 683h63l-420 -683h-63zM668 51h202l-8 -51h-251v64q0 61 23.5 92.5t68.5 48.5l51 20q34 14 45 29.5t11 38.5q0 30 -21 43.5t-64 13.5q-56 0 -115 -22l6 52q23 9 52.5 15t60.5 6q66 0 102 -26.5t36 -76.5v-5q0 -25 -6.5 -43t-18.5 -31t-28 -22t-35 -16l-51 -19
q-32 -12 -46 -33.5t-14 -53.5v-24zM100 291l7 49h96v289l-108 -35l2 47l116 42h47v-343h99l-9 -49h-250z" />
    <glyph glyph-name="threequarters" unicode="&#xbe;" horiz-adv-x="960" 
d="M676 683h63l-420 -683h-63zM875 87h-44v-87h-51v87h-190v42l165 264h60l-163 -258h128v113l51 10v-123h52zM145 520h68q39 0 56 16t17 44q0 32 -22.5 46.5t-63.5 14.5q-24 0 -54 -6t-58 -15l6 51q23 9 52 15t56 6q66 0 103 -27.5t37 -78.5v-5q0 -59 -50 -84
q24 -11 38 -35.5t14 -56.5v-7q0 -55 -40 -85t-113 -30q-32 0 -64 6.5t-55 16.5l14 48q23 -10 50 -14.5t56 -4.5q51 0 74 17t23 51q0 12 -3 24t-11.5 21.5t-23.5 15.5t-39 6h-75z" />
    <glyph glyph-name="questiondown" unicode="&#xbf;" horiz-adv-x="492" 
d="M289 -156q45 0 90.5 9.5t80.5 23.5l-9 -56q-34 -14 -78.5 -23t-90.5 -9q-111 0 -169.5 48.5t-58.5 134.5q0 36 7.5 62t21 45t31.5 32.5t38 22.5l32 15q27 13 44 24t26.5 26t13.5 36.5t5 54.5l2 45h49q0 -6 1 -21.5t1 -23.5q0 -34 -3 -60.5t-13.5 -48t-30 -38.5t-52.5 -32
l-36 -16q-17 -8 -30 -17t-22.5 -22.5t-14.5 -33.5t-5 -49q0 -65 45 -97t125 -32zM299 423q-47 0 -47 47q0 46 47 46q45 0 45 -46q0 -47 -45 -47z" />
    <glyph glyph-name="Agrave" unicode="&#xc0;" horiz-adv-x="639" 
d="M469 217h-305l-75 -217h-64l254 712h77l258 -712h-69zM184 275h265l-133 376zM370 773h-69l-161 122h83z" />
    <glyph glyph-name="Aacute" unicode="&#xc1;" horiz-adv-x="639" 
d="M469 217h-305l-75 -217h-64l254 712h77l258 -712h-69zM184 275h265l-133 376zM400 895h83l-161 -122h-70z" />
    <glyph glyph-name="Acircumflex" unicode="&#xc2;" horiz-adv-x="639" 
d="M469 217h-305l-75 -217h-64l254 712h77l258 -712h-69zM184 275h265l-133 376zM285 895h60l131 -122h-66l-95 80l-96 -80h-65z" />
    <glyph glyph-name="Atilde" unicode="&#xc3;" horiz-adv-x="639" 
d="M469 217h-305l-75 -217h-64l254 712h77l258 -712h-69zM184 275h265l-133 376zM488 880q0 -113 -82 -113q-20 0 -39 7.5t-42 20.5l-44 24q-31 17 -47 17q-18 0 -26.5 -16.5t-8.5 -46.5h-47q0 113 82 113q20 0 39 -7.5t42 -20.5l44 -24q17 -9 26.5 -13t20.5 -4
q18 0 26.5 16.5t8.5 46.5h47z" />
    <glyph glyph-name="Adieresis" unicode="&#xc4;" horiz-adv-x="639" 
d="M469 217h-305l-75 -217h-64l254 712h77l258 -712h-69zM184 275h265l-133 376zM235 872q43 0 43 -44q0 -43 -43 -43t-43 43q0 44 43 44zM398 872q43 0 43 -44q0 -43 -43 -43t-43 43q0 44 43 44z" />
    <glyph glyph-name="Aring" unicode="&#xc5;" horiz-adv-x="639" 
d="M420 783q0 -31 -15.5 -55t-41.5 -36l251 -692h-69l-76 217h-305l-75 -217h-64l246 691q-26 11 -41.5 36t-15.5 56q0 24 9 43t23.5 32t33 19.5t37.5 6.5q21 0 39.5 -7t32.5 -19.5t22.5 -31.5t8.5 -43zM184 275h265l-133 376zM378 783q0 29 -17 46.5t-44 17.5t-44 -17.5
t-17 -46.5t17 -46t44 -17t44 17t17 46z" />
    <glyph glyph-name="AE" unicode="&#xc6;" horiz-adv-x="962" 
d="M908 712l-10 -55h-352v-259h329l-10 -57h-319v-286h362l-10 -55h-416v217h-263l-126 -217h-68l416 712h467zM251 273h231v384h-7z" />
    <glyph glyph-name="Ccedilla" unicode="&#xc7;" horiz-adv-x="558" 
d="M375 666q-66 0 -111.5 -12.5t-73 -44.5t-40 -86t-12.5 -138v-64q0 -81 12 -133.5t40 -84t73 -44t110 -12.5q15 0 33 1t35.5 3t33.5 4.5t27 4.5l-11 -53q-27 -7 -58.5 -12t-63.5 -5q-11 0 -21.5 0.5t-21.5 1.5l-11 -42q46 -6 72.5 -25.5t26.5 -53.5q0 -42 -29.5 -65.5
t-82.5 -23.5q-26 0 -46.5 5.5t-32.5 13.5l12 38q13 -6 28.5 -10t35.5 -4q34 0 49 11.5t15 34.5q0 13 -8 21.5t-22 14t-32 8t-37 4.5l22 77q-65 9 -106.5 34t-65 66t-32.5 96.5t-9 126.5v69q0 84 14.5 147t49 104.5t92 62t143.5 20.5q40 0 75 -6.5t61 -15.5l-12 -50
q-26 6 -58.5 11t-62.5 5z" />
    <glyph glyph-name="Egrave" unicode="&#xc8;" horiz-adv-x="572" 
d="M518 712l-10 -55h-352v-259h329l-10 -57h-319v-286h362l-10 -55h-416v712h426zM386 773h-69l-161 122h83z" />
    <glyph glyph-name="Eacute" unicode="&#xc9;" horiz-adv-x="572" 
d="M518 712l-10 -55h-352v-259h329l-10 -57h-319v-286h362l-10 -55h-416v712h426zM365 895h83l-161 -122h-70z" />
    <glyph glyph-name="Ecircumflex" unicode="&#xca;" horiz-adv-x="572" 
d="M518 712l-10 -55h-352v-259h329l-10 -57h-319v-286h362l-10 -55h-416v712h426zM275 895h60l131 -122h-66l-95 80l-96 -80h-65z" />
    <glyph glyph-name="Edieresis" unicode="&#xcb;" horiz-adv-x="572" 
d="M518 712l-10 -55h-352v-259h329l-10 -57h-319v-286h362l-10 -55h-416v712h426zM219 872q43 0 43 -44q0 -43 -43 -43t-43 43q0 44 43 44zM382 872q43 0 43 -44q0 -43 -43 -43t-43 43q0 44 43 44z" />
    <glyph glyph-name="Igrave" unicode="&#xcc;" horiz-adv-x="248" 
d="M156 712v-712h-64v712h64zM167 773h-69l-161 122h83z" />
    <glyph glyph-name="Iacute" unicode="&#xcd;" horiz-adv-x="248" 
d="M156 712v-712h-64v712h64zM225 895h83l-161 -122h-70z" />
    <glyph glyph-name="Icircumflex" unicode="&#xce;" horiz-adv-x="248" 
d="M156 712v-712h-64v712h64zM95 895h60l131 -122h-66l-95 80l-96 -80h-65z" />
    <glyph glyph-name="Idieresis" unicode="&#xcf;" horiz-adv-x="248" 
d="M156 712v-712h-64v712h64zM43 872q43 0 43 -44q0 -43 -43 -43t-43 43q0 44 43 44zM206 872q43 0 43 -44q0 -43 -43 -43t-43 43q0 44 43 44z" />
    <glyph glyph-name="Eth" unicode="&#xd0;" horiz-adv-x="679" 
d="M95 329h-90v50h90v333h221q86 0 142 -23.5t89 -65t46 -98.5t13 -124v-90q0 -69 -14.5 -126t-48 -98.5t-89.5 -64t-140 -22.5h-219v329zM159 379h207v-50h-207v-273h152q56 0 99 12.5t72.5 42.5t44.5 80t15 125v80q0 73 -14 122.5t-42.5 80t-71.5 44t-101 13.5h-154v-277z
" />
    <glyph glyph-name="Ntilde" unicode="&#xd1;" horiz-adv-x="680" 
d="M157 712l371 -613v613h60v-712h-65l-371 613v-613h-60v712h65zM509 880q0 -113 -82 -113q-20 0 -39 7.5t-42 20.5l-44 24q-31 17 -47 17q-18 0 -26.5 -16.5t-8.5 -46.5h-47q0 113 82 113q20 0 39 -7.5t42 -20.5l44 -24q17 -9 26.5 -13t20.5 -4q18 0 26.5 16.5t8.5 46.5
h47z" />
    <glyph glyph-name="Ograve" unicode="&#xd2;" horiz-adv-x="680" 
d="M339 40q53 0 91.5 12t63 43t36.5 84t12 134v86q0 84 -12 137t-37 83t-63.5 41.5t-90.5 11.5q-51 0 -89 -11.5t-62.5 -42t-37 -83.5t-12.5 -136v-86q0 -81 11.5 -134t36 -84t62.5 -43t91 -12zM341 727q79 0 130.5 -21.5t81.5 -63.5t42 -102.5t12 -138.5v-90
q0 -75 -12 -135.5t-42.5 -103t-82.5 -65t-132 -22.5t-131 21.5t-81 63t-41.5 102t-11.5 139.5v90q0 74 12 134t42 103t82 66t132 23zM431 773h-69l-161 122h83z" />
    <glyph glyph-name="Oacute" unicode="&#xd3;" horiz-adv-x="680" 
d="M339 40q53 0 91.5 12t63 43t36.5 84t12 134v86q0 84 -12 137t-37 83t-63.5 41.5t-90.5 11.5q-51 0 -89 -11.5t-62.5 -42t-37 -83.5t-12.5 -136v-86q0 -81 11.5 -134t36 -84t62.5 -43t91 -12zM341 727q79 0 130.5 -21.5t81.5 -63.5t42 -102.5t12 -138.5v-90
q0 -75 -12 -135.5t-42.5 -103t-82.5 -65t-132 -22.5t-131 21.5t-81 63t-41.5 102t-11.5 139.5v90q0 74 12 134t42 103t82 66t132 23zM402 895h83l-161 -122h-70z" />
    <glyph glyph-name="Ocircumflex" unicode="&#xd4;" horiz-adv-x="680" 
d="M339 40q53 0 91.5 12t63 43t36.5 84t12 134v86q0 84 -12 137t-37 83t-63.5 41.5t-90.5 11.5q-51 0 -89 -11.5t-62.5 -42t-37 -83.5t-12.5 -136v-86q0 -81 11.5 -134t36 -84t62.5 -43t91 -12zM341 727q79 0 130.5 -21.5t81.5 -63.5t42 -102.5t12 -138.5v-90
q0 -75 -12 -135.5t-42.5 -103t-82.5 -65t-132 -22.5t-131 21.5t-81 63t-41.5 102t-11.5 139.5v90q0 74 12 134t42 103t82 66t132 23zM309 895h60l131 -122h-66l-95 80l-96 -80h-65z" />
    <glyph glyph-name="Otilde" unicode="&#xd5;" horiz-adv-x="680" 
d="M339 40q53 0 91.5 12t63 43t36.5 84t12 134v86q0 84 -12 137t-37 83t-63.5 41.5t-90.5 11.5q-51 0 -89 -11.5t-62.5 -42t-37 -83.5t-12.5 -136v-86q0 -81 11.5 -134t36 -84t62.5 -43t91 -12zM341 727q79 0 130.5 -21.5t81.5 -63.5t42 -102.5t12 -138.5v-90
q0 -75 -12 -135.5t-42.5 -103t-82.5 -65t-132 -22.5t-131 21.5t-81 63t-41.5 102t-11.5 139.5v90q0 74 12 134t42 103t82 66t132 23zM509 880q0 -113 -82 -113q-20 0 -39 7.5t-42 20.5l-44 24q-31 17 -47 17q-18 0 -26.5 -16.5t-8.5 -46.5h-47q0 113 82 113q20 0 39 -7.5
t42 -20.5l44 -24q17 -9 26.5 -13t20.5 -4q18 0 26.5 16.5t8.5 46.5h47z" />
    <glyph glyph-name="Odieresis" unicode="&#xd6;" horiz-adv-x="680" 
d="M339 40q53 0 91.5 12t63 43t36.5 84t12 134v86q0 84 -12 137t-37 83t-63.5 41.5t-90.5 11.5q-51 0 -89 -11.5t-62.5 -42t-37 -83.5t-12.5 -136v-86q0 -81 11.5 -134t36 -84t62.5 -43t91 -12zM341 727q79 0 130.5 -21.5t81.5 -63.5t42 -102.5t12 -138.5v-90
q0 -75 -12 -135.5t-42.5 -103t-82.5 -65t-132 -22.5t-131 21.5t-81 63t-41.5 102t-11.5 139.5v90q0 74 12 134t42 103t82 66t132 23zM259 872q43 0 43 -44q0 -43 -43 -43t-43 43q0 44 43 44zM422 872q43 0 43 -44q0 -43 -43 -43t-43 43q0 44 43 44z" />
    <glyph glyph-name="multiply" unicode="&#xd7;" horiz-adv-x="586" 
d="M293 381l144 144l41 -40l-145 -145l146 -145l-41 -41l-145 145l-144 -144l-41 40l144 145l-145 145l41 40z" />
    <glyph glyph-name="Oslash" unicode="&#xd8;" horiz-adv-x="680" 
d="M341 727q51 0 93.5 -10t74.5 -32l50 82l43 -26l-55 -91q29 -34 44.5 -92.5t15.5 -156.5v-90q0 -75 -12 -135.5t-42.5 -103t-82.5 -65t-132 -22.5q-56 0 -97.5 10.5t-71.5 30.5l-48 -79l-43 26l53 88q-33 42 -45.5 104.5t-12.5 145.5v90q0 74 12 134t42 103t82 66t132 23z
M339 40q54 0 92.5 12.5t63 43.5t36 84t11.5 133v86q0 130 -31 192l-310 -513q24 -21 58 -29.5t80 -8.5zM138 313q0 -128 30 -191l310 512q-24 21 -58.5 29.5t-80.5 8.5q-50 0 -87.5 -11t-63 -41t-38 -83.5t-12.5 -137.5v-86z" />
    <glyph glyph-name="Ugrave" unicode="&#xd9;" horiz-adv-x="674" 
d="M335 -15q-76 0 -125 18.5t-77.5 56t-39.5 92.5t-11 129v431h63v-432q0 -69 10.5 -115.5t34 -74t60.5 -39t90 -11.5q54 0 90 11.5t58 39.5t31.5 74t9.5 114v433h63v-432q0 -73 -11.5 -128.5t-40.5 -92.5t-79 -55.5t-126 -18.5zM420 773h-69l-161 122h83z" />
    <glyph glyph-name="Uacute" unicode="&#xda;" horiz-adv-x="674" 
d="M335 -15q-76 0 -125 18.5t-77.5 56t-39.5 92.5t-11 129v431h63v-432q0 -69 10.5 -115.5t34 -74t60.5 -39t90 -11.5q54 0 90 11.5t58 39.5t31.5 74t9.5 114v433h63v-432q0 -73 -11.5 -128.5t-40.5 -92.5t-79 -55.5t-126 -18.5zM393 895h83l-161 -122h-70z" />
    <glyph glyph-name="Ucircumflex" unicode="&#xdb;" horiz-adv-x="674" 
d="M335 -15q-76 0 -125 18.5t-77.5 56t-39.5 92.5t-11 129v431h63v-432q0 -69 10.5 -115.5t34 -74t60.5 -39t90 -11.5q54 0 90 11.5t58 39.5t31.5 74t9.5 114v433h63v-432q0 -73 -11.5 -128.5t-40.5 -92.5t-79 -55.5t-126 -18.5zM307 895h60l131 -122h-66l-95 80l-96 -80
h-65z" />
    <glyph glyph-name="Udieresis" unicode="&#xdc;" horiz-adv-x="674" 
d="M335 -15q-76 0 -125 18.5t-77.5 56t-39.5 92.5t-11 129v431h63v-432q0 -69 10.5 -115.5t34 -74t60.5 -39t90 -11.5q54 0 90 11.5t58 39.5t31.5 74t9.5 114v433h63v-432q0 -73 -11.5 -128.5t-40.5 -92.5t-79 -55.5t-126 -18.5zM256 872q43 0 43 -44q0 -43 -43 -43t-43 43
q0 44 43 44zM419 872q43 0 43 -44q0 -43 -43 -43t-43 43q0 44 43 44z" />
    <glyph glyph-name="Yacute" unicode="&#xdd;" horiz-adv-x="591" 
d="M295 356l209 356h67l-246 -416v-296h-63v295l-242 417h71zM374 895h83l-161 -122h-70z" />
    <glyph glyph-name="Thorn" unicode="&#xde;" horiz-adv-x="589" 
d="M155 152v-152h-63v712h63v-136h193q52 0 90.5 -15t63.5 -41.5t37 -63t12 -79.5v-25q0 -41 -11.5 -77t-37 -63.5t-68 -43.5t-103.5 -16h-176zM155 206h172q84 0 121.5 35t37.5 111v19q0 76 -35 113t-114 37h-182v-315z" />
    <glyph glyph-name="germandbls" unicode="&#xdf;" horiz-adv-x="574" 
d="M242 54q14 -4 37.5 -6.5t43.5 -2.5q69 0 104.5 39t35.5 124q0 38 -8 68t-27 50.5t-50.5 31.5t-78.5 11h-58l8 52h37q33 0 60.5 9t47.5 27t31.5 45t11.5 63v7q0 62 -36 94t-103 32q-36 0 -65 -10t-49 -32t-31 -58t-11 -87v-511h-62v508q0 119 56 180.5t164 61.5
q95 0 145.5 -46.5t50.5 -132.5v-7q0 -56 -23.5 -98t-72.5 -62q60 -18 92 -63.5t32 -120.5v-20q0 -40 -10.5 -77t-34 -66t-61.5 -46.5t-93 -17.5q-23 0 -50 3.5t-43 8.5z" />
    <glyph glyph-name="agrave" unicode="&#xe0;" horiz-adv-x="535" 
d="M110 151q0 -58 30.5 -84t103.5 -26q43 0 73 9t48.5 24.5t27 37t8.5 46.5v8q0 30 -11 50t-30 32t-45 17t-56 5h-16q-39 0 -64.5 -7.5t-41 -22t-21.5 -35t-6 -47.5v-7zM50 157q0 83 49.5 121.5t150.5 38.5q52 0 91 -12t60 -36v50q0 82 -39.5 117t-121.5 35q-35 0 -73 -5
t-70 -12l10 49q27 8 64.5 14t74.5 6q48 0 87 -10.5t67.5 -33.5t44 -60t15.5 -89v-330h-53l-5 60q-26 -37 -66 -53.5t-96 -16.5q-94 0 -142 37t-48 118v12zM341 592h-60l-142 141h72z" />
    <glyph glyph-name="aacute" unicode="&#xe1;" horiz-adv-x="535" 
d="M110 151q0 -58 30.5 -84t103.5 -26q43 0 73 9t48.5 24.5t27 37t8.5 46.5v8q0 30 -11 50t-30 32t-45 17t-56 5h-16q-39 0 -64.5 -7.5t-41 -22t-21.5 -35t-6 -47.5v-7zM50 157q0 83 49.5 121.5t150.5 38.5q52 0 91 -12t60 -36v50q0 82 -39.5 117t-121.5 35q-35 0 -73 -5
t-70 -12l10 49q27 8 64.5 14t74.5 6q48 0 87 -10.5t67.5 -33.5t44 -60t15.5 -89v-330h-53l-5 60q-26 -37 -66 -53.5t-96 -16.5q-94 0 -142 37t-48 118v12zM323 733h72l-142 -141h-60z" />
    <glyph glyph-name="acircumflex" unicode="&#xe2;" horiz-adv-x="535" 
d="M110 151q0 -58 30.5 -84t103.5 -26q43 0 73 9t48.5 24.5t27 37t8.5 46.5v8q0 30 -11 50t-30 32t-45 17t-56 5h-16q-39 0 -64.5 -7.5t-41 -22t-21.5 -35t-6 -47.5v-7zM50 157q0 83 49.5 121.5t150.5 38.5q52 0 91 -12t60 -36v50q0 82 -39.5 117t-121.5 35q-35 0 -73 -5
t-70 -12l10 49q27 8 64.5 14t74.5 6q48 0 87 -10.5t67.5 -33.5t44 -60t15.5 -89v-330h-53l-5 60q-26 -37 -66 -53.5t-96 -16.5q-94 0 -142 37t-48 118v12zM292 733l132 -141h-59l-101 99l-101 -99h-59l132 141h56z" />
    <glyph glyph-name="atilde" unicode="&#xe3;" horiz-adv-x="535" 
d="M110 151q0 -58 30.5 -84t103.5 -26q43 0 73 9t48.5 24.5t27 37t8.5 46.5v8q0 30 -11 50t-30 32t-45 17t-56 5h-16q-39 0 -64.5 -7.5t-41 -22t-21.5 -35t-6 -47.5v-7zM50 157q0 83 49.5 121.5t150.5 38.5q52 0 91 -12t60 -36v50q0 82 -39.5 117t-121.5 35q-35 0 -73 -5
t-70 -12l10 49q27 8 64.5 14t74.5 6q48 0 87 -10.5t67.5 -33.5t44 -60t15.5 -89v-330h-53l-5 60q-26 -37 -66 -53.5t-96 -16.5q-94 0 -142 37t-48 118v12zM235 655q-13 8 -24 12.5t-21 4.5q-35 0 -35 -57h-41q0 52 19.5 78t54.5 26q14 0 29 -5t35 -16l41 -23
q17 -10 30.5 -16t24.5 -6q34 0 34 58h41q0 -54 -20 -79t-56 -25q-17 0 -33.5 6t-37.5 18z" />
    <glyph glyph-name="adieresis" unicode="&#xe4;" horiz-adv-x="535" 
d="M110 151q0 -58 30.5 -84t103.5 -26q43 0 73 9t48.5 24.5t27 37t8.5 46.5v8q0 30 -11 50t-30 32t-45 17t-56 5h-16q-39 0 -64.5 -7.5t-41 -22t-21.5 -35t-6 -47.5v-7zM50 157q0 83 49.5 121.5t150.5 38.5q52 0 91 -12t60 -36v50q0 82 -39.5 117t-121.5 35q-35 0 -73 -5
t-70 -12l10 49q27 8 64.5 14t74.5 6q48 0 87 -10.5t67.5 -33.5t44 -60t15.5 -89v-330h-53l-5 60q-26 -37 -66 -53.5t-96 -16.5q-94 0 -142 37t-48 118v12zM180 705q43 0 43 -42q0 -45 -43 -45t-43 43q0 44 43 44zM336 705q43 0 43 -44q0 -43 -43 -43t-43 44q0 43 43 43z" />
    <glyph glyph-name="aring" unicode="&#xe5;" horiz-adv-x="535" 
d="M110 151q0 -58 30.5 -84t103.5 -26q43 0 73 9t48.5 24.5t27 37t8.5 46.5v8q0 30 -11 50t-30 32t-45 17t-56 5h-16q-39 0 -64.5 -7.5t-41 -22t-21.5 -35t-6 -47.5v-7zM50 157q0 83 49.5 121.5t150.5 38.5q52 0 91 -12t60 -36v50q0 82 -39.5 117t-121.5 35q-35 0 -73 -5
t-70 -12l10 49q27 8 64.5 14t74.5 6q48 0 87 -10.5t67.5 -33.5t44 -60t15.5 -89v-330h-53l-5 60q-26 -37 -66 -53.5t-96 -16.5q-94 0 -142 37t-48 118v12zM370 691q0 -42 -29 -71.5t-74 -29.5t-74 29.5t-29 71.5t29 71.5t74 29.5t74 -28t29 -73zM328 691q0 29 -17 46.5
t-44 17.5t-44 -17.5t-17 -46.5t17 -46t44 -17t44 17t17 46z" />
    <glyph glyph-name="ae" unicode="&#xe6;" horiz-adv-x="873" 
d="M646 -12q-90 0 -141.5 27t-75.5 78q-12 -31 -32.5 -51t-46 -31.5t-54 -16t-56.5 -4.5q-97 0 -143.5 37.5t-46.5 115.5v13q0 83 49.5 122t150.5 39q52 0 91 -12t60 -36v50q0 37 -8 65.5t-27 47.5t-49.5 29t-76.5 10q-35 0 -74 -5t-69 -12l10 49q38 11 69.5 15.5t69.5 4.5
q72 0 120 -25.5t68 -76.5q23 49 68 75.5t114 26.5q51 0 88 -15.5t61 -43t35 -65t11 -82.5v-29q0 -32 -10 -43t-36 -11h-305q1 -53 10 -89.5t31.5 -60t60 -34t94.5 -10.5q33 0 69 5t57 10l-8 -49q-23 -8 -59 -13t-69 -5zM110 151q0 -58 30.5 -84t103.5 -26q43 0 73 9
t48.5 24.5t27 37t8.5 46.5v8q0 30 -11 50t-30 32t-45 17t-56 5h-16q-39 0 -64.5 -7.5t-41 -21.5t-21.5 -35t-6 -48v-7zM612 471q-78 0 -115 -43.5t-37 -146.5h294v35q0 75 -33 115t-109 40z" />
    <glyph glyph-name="ccedilla" unicode="&#xe7;" horiz-adv-x="472" 
d="M409 8q-24 -8 -55.5 -13t-57.5 -5q-8 0 -15 0.5t-14 0.5l-11 -42q42 -8 65.5 -26.5t23.5 -53.5q0 -39 -29 -62t-77 -23q-23 0 -42.5 5t-32.5 13l12 37q11 -5 26.5 -9t33.5 -4q58 0 58 42q0 15 -7 24t-19 14t-28 7.5t-35 4.5l22 78q-89 15 -126.5 75t-37.5 162v42
q0 58 13 104t42 77.5t75 48t111 16.5q28 0 58.5 -5t53.5 -13l-14 -49q-20 6 -46 10t-51 4q-48 0 -82 -10t-55.5 -33.5t-31.5 -61.5t-10 -95v-27q0 -55 10.5 -93t32.5 -61.5t57 -34t85 -10.5q25 0 51 4t55 10z" />
    <glyph glyph-name="egrave" unicode="&#xe8;" horiz-adv-x="536" 
d="M123 234q1 -53 10 -89.5t31.5 -60t60 -34t94.5 -10.5q31 0 66 4.5t60 10.5l-8 -49q-23 -8 -59.5 -13t-70.5 -5q-68 0 -115 15.5t-75.5 46t-41 76.5t-12.5 108v39q0 57 12 103t38 79t67 50.5t99 17.5q51 0 88 -15.5t61 -43t35 -65t11 -82.5v-29q0 -30 -8.5 -42t-37.5 -12
h-305zM275 471q-38 0 -66.5 -10t-47.5 -32.5t-28.5 -58.5t-9.5 -89h294v35q0 77 -34 116t-108 39zM354 592h-60l-142 141h72z" />
    <glyph glyph-name="eacute" unicode="&#xe9;" horiz-adv-x="536" 
d="M123 234q1 -53 10 -89.5t31.5 -60t60 -34t94.5 -10.5q31 0 66 4.5t60 10.5l-8 -49q-23 -8 -59.5 -13t-70.5 -5q-68 0 -115 15.5t-75.5 46t-41 76.5t-12.5 108v39q0 57 12 103t38 79t67 50.5t99 17.5q51 0 88 -15.5t61 -43t35 -65t11 -82.5v-29q0 -30 -8.5 -42t-37.5 -12
h-305zM275 471q-38 0 -66.5 -10t-47.5 -32.5t-28.5 -58.5t-9.5 -89h294v35q0 77 -34 116t-108 39zM327 733h72l-142 -141h-60z" />
    <glyph glyph-name="ecircumflex" unicode="&#xea;" horiz-adv-x="536" 
d="M123 234q1 -53 10 -89.5t31.5 -60t60 -34t94.5 -10.5q31 0 66 4.5t60 10.5l-8 -49q-23 -8 -59.5 -13t-70.5 -5q-68 0 -115 15.5t-75.5 46t-41 76.5t-12.5 108v39q0 57 12 103t38 79t67 50.5t99 17.5q51 0 88 -15.5t61 -43t35 -65t11 -82.5v-29q0 -30 -8.5 -42t-37.5 -12
h-305zM275 471q-38 0 -66.5 -10t-47.5 -32.5t-28.5 -58.5t-9.5 -89h294v35q0 77 -34 116t-108 39zM308 733l132 -141h-59l-101 99l-101 -99h-59l132 141h56z" />
    <glyph glyph-name="edieresis" unicode="&#xeb;" horiz-adv-x="536" 
d="M123 234q1 -53 10 -89.5t31.5 -60t60 -34t94.5 -10.5q31 0 66 4.5t60 10.5l-8 -49q-23 -8 -59.5 -13t-70.5 -5q-68 0 -115 15.5t-75.5 46t-41 76.5t-12.5 108v39q0 57 12 103t38 79t67 50.5t99 17.5q51 0 88 -15.5t61 -43t35 -65t11 -82.5v-29q0 -30 -8.5 -42t-37.5 -12
h-305zM275 471q-38 0 -66.5 -10t-47.5 -32.5t-28.5 -58.5t-9.5 -89h294v35q0 77 -34 116t-108 39zM203 705q43 0 43 -42q0 -45 -43 -45t-43 43q0 44 43 44zM359 705q43 0 43 -44q0 -43 -43 -43t-43 44q0 43 43 43z" />
    <glyph glyph-name="igrave" unicode="&#xec;" horiz-adv-x="222" 
d="M80 511h62v-511h-62v511zM159 592h-60l-142 141h72z" />
    <glyph glyph-name="iacute" unicode="&#xed;" horiz-adv-x="222" 
d="M80 511h62v-511h-62v511zM189 733h72l-142 -141h-60z" />
    <glyph glyph-name="icircumflex" unicode="&#xee;" horiz-adv-x="222" 
d="M80 511h62v-511h-62v511zM137 733l132 -141h-59l-101 99l-101 -99h-59l132 141h56z" />
    <glyph glyph-name="idieresis" unicode="&#xef;" horiz-adv-x="222" 
d="M80 511h62v-511h-62v511zM33 705q43 0 43 -42q0 -45 -43 -45t-43 43q0 44 43 44zM189 705q43 0 43 -44q0 -43 -43 -43t-43 44q0 43 43 43z" />
    <glyph glyph-name="eth" unicode="&#xf0;" horiz-adv-x="582" 
d="M215 610l131 34q-32 44 -72 79l37 38q26 -23 49 -48.5t42 -53.5l126 34l12 -46l-111 -29q41 -70 60.5 -152.5t19.5 -176.5q0 -82 -14.5 -139t-43 -93t-70.5 -52.5t-97 -16.5q-59 0 -101 17t-68.5 48t-39 73.5t-12.5 92.5v35q0 57 15.5 102.5t44.5 77.5t69.5 49.5
t90.5 17.5q52 0 93 -19.5t63 -54.5q-9 47 -25.5 91t-40.5 85l-147 -38zM284 41q85 0 124.5 56.5t39.5 169.5q0 53 -14 88t-36.5 56t-51 29.5t-57.5 8.5q-81 0 -122.5 -51t-41.5 -143v-31q0 -90 40 -136.5t119 -46.5z" />
    <glyph glyph-name="ntilde" unicode="&#xf1;" horiz-adv-x="575" 
d="M80 0v511h52l8 -72q23 38 67.5 61t109.5 23q89 0 136 -46t47 -137v-340h-61v310q0 85 -31 122t-107 37q-82 0 -121 -41t-39 -127v-301h-61zM266 655q-13 8 -24 12.5t-21 4.5q-35 0 -35 -57h-41q0 52 19.5 78t54.5 26q14 0 29 -5t35 -16l41 -23q17 -10 30.5 -16t24.5 -6
q34 0 34 58h41q0 -54 -20 -79t-56 -25q-17 0 -33.5 6t-37.5 18z" />
    <glyph glyph-name="ograve" unicode="&#xf2;" horiz-adv-x="573" 
d="M287 523q65 0 108 -16.5t68.5 -48t36 -76t10.5 -99.5v-54q0 -55 -12 -99.5t-38 -76t-69 -48.5t-104 -17q-65 0 -108 16.5t-69 48t-36.5 76t-10.5 100.5v54q0 55 12.5 99.5t39.5 76t69.5 48t102.5 16.5zM287 41q45 0 76 10.5t50 34t27 60t8 87.5v45q0 53 -8.5 89.5
t-27.5 59.5t-50 33.5t-75 10.5q-45 0 -76 -11t-50 -34t-27 -60t-8 -88v-44q0 -52 8 -88.5t27 -60t50 -34t76 -10.5zM367 592h-60l-142 141h72z" />
    <glyph glyph-name="oacute" unicode="&#xf3;" horiz-adv-x="573" 
d="M287 523q65 0 108 -16.5t68.5 -48t36 -76t10.5 -99.5v-54q0 -55 -12 -99.5t-38 -76t-69 -48.5t-104 -17q-65 0 -108 16.5t-69 48t-36.5 76t-10.5 100.5v54q0 55 12.5 99.5t39.5 76t69.5 48t102.5 16.5zM287 41q45 0 76 10.5t50 34t27 60t8 87.5v45q0 53 -8.5 89.5
t-27.5 59.5t-50 33.5t-75 10.5q-45 0 -76 -11t-50 -34t-27 -60t-8 -88v-44q0 -52 8 -88.5t27 -60t50 -34t76 -10.5zM352 733h72l-142 -141h-60z" />
    <glyph glyph-name="ocircumflex" unicode="&#xf4;" horiz-adv-x="573" 
d="M287 523q65 0 108 -16.5t68.5 -48t36 -76t10.5 -99.5v-54q0 -55 -12 -99.5t-38 -76t-69 -48.5t-104 -17q-65 0 -108 16.5t-69 48t-36.5 76t-10.5 100.5v54q0 55 12.5 99.5t39.5 76t69.5 48t102.5 16.5zM287 41q45 0 76 10.5t50 34t27 60t8 87.5v45q0 53 -8.5 89.5
t-27.5 59.5t-50 33.5t-75 10.5q-45 0 -76 -11t-50 -34t-27 -60t-8 -88v-44q0 -52 8 -88.5t27 -60t50 -34t76 -10.5zM315 733l132 -141h-59l-101 99l-101 -99h-59l132 141h56z" />
    <glyph glyph-name="otilde" unicode="&#xf5;" horiz-adv-x="573" 
d="M287 523q65 0 108 -16.5t68.5 -48t36 -76t10.5 -99.5v-54q0 -55 -12 -99.5t-38 -76t-69 -48.5t-104 -17q-65 0 -108 16.5t-69 48t-36.5 76t-10.5 100.5v54q0 55 12.5 99.5t39.5 76t69.5 48t102.5 16.5zM287 41q45 0 76 10.5t50 34t27 60t8 87.5v45q0 53 -8.5 89.5
t-27.5 59.5t-50 33.5t-75 10.5q-45 0 -76 -11t-50 -34t-27 -60t-8 -88v-44q0 -52 8 -88.5t27 -60t50 -34t76 -10.5zM253 655q-13 8 -24 12.5t-21 4.5q-35 0 -35 -57h-41q0 52 19.5 78t54.5 26q14 0 29 -5t35 -16l41 -23q17 -10 30.5 -16t24.5 -6q34 0 34 58h41
q0 -54 -20 -79t-56 -25q-17 0 -33.5 6t-37.5 18z" />
    <glyph glyph-name="odieresis" unicode="&#xf6;" horiz-adv-x="573" 
d="M287 523q65 0 108 -16.5t68.5 -48t36 -76t10.5 -99.5v-54q0 -55 -12 -99.5t-38 -76t-69 -48.5t-104 -17q-65 0 -108 16.5t-69 48t-36.5 76t-10.5 100.5v54q0 55 12.5 99.5t39.5 76t69.5 48t102.5 16.5zM287 41q45 0 76 10.5t50 34t27 60t8 87.5v45q0 53 -8.5 89.5
t-27.5 59.5t-50 33.5t-75 10.5q-45 0 -76 -11t-50 -34t-27 -60t-8 -88v-44q0 -52 8 -88.5t27 -60t50 -34t76 -10.5zM209 705q43 0 43 -42q0 -45 -43 -45t-43 43q0 44 43 44zM365 705q43 0 43 -44q0 -43 -43 -43t-43 44q0 43 43 43z" />
    <glyph glyph-name="divide" unicode="&#xf7;" horiz-adv-x="586" 
d="M499 370v-54h-412v54h412zM294 551q44 0 44 -45q0 -44 -44 -44q-42 0 -42 44q0 45 42 45zM294 225q44 0 44 -45q0 -44 -44 -44q-42 0 -42 44q0 45 42 45z" />
    <glyph glyph-name="oslash" unicode="&#xf8;" horiz-adv-x="573" 
d="M287 523q42 0 74 -7t56 -20l51 76l40 -26l-53 -79q30 -32 42.5 -78t12.5 -106v-54q0 -55 -12 -99.5t-38 -76t-69 -48.5t-104 -17q-42 0 -74.5 7t-57.5 20l-46 -69l-39 26l48 72q-30 31 -42.5 78t-12.5 107v54q0 55 12.5 99.5t39.5 76t69.5 48t102.5 16.5zM287 41
q45 0 76 10.5t50 34t27 60t8 87.5v45q0 92 -28 136l-233 -351q35 -22 100 -22zM287 471q-45 0 -76 -11t-50 -34t-27 -60t-8 -88v-44q0 -46 6.5 -80t20.5 -57l233 352q-35 22 -99 22z" />
    <glyph glyph-name="ugrave" unicode="&#xf9;" horiz-adv-x="571" 
d="M491 511v-511h-52l-8 72q-26 -42 -71 -63t-105 -21q-89 0 -134.5 47t-45.5 136v340h61v-310q0 -86 31 -122.5t105 -36.5q81 0 119.5 41t38.5 127v301h61zM355 592h-60l-142 141h72z" />
    <glyph glyph-name="uacute" unicode="&#xfa;" horiz-adv-x="571" 
d="M491 511v-511h-52l-8 72q-26 -42 -71 -63t-105 -21q-89 0 -134.5 47t-45.5 136v340h61v-310q0 -86 31 -122.5t105 -36.5q81 0 119.5 41t38.5 127v301h61zM335 733h72l-142 -141h-60z" />
    <glyph glyph-name="ucircumflex" unicode="&#xfb;" horiz-adv-x="571" 
d="M491 511v-511h-52l-8 72q-26 -42 -71 -63t-105 -21q-89 0 -134.5 47t-45.5 136v340h61v-310q0 -86 31 -122.5t105 -36.5q81 0 119.5 41t38.5 127v301h61zM310 733l132 -141h-59l-101 99l-101 -99h-59l132 141h56z" />
    <glyph glyph-name="udieresis" unicode="&#xfc;" horiz-adv-x="571" 
d="M491 511v-511h-52l-8 72q-26 -42 -71 -63t-105 -21q-89 0 -134.5 47t-45.5 136v340h61v-310q0 -86 31 -122.5t105 -36.5q81 0 119.5 41t38.5 127v301h61zM201 705q43 0 43 -42q0 -45 -43 -45t-43 43q0 44 43 44zM357 705q43 0 43 -44q0 -43 -43 -43t-43 44q0 43 43 43z
" />
    <glyph glyph-name="yacute" unicode="&#xfd;" horiz-adv-x="548" 
d="M446 511h67l-224 -574q-21 -53 -40.5 -87t-40.5 -53.5t-45 -27t-53 -7.5q-21 0 -40 4t-35 10l11 46q11 -3 27 -5t30 -2q23 0 40.5 4.5t31.5 18t27.5 38.5t28.5 66l20 53l-216 516h68l179 -442zM334 733h72l-142 -141h-60z" />
    <glyph glyph-name="thorn" unicode="&#xfe;" horiz-adv-x="576" 
d="M451 265q0 48 -6.5 86t-24 64.5t-46.5 40t-74 13.5t-75.5 -11.5t-49 -34t-26.5 -55t-8 -75.5v-214q35 -19 67 -27.5t77 -8.5q47 0 78.5 12.5t51 37.5t28 62.5t8.5 86.5v23zM513 231q0 -63 -16 -108.5t-45 -75t-69 -43.5t-88 -14q-24 0 -43.5 2t-37.5 6.5t-35.5 11.5
t-37.5 17v-259h-61v975h60v-301q54 81 176 81q44 0 80.5 -13t62.5 -42t40 -76t14 -114v-47z" />
    <glyph glyph-name="ydieresis" unicode="&#xff;" horiz-adv-x="548" 
d="M446 511h67l-224 -574q-21 -53 -40.5 -87t-40.5 -53.5t-45 -27t-53 -7.5q-21 0 -40 4t-35 10l11 46q11 -3 27 -5t30 -2q23 0 40.5 4.5t31.5 18t27.5 38.5t28.5 66l20 53l-216 516h68l179 -442zM192 705q43 0 43 -42q0 -45 -43 -45t-43 43q0 44 43 44zM348 705
q43 0 43 -44q0 -43 -43 -43t-43 44q0 43 43 43z" />
    <glyph glyph-name="Amacron" unicode="&#x100;" horiz-adv-x="639" 
d="M469 217h-305l-75 -217h-64l254 712h77l258 -712h-69zM184 275h265l-133 376zM192 851h251v-51h-251v51z" />
    <glyph glyph-name="amacron" unicode="&#x101;" horiz-adv-x="535" 
d="M110 151q0 -58 30.5 -84t103.5 -26q43 0 73 9t48.5 24.5t27 37t8.5 46.5v8q0 30 -11 50t-30 32t-45 17t-56 5h-16q-39 0 -64.5 -7.5t-41 -22t-21.5 -35t-6 -47.5v-7zM50 157q0 83 49.5 121.5t150.5 38.5q52 0 91 -12t60 -36v50q0 82 -39.5 117t-121.5 35q-35 0 -73 -5
t-70 -12l10 49q27 8 64.5 14t74.5 6q48 0 87 -10.5t67.5 -33.5t44 -60t15.5 -89v-330h-53l-5 60q-26 -37 -66 -53.5t-96 -16.5q-94 0 -142 37t-48 118v12zM134 679h249v-48h-249v48z" />
    <glyph glyph-name="Abreve" unicode="&#x102;" horiz-adv-x="639" 
d="M469 217h-305l-75 -217h-64l254 712h77l258 -712h-69zM184 275h265l-133 376zM317 766q-131 0 -131 138h49q2 -94 82 -94q79 0 81 94h49q0 -138 -130 -138z" />
    <glyph glyph-name="abreve" unicode="&#x103;" horiz-adv-x="535" 
d="M110 151q0 -58 30.5 -84t103.5 -26q43 0 73 9t48.5 24.5t27 37t8.5 46.5v8q0 30 -11 50t-30 32t-45 17t-56 5h-16q-39 0 -64.5 -7.5t-41 -22t-21.5 -35t-6 -47.5v-7zM50 157q0 83 49.5 121.5t150.5 38.5q52 0 91 -12t60 -36v50q0 82 -39.5 117t-121.5 35q-35 0 -73 -5
t-70 -12l10 49q27 8 64.5 14t74.5 6q48 0 87 -10.5t67.5 -33.5t44 -60t15.5 -89v-330h-53l-5 60q-26 -37 -66 -53.5t-96 -16.5q-94 0 -142 37t-48 118v12zM264 632q39 0 60.5 23.5t23.5 70.5h47q0 -67 -34.5 -102.5t-96.5 -35.5t-96.5 35.5t-34.5 102.5h47q2 -47 23.5 -70.5
t60.5 -23.5z" />
    <glyph glyph-name="Aogonek" unicode="&#x104;" horiz-adv-x="639" 
d="M184 275h265l-133 376zM469 -118q0 33 19.5 62.5t56.5 55.5l-76 217h-305l-75 -217h-64l254 712h77l258 -712q-26 -15 -43 -29t-27 -27t-14 -24t-4 -20q0 -34 43 -34q17 0 44 8l-6 -45q-11 -5 -27.5 -8t-31.5 -3q-35 0 -57 16.5t-22 47.5z" />
    <glyph glyph-name="aogonek" unicode="&#x105;" horiz-adv-x="535" 
d="M50 157q0 83 49.5 121.5t150.5 38.5q52 0 91 -12t60 -36v50q0 82 -39.5 117t-121.5 35q-35 0 -73 -5t-70 -12l10 49q27 8 64.5 14t74.5 6q48 0 87 -10.5t67.5 -33.5t44 -60t15.5 -89v-330q-39 -23 -65 -48.5t-26 -55.5q0 -36 46 -36q20 0 44 7l-7 -42q-9 -5 -25.5 -8
t-31.5 -3q-37 0 -58.5 17.5t-21.5 52.5q0 34 23 66.5t68 60.5l-4 49q-26 -37 -66 -53.5t-96 -16.5q-94 0 -142 37t-48 118v12zM110 151q0 -58 30.5 -84t103.5 -26q43 0 73 9t48.5 24.5t27 37t8.5 46.5v8q0 30 -11 50t-30 32t-45 17t-56 5h-16q-39 0 -64.5 -7.5t-41 -22
t-21.5 -35t-6 -47.5v-7z" />
    <glyph glyph-name="Cacute" unicode="&#x106;" horiz-adv-x="558" 
d="M375 666q-66 0 -111.5 -12.5t-73 -44.5t-40 -86t-12.5 -138v-64q0 -81 12 -133.5t40 -84t73 -44t110 -12.5q15 0 33 1t35.5 3t33.5 4.5t27 4.5l-11 -53q-27 -7 -58.5 -12t-63.5 -5q-91 0 -148.5 21t-90.5 62.5t-45 103t-12 142.5v69q0 84 14.5 147t49 104.5t92 62
t143.5 20.5q40 0 75 -6.5t61 -15.5l-12 -50q-26 6 -58.5 11t-62.5 5zM406 895h83l-161 -122h-70z" />
    <glyph glyph-name="cacute" unicode="&#x107;" horiz-adv-x="472" 
d="M409 8q-24 -8 -55.5 -13t-57.5 -5q-63 0 -107.5 15.5t-72.5 46.5t-40.5 76t-12.5 105v42q0 58 13 104t42 77.5t75 48t111 16.5q28 0 58.5 -5t53.5 -13l-14 -49q-20 6 -46 10t-51 4q-48 0 -82 -10t-55.5 -33.5t-31.5 -61.5t-10 -95v-27q0 -55 10.5 -93t32.5 -61.5t57 -34
t85 -10.5q25 0 51 4t55 10zM343 733h72l-142 -141h-60z" />
    <glyph glyph-name="Ccircumflex" unicode="&#x108;" horiz-adv-x="558" 
d="M375 666q-66 0 -111.5 -12.5t-73 -44.5t-40 -86t-12.5 -138v-64q0 -81 12 -133.5t40 -84t73 -44t110 -12.5q15 0 33 1t35.5 3t33.5 4.5t27 4.5l-11 -53q-27 -7 -58.5 -12t-63.5 -5q-91 0 -148.5 21t-90.5 62.5t-45 103t-12 142.5v69q0 84 14.5 147t49 104.5t92 62
t143.5 20.5q40 0 75 -6.5t61 -15.5l-12 -50q-26 6 -58.5 11t-62.5 5zM299 895h60l131 -122h-66l-95 80l-96 -80h-65z" />
    <glyph glyph-name="ccircumflex" unicode="&#x109;" horiz-adv-x="472" 
d="M409 8q-24 -8 -55.5 -13t-57.5 -5q-63 0 -107.5 15.5t-72.5 46.5t-40.5 76t-12.5 105v42q0 58 13 104t42 77.5t75 48t111 16.5q28 0 58.5 -5t53.5 -13l-14 -49q-20 6 -46 10t-51 4q-48 0 -82 -10t-55.5 -33.5t-31.5 -61.5t-10 -95v-27q0 -55 10.5 -93t32.5 -61.5t57 -34
t85 -10.5q25 0 51 4t55 10zM298 733l132 -141h-59l-101 99l-101 -99h-59l132 141h56z" />
    <glyph glyph-name="Cdotaccent" unicode="&#x10a;" horiz-adv-x="558" 
d="M375 666q-66 0 -111.5 -12.5t-73 -44.5t-40 -86t-12.5 -138v-64q0 -81 12 -133.5t40 -84t73 -44t110 -12.5q15 0 33 1t35.5 3t33.5 4.5t27 4.5l-11 -53q-27 -7 -58.5 -12t-63.5 -5q-91 0 -148.5 21t-90.5 62.5t-45 103t-12 142.5v69q0 84 14.5 147t49 104.5t92 62
t143.5 20.5q40 0 75 -6.5t61 -15.5l-12 -50q-26 6 -58.5 11t-62.5 5zM335 875q46 0 46 -46q0 -45 -46 -45q-45 0 -45 45q0 46 45 46z" />
    <glyph glyph-name="cdotaccent" unicode="&#x10b;" horiz-adv-x="472" 
d="M409 8q-24 -8 -55.5 -13t-57.5 -5q-63 0 -107.5 15.5t-72.5 46.5t-40.5 76t-12.5 105v42q0 58 13 104t42 77.5t75 48t111 16.5q28 0 58.5 -5t53.5 -13l-14 -49q-20 6 -46 10t-51 4q-48 0 -82 -10t-55.5 -33.5t-31.5 -61.5t-10 -95v-27q0 -55 10.5 -93t32.5 -61.5t57 -34
t85 -10.5q25 0 51 4t55 10zM271 709q45 0 45 -45q0 -44 -45 -44q-44 0 -44 44q0 45 44 45z" />
    <glyph glyph-name="Ccaron" unicode="&#x10c;" horiz-adv-x="558" 
d="M375 666q-66 0 -111.5 -12.5t-73 -44.5t-40 -86t-12.5 -138v-64q0 -81 12 -133.5t40 -84t73 -44t110 -12.5q15 0 33 1t35.5 3t33.5 4.5t27 4.5l-11 -53q-27 -7 -58.5 -12t-63.5 -5q-91 0 -148.5 21t-90.5 62.5t-45 103t-12 142.5v69q0 84 14.5 147t49 104.5t92 62
t143.5 20.5q40 0 75 -6.5t61 -15.5l-12 -50q-26 6 -58.5 11t-62.5 5zM375 773h-60l-131 122h66l95 -80l96 80h65z" />
    <glyph glyph-name="ccaron" unicode="&#x10d;" horiz-adv-x="472" 
d="M409 8q-24 -8 -55.5 -13t-57.5 -5q-63 0 -107.5 15.5t-72.5 46.5t-40.5 76t-12.5 105v42q0 58 13 104t42 77.5t75 48t111 16.5q28 0 58.5 -5t53.5 -13l-14 -49q-20 6 -46 10t-51 4q-48 0 -82 -10t-55.5 -33.5t-31.5 -61.5t-10 -95v-27q0 -55 10.5 -93t32.5 -61.5t57 -34
t85 -10.5q25 0 51 4t55 10zM249 592l-132 141h59l101 -99l101 99h58l-131 -141h-56z" />
    <glyph glyph-name="Dcaron" unicode="&#x10e;" horiz-adv-x="676" 
d="M92 712h221q86 0 142 -23.5t89 -65t46 -98.5t13 -124v-90q0 -69 -14.5 -126t-48 -98.5t-89.5 -64t-140 -22.5h-219v712zM156 56h152q56 0 99 12.5t72.5 42.5t44.5 80t15 125v80q0 73 -14 122.5t-42.5 80t-71.5 44t-101 13.5h-154v-600zM347 773h-60l-131 122h66l95 -80
l96 80h65z" />
    <glyph glyph-name="dcaron" unicode="&#x10f;" horiz-adv-x="646" 
d="M126 249q0 -51 7 -89.5t24 -65t45.5 -39.5t72.5 -13q45 0 76 12t49.5 34.5t26.5 54.5t8 71v223q-36 19 -69.5 26.5t-71.5 7.5q-47 0 -79.5 -12.5t-52 -37.5t-28 -63t-8.5 -90v-19zM63 278q0 66 16 112.5t45.5 76t70 43t89.5 13.5q47 0 81 -8.5t70 -25.5v254h61v-743h-54
l-6 70q-28 -43 -71 -62.5t-106 -19.5q-196 0 -196 248v42zM645 743l-21 -165h-44l8 165h57z" />
    <glyph glyph-name="Dcroat" unicode="&#x110;" horiz-adv-x="679" 
d="M95 329h-90v50h90v333h221q86 0 142 -23.5t89 -65t46 -98.5t13 -124v-90q0 -69 -14.5 -126t-48 -98.5t-89.5 -64t-140 -22.5h-219v329zM159 379h207v-50h-207v-273h152q56 0 99 12.5t72.5 42.5t44.5 80t15 125v80q0 73 -14 122.5t-42.5 80t-71.5 44t-101 13.5h-154v-277z
" />
    <glyph glyph-name="dcroat" unicode="&#x111;" horiz-adv-x="576" 
d="M281 658h154v85h61v-85h74v-50h-74v-608h-54l-6 70q-28 -43 -71.5 -62.5t-105.5 -19.5q-44 0 -80 13.5t-62 43t-40 76.5t-14 115v42q0 66 16 112.5t45.5 76t70 43t89.5 13.5q43 0 77 -7.5t74 -26.5v119h-154v50zM126 249q0 -51 7 -89.5t24 -65t45.5 -39.5t72.5 -13
q82 0 121 42t39 130v223q-35 18 -67.5 26t-73.5 8q-92 0 -130 -48.5t-38 -154.5v-19z" />
    <glyph glyph-name="Emacron" unicode="&#x112;" horiz-adv-x="572" 
d="M518 712l-10 -55h-352v-259h329l-10 -57h-319v-286h362l-10 -55h-416v712h426zM178 851h251v-51h-251v51z" />
    <glyph glyph-name="emacron" unicode="&#x113;" horiz-adv-x="536" 
d="M123 234q1 -53 10 -89.5t31.5 -60t60 -34t94.5 -10.5q31 0 66 4.5t60 10.5l-8 -49q-23 -8 -59.5 -13t-70.5 -5q-68 0 -115 15.5t-75.5 46t-41 76.5t-12.5 108v39q0 57 12 103t38 79t67 50.5t99 17.5q51 0 88 -15.5t61 -43t35 -65t11 -82.5v-29q0 -30 -8.5 -42t-37.5 -12
h-305zM275 471q-38 0 -66.5 -10t-47.5 -32.5t-28.5 -58.5t-9.5 -89h294v35q0 77 -34 116t-108 39zM153 679h249v-48h-249v48z" />
    <glyph glyph-name="Ebreve" unicode="&#x114;" horiz-adv-x="572" 
d="M518 712l-10 -55h-352v-259h329l-10 -57h-319v-286h362l-10 -55h-416v712h426zM314 766q-131 0 -131 138h49q2 -94 82 -94q79 0 81 94h49q0 -138 -130 -138z" />
    <glyph glyph-name="ebreve" unicode="&#x115;" horiz-adv-x="536" 
d="M123 234q1 -53 10 -89.5t31.5 -60t60 -34t94.5 -10.5q31 0 66 4.5t60 10.5l-8 -49q-23 -8 -59.5 -13t-70.5 -5q-68 0 -115 15.5t-75.5 46t-41 76.5t-12.5 108v39q0 57 12 103t38 79t67 50.5t99 17.5q51 0 88 -15.5t61 -43t35 -65t11 -82.5v-29q0 -30 -8.5 -42t-37.5 -12
h-305zM275 471q-38 0 -66.5 -10t-47.5 -32.5t-28.5 -58.5t-9.5 -89h294v35q0 77 -34 116t-108 39zM270 632q39 0 60.5 23.5t23.5 70.5h47q0 -67 -34.5 -102.5t-96.5 -35.5t-96.5 35.5t-34.5 102.5h47q2 -47 23.5 -70.5t60.5 -23.5z" />
    <glyph glyph-name="Edotaccent" unicode="&#x116;" horiz-adv-x="572" 
d="M518 712l-10 -55h-352v-259h329l-10 -57h-319v-286h362l-10 -55h-416v712h426zM314 875q46 0 46 -46q0 -45 -46 -45q-45 0 -45 45q0 46 45 46z" />
    <glyph glyph-name="edotaccent" unicode="&#x117;" horiz-adv-x="536" 
d="M123 234q1 -53 10 -89.5t31.5 -60t60 -34t94.5 -10.5q31 0 66 4.5t60 10.5l-8 -49q-23 -8 -59.5 -13t-70.5 -5q-68 0 -115 15.5t-75.5 46t-41 76.5t-12.5 108v39q0 57 12 103t38 79t67 50.5t99 17.5q51 0 88 -15.5t61 -43t35 -65t11 -82.5v-29q0 -30 -8.5 -42t-37.5 -12
h-305zM275 471q-38 0 -66.5 -10t-47.5 -32.5t-28.5 -58.5t-9.5 -89h294v35q0 77 -34 116t-108 39zM274 709q45 0 45 -45q0 -44 -45 -44q-44 0 -44 44q0 45 44 45z" />
    <glyph glyph-name="Eogonek" unicode="&#x118;" horiz-adv-x="572" 
d="M363 -118q0 33 19.5 62.5t56.5 55.5h-347v712h426l-10 -55h-352v-259h329l-10 -57h-319v-286h362l-10 -55q-26 -15 -43 -29t-27 -27t-14 -24t-4 -20q0 -34 43 -34q17 0 44 8l-6 -45q-11 -5 -27.5 -8t-31.5 -3q-35 0 -57 16.5t-22 47.5z" />
    <glyph glyph-name="eogonek" unicode="&#x119;" horiz-adv-x="536" 
d="M123 234q1 -53 10 -89.5t31.5 -60t60 -34t94.5 -10.5q31 0 66 4.5t60 10.5l-8 -49l-22 -6q-39 -23 -65 -48.5t-26 -55.5q0 -36 46 -36q20 0 44 7l-7 -42q-9 -5 -25.5 -8t-31.5 -3q-37 0 -58.5 17.5t-21.5 52.5q0 57 59 105q-8 -1 -13 -1h-9q-68 0 -115 15.5t-75.5 46
t-41 76.5t-12.5 108v39q0 57 12 103t38 79t67 50.5t99 17.5q51 0 88 -15.5t61 -43t35 -65t11 -82.5v-29q0 -30 -8.5 -42t-37.5 -12h-305zM275 471q-38 0 -66.5 -10t-47.5 -32.5t-28.5 -58.5t-9.5 -89h294v35q0 77 -34 116t-108 39z" />
    <glyph glyph-name="Ecaron" unicode="&#x11a;" horiz-adv-x="572" 
d="M518 712l-10 -55h-352v-259h329l-10 -57h-319v-286h362l-10 -55h-416v712h426zM335 773h-60l-131 122h66l95 -80l96 80h65z" />
    <glyph glyph-name="ecaron" unicode="&#x11b;" horiz-adv-x="536" 
d="M123 234q1 -53 10 -89.5t31.5 -60t60 -34t94.5 -10.5q31 0 66 4.5t60 10.5l-8 -49q-23 -8 -59.5 -13t-70.5 -5q-68 0 -115 15.5t-75.5 46t-41 76.5t-12.5 108v39q0 57 12 103t38 79t67 50.5t99 17.5q51 0 88 -15.5t61 -43t35 -65t11 -82.5v-29q0 -30 -8.5 -42t-37.5 -12
h-305zM275 471q-38 0 -66.5 -10t-47.5 -32.5t-28.5 -58.5t-9.5 -89h294v35q0 77 -34 116t-108 39zM241 592l-132 141h59l101 -99l101 99h58l-131 -141h-56z" />
    <glyph glyph-name="Gcircumflex" unicode="&#x11c;" horiz-adv-x="623" 
d="M348 314l11 56h191v-351q-16 -6 -38.5 -11.5t-47 -9.5t-48.5 -6t-44 -2q-98 0 -157 24t-90.5 67t-41.5 103.5t-10 133.5v72q0 80 14 142t48.5 104t93.5 64t150 22q39 0 80.5 -7t70.5 -18l-13 -51q-28 8 -62.5 14t-76.5 6q-65 0 -110.5 -12.5t-74.5 -44.5t-42 -86
t-13 -137v-67q0 -80 12.5 -133t40.5 -84t73 -43.5t111 -12.5q32 0 62 3t55 9v256h-144zM314 895h60l131 -122h-66l-95 80l-96 -80h-65z" />
    <glyph glyph-name="gcircumflex" unicode="&#x11d;" horiz-adv-x="575" 
d="M125 254q0 -48 7 -85.5t24.5 -63t46 -38.5t71.5 -13q81 0 120.5 42.5t39.5 136.5v209q-28 14 -57.5 21t-73.5 7q-91 0 -134.5 -47.5t-43.5 -156.5v-12zM495 10q0 -57 -13 -103t-41 -78.5t-72 -49.5t-105 -17q-92 0 -180 27l13 51q43 -12 82.5 -18t87.5 -6t80 14t51.5 41
t27.5 65.5t8 87.5v59q-10 -16 -24.5 -30.5t-35 -26t-48.5 -18t-66 -6.5q-44 0 -80 12.5t-62 41t-40.5 74t-14.5 112.5v34q0 63 17 109t48.5 77t75 46t96.5 15q57 0 106 -12.5t89 -34.5v-466zM326 733l132 -141h-59l-101 99l-101 -99h-59l132 141h56z" />
    <glyph glyph-name="Gbreve" unicode="&#x11e;" horiz-adv-x="623" 
d="M348 314l11 56h191v-351q-16 -6 -38.5 -11.5t-47 -9.5t-48.5 -6t-44 -2q-98 0 -157 24t-90.5 67t-41.5 103.5t-10 133.5v72q0 80 14 142t48.5 104t93.5 64t150 22q39 0 80.5 -7t70.5 -18l-13 -51q-28 8 -62.5 14t-76.5 6q-65 0 -110.5 -12.5t-74.5 -44.5t-42 -86
t-13 -137v-67q0 -80 12.5 -133t40.5 -84t73 -43.5t111 -12.5q32 0 62 3t55 9v256h-144zM334 766q-131 0 -131 138h49q2 -94 82 -94q79 0 81 94h49q0 -138 -130 -138z" />
    <glyph glyph-name="gbreve" unicode="&#x11f;" horiz-adv-x="575" 
d="M125 254q0 -48 7 -85.5t24.5 -63t46 -38.5t71.5 -13q81 0 120.5 42.5t39.5 136.5v209q-28 14 -57.5 21t-73.5 7q-91 0 -134.5 -47.5t-43.5 -156.5v-12zM495 10q0 -57 -13 -103t-41 -78.5t-72 -49.5t-105 -17q-92 0 -180 27l13 51q43 -12 82.5 -18t87.5 -6t80 14t51.5 41
t27.5 65.5t8 87.5v59q-10 -16 -24.5 -30.5t-35 -26t-48.5 -18t-66 -6.5q-44 0 -80 12.5t-62 41t-40.5 74t-14.5 112.5v34q0 63 17 109t48.5 77t75 46t96.5 15q57 0 106 -12.5t89 -34.5v-466zM296 632q39 0 60.5 23.5t23.5 70.5h47q0 -67 -34.5 -102.5t-96.5 -35.5
t-96.5 35.5t-34.5 102.5h47q2 -47 23.5 -70.5t60.5 -23.5z" />
    <glyph glyph-name="Gdotaccent" unicode="&#x120;" horiz-adv-x="623" 
d="M348 314l11 56h191v-351q-16 -6 -38.5 -11.5t-47 -9.5t-48.5 -6t-44 -2q-98 0 -157 24t-90.5 67t-41.5 103.5t-10 133.5v72q0 80 14 142t48.5 104t93.5 64t150 22q39 0 80.5 -7t70.5 -18l-13 -51q-28 8 -62.5 14t-76.5 6q-65 0 -110.5 -12.5t-74.5 -44.5t-42 -86
t-13 -137v-67q0 -80 12.5 -133t40.5 -84t73 -43.5t111 -12.5q32 0 62 3t55 9v256h-144zM349 875q46 0 46 -46q0 -45 -46 -45q-45 0 -45 45q0 46 45 46z" />
    <glyph glyph-name="gdotaccent" unicode="&#x121;" horiz-adv-x="575" 
d="M125 254q0 -48 7 -85.5t24.5 -63t46 -38.5t71.5 -13q81 0 120.5 42.5t39.5 136.5v209q-28 14 -57.5 21t-73.5 7q-91 0 -134.5 -47.5t-43.5 -156.5v-12zM495 10q0 -57 -13 -103t-41 -78.5t-72 -49.5t-105 -17q-92 0 -180 27l13 51q43 -12 82.5 -18t87.5 -6t80 14t51.5 41
t27.5 65.5t8 87.5v59q-10 -16 -24.5 -30.5t-35 -26t-48.5 -18t-66 -6.5q-44 0 -80 12.5t-62 41t-40.5 74t-14.5 112.5v34q0 63 17 109t48.5 77t75 46t96.5 15q57 0 106 -12.5t89 -34.5v-466zM304 709q45 0 45 -45q0 -44 -45 -44q-44 0 -44 44q0 45 44 45z" />
    <glyph glyph-name="Gcommaaccent" unicode="&#x122;" horiz-adv-x="623" 
d="M348 314l11 56h191v-351q-16 -6 -38.5 -11.5t-47 -9.5t-48.5 -6t-44 -2q-98 0 -157 24t-90.5 67t-41.5 103.5t-10 133.5v72q0 80 14 142t48.5 104t93.5 64t150 22q39 0 80.5 -7t70.5 -18l-13 -51q-28 8 -62.5 14t-76.5 6q-65 0 -110.5 -12.5t-74.5 -44.5t-42 -86
t-13 -137v-67q0 -80 12.5 -133t40.5 -84t73 -43.5t111 -12.5q32 0 62 3t55 9v256h-144zM292 -251l38 106q-12 6 -17.5 17.5t-5.5 25.5q0 22 13 34t33 12q23 0 35 -12t12 -32q0 -14 -5.5 -28t-13.5 -31l-43 -92h-46z" />
    <glyph glyph-name="gcommaaccent" unicode="&#x123;" horiz-adv-x="575" 
d="M125 254q0 -48 7 -85.5t24.5 -63t46 -38.5t71.5 -13q81 0 120.5 42.5t39.5 136.5v209q-28 14 -57.5 21t-73.5 7q-91 0 -134.5 -47.5t-43.5 -156.5v-12zM495 10q0 -57 -13 -103t-41 -78.5t-72 -49.5t-105 -17q-92 0 -180 27l13 51q43 -12 82.5 -18t87.5 -6t80 14t51.5 41
t27.5 65.5t8 87.5v59q-10 -16 -24.5 -30.5t-35 -26t-48.5 -18t-66 -6.5q-44 0 -80 12.5t-62 41t-40.5 74t-14.5 112.5v34q0 63 17 109t48.5 77t75 46t96.5 15q57 0 106 -12.5t89 -34.5v-466zM361 762l-34 -96q22 -10 22 -41q0 -20 -12 -31.5t-32 -11.5q-21 0 -32.5 11.5
t-11.5 30.5q0 11 3.5 21t8.5 22l45 95h43z" />
    <glyph glyph-name="Hcircumflex" unicode="&#x124;" horiz-adv-x="684" 
d="M592 712v-712h-64v343h-372v-343h-64v712h64v-309h372v309h64zM308 895h60l131 -122h-66l-95 80l-96 -80h-65z" />
    <glyph glyph-name="hcircumflex" unicode="&#x125;" horiz-adv-x="575" 
d="M80 0v743h61v-301q25 38 69 59.5t107 21.5q90 0 136.5 -45.5t46.5 -134.5v-343h-61v313q0 83 -31 119.5t-107 36.5q-81 0 -120.5 -39.5t-39.5 -124.5v-305h-61zM225 919h60l131 -122h-65l-96 81l-96 -81h-65z" />
    <glyph glyph-name="Hbar" unicode="&#x126;" horiz-adv-x="687" 
d="M593 712v-119h89v-50h-89v-543h-64v343h-372v-343h-64v543h-88v50h88v119h64v-119h372v119h64zM529 403v140h-372v-140h372z" />
    <glyph glyph-name="hbar" unicode="&#x127;" horiz-adv-x="575" 
d="M80 0v608h-73v50h73v85h61v-85h174v-50h-174v-166q24 38 69.5 59.5t106.5 21.5q90 0 136.5 -45.5t46.5 -134.5v-343h-61v313q0 83 -31 119.5t-107 36.5q-81 0 -120.5 -39.5t-39.5 -124.5v-305h-61z" />
    <glyph glyph-name="Itilde" unicode="&#x128;" horiz-adv-x="248" 
d="M156 712v-712h-64v712h64zM298 880q0 -113 -82 -113q-20 0 -39 7.5t-42 20.5l-44 24q-31 17 -47 17q-18 0 -26.5 -16.5t-8.5 -46.5h-47q0 113 82 113q20 0 39 -7.5t42 -20.5l44 -24q17 -9 26.5 -13t20.5 -4q18 0 26.5 16.5t8.5 46.5h47z" />
    <glyph glyph-name="itilde" unicode="&#x129;" horiz-adv-x="222" 
d="M80 511h62v-511h-62v511zM86 655q-13 8 -24 12.5t-21 4.5q-35 0 -35 -57h-41q0 52 19.5 78t54.5 26q14 0 29 -5t35 -16l41 -23q17 -10 30.5 -16t24.5 -6q34 0 34 58h41q0 -54 -20 -79t-56 -25q-17 0 -33.5 6t-37.5 18z" />
    <glyph glyph-name="Imacron" unicode="&#x12a;" horiz-adv-x="248" 
d="M156 712v-712h-64v712h64zM-1 851h251v-51h-251v51z" />
    <glyph glyph-name="imacron" unicode="&#x12b;" horiz-adv-x="222" 
d="M80 511h62v-511h-62v511zM-13 679h249v-48h-249v48z" />
    <glyph glyph-name="Ibreve" unicode="&#x12c;" horiz-adv-x="248" 
d="M156 712v-712h-64v712h64zM123 766q-131 0 -131 138h49q2 -94 82 -94q79 0 81 94h49q0 -138 -130 -138z" />
    <glyph glyph-name="ibreve" unicode="&#x12d;" horiz-adv-x="222" 
d="M80 511h62v-511h-62v511zM110 632q39 0 60.5 23.5t23.5 70.5h47q0 -67 -34.5 -102.5t-96.5 -35.5t-96.5 35.5t-34.5 102.5h47q2 -47 23.5 -70.5t60.5 -23.5z" />
    <glyph glyph-name="Iogonek" unicode="&#x12e;" horiz-adv-x="248" 
d="M90 -182q-35 0 -57 16.5t-22 47.5q0 34 21 64.5t60 56.5v709h64v-712q-26 -15 -43 -29t-27 -27t-14 -24t-4 -20q0 -34 43 -34q17 0 44 8l-6 -45q-11 -5 -27.5 -8t-31.5 -3z" />
    <glyph glyph-name="iogonek" unicode="&#x12f;" horiz-adv-x="222" 
d="M77 -186q-37 0 -58.5 17.5t-21.5 52.5q0 67 83 121v506h62v-511q-39 -23 -65 -48.5t-26 -55.5q0 -36 46 -36q20 0 44 7l-7 -42q-9 -5 -25.5 -8t-31.5 -3zM110 709q45 0 45 -45q0 -44 -45 -44q-44 0 -44 44q0 45 44 45z" />
    <glyph glyph-name="Idotaccent" unicode="&#x130;" horiz-adv-x="248" 
d="M156 712v-712h-64v712h64zM125 875q46 0 46 -46q0 -45 -46 -45q-45 0 -45 45q0 46 45 46z" />
    <glyph glyph-name="dotlessi" unicode="&#x131;" horiz-adv-x="222" 
d="M80 511h62v-511h-62v511z" />
    <glyph glyph-name="i.locl" horiz-adv-x="222" 
d="M80 511h62v-511h-62v511zM110 709q45 0 45 -45q0 -44 -45 -44q-44 0 -44 44q0 45 44 45z" />
    <glyph glyph-name="IJ" unicode="&#x132;" horiz-adv-x="678" 
d="M156 712v-712h-64v712h64zM383 -10q-38 0 -69.5 5.5t-50.5 11.5l12 50q20 -5 44.5 -8t52.5 -3q50 0 81.5 12.5t49 40t24 70.5t6.5 103v440h63v-457q0 -61 -10 -110t-34 -83.5t-65 -53t-104 -18.5z" />
    <glyph glyph-name="ij" unicode="&#x133;" horiz-adv-x="444" 
d="M80 511h62v-511h-62v511zM110 709q45 0 45 -45q0 -44 -45 -44q-44 0 -44 44q0 45 44 45zM364 511v-561q0 -54 -11.5 -90t-32.5 -58t-49.5 -31t-62.5 -9q-21 0 -42.5 3.5t-39.5 10.5l11 48q14 -5 31 -7t34 -2q26 0 45 6.5t31 22t18 42t6 66.5v559h62zM332 709q45 0 45 -45
q0 -44 -45 -44q-44 0 -44 44q0 45 44 45z" />
    <glyph glyph-name="Jcircumflex" unicode="&#x134;" horiz-adv-x="430" 
d="M135 -10q-38 0 -69.5 5.5t-50.5 11.5l12 50q20 -5 44.5 -8t52.5 -3q50 0 81.5 12.5t49 40t24 70.5t6.5 103v440h63v-457q0 -61 -10 -110t-34 -83.5t-65 -53t-104 -18.5zM277 895h60l131 -122h-66l-95 80l-96 -80h-65z" />
    <glyph glyph-name="jcircumflex" unicode="&#x135;" horiz-adv-x="222" 
d="M142 511v-561q0 -54 -11.5 -90t-32.5 -58t-49.5 -31t-62.5 -9q-21 0 -42.5 3.5t-39.5 10.5l11 48q14 -5 31 -7t34 -2q26 0 45 6.5t31 22t18 42t6 66.5v559h62zM137 733l132 -141h-59l-101 99l-101 -99h-59l132 141h56z" />
    <glyph glyph-name="Kcommaaccent" unicode="&#x136;" horiz-adv-x="582" 
d="M153 712v-321l320 321h72l-342 -342l362 -370h-80l-332 341v-341h-61v712h61zM239 -251l38 106q-12 6 -17.5 17.5t-5.5 25.5q0 22 13 34t33 12q23 0 35 -12t12 -32q0 -14 -5.5 -28t-13.5 -31l-43 -92h-46z" />
    <glyph glyph-name="kcommaaccent" unicode="&#x137;" horiz-adv-x="482" 
d="M140 265v-265h-60v743h60v-429l230 197h80l-259 -221l277 -290h-80zM191 -241l36 101q-22 10 -22 41q0 20 12 31.5t32 11.5q21 0 32.5 -11.5t11.5 -30.5q0 -11 -3.5 -21t-8.5 -22l-47 -100h-43z" />
    <glyph glyph-name="kgreenlandic" unicode="&#x138;" horiz-adv-x="466" 
d="M140 0h-60v511h60v-229l235 229h73l-257 -251l261 -260h-75l-237 233v-233z" />
    <glyph glyph-name="Lacute" unicode="&#x139;" horiz-adv-x="516" 
d="M155 712v-654h348l-10 -58h-401v712h63zM245 895h83l-161 -122h-70z" />
    <glyph glyph-name="lacute" unicode="&#x13a;" horiz-adv-x="221" 
d="M80 743h61v-743h-61v743zM210 919h83l-161 -122h-69z" />
    <glyph glyph-name="Lcommaaccent" unicode="&#x13b;" horiz-adv-x="516" 
d="M155 712v-654h348l-10 -58h-401v712h63zM234 -251l38 106q-12 6 -17.5 17.5t-5.5 25.5q0 22 13 34t33 12q23 0 35 -12t12 -32q0 -14 -5.5 -28t-13.5 -31l-43 -92h-46z" />
    <glyph glyph-name="lcommaaccent" unicode="&#x13c;" horiz-adv-x="221" 
d="M80 743h61v-743h-61v743zM45 -241l36 101q-22 10 -22 41q0 20 12 31.5t32 11.5q21 0 32.5 -11.5t11.5 -30.5q0 -11 -3.5 -21t-8.5 -22l-47 -100h-43z" />
    <glyph glyph-name="Lcaron" unicode="&#x13d;" horiz-adv-x="516" 
d="M155 712v-654h348l-10 -58h-401v712h63zM304 743l-21 -165h-44l8 165h57z" />
    <glyph glyph-name="lcaron" unicode="&#x13e;" horiz-adv-x="291" 
d="M80 743h61v-743h-61v743zM288 743l-21 -165h-44l8 165h57z" />
    <glyph glyph-name="Ldot" unicode="&#x13f;" horiz-adv-x="516" 
d="M155 712v-654h348l-10 -58h-401v712h63zM382 430q46 0 46 -48q0 -47 -46 -47t-46 47q0 48 46 48z" />
    <glyph glyph-name="ldot" unicode="&#x140;" horiz-adv-x="294" 
d="M80 743h61v-743h-61v743zM257 418q46 0 46 -48q0 -47 -46 -47t-46 47q0 48 46 48z" />
    <glyph glyph-name="Lslash" unicode="&#x141;" horiz-adv-x="507" 
d="M146 712v-340l172 121v-62l-172 -121v-252h348l-10 -58h-401v266l-78 -55v62l78 55v384h63z" />
    <glyph glyph-name="lslash" unicode="&#x142;" horiz-adv-x="264" 
d="M93 314l-84 -60v63l84 60v366h59v-323l103 74v-63l-103 -74v-357h-59v314z" />
    <glyph glyph-name="Nacute" unicode="&#x143;" horiz-adv-x="680" 
d="M157 712l371 -613v613h60v-712h-65l-371 613v-613h-60v712h65zM414 895h83l-161 -122h-70z" />
    <glyph glyph-name="nacute" unicode="&#x144;" horiz-adv-x="575" 
d="M80 0v511h52l8 -72q23 38 67.5 61t109.5 23q89 0 136 -46t47 -137v-340h-61v310q0 85 -31 122t-107 37q-82 0 -121 -41t-39 -127v-301h-61zM341 733h72l-142 -141h-60z" />
    <glyph glyph-name="Ncommaaccent" unicode="&#x145;" horiz-adv-x="680" 
d="M157 712l371 -613v613h60v-712h-65l-371 613v-613h-60v712h65zM276 -251l38 106q-12 6 -17.5 17.5t-5.5 25.5q0 22 13 34t33 12q23 0 35 -12t12 -32q0 -14 -5.5 -28t-13.5 -31l-43 -92h-46z" />
    <glyph glyph-name="ncommaaccent" unicode="&#x146;" horiz-adv-x="575" 
d="M80 0v511h52l8 -72q23 38 67.5 61t109.5 23q89 0 136 -46t47 -137v-340h-61v310q0 85 -31 122t-107 37q-82 0 -121 -41t-39 -127v-301h-61zM231 -241l36 101q-22 10 -22 41q0 20 12 31.5t32 11.5q21 0 32.5 -11.5t11.5 -30.5q0 -11 -3.5 -21t-8.5 -22l-47 -100h-43z" />
    <glyph glyph-name="Ncaron" unicode="&#x147;" horiz-adv-x="680" 
d="M157 712l371 -613v613h60v-712h-65l-371 613v-613h-60v712h65zM376 773h-60l-131 122h66l95 -80l96 80h65z" />
    <glyph glyph-name="ncaron" unicode="&#x148;" horiz-adv-x="575" 
d="M80 0v511h52l8 -72q23 38 67.5 61t109.5 23q89 0 136 -46t47 -137v-340h-61v310q0 85 -31 122t-107 37q-82 0 -121 -41t-39 -127v-301h-61zM268 592l-132 141h59l101 -99l101 99h58l-131 -141h-56z" />
    <glyph glyph-name="napostrophe" unicode="&#x149;" horiz-adv-x="620" 
d="M125 0v511h52l8 -72q23 38 67.5 61t109.5 23q89 0 136 -46t47 -137v-340h-61v310q0 85 -31 122t-107 37q-82 0 -121 -41t-39 -127v-301h-61zM-3 483l49 128q-14 5 -20.5 16.5t-6.5 26.5q0 20 12.5 31.5t31.5 11.5q22 0 33 -11.5t11 -30.5q0 -14 -4 -26.5t-12 -29.5
l-54 -116h-40z" />
    <glyph glyph-name="Eng" unicode="&#x14a;" horiz-adv-x="680" 
d="M157 712l371 -613v613h60v-728q0 -61 -15.5 -103t-43 -68.5t-66 -38.5t-83.5 -12q-35 0 -65 5.5t-49 11.5l12 52q19 -5 43 -9.5t53 -4.5q78 0 116.5 39.5t38.5 124.5v9l-377 623v-613h-60v712h65z" />
    <glyph glyph-name="eng" unicode="&#x14b;" horiz-adv-x="575" 
d="M80 0v511h52l8 -72q23 38 67.5 61t109.5 23q89 0 136 -46t47 -137v-387q0 -96 -42.5 -143.5t-120.5 -47.5q-26 0 -47.5 4t-38.5 10l11 52q17 -5 34 -8t37 -3q56 0 81 32t25 104v357q0 85 -31 122t-107 37q-82 0 -121 -41t-39 -127v-301h-61z" />
    <glyph glyph-name="Omacron" unicode="&#x14c;" horiz-adv-x="680" 
d="M339 40q53 0 91.5 12t63 43t36.5 84t12 134v86q0 84 -12 137t-37 83t-63.5 41.5t-90.5 11.5q-51 0 -89 -11.5t-62.5 -42t-37 -83.5t-12.5 -136v-86q0 -81 11.5 -134t36 -84t62.5 -43t91 -12zM341 727q79 0 130.5 -21.5t81.5 -63.5t42 -102.5t12 -138.5v-90
q0 -75 -12 -135.5t-42.5 -103t-82.5 -65t-132 -22.5t-131 21.5t-81 63t-41.5 102t-11.5 139.5v90q0 74 12 134t42 103t82 66t132 23zM215 851h251v-51h-251v51z" />
    <glyph glyph-name="omacron" unicode="&#x14d;" horiz-adv-x="573" 
d="M287 523q65 0 108 -16.5t68.5 -48t36 -76t10.5 -99.5v-54q0 -55 -12 -99.5t-38 -76t-69 -48.5t-104 -17q-65 0 -108 16.5t-69 48t-36.5 76t-10.5 100.5v54q0 55 12.5 99.5t39.5 76t69.5 48t102.5 16.5zM287 41q45 0 76 10.5t50 34t27 60t8 87.5v45q0 53 -8.5 89.5
t-27.5 59.5t-50 33.5t-75 10.5q-45 0 -76 -11t-50 -34t-27 -60t-8 -88v-44q0 -52 8 -88.5t27 -60t50 -34t76 -10.5zM163 679h249v-48h-249v48z" />
    <glyph glyph-name="Obreve" unicode="&#x14e;" horiz-adv-x="680" 
d="M339 40q53 0 91.5 12t63 43t36.5 84t12 134v86q0 84 -12 137t-37 83t-63.5 41.5t-90.5 11.5q-51 0 -89 -11.5t-62.5 -42t-37 -83.5t-12.5 -136v-86q0 -81 11.5 -134t36 -84t62.5 -43t91 -12zM341 727q79 0 130.5 -21.5t81.5 -63.5t42 -102.5t12 -138.5v-90
q0 -75 -12 -135.5t-42.5 -103t-82.5 -65t-132 -22.5t-131 21.5t-81 63t-41.5 102t-11.5 139.5v90q0 74 12 134t42 103t82 66t132 23zM341 766q-131 0 -131 138h49q2 -94 82 -94q79 0 81 94h49q0 -138 -130 -138z" />
    <glyph glyph-name="obreve" unicode="&#x14f;" horiz-adv-x="573" 
d="M287 523q65 0 108 -16.5t68.5 -48t36 -76t10.5 -99.5v-54q0 -55 -12 -99.5t-38 -76t-69 -48.5t-104 -17q-65 0 -108 16.5t-69 48t-36.5 76t-10.5 100.5v54q0 55 12.5 99.5t39.5 76t69.5 48t102.5 16.5zM287 41q45 0 76 10.5t50 34t27 60t8 87.5v45q0 53 -8.5 89.5
t-27.5 59.5t-50 33.5t-75 10.5q-45 0 -76 -11t-50 -34t-27 -60t-8 -88v-44q0 -52 8 -88.5t27 -60t50 -34t76 -10.5zM286 632q39 0 60.5 23.5t23.5 70.5h47q0 -67 -34.5 -102.5t-96.5 -35.5t-96.5 35.5t-34.5 102.5h47q2 -47 23.5 -70.5t60.5 -23.5z" />
    <glyph glyph-name="Ohungarumlaut" unicode="&#x150;" horiz-adv-x="680" 
d="M339 40q53 0 91.5 12t63 43t36.5 84t12 134v86q0 84 -12 137t-37 83t-63.5 41.5t-90.5 11.5q-51 0 -89 -11.5t-62.5 -42t-37 -83.5t-12.5 -136v-86q0 -81 11.5 -134t36 -84t62.5 -43t91 -12zM341 727q79 0 130.5 -21.5t81.5 -63.5t42 -102.5t12 -138.5v-90
q0 -75 -12 -135.5t-42.5 -103t-82.5 -65t-132 -22.5t-131 21.5t-81 63t-41.5 102t-11.5 139.5v90q0 74 12 134t42 103t82 66t132 23zM314 895h73l-110 -122h-61zM466 895h73l-110 -122h-61z" />
    <glyph glyph-name="ohungarumlaut" unicode="&#x151;" horiz-adv-x="573" 
d="M287 523q65 0 108 -16.5t68.5 -48t36 -76t10.5 -99.5v-54q0 -55 -12 -99.5t-38 -76t-69 -48.5t-104 -17q-65 0 -108 16.5t-69 48t-36.5 76t-10.5 100.5v54q0 55 12.5 99.5t39.5 76t69.5 48t102.5 16.5zM287 41q45 0 76 10.5t50 34t27 60t8 87.5v45q0 53 -8.5 89.5
t-27.5 59.5t-50 33.5t-75 10.5q-45 0 -76 -11t-50 -34t-27 -60t-8 -88v-44q0 -52 8 -88.5t27 -60t50 -34t76 -10.5zM277 734h65l-121 -141h-53zM425 734h65l-121 -141h-53z" />
    <glyph glyph-name="Racute" unicode="&#x154;" horiz-adv-x="617" 
d="M344 301h-190v-301h-62v712h261q52 0 89.5 -15t62 -41t36.5 -62.5t12 -78.5v-16q0 -44 -11.5 -76.5t-31.5 -55.5t-46 -37t-55 -20l167 -310h-72zM154 356h175q81 0 120 33.5t39 108.5v11q0 75 -35.5 111.5t-114.5 36.5h-184v-301zM363 895h83l-161 -122h-70z" />
    <glyph glyph-name="racute" unicode="&#x155;" horiz-adv-x="380" 
d="M349 458q-15 3 -31 5t-29 2q-75 0 -111 -45.5t-36 -143.5v-276h-62v511h52l9 -80q47 87 159 87q16 0 32.5 -2.5t27.5 -5.5zM282 733h72l-142 -141h-60z" />
    <glyph glyph-name="Rcommaaccent" unicode="&#x156;" horiz-adv-x="617" 
d="M344 301h-190v-301h-62v712h261q52 0 89.5 -15t62 -41t36.5 -62.5t12 -78.5v-16q0 -44 -11.5 -76.5t-31.5 -55.5t-46 -37t-55 -20l167 -310h-72zM154 356h175q81 0 120 33.5t39 108.5v11q0 75 -35.5 111.5t-114.5 36.5h-184v-301zM258 -251l38 106q-12 6 -17.5 17.5
t-5.5 25.5q0 22 13 34t33 12q23 0 35 -12t12 -32q0 -14 -5.5 -28t-13.5 -31l-43 -92h-46z" />
    <glyph glyph-name="rcommaaccent" unicode="&#x157;" horiz-adv-x="380" 
d="M349 458q-15 3 -31 5t-29 2q-75 0 -111 -45.5t-36 -143.5v-276h-62v511h52l9 -80q47 87 159 87q16 0 32.5 -2.5t27.5 -5.5zM48 -241l36 101q-22 10 -22 41q0 20 12 31.5t32 11.5q21 0 32.5 -11.5t11.5 -30.5q0 -11 -3.5 -21t-8.5 -22l-47 -100h-43z" />
    <glyph glyph-name="Rcaron" unicode="&#x158;" horiz-adv-x="617" 
d="M344 301h-190v-301h-62v712h261q52 0 89.5 -15t62 -41t36.5 -62.5t12 -78.5v-16q0 -44 -11.5 -76.5t-31.5 -55.5t-46 -37t-55 -20l167 -310h-72zM154 356h175q81 0 120 33.5t39 108.5v11q0 75 -35.5 111.5t-114.5 36.5h-184v-301zM330 773h-60l-131 122h66l95 -80l96 80
h65z" />
    <glyph glyph-name="rcaron" unicode="&#x159;" horiz-adv-x="380" 
d="M349 458q-15 3 -31 5t-29 2q-75 0 -111 -45.5t-36 -143.5v-276h-62v511h52l9 -80q47 87 159 87q16 0 32.5 -2.5t27.5 -5.5zM188 592l-132 141h59l101 -99l101 99h58l-131 -141h-56z" />
    <glyph glyph-name="Sacute" unicode="&#x15a;" horiz-adv-x="563" 
d="M337 388q50 -8 83 -24.5t52.5 -41t27.5 -55.5t8 -66v-12q0 -44 -15.5 -80.5t-47 -63t-79.5 -41t-113 -14.5q-54 0 -107 9t-89 22l12 53q38 -11 85 -19.5t101 -8.5q103 0 146.5 36.5t43.5 115.5q0 25 -5.5 47t-19.5 39.5t-39.5 29t-65.5 17.5l-90 13q-90 13 -128.5 57.5
t-38.5 123.5v5q0 47 17.5 83t50.5 60t80 36.5t105 12.5q51 0 96.5 -8.5t79.5 -21.5l-14 -51q-34 11 -78 18t-89 7q-100 0 -143.5 -35.5t-43.5 -106.5q0 -55 27.5 -83.5t98.5 -38.5zM375 895h83l-161 -122h-70z" />
    <glyph glyph-name="sacute" unicode="&#x15b;" horiz-adv-x="473" 
d="M198 240q-79 11 -111.5 43.5t-32.5 92.5v4q0 36 16 62.5t44 44t66.5 26t84.5 8.5q43 0 79.5 -6.5t65.5 -15.5l-12 -50q-28 9 -61 14.5t-81 5.5q-29 0 -54.5 -4.5t-44.5 -14.5t-30 -27t-11 -42q0 -19 4 -33t14.5 -24t28.5 -16.5t46 -10.5l81 -11q68 -9 101.5 -42.5
t33.5 -98.5v-6q0 -73 -55 -111t-153 -38q-46 0 -88 6.5t-77 17.5l11 49q38 -11 74.5 -16t81.5 -5q71 0 107 23t36 76q0 18 -3 32.5t-13 26t-27.5 19t-47.5 11.5zM311 733h72l-142 -141h-60z" />
    <glyph glyph-name="Scircumflex" unicode="&#x15c;" horiz-adv-x="563" 
d="M337 388q50 -8 83 -24.5t52.5 -41t27.5 -55.5t8 -66v-12q0 -44 -15.5 -80.5t-47 -63t-79.5 -41t-113 -14.5q-54 0 -107 9t-89 22l12 53q38 -11 85 -19.5t101 -8.5q103 0 146.5 36.5t43.5 115.5q0 25 -5.5 47t-19.5 39.5t-39.5 29t-65.5 17.5l-90 13q-90 13 -128.5 57.5
t-38.5 123.5v5q0 47 17.5 83t50.5 60t80 36.5t105 12.5q51 0 96.5 -8.5t79.5 -21.5l-14 -51q-34 11 -78 18t-89 7q-100 0 -143.5 -35.5t-43.5 -106.5q0 -55 27.5 -83.5t98.5 -38.5zM267 895h60l131 -122h-66l-95 80l-96 -80h-65z" />
    <glyph glyph-name="scircumflex" unicode="&#x15d;" horiz-adv-x="473" 
d="M198 240q-79 11 -111.5 43.5t-32.5 92.5v4q0 36 16 62.5t44 44t66.5 26t84.5 8.5q43 0 79.5 -6.5t65.5 -15.5l-12 -50q-28 9 -61 14.5t-81 5.5q-29 0 -54.5 -4.5t-44.5 -14.5t-30 -27t-11 -42q0 -19 4 -33t14.5 -24t28.5 -16.5t46 -10.5l81 -11q68 -9 101.5 -42.5
t33.5 -98.5v-6q0 -73 -55 -111t-153 -38q-46 0 -88 6.5t-77 17.5l11 49q38 -11 74.5 -16t81.5 -5q71 0 107 23t36 76q0 18 -3 32.5t-13 26t-27.5 19t-47.5 11.5zM275 733l132 -141h-59l-101 99l-101 -99h-59l132 141h56z" />
    <glyph glyph-name="Scedilla" unicode="&#x15e;" horiz-adv-x="563" 
d="M337 388q50 -8 83 -24.5t52.5 -41t27.5 -55.5t8 -66v-12q0 -93 -62 -144t-177 -55l-11 -40q46 -6 72.5 -25.5t26.5 -53.5q0 -42 -29.5 -65.5t-82.5 -23.5q-26 0 -46.5 5.5t-32.5 13.5l12 38q13 -6 28.5 -10t35.5 -4q34 0 49 11.5t15 34.5q0 13 -8 21.5t-22 14t-32 8
t-37 4.5l20 72q-48 2 -93 10.5t-77 19.5l12 53q38 -11 85 -19.5t101 -8.5q103 0 146.5 36.5t43.5 115.5q0 25 -5.5 47t-19.5 39.5t-39.5 29t-65.5 17.5l-90 13q-90 13 -128.5 57.5t-38.5 123.5v5q0 47 17.5 83t50.5 60t80 36.5t105 12.5q51 0 96.5 -8.5t79.5 -21.5l-14 -51
q-34 11 -78 18t-89 7q-100 0 -143.5 -35.5t-43.5 -106.5q0 -55 27.5 -83.5t98.5 -38.5z" />
    <glyph glyph-name="scedilla" unicode="&#x15f;" horiz-adv-x="473" 
d="M198 240q-79 11 -111.5 43.5t-32.5 92.5v4q0 36 16 62.5t44 44t66.5 26t84.5 8.5q43 0 79.5 -6.5t65.5 -15.5l-12 -50q-28 9 -61 14.5t-81 5.5q-29 0 -54.5 -4.5t-44.5 -14.5t-30 -27t-11 -42q0 -19 4 -33t14.5 -24t28.5 -16.5t46 -10.5l81 -11q68 -9 101.5 -42.5
t33.5 -98.5v-6q0 -66 -47 -104.5t-136 -43.5l-11 -42q42 -8 65.5 -26.5t23.5 -53.5q0 -39 -29 -62t-77 -23q-23 0 -42.5 5t-32.5 13l12 37q11 -5 26.5 -9t33.5 -4q58 0 58 42q0 15 -7 24t-19 14t-28 7.5t-35 4.5l20 72q-42 2 -79.5 8t-68.5 16l11 49q38 -11 74.5 -16
t81.5 -5q71 0 107 23t36 76q0 18 -3 32.5t-13 26t-27.5 19t-47.5 11.5z" />
    <glyph glyph-name="uni0162" unicode="&#x162;" horiz-adv-x="581" 
d="M257 0v657h-242l10 55h541l-10 -55h-235v-657h-12l-14 -50q46 -6 72.5 -25.5t26.5 -53.5q0 -42 -29.5 -65.5t-82.5 -23.5q-26 0 -46.5 5.5t-32.5 13.5l12 38q13 -6 28.5 -10t35.5 -4q34 0 49 11.5t15 34.5q0 13 -8 21.5t-22 14t-32 8t-37 4.5l23 81h-10z" />
    <glyph glyph-name="uni0163" unicode="&#x163;" horiz-adv-x="393" 
d="M185 458v-296q0 -36 6.5 -59.5t20 -37t34 -18.5t47.5 -5q17 0 33.5 2.5t31.5 5.5l-9 -49q-31 -11 -73 -11q-10 0 -19 0.5t-17 1.5l-12 -43q42 -8 65.5 -26.5t23.5 -53.5q0 -39 -29 -62t-77 -23q-23 0 -42.5 5t-32.5 13l12 37q11 -5 26.5 -9t33.5 -4q58 0 58 42
q0 15 -7 24t-19 14t-28 7.5t-35 4.5l23 83q-38 15 -56.5 53t-18.5 109v295h-103l9 53h94v133l60 11v-144h171l-10 -53h-161z" />
    <glyph glyph-name="Tcaron" unicode="&#x164;" horiz-adv-x="581" 
d="M556 657h-235v-657h-64v657h-242l10 55h541zM319 773h-60l-131 122h66l95 -80l96 80h65z" />
    <glyph glyph-name="tcaron" unicode="&#x165;" horiz-adv-x="393" 
d="M185 458v-296q0 -36 6.5 -59.5t20 -37t34 -18.5t47.5 -5q17 0 33.5 2.5t31.5 5.5l-9 -49q-31 -11 -73 -11q-37 0 -65.5 8.5t-47.5 28.5t-28.5 53t-9.5 83v295h-103l9 53h94v133l60 11v-144h171l-10 -53h-161zM347 743l-21 -165h-44l8 165h57z" />
    <glyph glyph-name="Tbar" unicode="&#x166;" horiz-adv-x="581" 
d="M556 657h-235v-268h151v-50h-151v-339h-64v339h-151v50h151v268h-242l10 55h541z" />
    <glyph glyph-name="tbar" unicode="&#x167;" horiz-adv-x="406" 
d="M185 458v-122h162v-50h-162v-124q0 -35 6 -58.5t19.5 -37t33.5 -19t49 -5.5q20 0 34.5 2.5t30.5 5.5l-9 -49q-31 -11 -73 -11q-36 0 -64 8t-47.5 27.5t-29.5 53t-10 84.5v123h-98v50h98v122h-103l9 53h94v133l60 11v-144h171l-10 -53h-161z" />
    <glyph glyph-name="Utilde" unicode="&#x168;" horiz-adv-x="674" 
d="M335 -15q-76 0 -125 18.5t-77.5 56t-39.5 92.5t-11 129v431h63v-432q0 -69 10.5 -115.5t34 -74t60.5 -39t90 -11.5q54 0 90 11.5t58 39.5t31.5 74t9.5 114v433h63v-432q0 -73 -11.5 -128.5t-40.5 -92.5t-79 -55.5t-126 -18.5zM506 880q0 -113 -82 -113q-20 0 -39 7.5
t-42 20.5l-44 24q-31 17 -47 17q-18 0 -26.5 -16.5t-8.5 -46.5h-47q0 113 82 113q20 0 39 -7.5t42 -20.5l44 -24q17 -9 26.5 -13t20.5 -4q18 0 26.5 16.5t8.5 46.5h47z" />
    <glyph glyph-name="utilde" unicode="&#x169;" horiz-adv-x="571" 
d="M491 511v-511h-52l-8 72q-26 -42 -71 -63t-105 -21q-89 0 -134.5 47t-45.5 136v340h61v-310q0 -86 31 -122.5t105 -36.5q81 0 119.5 41t38.5 127v301h61zM251 655q-13 8 -24 12.5t-21 4.5q-35 0 -35 -57h-41q0 52 19.5 78t54.5 26q14 0 29 -5t35 -16l41 -23
q17 -10 30.5 -16t24.5 -6q34 0 34 58h41q0 -54 -20 -79t-56 -25q-17 0 -33.5 6t-37.5 18z" />
    <glyph glyph-name="Umacron" unicode="&#x16a;" horiz-adv-x="674" 
d="M335 -15q-76 0 -125 18.5t-77.5 56t-39.5 92.5t-11 129v431h63v-432q0 -69 10.5 -115.5t34 -74t60.5 -39t90 -11.5q54 0 90 11.5t58 39.5t31.5 74t9.5 114v433h63v-432q0 -73 -11.5 -128.5t-40.5 -92.5t-79 -55.5t-126 -18.5zM212 851h251v-51h-251v51z" />
    <glyph glyph-name="umacron" unicode="&#x16b;" horiz-adv-x="571" 
d="M491 511v-511h-52l-8 72q-26 -42 -71 -63t-105 -21q-89 0 -134.5 47t-45.5 136v340h61v-310q0 -86 31 -122.5t105 -36.5q81 0 119.5 41t38.5 127v301h61zM158 679h249v-48h-249v48z" />
    <glyph glyph-name="Ubreve" unicode="&#x16c;" horiz-adv-x="674" 
d="M335 -15q-76 0 -125 18.5t-77.5 56t-39.5 92.5t-11 129v431h63v-432q0 -69 10.5 -115.5t34 -74t60.5 -39t90 -11.5q54 0 90 11.5t58 39.5t31.5 74t9.5 114v433h63v-432q0 -73 -11.5 -128.5t-40.5 -92.5t-79 -55.5t-126 -18.5zM336 766q-131 0 -131 138h49q2 -94 82 -94
q79 0 81 94h49q0 -138 -130 -138z" />
    <glyph glyph-name="ubreve" unicode="&#x16d;" horiz-adv-x="571" 
d="M491 511v-511h-52l-8 72q-26 -42 -71 -63t-105 -21q-89 0 -134.5 47t-45.5 136v340h61v-310q0 -86 31 -122.5t105 -36.5q81 0 119.5 41t38.5 127v301h61zM283 632q39 0 60.5 23.5t23.5 70.5h47q0 -67 -34.5 -102.5t-96.5 -35.5t-96.5 35.5t-34.5 102.5h47
q2 -47 23.5 -70.5t60.5 -23.5z" />
    <glyph glyph-name="Uring" unicode="&#x16e;" horiz-adv-x="674" 
d="M335 -15q-76 0 -125 18.5t-77.5 56t-39.5 92.5t-11 129v431h63v-432q0 -69 10.5 -115.5t34 -74t60.5 -39t90 -11.5q54 0 90 11.5t58 39.5t31.5 74t9.5 114v433h63v-432q0 -73 -11.5 -128.5t-40.5 -92.5t-79 -55.5t-126 -18.5zM441 836q0 -23 -8.5 -41.5t-22.5 -31.5
t-33 -20.5t-40 -7.5q-20 0 -38.5 7t-33 19.5t-23.5 31.5t-9 43q0 21 8 40t22 32.5t33 21.5t41 8q21 0 40 -7.5t33 -21t22.5 -32t8.5 -41.5zM397 836q0 27 -16.5 45t-43.5 18t-43.5 -18t-16.5 -45t16.5 -45t43.5 -18t43.5 18t16.5 45z" />
    <glyph glyph-name="uring" unicode="&#x16f;" horiz-adv-x="571" 
d="M491 511v-511h-52l-8 72q-26 -42 -71 -63t-105 -21q-89 0 -134.5 47t-45.5 136v340h61v-310q0 -86 31 -122.5t105 -36.5q81 0 119.5 41t38.5 127v301h61zM384 691q0 -42 -29 -71.5t-74 -29.5t-74 29.5t-29 71.5t29 71.5t74 29.5t74 -28t29 -73zM342 691q0 29 -17 46.5
t-44 17.5t-44 -17.5t-17 -46.5t17 -46t44 -17t44 17t17 46z" />
    <glyph glyph-name="Uhungarumlaut" unicode="&#x170;" horiz-adv-x="674" 
d="M335 -15q-76 0 -125 18.5t-77.5 56t-39.5 92.5t-11 129v431h63v-432q0 -69 10.5 -115.5t34 -74t60.5 -39t90 -11.5q54 0 90 11.5t58 39.5t31.5 74t9.5 114v433h63v-432q0 -73 -11.5 -128.5t-40.5 -92.5t-79 -55.5t-126 -18.5zM296 895h73l-110 -122h-61zM448 895h73
l-110 -122h-61z" />
    <glyph glyph-name="uhungarumlaut" unicode="&#x171;" horiz-adv-x="571" 
d="M491 511v-511h-52l-8 72q-26 -42 -71 -63t-105 -21q-89 0 -134.5 47t-45.5 136v340h61v-310q0 -86 31 -122.5t105 -36.5q81 0 119.5 41t38.5 127v301h61zM261 734h65l-121 -141h-53zM409 734h65l-121 -141h-53z" />
    <glyph glyph-name="Uogonek" unicode="&#x172;" horiz-adv-x="674" 
d="M305 -118q0 56 57 104q-12 -1 -17 -1h-10q-75 0 -123.5 18.5t-77.5 55t-40.5 92t-11.5 130.5v431h63v-432q0 -69 10.5 -115.5t34 -74t60.5 -39t90 -11.5q55 0 91 12t58 40t31 74t9 113v433h63v-432q0 -68 -9 -116t-27 -80.5t-44.5 -52.5t-61.5 -31q-26 -15 -43 -29
t-27 -27t-14 -24t-4 -20q0 -34 43 -34q17 0 44 8l-6 -45q-11 -5 -27.5 -8t-31.5 -3q-35 0 -57 16.5t-22 47.5z" />
    <glyph glyph-name="uogonek" unicode="&#x173;" horiz-adv-x="571" 
d="M491 511v-511q-39 -23 -65 -48.5t-26 -55.5q0 -36 46 -36q20 0 44 7l-7 -42q-9 -5 -25.5 -8t-31.5 -3q-37 0 -58.5 17.5t-21.5 52.5q0 71 92 127l-7 61q-26 -42 -71 -63t-105 -21q-89 0 -134.5 47t-45.5 136v340h61v-310q0 -86 31 -122.5t105 -36.5q81 0 119.5 41
t38.5 127v301h61z" />
    <glyph glyph-name="Wcircumflex" unicode="&#x174;" horiz-adv-x="863" 
d="M774 712h63l-183 -712h-77l-146 605l-151 -605h-79l-175 712h67l148 -645l157 617h70l149 -617zM400 895h60l131 -122h-66l-95 80l-96 -80h-65z" />
    <glyph glyph-name="wcircumflex" unicode="&#x175;" horiz-adv-x="747" 
d="M373 421l-123 -421h-67l-148 511h66l118 -443l120 420h69l122 -421l119 444h63l-146 -511h-68zM401 733l132 -141h-59l-101 99l-101 -99h-59l132 141h56z" />
    <glyph glyph-name="Ycircumflex" unicode="&#x176;" horiz-adv-x="591" 
d="M295 356l209 356h67l-246 -416v-296h-63v295l-242 417h71zM265 895h60l131 -122h-66l-95 80l-96 -80h-65z" />
    <glyph glyph-name="ycircumflex" unicode="&#x177;" horiz-adv-x="548" 
d="M446 511h67l-224 -574q-21 -53 -40.5 -87t-40.5 -53.5t-45 -27t-53 -7.5q-21 0 -40 4t-35 10l11 46q11 -3 27 -5t30 -2q23 0 40.5 4.5t31.5 18t27.5 38.5t28.5 66l20 53l-216 516h68l179 -442zM303 733l132 -141h-59l-101 99l-101 -99h-59l132 141h56z" />
    <glyph glyph-name="Zacute" unicode="&#x179;" horiz-adv-x="582" 
d="M454 657h-395l10 55h458v-49l-406 -608h411l-10 -55h-472v49zM375 895h83l-161 -122h-70z" />
    <glyph glyph-name="zacute" unicode="&#x17a;" horiz-adv-x="493" 
d="M118 50h333l-8 -50h-399v44l323 417h-316l9 50h381v-44zM328 733h72l-142 -141h-60z" />
    <glyph glyph-name="Zdotaccent" unicode="&#x17b;" horiz-adv-x="582" 
d="M454 657h-395l10 55h458v-49l-406 -608h411l-10 -55h-472v49zM299 875q46 0 46 -46q0 -45 -46 -45q-45 0 -45 45q0 46 45 46z" />
    <glyph glyph-name="zdotaccent" unicode="&#x17c;" horiz-adv-x="493" 
d="M118 50h333l-8 -50h-399v44l323 417h-316l9 50h381v-44zM241 709q45 0 45 -45q0 -44 -45 -44q-44 0 -44 44q0 45 44 45z" />
    <glyph glyph-name="Zcaron" unicode="&#x17d;" horiz-adv-x="582" 
d="M454 657h-395l10 55h458v-49l-406 -608h411l-10 -55h-472v49zM324 773h-60l-131 122h66l95 -80l96 80h65z" />
    <glyph glyph-name="zcaron" unicode="&#x17e;" horiz-adv-x="493" 
d="M118 50h333l-8 -50h-399v44l323 417h-316l9 50h381v-44zM223 592l-132 141h59l101 -99l101 99h58l-131 -141h-56z" />
    <glyph glyph-name="longs" unicode="&#x17f;" horiz-adv-x="245" 
d="M141 0h-61v511q0 124 47 181.5t144 57.5q20 0 41.5 -3.5t36.5 -8.5l-13 -49q-11 3 -26.5 5.5t-37.5 2.5q-37 0 -62 -10t-40.5 -32.5t-22 -57.5t-6.5 -86v-511z" />
    <glyph glyph-name="Scommaaccent" unicode="&#x218;" horiz-adv-x="563" 
d="M337 388q50 -8 83 -24.5t52.5 -41t27.5 -55.5t8 -66v-12q0 -44 -15.5 -80.5t-47 -63t-79.5 -41t-113 -14.5q-54 0 -107 9t-89 22l12 53q38 -11 85 -19.5t101 -8.5q103 0 146.5 36.5t43.5 115.5q0 25 -5.5 47t-19.5 39.5t-39.5 29t-65.5 17.5l-90 13q-90 13 -128.5 57.5
t-38.5 123.5v5q0 47 17.5 83t50.5 60t80 36.5t105 12.5q51 0 96.5 -8.5t79.5 -21.5l-14 -51q-34 11 -78 18t-89 7q-100 0 -143.5 -35.5t-43.5 -106.5q0 -55 27.5 -83.5t98.5 -38.5zM210 -251l38 106q-12 6 -17.5 17.5t-5.5 25.5q0 22 13 34t33 12q23 0 35 -12t12 -32
q0 -14 -5.5 -28t-13.5 -31l-43 -92h-46z" />
    <glyph glyph-name="scommaaccent" unicode="&#x219;" horiz-adv-x="473" 
d="M198 240q-79 11 -111.5 43.5t-32.5 92.5v4q0 36 16 62.5t44 44t66.5 26t84.5 8.5q43 0 79.5 -6.5t65.5 -15.5l-12 -50q-28 9 -61 14.5t-81 5.5q-29 0 -54.5 -4.5t-44.5 -14.5t-30 -27t-11 -42q0 -19 4 -33t14.5 -24t28.5 -16.5t46 -10.5l81 -11q68 -9 101.5 -42.5
t33.5 -98.5v-6q0 -73 -55 -111t-153 -38q-46 0 -88 6.5t-77 17.5l11 49q38 -11 74.5 -16t81.5 -5q71 0 107 23t36 76q0 18 -3 32.5t-13 26t-27.5 19t-47.5 11.5zM170 -241l36 101q-22 10 -22 41q0 20 12 31.5t32 11.5q21 0 32.5 -11.5t11.5 -30.5q0 -11 -3.5 -21t-8.5 -22
l-47 -100h-43z" />
    <glyph glyph-name="uni021A" unicode="&#x21a;" horiz-adv-x="581" 
d="M556 657h-235v-657h-64v657h-242l10 55h541zM225 -251l38 106q-12 6 -17.5 17.5t-5.5 25.5q0 22 13 34t33 12q23 0 35 -12t12 -32q0 -14 -5.5 -28t-13.5 -31l-43 -92h-46z" />
    <glyph glyph-name="uni021B" unicode="&#x21b;" horiz-adv-x="393" 
d="M185 458v-296q0 -36 6.5 -59.5t20 -37t34 -18.5t47.5 -5q17 0 33.5 2.5t31.5 5.5l-9 -49q-31 -11 -73 -11q-37 0 -65.5 8.5t-47.5 28.5t-28.5 53t-9.5 83v295h-103l9 53h94v133l60 11v-144h171l-10 -53h-161zM171 -241l36 101q-22 10 -22 41q0 20 12 31.5t32 11.5
q21 0 32.5 -11.5t11.5 -30.5q0 -11 -3.5 -21t-8.5 -22l-47 -100h-43z" />
    <glyph glyph-name="dotlessj" unicode="&#x237;" horiz-adv-x="222" 
d="M142 511v-561q0 -54 -11.5 -90t-32.5 -58t-49.5 -31t-62.5 -9q-21 0 -42.5 3.5t-39.5 10.5l11 48q14 -5 31 -7t34 -2q26 0 45 6.5t31 22t18 42t6 66.5v559h62z" />
    <glyph glyph-name="apostrophe" unicode="&#x2bc;" horiz-adv-x="266" 
d="M76 531l49 128q-14 5 -20.5 16.5t-6.5 26.5q0 20 12.5 31.5t31.5 11.5q22 0 33 -11.5t11 -30.5q0 -14 -4 -26.5t-12 -29.5l-54 -116h-40z" />
    <glyph glyph-name="caron" unicode="&#x2c7;" horiz-adv-x="500" 
d="M222 592l-132 141h59l101 -99l101 99h58l-131 -141h-56z" />
    <glyph glyph-name="uni02C9" unicode="&#x2c9;" horiz-adv-x="500" 
d="M127 679h249v-48h-249v48z" />
    <glyph glyph-name="breve" unicode="&#x2d8;" horiz-adv-x="500" 
d="M250 632q39 0 60.5 23.5t23.5 70.5h47q0 -67 -34.5 -102.5t-96.5 -35.5t-96.5 35.5t-34.5 102.5h47q2 -47 23.5 -70.5t60.5 -23.5z" />
    <glyph glyph-name="dotaccent" unicode="&#x2d9;" horiz-adv-x="500" 
d="M249 709q45 0 45 -45q0 -44 -45 -44q-44 0 -44 44q0 45 44 45z" />
    <glyph glyph-name="ring" unicode="&#x2da;" horiz-adv-x="500" 
d="M353 691q0 -42 -29 -71.5t-74 -29.5t-74 29.5t-29 71.5t29 71.5t74 29.5t74 -28t29 -73zM311 691q0 29 -17 46.5t-44 17.5t-44 -17.5t-17 -46.5t17 -46t44 -17t44 17t17 46z" />
    <glyph glyph-name="ogonek" unicode="&#x2db;" horiz-adv-x="500" 
d="M257 -186q-37 0 -58.5 17.5t-21.5 52.5q0 36 26 70.5t77 63.5l42 -18q-39 -23 -65 -48.5t-26 -55.5q0 -36 46 -36q20 0 44 7l-7 -42q-9 -5 -25.5 -8t-31.5 -3z" />
    <glyph glyph-name="hungarumlaut" unicode="&#x2dd;" horiz-adv-x="500" 
d="M199 734h65l-121 -141h-53zM347 734h65l-121 -141h-53z" />
    <glyph glyph-name="uni20B9" unicode="&#x20b9;" horiz-adv-x="586" 
d="M507 458h-67q-7 -81 -56 -124.5t-133 -47.5q-18 -1 -36.5 -1.5t-38.5 -0.5l320 -284h-86l-317 284v52h96q44 0 78.5 5.5t58 19t37 37.5t15.5 60h-286v51h287q-3 61 -35 93t-90 32h-162v49h429l-10 -51h-126q27 -20 40.5 -52.5t15.5 -70.5h76z" />
    <glyph glyph-name="Wgrave" unicode="&#x1e80;" horiz-adv-x="863" 
d="M774 712h63l-183 -712h-77l-146 605l-151 -605h-79l-175 712h67l148 -645l157 617h70l149 -617zM495 773h-69l-161 122h83z" />
    <glyph glyph-name="wgrave" unicode="&#x1e81;" horiz-adv-x="747" 
d="M373 421l-123 -421h-67l-148 511h66l118 -443l120 420h69l122 -421l119 444h63l-146 -511h-68zM431 592h-60l-142 141h72z" />
    <glyph glyph-name="Wacute" unicode="&#x1e82;" horiz-adv-x="863" 
d="M774 712h63l-183 -712h-77l-146 605l-151 -605h-79l-175 712h67l148 -645l157 617h70l149 -617zM514 895h83l-161 -122h-70z" />
    <glyph glyph-name="wacute" unicode="&#x1e83;" horiz-adv-x="747" 
d="M373 421l-123 -421h-67l-148 511h66l118 -443l120 420h69l122 -421l119 444h63l-146 -511h-68zM448 733h72l-142 -141h-60z" />
    <glyph glyph-name="Wdieresis" unicode="&#x1e84;" horiz-adv-x="863" 
d="M774 712h63l-183 -712h-77l-146 605l-151 -605h-79l-175 712h67l148 -645l157 617h70l149 -617zM353 872q43 0 43 -44q0 -43 -43 -43t-43 43q0 44 43 44zM516 872q43 0 43 -44q0 -43 -43 -43t-43 43q0 44 43 44z" />
    <glyph glyph-name="wdieresis" unicode="&#x1e85;" horiz-adv-x="747" 
d="M373 421l-123 -421h-67l-148 511h66l118 -443l120 420h69l122 -421l119 444h63l-146 -511h-68zM295 705q43 0 43 -42q0 -45 -43 -45t-43 43q0 44 43 44zM451 705q43 0 43 -44q0 -43 -43 -43t-43 44q0 43 43 43z" />
    <glyph glyph-name="Ygrave" unicode="&#x1ef2;" horiz-adv-x="591" 
d="M295 356l209 356h67l-246 -416v-296h-63v295l-242 417h71zM367 773h-69l-161 122h83z" />
    <glyph glyph-name="ygrave" unicode="&#x1ef3;" horiz-adv-x="548" 
d="M446 511h67l-224 -574q-21 -53 -40.5 -87t-40.5 -53.5t-45 -27t-53 -7.5q-21 0 -40 4t-35 10l11 46q11 -3 27 -5t30 -2q23 0 40.5 4.5t31.5 18t27.5 38.5t28.5 66l20 53l-216 516h68l179 -442zM346 592h-60l-142 141h72z" />
    <glyph glyph-name="fraction" unicode="&#x2044;" horiz-adv-x="77" 
d="M217 683h63l-420 -683h-63z" />
    <glyph glyph-name="zerosuperior" unicode="&#x2070;" 
d="M220 335q27 0 46 6.5t31 22t18 42t6 65.5v31q0 41 -6 68t-18.5 42.5t-31.5 22t-44 6.5q-26 0 -45 -6.5t-31.5 -22.5t-18.5 -43t-6 -67v-31q0 -38 6 -64t18 -42t31 -23t45 -7zM221 692q45 0 75.5 -13.5t49 -38t26.5 -58.5t8 -76v-38q0 -40 -8 -74t-26.5 -58.5t-49.5 -38.5
t-76 -14q-35 0 -64.5 9.5t-50.5 31t-32.5 57t-11.5 87.5v38q0 40 8 74t26.5 59t49 39t76.5 14z" />
    <glyph glyph-name="onesuperior" unicode="&#xb9;" 
d="M100 291l7 49h96v289l-108 -35l2 47l116 42h47v-343h99l-9 -49h-250z" />
    <glyph glyph-name="twosuperior" unicode="&#xb2;" 
d="M149 342h202l-8 -51h-251v64q0 61 23.5 92.5t68.5 48.5l51 20q34 14 45 29.5t11 38.5q0 30 -21 43.5t-64 13.5q-56 0 -115 -22l6 52q23 9 52.5 15t60.5 6q66 0 102 -26.5t36 -76.5v-5q0 -25 -6.5 -43t-18.5 -31t-28 -22t-35 -16l-51 -19q-32 -12 -46 -33.5t-14 -53.5v-24
z" />
    <glyph glyph-name="threesuperior" unicode="&#xb3;" 
d="M145 520h68q39 0 56 16t17 44q0 32 -22.5 46.5t-63.5 14.5q-24 0 -54 -6t-58 -15l6 51q23 9 52 15t56 6q66 0 103 -27.5t37 -78.5v-5q0 -59 -50 -84q24 -11 38 -35.5t14 -56.5v-7q0 -55 -40 -85t-113 -30q-32 0 -64 6.5t-55 16.5l14 48q23 -10 50 -14.5t56 -4.5
q51 0 74 17t23 51q0 12 -3 24t-11.5 21.5t-23.5 15.5t-39 6h-75z" />
    <glyph glyph-name="foursuperior" unicode="&#x2074;" 
d="M356 378h-44v-87h-51v87h-190v42l165 264h60l-163 -258h128v113l51 10v-123h52z" />
    <glyph glyph-name="fivesuperior" unicode="&#x2075;" 
d="M200 283q-32 0 -61.5 6t-52.5 17l14 46q25 -9 48 -14t52 -5q20 0 37.5 3t30.5 11t20.5 22t7.5 37q0 24 -6.5 39t-19.5 23t-31.5 10.5t-42.5 2.5h-92l4 202h224l-7 -47h-166l-2 -106h52q30 0 56 -5.5t45.5 -19t30.5 -36.5t11 -58v-8q0 -32 -12 -54.5t-32.5 -37
t-48.5 -21.5t-59 -7z" />
    <glyph glyph-name="sixsuperior" unicode="&#x2076;" 
d="M141 415q0 -38 20.5 -60t64.5 -22q17 0 32 3.5t26.5 12t18 23.5t6.5 38v6q0 43 -18 61t-60 18q-45 0 -67.5 -18.5t-22.5 -53.5v-8zM254 642q-25 0 -46 -6t-36.5 -21t-24 -40t-8.5 -62q18 15 44.5 22.5t55.5 7.5q64 0 95.5 -32t31.5 -93v-8q0 -62 -37.5 -94.5
t-103.5 -32.5q-72 0 -106.5 37t-34.5 113v65q0 53 12 90t34 60t53.5 33.5t70.5 10.5q29 0 52.5 -5t42.5 -12l-14 -47q-19 7 -38.5 10.5t-42.5 3.5z" />
    <glyph glyph-name="sevensuperior" unicode="&#x2077;" 
d="M295 634h-216l8 49h270v-40l-158 -352h-60z" />
    <glyph glyph-name="eightsuperior" unicode="&#x2078;" 
d="M220 283q-42 0 -70 9.5t-44.5 25t-23.5 35t-7 40.5v13q0 30 14.5 53.5t42.5 36.5q-23 13 -36 34.5t-13 50.5v8q0 20 8 38.5t24.5 33t42.5 23t62 8.5q28 0 53 -6t44 -18.5t29.5 -32t10.5 -46.5v-8q0 -29 -13.5 -50.5t-36.5 -33.5q27 -11 42.5 -35t15.5 -55v-15
q0 -21 -7.5 -41t-24.5 -35t-45 -24t-68 -9zM220 473q-48 0 -68.5 -17t-20.5 -52v-5q0 -35 20.5 -51.5t68.5 -16.5t68.5 16.5t20.5 51.5v5q0 36 -20.5 52.5t-68.5 16.5zM220 646q-82 0 -82 -58v-6q0 -30 19.5 -46.5t62.5 -16.5q44 0 63 15.5t19 47.5v6q0 58 -82 58z" />
    <glyph glyph-name="ninesuperior" unicode="&#x2079;" 
d="M301 561q0 41 -22 61.5t-61 20.5q-17 0 -32.5 -3.5t-27.5 -12t-19 -23.5t-7 -38v-5q0 -43 20 -62t62 -19q17 0 33 3.5t28 12t19 22.5t7 34v9zM188 333q54 0 83.5 30.5t30.5 97.5q-34 -29 -98 -29q-63 0 -96 32t-33 95v7q0 32 11 55.5t30.5 39.5t45.5 23.5t57 7.5
q69 0 103.5 -36.5t34.5 -114.5v-64q0 -54 -12 -91t-34 -60t-53.5 -33t-69.5 -10q-28 0 -52.5 5t-43.5 12l14 47q21 -6 41.5 -10t40.5 -4z" />
    <glyph glyph-name="zeroinferior" unicode="&#x2080;" 
d="M220 44q27 0 46 6.5t31 22t18 42t6 65.5v31q0 41 -6 68t-18.5 42.5t-31.5 22t-44 6.5q-26 0 -45 -6.5t-31.5 -22.5t-18.5 -43t-6 -67v-31q0 -38 6 -64t18 -42t31 -23t45 -7zM221 401q45 0 75.5 -13.5t49 -38t26.5 -58.5t8 -76v-38q0 -40 -8 -74t-26.5 -58.5t-49.5 -38.5
t-76 -14q-35 0 -64.5 9.5t-50.5 31t-32.5 57t-11.5 87.5v38q0 40 8 74t26.5 59t49 39t76.5 14z" />
    <glyph glyph-name="oneinferior" unicode="&#x2081;" 
d="M100 0l7 49h96v289l-108 -35l2 47l116 42h47v-343h99l-9 -49h-250z" />
    <glyph glyph-name="twoinferior" unicode="&#x2082;" 
d="M149 51h202l-8 -51h-251v64q0 61 23.5 92.5t68.5 48.5l51 20q34 14 45 29.5t11 38.5q0 30 -21 43.5t-64 13.5q-56 0 -115 -22l6 52q23 9 52.5 15t60.5 6q66 0 102 -26.5t36 -76.5v-5q0 -25 -6.5 -43t-18.5 -31t-28 -22t-35 -16l-51 -19q-32 -12 -46 -33.5t-14 -53.5v-24z
" />
    <glyph glyph-name="threeinferior" unicode="&#x2083;" 
d="M145 229h68q39 0 56 16t17 44q0 32 -22.5 46.5t-63.5 14.5q-24 0 -54 -6t-58 -15l6 51q23 9 52 15t56 6q66 0 103 -27.5t37 -78.5v-5q0 -59 -50 -84q24 -11 38 -35.5t14 -56.5v-7q0 -55 -40 -85t-113 -30q-32 0 -64 6.5t-55 16.5l14 48q23 -10 50 -14.5t56 -4.5
q51 0 74 17t23 51q0 12 -3 24t-11.5 21.5t-23.5 15.5t-39 6h-75z" />
    <glyph glyph-name="fourinferior" unicode="&#x2084;" 
d="M356 87h-44v-87h-51v87h-190v42l165 264h60l-163 -258h128v113l51 10v-123h52z" />
    <glyph glyph-name="fiveinferior" unicode="&#x2085;" 
d="M200 -8q-32 0 -61.5 6t-52.5 17l14 46q25 -9 48 -14t52 -5q20 0 37.5 3t30.5 11t20.5 22t7.5 37q0 24 -6.5 39t-19.5 23t-31.5 10.5t-42.5 2.5h-92l4 202h224l-7 -47h-166l-2 -106h52q30 0 56 -5.5t45.5 -19t30.5 -36.5t11 -58v-8q0 -32 -12 -54.5t-32.5 -37t-48.5 -21.5
t-59 -7z" />
    <glyph glyph-name="sixinferior" unicode="&#x2086;" 
d="M140 124q0 -38 20.5 -60t64.5 -22q17 0 32 3.5t26.5 12t18 23.5t6.5 38v6q0 43 -18 61t-60 18q-45 0 -67.5 -18.5t-22.5 -53.5v-8zM253 351q-25 0 -46 -6t-36.5 -21t-24 -40t-8.5 -62q18 15 44.5 22.5t55.5 7.5q64 0 95.5 -32t31.5 -93v-8q0 -62 -37.5 -94.5
t-103.5 -32.5q-72 0 -106.5 37t-34.5 113v65q0 53 12 90t34 60t53.5 33.5t70.5 10.5q29 0 52.5 -5t42.5 -12l-14 -47q-19 7 -38.5 10.5t-42.5 3.5z" />
    <glyph glyph-name="seveninferior" unicode="&#x2087;" 
d="M295 343h-216l8 49h270v-40l-158 -352h-60z" />
    <glyph glyph-name="eightinferior" unicode="&#x2088;" 
d="M220 -8q-42 0 -70 9.5t-44.5 25t-23.5 35t-7 40.5v13q0 30 14.5 53.5t42.5 36.5q-23 13 -36 34.5t-13 50.5v8q0 20 8 38.5t24.5 33t42.5 23t62 8.5q28 0 53 -6t44 -18.5t29.5 -32t10.5 -46.5v-8q0 -29 -13.5 -50.5t-36.5 -33.5q27 -11 42.5 -35t15.5 -55v-15
q0 -21 -7.5 -41t-24.5 -35t-45 -24t-68 -9zM220 182q-48 0 -68.5 -17t-20.5 -52v-5q0 -35 20.5 -51.5t68.5 -16.5t68.5 16.5t20.5 51.5v5q0 36 -20.5 52.5t-68.5 16.5zM220 355q-82 0 -82 -58v-6q0 -30 19.5 -46.5t62.5 -16.5q44 0 63 15.5t19 47.5v6q0 58 -82 58z" />
    <glyph glyph-name="nineinferior" unicode="&#x2089;" 
d="M301 270q0 41 -22 61.5t-61 20.5q-17 0 -32.5 -3.5t-27.5 -12t-19 -23.5t-7 -38v-5q0 -43 20 -62t62 -19q17 0 33 3.5t28 12t19 22.5t7 34v9zM188 42q54 0 83.5 30.5t30.5 97.5q-34 -29 -98 -29q-63 0 -96 32t-33 95v7q0 32 11 55.5t30.5 39.5t45.5 23.5t57 7.5
q69 0 103.5 -36.5t34.5 -114.5v-64q0 -54 -12 -91t-34 -60t-53.5 -33t-69.5 -10q-28 0 -52.5 5t-43.5 12l14 47q21 -6 41.5 -10t40.5 -4z" />
    <glyph glyph-name="afii61289" unicode="&#x2113;" horiz-adv-x="385" 
d="M213 -17q-66 0 -93.5 40t-27.5 130v53l-55 -60l-31 34l86 88v289q0 167 121 167q112 0 112 -138q0 -41 -10.5 -79t-32.5 -77t-55.5 -82t-79.5 -93v-108q0 -60 18 -86t60 -26q46 0 90 28l18 -40q-23 -19 -53.5 -29.5t-66.5 -10.5zM147 323q36 43 60 76.5t38 63.5t20 58
t6 59q0 46 -13 69t-47 23q-33 0 -48.5 -27t-15.5 -89v-233z" />
    <glyph glyph-name="estimated" unicode="&#x212e;" horiz-adv-x="785" 
d="M389 656q-70 0 -123 -16.5t-89 -52.5v-211h431v211q-39 33 -93.5 51t-125.5 18zM691 149q-29 -45 -61 -75.5t-68 -49t-78 -26.5t-91 -8q-83 0 -148 27.5t-109.5 74.5t-68 111t-23.5 137t23 136.5t67.5 109.5t108.5 72.5t146 26.5t147 -25t110 -71t69.5 -109.5
t25.5 -139.5h-564v-245q38 -38 89.5 -58t127.5 -20q93 0 159 33.5t116 113.5z" />
    <glyph glyph-name="onethird" unicode="&#x2153;" horiz-adv-x="960" 
d="M662 683h63l-420 -683h-63zM664 229h68q39 0 56 16t17 44q0 32 -22.5 46.5t-63.5 14.5q-24 0 -54 -6t-58 -15l6 51q23 9 52 15t56 6q66 0 103 -27.5t37 -78.5v-5q0 -59 -50 -84q24 -11 38 -35.5t14 -56.5v-7q0 -55 -40 -85t-113 -30q-32 0 -64 6.5t-55 16.5l14 48
q23 -10 50 -14.5t56 -4.5q51 0 74 17t23 51q0 12 -3 24t-11.5 21.5t-23.5 15.5t-39 6h-75zM100 291l7 49h96v289l-108 -35l2 47l116 42h47v-343h99l-9 -49h-250z" />
    <glyph glyph-name="twothirds" unicode="&#x2154;" horiz-adv-x="960" 
d="M662 683h63l-420 -683h-63zM664 229h68q39 0 56 16t17 44q0 32 -22.5 46.5t-63.5 14.5q-24 0 -54 -6t-58 -15l6 51q23 9 52 15t56 6q66 0 103 -27.5t37 -78.5v-5q0 -59 -50 -84q24 -11 38 -35.5t14 -56.5v-7q0 -55 -40 -85t-113 -30q-32 0 -64 6.5t-55 16.5l14 48
q23 -10 50 -14.5t56 -4.5q51 0 74 17t23 51q0 12 -3 24t-11.5 21.5t-23.5 15.5t-39 6h-75zM149 342h202l-8 -51h-251v64q0 61 23.5 92.5t68.5 48.5l51 20q34 14 45 29.5t11 38.5q0 30 -21 43.5t-64 13.5q-56 0 -115 -22l6 52q23 9 52.5 15t60.5 6q66 0 102 -26.5t36 -76.5
v-5q0 -25 -6.5 -43t-18.5 -31t-28 -22t-35 -16l-51 -19q-32 -12 -46 -33.5t-14 -53.5v-24z" />
    <glyph glyph-name="oneeighth" unicode="&#x215b;" horiz-adv-x="960" 
d="M658 683h63l-420 -683h-63zM739 -8q-42 0 -70 9.5t-44.5 25t-23.5 35t-7 40.5v13q0 30 14.5 53.5t42.5 36.5q-23 13 -36 34.5t-13 50.5v8q0 20 8 38.5t24.5 33t42.5 23t62 8.5q28 0 53 -6t44 -18.5t29.5 -32t10.5 -46.5v-8q0 -29 -13.5 -50.5t-36.5 -33.5
q27 -11 42.5 -35t15.5 -55v-15q0 -21 -7.5 -41t-24.5 -35t-45 -24t-68 -9zM739 182q-48 0 -68.5 -17t-20.5 -52v-5q0 -35 20.5 -51.5t68.5 -16.5t68.5 16.5t20.5 51.5v5q0 36 -20.5 52.5t-68.5 16.5zM739 355q-82 0 -82 -58v-6q0 -30 19.5 -46.5t62.5 -16.5q44 0 63 15.5
t19 47.5v6q0 58 -82 58zM100 291l7 49h96v289l-108 -35l2 47l116 42h47v-343h99l-9 -49h-250z" />
    <glyph glyph-name="threeeighths" unicode="&#x215c;" horiz-adv-x="960" 
d="M658 683h63l-420 -683h-63zM739 -8q-42 0 -70 9.5t-44.5 25t-23.5 35t-7 40.5v13q0 30 14.5 53.5t42.5 36.5q-23 13 -36 34.5t-13 50.5v8q0 20 8 38.5t24.5 33t42.5 23t62 8.5q28 0 53 -6t44 -18.5t29.5 -32t10.5 -46.5v-8q0 -29 -13.5 -50.5t-36.5 -33.5
q27 -11 42.5 -35t15.5 -55v-15q0 -21 -7.5 -41t-24.5 -35t-45 -24t-68 -9zM739 182q-48 0 -68.5 -17t-20.5 -52v-5q0 -35 20.5 -51.5t68.5 -16.5t68.5 16.5t20.5 51.5v5q0 36 -20.5 52.5t-68.5 16.5zM739 355q-82 0 -82 -58v-6q0 -30 19.5 -46.5t62.5 -16.5q44 0 63 15.5
t19 47.5v6q0 58 -82 58zM145 520h68q39 0 56 16t17 44q0 32 -22.5 46.5t-63.5 14.5q-24 0 -54 -6t-58 -15l6 51q23 9 52 15t56 6q66 0 103 -27.5t37 -78.5v-5q0 -59 -50 -84q24 -11 38 -35.5t14 -56.5v-7q0 -55 -40 -85t-113 -30q-32 0 -64 6.5t-55 16.5l14 48
q23 -10 50 -14.5t56 -4.5q51 0 74 17t23 51q0 12 -3 24t-11.5 21.5t-23.5 15.5t-39 6h-75z" />
    <glyph glyph-name="fiveeighths" unicode="&#x215d;" horiz-adv-x="960" 
d="M652 683h63l-420 -683h-63zM739 -8q-42 0 -70 9.5t-44.5 25t-23.5 35t-7 40.5v13q0 30 14.5 53.5t42.5 36.5q-23 13 -36 34.5t-13 50.5v8q0 20 8 38.5t24.5 33t42.5 23t62 8.5q28 0 53 -6t44 -18.5t29.5 -32t10.5 -46.5v-8q0 -29 -13.5 -50.5t-36.5 -33.5
q27 -11 42.5 -35t15.5 -55v-15q0 -21 -7.5 -41t-24.5 -35t-45 -24t-68 -9zM739 182q-48 0 -68.5 -17t-20.5 -52v-5q0 -35 20.5 -51.5t68.5 -16.5t68.5 16.5t20.5 51.5v5q0 36 -20.5 52.5t-68.5 16.5zM739 355q-82 0 -82 -58v-6q0 -30 19.5 -46.5t62.5 -16.5q44 0 63 15.5
t19 47.5v6q0 58 -82 58zM200 283q-32 0 -61.5 6t-52.5 17l14 46q25 -9 48 -14t52 -5q20 0 37.5 3t30.5 11t20.5 22t7.5 37q0 24 -6.5 39t-19.5 23t-31.5 10.5t-42.5 2.5h-92l4 202h224l-7 -47h-166l-2 -106h52q30 0 56 -5.5t45.5 -19t30.5 -36.5t11 -58v-8q0 -32 -12 -54.5
t-32.5 -37t-48.5 -21.5t-59 -7z" />
    <glyph glyph-name="seveneighths" unicode="&#x215e;" horiz-adv-x="960" 
d="M623 683h63l-420 -683h-63zM739 -8q-42 0 -70 9.5t-44.5 25t-23.5 35t-7 40.5v13q0 30 14.5 53.5t42.5 36.5q-23 13 -36 34.5t-13 50.5v8q0 20 8 38.5t24.5 33t42.5 23t62 8.5q28 0 53 -6t44 -18.5t29.5 -32t10.5 -46.5v-8q0 -29 -13.5 -50.5t-36.5 -33.5
q27 -11 42.5 -35t15.5 -55v-15q0 -21 -7.5 -41t-24.5 -35t-45 -24t-68 -9zM739 182q-48 0 -68.5 -17t-20.5 -52v-5q0 -35 20.5 -51.5t68.5 -16.5t68.5 16.5t20.5 51.5v5q0 36 -20.5 52.5t-68.5 16.5zM739 355q-82 0 -82 -58v-6q0 -30 19.5 -46.5t62.5 -16.5q44 0 63 15.5
t19 47.5v6q0 58 -82 58zM295 634h-216l8 49h270v-40l-158 -352h-60z" />
    <glyph glyph-name="onefifth" unicode="&#x2155;" horiz-adv-x="960" 
d="M660 683h63l-420 -683h-63zM719 -8q-32 0 -61.5 6t-52.5 17l14 46q25 -9 48 -14t52 -5q20 0 37.5 3t30.5 11t20.5 22t7.5 37q0 24 -6.5 39t-19.5 23t-31.5 10.5t-42.5 2.5h-92l4 202h224l-7 -47h-166l-2 -106h52q30 0 56 -5.5t45.5 -19t30.5 -36.5t11 -58v-8
q0 -32 -12 -54.5t-32.5 -37t-48.5 -21.5t-59 -7zM100 291l7 49h96v289l-108 -35l2 47l116 42h47v-343h99l-9 -49h-250z" />
    <glyph glyph-name="twofifths" unicode="&#x2156;" horiz-adv-x="960" 
d="M660 683h63l-420 -683h-63zM719 -8q-32 0 -61.5 6t-52.5 17l14 46q25 -9 48 -14t52 -5q20 0 37.5 3t30.5 11t20.5 22t7.5 37q0 24 -6.5 39t-19.5 23t-31.5 10.5t-42.5 2.5h-92l4 202h224l-7 -47h-166l-2 -106h52q30 0 56 -5.5t45.5 -19t30.5 -36.5t11 -58v-8
q0 -32 -12 -54.5t-32.5 -37t-48.5 -21.5t-59 -7zM149 342h202l-8 -51h-251v64q0 61 23.5 92.5t68.5 48.5l51 20q34 14 45 29.5t11 38.5q0 30 -21 43.5t-64 13.5q-56 0 -115 -22l6 52q23 9 52.5 15t60.5 6q66 0 102 -26.5t36 -76.5v-5q0 -25 -6.5 -43t-18.5 -31t-28 -22
t-35 -16l-51 -19q-32 -12 -46 -33.5t-14 -53.5v-24z" />
    <glyph glyph-name="threefifths" unicode="&#x2157;" horiz-adv-x="960" 
d="M651 683h63l-420 -683h-63zM719 -8q-32 0 -61.5 6t-52.5 17l14 46q25 -9 48 -14t52 -5q20 0 37.5 3t30.5 11t20.5 22t7.5 37q0 24 -6.5 39t-19.5 23t-31.5 10.5t-42.5 2.5h-92l4 202h224l-7 -47h-166l-2 -106h52q30 0 56 -5.5t45.5 -19t30.5 -36.5t11 -58v-8
q0 -32 -12 -54.5t-32.5 -37t-48.5 -21.5t-59 -7zM145 520h68q39 0 56 16t17 44q0 32 -22.5 46.5t-63.5 14.5q-24 0 -54 -6t-58 -15l6 51q23 9 52 15t56 6q66 0 103 -27.5t37 -78.5v-5q0 -59 -50 -84q24 -11 38 -35.5t14 -56.5v-7q0 -55 -40 -85t-113 -30q-32 0 -64 6.5
t-55 16.5l14 48q23 -10 50 -14.5t56 -4.5q51 0 74 17t23 51q0 12 -3 24t-11.5 21.5t-23.5 15.5t-39 6h-75z" />
    <glyph glyph-name="fourfifths" unicode="&#x2158;" horiz-adv-x="960" 
d="M660 683h63l-420 -683h-63zM719 -8q-32 0 -61.5 6t-52.5 17l14 46q25 -9 48 -14t52 -5q20 0 37.5 3t30.5 11t20.5 22t7.5 37q0 24 -6.5 39t-19.5 23t-31.5 10.5t-42.5 2.5h-92l4 202h224l-7 -47h-166l-2 -106h52q30 0 56 -5.5t45.5 -19t30.5 -36.5t11 -58v-8
q0 -32 -12 -54.5t-32.5 -37t-48.5 -21.5t-59 -7zM356 378h-44v-87h-51v87h-190v42l165 264h60l-163 -258h128v113l51 10v-123h52z" />
    <glyph glyph-name="onesixth" unicode="&#x2159;" horiz-adv-x="960" 
d="M659 683h63l-420 -683h-63zM659 124q0 -38 20.5 -60t64.5 -22q17 0 32 3.5t26.5 12t18 23.5t6.5 38v6q0 43 -18 61t-60 18q-45 0 -67.5 -18.5t-22.5 -53.5v-8zM772 351q-25 0 -46 -6t-36.5 -21t-24 -40t-8.5 -62q18 15 44.5 22.5t55.5 7.5q64 0 95.5 -32t31.5 -93v-8
q0 -62 -37.5 -94.5t-103.5 -32.5q-72 0 -106.5 37t-34.5 113v65q0 53 12 90t34 60t53.5 33.5t70.5 10.5q29 0 52.5 -5t42.5 -12l-14 -47q-19 7 -38.5 10.5t-42.5 3.5zM100 291l7 49h96v289l-108 -35l2 47l116 42h47v-343h99l-9 -49h-250z" />
    <glyph glyph-name="fivesixths" unicode="&#x215a;" horiz-adv-x="960" 
d="M659 683h63l-420 -683h-63zM659 124q0 -38 20.5 -60t64.5 -22q17 0 32 3.5t26.5 12t18 23.5t6.5 38v6q0 43 -18 61t-60 18q-45 0 -67.5 -18.5t-22.5 -53.5v-8zM772 351q-25 0 -46 -6t-36.5 -21t-24 -40t-8.5 -62q18 15 44.5 22.5t55.5 7.5q64 0 95.5 -32t31.5 -93v-8
q0 -62 -37.5 -94.5t-103.5 -32.5q-72 0 -106.5 37t-34.5 113v65q0 53 12 90t34 60t53.5 33.5t70.5 10.5q29 0 52.5 -5t42.5 -12l-14 -47q-19 7 -38.5 10.5t-42.5 3.5zM200 283q-32 0 -61.5 6t-52.5 17l14 46q25 -9 48 -14t52 -5q20 0 37.5 3t30.5 11t20.5 22t7.5 37
q0 24 -6.5 39t-19.5 23t-31.5 10.5t-42.5 2.5h-92l4 202h224l-7 -47h-166l-2 -106h52q30 0 56 -5.5t45.5 -19t30.5 -36.5t11 -58v-8q0 -32 -12 -54.5t-32.5 -37t-48.5 -21.5t-59 -7z" />
    <glyph glyph-name="oneseventh" unicode="&#x2150;" horiz-adv-x="960" 
d="M649 683h63l-420 -683h-63zM814 343h-216l8 49h270v-40l-158 -352h-60zM100 291l7 49h96v289l-108 -35l2 47l116 42h47v-343h99l-9 -49h-250z" />
    <glyph glyph-name="twosevenths" unicode="&#xf507;" horiz-adv-x="960" 
d="M645 683h63l-420 -683h-63zM814 343h-216l8 49h270v-40l-158 -352h-60zM149 342h202l-8 -51h-251v64q0 61 23.5 92.5t68.5 48.5l51 20q34 14 45 29.5t11 38.5q0 30 -21 43.5t-64 13.5q-56 0 -115 -22l6 52q23 9 52.5 15t60.5 6q66 0 102 -26.5t36 -76.5v-5
q0 -25 -6.5 -43t-18.5 -31t-28 -22t-35 -16l-51 -19q-32 -12 -46 -33.5t-14 -53.5v-24z" />
    <glyph glyph-name="threesevenths" unicode="&#xf508;" horiz-adv-x="960" 
d="M637 683h63l-420 -683h-63zM814 343h-216l8 49h270v-40l-158 -352h-60zM145 520h68q39 0 56 16t17 44q0 32 -22.5 46.5t-63.5 14.5q-24 0 -54 -6t-58 -15l6 51q23 9 52 15t56 6q66 0 103 -27.5t37 -78.5v-5q0 -59 -50 -84q24 -11 38 -35.5t14 -56.5v-7q0 -55 -40 -85
t-113 -30q-32 0 -64 6.5t-55 16.5l14 48q23 -10 50 -14.5t56 -4.5q51 0 74 17t23 51q0 12 -3 24t-11.5 21.5t-23.5 15.5t-39 6h-75z" />
    <glyph glyph-name="foursevenths" unicode="&#xf509;" horiz-adv-x="960" 
d="M644 683h63l-420 -683h-63zM814 343h-216l8 49h270v-40l-158 -352h-60zM356 378h-44v-87h-51v87h-190v42l165 264h60l-163 -258h128v113l51 10v-123h52z" />
    <glyph glyph-name="fivesevenths" unicode="&#xf50a;" horiz-adv-x="960" 
d="M634 683h63l-420 -683h-63zM814 343h-216l8 49h270v-40l-158 -352h-60zM200 283q-32 0 -61.5 6t-52.5 17l14 46q25 -9 48 -14t52 -5q20 0 37.5 3t30.5 11t20.5 22t7.5 37q0 24 -6.5 39t-19.5 23t-31.5 10.5t-42.5 2.5h-92l4 202h224l-7 -47h-166l-2 -106h52q30 0 56 -5.5
t45.5 -19t30.5 -36.5t11 -58v-8q0 -32 -12 -54.5t-32.5 -37t-48.5 -21.5t-59 -7z" />
    <glyph glyph-name="sixsevenths" unicode="&#xf50b;" horiz-adv-x="960" 
d="M642 683h63l-420 -683h-63zM814 343h-216l8 49h270v-40l-158 -352h-60zM140 415q0 -38 20.5 -60t64.5 -22q17 0 32 3.5t26.5 12t18 23.5t6.5 38v6q0 43 -18 61t-60 18q-45 0 -67.5 -18.5t-22.5 -53.5v-8zM253 642q-25 0 -46 -6t-36.5 -21t-24 -40t-8.5 -62
q18 15 44.5 22.5t55.5 7.5q64 0 95.5 -32t31.5 -93v-8q0 -62 -37.5 -94.5t-103.5 -32.5q-72 0 -106.5 37t-34.5 113v65q0 53 12 90t34 60t53.5 33.5t70.5 10.5q29 0 52.5 -5t42.5 -12l-14 -47q-19 7 -38.5 10.5t-42.5 3.5z" />
    <glyph glyph-name="oneninth" unicode="&#x2151;" horiz-adv-x="960" 
d="M660 683h63l-420 -683h-63zM820 270q0 41 -22 61.5t-61 20.5q-17 0 -32.5 -3.5t-27.5 -12t-19 -23.5t-7 -38v-5q0 -43 20 -62t62 -19q17 0 33 3.5t28 12t19 22.5t7 34v9zM707 42q54 0 83.5 30.5t30.5 97.5q-34 -29 -98 -29q-63 0 -96 32t-33 95v7q0 32 11 55.5t30.5 39.5
t45.5 23.5t57 7.5q69 0 103.5 -36.5t34.5 -114.5v-64q0 -54 -12 -91t-34 -60t-53.5 -33t-69.5 -10q-28 0 -52.5 5t-43.5 12l14 47q21 -6 41.5 -10t40.5 -4zM100 291l7 49h96v289l-108 -35l2 47l116 42h47v-343h99l-9 -49h-250z" />
    <glyph glyph-name="twoninths" unicode="&#xf50d;" horiz-adv-x="960" 
d="M660 683h63l-420 -683h-63zM820 270q0 41 -22 61.5t-61 20.5q-17 0 -32.5 -3.5t-27.5 -12t-19 -23.5t-7 -38v-5q0 -43 20 -62t62 -19q17 0 33 3.5t28 12t19 22.5t7 34v9zM707 42q54 0 83.5 30.5t30.5 97.5q-34 -29 -98 -29q-63 0 -96 32t-33 95v7q0 32 11 55.5t30.5 39.5
t45.5 23.5t57 7.5q69 0 103.5 -36.5t34.5 -114.5v-64q0 -54 -12 -91t-34 -60t-53.5 -33t-69.5 -10q-28 0 -52.5 5t-43.5 12l14 47q21 -6 41.5 -10t40.5 -4zM149 342h202l-8 -51h-251v64q0 61 23.5 92.5t68.5 48.5l51 20q34 14 45 29.5t11 38.5q0 30 -21 43.5t-64 13.5
q-56 0 -115 -22l6 52q23 9 52.5 15t60.5 6q66 0 102 -26.5t36 -76.5v-5q0 -25 -6.5 -43t-18.5 -31t-28 -22t-35 -16l-51 -19q-32 -12 -46 -33.5t-14 -53.5v-24z" />
    <glyph glyph-name="fourninths" unicode="&#xf50e;" horiz-adv-x="960" 
d="M661 683h63l-420 -683h-63zM820 270q0 41 -22 61.5t-61 20.5q-17 0 -32.5 -3.5t-27.5 -12t-19 -23.5t-7 -38v-5q0 -43 20 -62t62 -19q17 0 33 3.5t28 12t19 22.5t7 34v9zM707 42q54 0 83.5 30.5t30.5 97.5q-34 -29 -98 -29q-63 0 -96 32t-33 95v7q0 32 11 55.5t30.5 39.5
t45.5 23.5t57 7.5q69 0 103.5 -36.5t34.5 -114.5v-64q0 -54 -12 -91t-34 -60t-53.5 -33t-69.5 -10q-28 0 -52.5 5t-43.5 12l14 47q21 -6 41.5 -10t40.5 -4zM356 378h-44v-87h-51v87h-190v42l165 264h60l-163 -258h128v113l51 10v-123h52z" />
    <glyph glyph-name="fiveninths" unicode="&#xf50f;" horiz-adv-x="960" 
d="M651 683h63l-420 -683h-63zM820 270q0 41 -22 61.5t-61 20.5q-17 0 -32.5 -3.5t-27.5 -12t-19 -23.5t-7 -38v-5q0 -43 20 -62t62 -19q17 0 33 3.5t28 12t19 22.5t7 34v9zM707 42q54 0 83.5 30.5t30.5 97.5q-34 -29 -98 -29q-63 0 -96 32t-33 95v7q0 32 11 55.5t30.5 39.5
t45.5 23.5t57 7.5q69 0 103.5 -36.5t34.5 -114.5v-64q0 -54 -12 -91t-34 -60t-53.5 -33t-69.5 -10q-28 0 -52.5 5t-43.5 12l14 47q21 -6 41.5 -10t40.5 -4zM200 283q-32 0 -61.5 6t-52.5 17l14 46q25 -9 48 -14t52 -5q20 0 37.5 3t30.5 11t20.5 22t7.5 37q0 24 -6.5 39
t-19.5 23t-31.5 10.5t-42.5 2.5h-92l4 202h224l-7 -47h-166l-2 -106h52q30 0 56 -5.5t45.5 -19t30.5 -36.5t11 -58v-8q0 -32 -12 -54.5t-32.5 -37t-48.5 -21.5t-59 -7z" />
    <glyph glyph-name="sevenninths" unicode="&#xf510;" horiz-adv-x="960" 
d="M616 683h63l-420 -683h-63zM820 270q0 41 -22 61.5t-61 20.5q-17 0 -32.5 -3.5t-27.5 -12t-19 -23.5t-7 -38v-5q0 -43 20 -62t62 -19q17 0 33 3.5t28 12t19 22.5t7 34v9zM707 42q54 0 83.5 30.5t30.5 97.5q-34 -29 -98 -29q-63 0 -96 32t-33 95v7q0 32 11 55.5t30.5 39.5
t45.5 23.5t57 7.5q69 0 103.5 -36.5t34.5 -114.5v-64q0 -54 -12 -91t-34 -60t-53.5 -33t-69.5 -10q-28 0 -52.5 5t-43.5 12l14 47q21 -6 41.5 -10t40.5 -4zM295 634h-216l8 49h270v-40l-158 -352h-60z" />
    <glyph glyph-name="eightninths" unicode="&#xf511;" horiz-adv-x="960" 
d="M659 683h63l-420 -683h-63zM820 270q0 41 -22 61.5t-61 20.5q-17 0 -32.5 -3.5t-27.5 -12t-19 -23.5t-7 -38v-5q0 -43 20 -62t62 -19q17 0 33 3.5t28 12t19 22.5t7 34v9zM707 42q54 0 83.5 30.5t30.5 97.5q-34 -29 -98 -29q-63 0 -96 32t-33 95v7q0 32 11 55.5t30.5 39.5
t45.5 23.5t57 7.5q69 0 103.5 -36.5t34.5 -114.5v-64q0 -54 -12 -91t-34 -60t-53.5 -33t-69.5 -10q-28 0 -52.5 5t-43.5 12l14 47q21 -6 41.5 -10t40.5 -4zM220 283q-42 0 -70 9.5t-44.5 25t-23.5 35t-7 40.5v13q0 30 14.5 53.5t42.5 36.5q-23 13 -36 34.5t-13 50.5v8
q0 20 8 38.5t24.5 33t42.5 23t62 8.5q28 0 53 -6t44 -18.5t29.5 -32t10.5 -46.5v-8q0 -29 -13.5 -50.5t-36.5 -33.5q27 -11 42.5 -35t15.5 -55v-15q0 -21 -7.5 -41t-24.5 -35t-45 -24t-68 -9zM220 473q-48 0 -68.5 -17t-20.5 -52v-5q0 -35 20.5 -51.5t68.5 -16.5t68.5 16.5
t20.5 51.5v5q0 36 -20.5 52.5t-68.5 16.5zM220 646q-82 0 -82 -58v-6q0 -30 19.5 -46.5t62.5 -16.5q44 0 63 15.5t19 47.5v6q0 58 -82 58z" />
    <glyph glyph-name="partialdiff" unicode="&#x2202;" horiz-adv-x="595" 
d="M297 459q61 0 104.5 -23.5t69.5 -63.5q1 8 1 17v17q0 73 -10.5 126.5t-34 88t-62.5 51t-96 16.5q-42 0 -82 -7.5t-66 -18.5l9 52q27 11 67 19t83 8q63 0 110.5 -19t79.5 -59.5t48 -104t16 -153.5q0 -79 -14 -154.5t-47 -134.5t-88 -95t-138 -36q-98 0 -150 54t-52 156
q0 65 20.5 114.5t55.5 82.5t80.5 50t95.5 17zM255 40q54 0 91.5 21.5t61.5 57t37.5 80t19.5 90.5q-22 57 -64 86.5t-102 29.5q-41 0 -75.5 -13t-59.5 -38.5t-39.5 -63.5t-14.5 -89q0 -81 37.5 -121t107.5 -40z" />
    <glyph glyph-name="Delta" unicode="&#x2206;" horiz-adv-x="630" 
d="M277 713h76l252 -713h-580zM108 55h414l-208 598z" />
    <glyph glyph-name="product" unicode="&#x220f;" horiz-adv-x="687" 
d="M672 712l-9 -55h-91v-744h-63v744h-332v-744h-63v744h-99l8 55h649z" />
    <glyph glyph-name="summation" unicode="&#x2211;" horiz-adv-x="553" 
d="M106 -53h420l-9 -55h-478v46l236 382l-235 347v46h491l-9 -55h-407l228 -336z" />
    <glyph glyph-name="uni2126" unicode="&#x2126;" horiz-adv-x="718" 
d="M85 55h138q-88 67 -125.5 153t-37.5 194q0 66 18 125.5t54.5 103.5t93.5 70t135 26q76 0 132 -25t93 -69t54.5 -103.5t17.5 -127.5q0 -108 -37.5 -194.5t-124.5 -152.5h149l-11 -55h-212v56q45 33 77.5 68t53.5 75.5t30.5 89t9.5 109.5q0 138 -60 206t-172 68
q-53 0 -96.5 -15.5t-74.5 -48.5t-48 -85t-17 -125t14 -126t37.5 -92.5t54.5 -69t65 -54.5v-56h-223z" />
    <glyph glyph-name="minus" unicode="&#x2212;" horiz-adv-x="586" 
d="M499 370v-55h-412v55h412z" />
    <glyph glyph-name="uni2215" unicode="&#x2215;" horiz-adv-x="77" 
d="M217 683h63l-420 -683h-63z" />
    <glyph glyph-name="uni2219" unicode="&#x2219;" horiz-adv-x="266" 
d="M133 385q46 0 46 -48q0 -47 -46 -47t-46 47q0 48 46 48z" />
    <glyph glyph-name="radical" unicode="&#x221a;" horiz-adv-x="716" 
d="M29 477v54h154l171 -474l291 822h60l-315 -883h-72l-179 481h-110z" />
    <glyph glyph-name="infinity" unicode="&#x221e;" horiz-adv-x="686" 
d="M179 194q-68 0 -103.5 39.5t-35.5 114.5q0 78 38 119t107 41q21 0 41 -5t39 -17.5t38 -33.5t38 -54q37 62 74 89t88 27q69 0 106 -42t37 -120q0 -81 -39 -122.5t-108 -41.5q-53 0 -90 28t-69 83q-34 -56 -72.5 -80.5t-88.5 -24.5zM496 238q47 0 71 30.5t24 84.5t-23.5 83
t-68.5 29q-37 0 -69 -29t-63 -86q17 -28 31.5 -49t29.5 -35t31 -21t37 -7zM183 459q-44 0 -65.5 -28.5t-21.5 -79.5t21.5 -79t68.5 -28q38 0 68.5 26t59.5 78q-32 57 -63 84t-68 27z" />
    <glyph glyph-name="integral" unicode="&#x222b;" horiz-adv-x="337" 
d="M91 520q-5 29 -9 55t-4 48q0 36 11.5 62t32 43.5t48.5 26t61 8.5q28 0 51.5 -4.5t35.5 -9.5l-13 -51q-14 4 -33.5 7.5t-39.5 3.5q-45 0 -67.5 -21.5t-22.5 -69.5q0 -17 2.5 -39.5t6.5 -42.5l99 -524q5 -29 9 -55t4 -48q0 -67 -41.5 -103.5t-114.5 -36.5q-29 0 -53 4.5
t-36 9.5l13 51q14 -4 34 -7.5t41 -3.5q45 0 69 21t24 70q0 17 -2.5 39.5t-6.5 42.5z" />
    <glyph glyph-name="approxequal" unicode="&#x2248;" horiz-adv-x="586" 
d="M335 195q22 -13 37 -20.5t32 -7.5q32 0 43.5 23t11.5 80h53q0 -44 -7 -74.5t-20.5 -49.5t-33 -27t-44.5 -8q-18 0 -38 7t-48 24l-72 42q-26 15 -39 20t-28 5q-32 0 -43.5 -22t-11.5 -80h-53q0 46 7.5 76.5t21 48.5t33 25.5t42.5 7.5q20 0 40.5 -6.5t47.5 -22.5zM335 426
q22 -13 37 -20.5t32 -7.5q32 0 43.5 23t11.5 80h53q0 -44 -7 -74.5t-20.5 -49.5t-33 -27t-44.5 -8q-18 0 -38 7t-48 24l-72 42q-26 15 -39 20t-28 5q-32 0 -43.5 -22t-11.5 -80h-53q0 46 7.5 76.5t21 48.5t33 25.5t42.5 7.5q20 0 40.5 -6.5t47.5 -22.5z" />
    <glyph glyph-name="notequal" unicode="&#x2260;" horiz-adv-x="586" 
d="M326 465l58 118h51l-58 -118h120v-55h-147l-68 -139h215v-55h-242l-58 -119h-50l58 119h-116v55h143l68 139h-211v55h237z" />
    <glyph glyph-name="lessequal" unicode="&#x2264;" horiz-adv-x="586" 
d="M89 53h406v-53h-406v53zM89 383l406 170v-57l-344 -141l344 -140v-58l-406 169v57z" />
    <glyph glyph-name="greaterequal" unicode="&#x2265;" horiz-adv-x="586" 
d="M497 0h-406v53h406v-53zM497 326l-406 -169v58l344 140l-344 140v58l406 -170v-57z" />
    <glyph glyph-name="lozenge" unicode="&#x25ca;" horiz-adv-x="627" 
d="M343 0h-58l-255 356l254 356h59l254 -356zM314 659l-214 -303l214 -303l213 303z" />
    <glyph glyph-name="fi" unicode="&#xf001;" horiz-adv-x="578" 
d="M436 460h-251v-460h-61v460h-103l9 51h94q0 127 46 183t134 56q20 0 40 -3.5t34 -8.5l-13 -49q-14 5 -29.5 6.5t-29.5 1.5q-35 0 -58.5 -10.5t-37.5 -33t-19.5 -58t-5.5 -84.5h313v-511h-62v460zM466 709q45 0 45 -45q0 -44 -45 -44q-44 0 -44 44q0 45 44 45z" />
    <glyph glyph-name="fl" unicode="&#xf002;" horiz-adv-x="582" 
d="M349 511l-10 -51h-154v-460h-61v460h-103l9 51h94q0 125 44.5 182t135.5 57q20 0 40 -3.5t34 -8.5l-13 -49q-11 3 -25.5 5.5t-33.5 2.5q-33 0 -56 -9.5t-37.5 -31.5t-21 -57.5t-6.5 -87.5h164zM443 743h59v-743h-59v743z" />
    <glyph glyph-name="uni03A9" unicode="&#x3a9;" horiz-adv-x="718" 
d="M85 55h138q-88 67 -125.5 153t-37.5 194q0 66 18 125.5t54.5 103.5t93.5 70t135 26q76 0 132 -25t93 -69t54.5 -103.5t17.5 -127.5q0 -108 -37.5 -194.5t-124.5 -152.5h149l-11 -55h-212v56q45 33 77.5 68t53.5 75.5t30.5 89t9.5 109.5q0 138 -60 206t-172 68
q-53 0 -96.5 -15.5t-74.5 -48.5t-48 -85t-17 -125t14 -126t37.5 -92.5t54.5 -69t65 -54.5v-56h-223z" />
    <glyph glyph-name="pi" unicode="&#x3c0;" horiz-adv-x="621" 
d="M20 460l9 51h572l-10 -51h-92v-460h-60v460h-259v-460h-61v460h-99z" />
    <glyph glyph-name="uni0394" unicode="&#x394;" horiz-adv-x="630" 
d="M277 713h76l252 -713h-580zM108 55h414l-208 598z" />
    <glyph glyph-name="uni03BC" unicode="&#x3bc;" horiz-adv-x="577" 
d="M285 -12q-55 0 -91 18t-53 45v-283h-61v743h61v-304q0 -85 35.5 -125.5t110.5 -40.5q72 0 110.5 41t38.5 126v303h61v-511h-52l-7 74q-22 -40 -62.5 -63t-90.5 -23z" />
    <glyph glyph-name="zero.alt" unicode="&#xf800;" horiz-adv-x="592" 
d="M294 40q46 0 78.5 12.5t52.5 42t29 79t9 123.5v88q0 76 -9 126t-29 79.5t-52 41t-79 11.5t-78.5 -12t-51 -41.5t-28 -79.5t-8.5 -125v-88q0 -75 9 -124.5t28.5 -79t51 -41.5t77.5 -12zM294 698q71 0 116.5 -21t71.5 -60.5t36 -97.5t10 -131v-93q0 -71 -10.5 -128.5
t-37 -98t-72 -62t-114.5 -21.5q-71 0 -115.5 20.5t-70 60t-35 97.5t-9.5 132v93q0 72 10 129t36 97.5t70.5 62t113.5 21.5z" />
    <glyph glyph-name="one.alt" unicode="&#xf801;" horiz-adv-x="432" 
d="M40 0l9 55h160v567l-179 -62l2 54l181 69h59v-628h163l-10 -55h-385z" />
    <glyph glyph-name="two.alt" unicode="&#xf802;" horiz-adv-x="544" 
d="M130 55h344l-10 -55h-397v108q0 42 7 78t23.5 66t45 54t72.5 42l89 36q28 11 47.5 22t32.5 26t19 35.5t6 51.5q0 35 -12 58t-33.5 36.5t-51.5 19t-67 5.5q-47 0 -94.5 -11.5t-85.5 -25.5l10 58q18 7 40.5 13.5t46 11t46.5 7t43 2.5q50 0 91 -10t70.5 -30.5t45.5 -51.5
t16 -74v-9q0 -39 -9 -67t-26.5 -49t-43.5 -37t-61 -30l-93 -38q-36 -15 -58 -33t-33.5 -41t-15.5 -51.5t-4 -63.5v-53z" />
    <glyph glyph-name="three.alt" unicode="&#xf803;" horiz-adv-x="528" 
d="M139 384h108q42 0 68 10.5t40.5 28.5t19.5 41t5 47q0 66 -41.5 96.5t-118.5 30.5q-47 0 -92 -10t-84 -24l10 56q31 12 75.5 22.5t96.5 10.5q104 0 161.5 -45.5t57.5 -128.5v-8q0 -56 -23.5 -94t-73.5 -57q29 -10 49 -27t32.5 -39t18 -48t5.5 -53v-9q0 -43 -15.5 -79
t-46 -61.5t-76 -39.5t-105.5 -14q-25 0 -51.5 2.5t-51.5 7t-47.5 11t-38.5 13.5l13 51q38 -14 81.5 -22t94.5 -8q90 0 134 35t44 109q0 33 -7.5 59.5t-25 45t-47.5 28.5t-75 10h-103z" />
    <glyph glyph-name="four.alt" unicode="&#xf804;" horiz-adv-x="516" 
d="M489 152h-82v-152h-61v152h-325v46l265 485h66l-264 -476h258v222l61 13v-235h92z" />
    <glyph glyph-name="five.alt" unicode="&#xf805;" horiz-adv-x="530" 
d="M223 -10q-50 0 -95.5 8.5t-78.5 22.5l12 52q35 -11 76 -19t90 -8q91 0 132 37t41 118q0 43 -11 71t-33.5 44.5t-57 23.5t-81.5 7h-139l5 336h351l-10 -54h-283l-4 -227h94q64 0 108.5 -12.5t72.5 -37.5t40.5 -61.5t12.5 -85.5v-13q0 -97 -61.5 -149.5t-180.5 -52.5z" />
    <glyph glyph-name="six.alt" unicode="&#xf806;" horiz-adv-x="556" 
d="M121 215q0 -41 8 -73t26.5 -55t49 -35t75.5 -12q36 0 64.5 7.5t49 26t31 50t10.5 79.5v8q0 45 -8 77t-26 52.5t-47 29.5t-72 9q-77 0 -119 -36t-42 -112v-16zM322 638q-51 0 -88.5 -13t-62.5 -42.5t-37.5 -76.5t-12.5 -115v-28q23 35 68.5 53.5t106.5 18.5
q57 0 95.5 -15.5t62 -44t34 -69t10.5 -89.5v-12q0 -109 -55.5 -164.5t-163.5 -55.5q-66 0 -108.5 18.5t-67 51t-34 76.5t-9.5 94v141q0 77 14 138t45 103t81.5 64t123.5 22q41 0 77 -7t64 -17l-13 -50q-26 8 -59 13.5t-71 5.5z" />
    <glyph glyph-name="seven.alt" unicode="&#xf807;" horiz-adv-x="479" 
d="M376 629h-354l10 54h410v-46l-247 -637h-65z" />
    <glyph glyph-name="eight.alt" unicode="&#xf808;" horiz-adv-x="593" 
d="M296 -15q-68 0 -113 15.5t-71.5 41t-37.5 59t-11 70.5v25q0 61 32.5 104.5t86.5 60.5q-49 15 -77.5 54t-28.5 98v12q0 35 12 66.5t38 55t68.5 37.5t102.5 14q109 0 165 -44t56 -129v-12q0 -59 -28 -96.5t-80 -55.5q57 -15 88.5 -58.5t31.5 -106.5v-25q0 -36 -10.5 -69.5
t-37 -59.5t-72 -41.5t-114.5 -15.5zM296 333q-49 0 -81 -9.5t-51.5 -28t-27.5 -45t-8 -59.5v-11q0 -33 8.5 -59t28.5 -44t52.5 -27.5t79.5 -9.5t79 9t52 27t28.5 44t8.5 60v11q0 34 -8.5 60.5t-28 44.5t-52 27.5t-80.5 9.5zM296 643q-81 0 -119.5 -28t-38.5 -91v-11
q0 -63 37.5 -94.5t120.5 -31.5q45 0 76 8.5t49.5 25t26.5 39.5t8 53v11q0 63 -39.5 91t-120.5 28z" />
    <glyph glyph-name="nine.alt" unicode="&#xf809;" horiz-adv-x="556" 
d="M434 468q0 42 -8.5 74.5t-27 55t-49 34t-74.5 11.5q-36 0 -64.5 -7.5t-48.5 -25.5t-31 -49.5t-11 -79.5v-9q0 -89 34.5 -128t118.5 -39q36 0 66 8t51 25.5t32.5 45.5t11.5 68v16zM233 45q49 0 86.5 12.5t63 42t38.5 77t13 116.5v28q-23 -35 -68 -53.5t-106 -18.5
q-56 0 -95 16t-63 45t-34.5 69t-10.5 87v13q0 106 55 162.5t165 56.5q53 0 93.5 -13t68.5 -41.5t42 -74.5t14 -111v-141q0 -169 -64 -248t-200 -79q-42 0 -77.5 7t-63.5 17l13 50q24 -7 55.5 -13t74.5 -6z" />
    <glyph glyph-name="zero.sups" unicode="&#xf80a;" 
d="M220 452q27 0 46 6.5t31 22t18 42t6 65.5v31q0 41 -6 68t-18.5 42.5t-31.5 22t-44 6.5q-26 0 -45 -6.5t-31.5 -22.5t-18.5 -43t-6 -67v-31q0 -38 6 -64t18 -42t31 -23t45 -7zM221 809q45 0 75.5 -13.5t49 -38t26.5 -58.5t8 -76v-38q0 -40 -8 -74t-26.5 -58.5t-49.5 -38.5
t-76 -14q-35 0 -64.5 9.5t-50.5 31t-32.5 57t-11.5 87.5v38q0 40 8 74t26.5 59t49 39t76.5 14z" />
    <glyph glyph-name="one.sups" unicode="&#xf80b;" 
d="M100 408l7 49h96v289l-108 -35l2 47l116 42h47v-343h99l-9 -49h-250z" />
    <glyph glyph-name="two.sups" unicode="&#xf80c;" 
d="M149 459h202l-8 -51h-251v64q0 61 23.5 92.5t68.5 48.5l51 20q34 14 45 29.5t11 38.5q0 30 -21 43.5t-64 13.5q-56 0 -115 -22l6 52q23 9 52.5 15t60.5 6q66 0 102 -26.5t36 -76.5v-5q0 -25 -6.5 -43t-18.5 -31t-28 -22t-35 -16l-51 -19q-32 -12 -46 -33.5t-14 -53.5v-24
z" />
    <glyph glyph-name="three.sups" unicode="&#xf80d;" 
d="M145 637h68q39 0 56 16t17 44q0 32 -22.5 46.5t-63.5 14.5q-24 0 -54 -6t-58 -15l6 51q23 9 52 15t56 6q66 0 103 -27.5t37 -78.5v-5q0 -59 -50 -84q24 -11 38 -35.5t14 -56.5v-7q0 -55 -40 -85t-113 -30q-32 0 -64 6.5t-55 16.5l14 48q23 -10 50 -14.5t56 -4.5
q51 0 74 17t23 51q0 12 -3 24t-11.5 21.5t-23.5 15.5t-39 6h-75z" />
    <glyph glyph-name="four.sups" unicode="&#xf80e;" 
d="M356 495h-44v-87h-51v87h-190v42l165 264h60l-163 -258h128v113l51 10v-123h52z" />
    <glyph glyph-name="five.sups" unicode="&#xf80f;" 
d="M200 400q-32 0 -61.5 6t-52.5 17l14 46q25 -9 48 -14t52 -5q20 0 37.5 3t30.5 11t20.5 22t7.5 37q0 24 -6.5 39t-19.5 23t-31.5 10.5t-42.5 2.5h-92l4 202h224l-7 -47h-166l-2 -106h52q30 0 56 -5.5t45.5 -19t30.5 -36.5t11 -58v-8q0 -32 -12 -54.5t-32.5 -37
t-48.5 -21.5t-59 -7z" />
    <glyph glyph-name="six.sups" unicode="&#xf810;" 
d="M140 532q0 -38 20.5 -60t64.5 -22q17 0 32 3.5t26.5 12t18 23.5t6.5 38v6q0 43 -18 61t-60 18q-45 0 -67.5 -18.5t-22.5 -53.5v-8zM253 759q-25 0 -46 -6t-36.5 -21t-24 -40t-8.5 -62q18 15 44.5 22.5t55.5 7.5q64 0 95.5 -32t31.5 -93v-8q0 -62 -37.5 -94.5
t-103.5 -32.5q-72 0 -106.5 37t-34.5 113v65q0 53 12 90t34 60t53.5 33.5t70.5 10.5q29 0 52.5 -5t42.5 -12l-14 -47q-19 7 -38.5 10.5t-42.5 3.5z" />
    <glyph glyph-name="seven.sups" unicode="&#xf811;" 
d="M295 751h-216l8 49h270v-40l-158 -352h-60z" />
    <glyph glyph-name="eight.sups" unicode="&#xf812;" 
d="M220 400q-42 0 -70 9.5t-44.5 25t-23.5 35t-7 40.5v13q0 30 14.5 53.5t42.5 36.5q-23 13 -36 34.5t-13 50.5v8q0 20 8 38.5t24.5 33t42.5 23t62 8.5q28 0 53 -6t44 -18.5t29.5 -32t10.5 -46.5v-8q0 -29 -13.5 -50.5t-36.5 -33.5q27 -11 42.5 -35t15.5 -55v-15
q0 -21 -7.5 -41t-24.5 -35t-45 -24t-68 -9zM220 590q-48 0 -68.5 -17t-20.5 -52v-5q0 -35 20.5 -51.5t68.5 -16.5t68.5 16.5t20.5 51.5v5q0 36 -20.5 52.5t-68.5 16.5zM220 763q-82 0 -82 -58v-6q0 -30 19.5 -46.5t62.5 -16.5q44 0 63 15.5t19 47.5v6q0 58 -82 58z" />
    <glyph glyph-name="nine.sups" unicode="&#xf813;" 
d="M301 678q0 41 -22 61.5t-61 20.5q-17 0 -32.5 -3.5t-27.5 -12t-19 -23.5t-7 -38v-5q0 -43 20 -62t62 -19q17 0 33 3.5t28 12t19 22.5t7 34v9zM188 450q54 0 83.5 30.5t30.5 97.5q-34 -29 -98 -29q-63 0 -96 32t-33 95v7q0 32 11 55.5t30.5 39.5t45.5 23.5t57 7.5
q69 0 103.5 -36.5t34.5 -114.5v-64q0 -54 -12 -91t-34 -60t-53.5 -33t-69.5 -10q-28 0 -52.5 5t-43.5 12l14 47q21 -6 41.5 -10t40.5 -4z" />
    <glyph glyph-name="zero.sinf" unicode="&#xf814;" 
d="M220 -75q27 0 46 6.5t31 22t18 42t6 65.5v31q0 41 -6 68t-18.5 42.5t-31.5 22t-44 6.5q-26 0 -45 -6.5t-31.5 -22.5t-18.5 -43t-6 -67v-31q0 -38 6 -64t18 -42t31 -23t45 -7zM221 282q45 0 75.5 -13.5t49 -38t26.5 -58.5t8 -76v-38q0 -40 -8 -74t-26.5 -58.5t-49.5 -38.5
t-76 -14q-35 0 -64.5 9.5t-50.5 31t-32.5 57t-11.5 87.5v38q0 40 8 74t26.5 59t49 39t76.5 14z" />
    <glyph glyph-name="one.sinf" unicode="&#xf815;" 
d="M100 -119l7 49h96v289l-108 -35l2 47l116 42h47v-343h99l-9 -49h-250z" />
    <glyph glyph-name="two.sinf" unicode="&#xf816;" 
d="M149 -68h202l-8 -51h-251v64q0 61 23.5 92.5t68.5 48.5l51 20q34 14 45 29.5t11 38.5q0 30 -21 43.5t-64 13.5q-56 0 -115 -22l6 52q23 9 52.5 15t60.5 6q66 0 102 -26.5t36 -76.5v-5q0 -25 -6.5 -43t-18.5 -31t-28 -22t-35 -16l-51 -19q-32 -12 -46 -33.5t-14 -53.5v-24
z" />
    <glyph glyph-name="three.sinf" unicode="&#xf817;" 
d="M145 110h68q39 0 56 16t17 44q0 32 -22.5 46.5t-63.5 14.5q-24 0 -54 -6t-58 -15l6 51q23 9 52 15t56 6q66 0 103 -27.5t37 -78.5v-5q0 -59 -50 -84q24 -11 38 -35.5t14 -56.5v-7q0 -55 -40 -85t-113 -30q-32 0 -64 6.5t-55 16.5l14 48q23 -10 50 -14.5t56 -4.5
q51 0 74 17t23 51q0 12 -3 24t-11.5 21.5t-23.5 15.5t-39 6h-75z" />
    <glyph glyph-name="four.sinf" unicode="&#xf818;" 
d="M356 -32h-44v-87h-51v87h-190v42l165 264h60l-163 -258h128v113l51 10v-123h52z" />
    <glyph glyph-name="five.sinf" unicode="&#xf819;" 
d="M200 -127q-32 0 -61.5 6t-52.5 17l14 46q25 -9 48 -14t52 -5q20 0 37.5 3t30.5 11t20.5 22t7.5 37q0 24 -6.5 39t-19.5 23t-31.5 10.5t-42.5 2.5h-92l4 202h224l-7 -47h-166l-2 -106h52q30 0 56 -5.5t45.5 -19t30.5 -36.5t11 -58v-8q0 -32 -12 -54.5t-32.5 -37
t-48.5 -21.5t-59 -7z" />
    <glyph glyph-name="six.sinf" unicode="&#xf81a;" 
d="M140 5q0 -38 20.5 -60t64.5 -22q17 0 32 3.5t26.5 12t18 23.5t6.5 38v6q0 43 -18 61t-60 18q-45 0 -67.5 -18.5t-22.5 -53.5v-8zM253 232q-25 0 -46 -6t-36.5 -21t-24 -40t-8.5 -62q18 15 44.5 22.5t55.5 7.5q64 0 95.5 -32t31.5 -93v-8q0 -62 -37.5 -94.5t-103.5 -32.5
q-72 0 -106.5 37t-34.5 113v65q0 53 12 90t34 60t53.5 33.5t70.5 10.5q29 0 52.5 -5t42.5 -12l-14 -47q-19 7 -38.5 10.5t-42.5 3.5z" />
    <glyph glyph-name="seven.sinf" unicode="&#xf81b;" 
d="M295 224h-216l8 49h270v-40l-158 -352h-60z" />
    <glyph glyph-name="eight.sinf" unicode="&#xf81c;" 
d="M220 -127q-42 0 -70 9.5t-44.5 25t-23.5 35t-7 40.5v13q0 30 14.5 53.5t42.5 36.5q-23 13 -36 34.5t-13 50.5v8q0 20 8 38.5t24.5 33t42.5 23t62 8.5q28 0 53 -6t44 -18.5t29.5 -32t10.5 -46.5v-8q0 -29 -13.5 -50.5t-36.5 -33.5q27 -11 42.5 -35t15.5 -55v-15
q0 -21 -7.5 -41t-24.5 -35t-45 -24t-68 -9zM220 63q-48 0 -68.5 -17t-20.5 -52v-5q0 -35 20.5 -51.5t68.5 -16.5t68.5 16.5t20.5 51.5v5q0 36 -20.5 52.5t-68.5 16.5zM220 236q-82 0 -82 -58v-6q0 -30 19.5 -46.5t62.5 -16.5q44 0 63 15.5t19 47.5v6q0 58 -82 58z" />
    <glyph glyph-name="nine.sinf" unicode="&#xf81d;" 
d="M301 151q0 41 -22 61.5t-61 20.5q-17 0 -32.5 -3.5t-27.5 -12t-19 -23.5t-7 -38v-5q0 -43 20 -62t62 -19q17 0 33 3.5t28 12t19 22.5t7 34v9zM188 -77q54 0 83.5 30.5t30.5 97.5q-34 -29 -98 -29q-63 0 -96 32t-33 95v7q0 32 11 55.5t30.5 39.5t45.5 23.5t57 7.5
q69 0 103.5 -36.5t34.5 -114.5v-64q0 -54 -12 -91t-34 -60t-53.5 -33t-69.5 -10q-28 0 -52.5 5t-43.5 12l14 47q21 -6 41.5 -10t40.5 -4z" />
    <glyph glyph-name="hungarumlaut.cap" horiz-adv-x="500" 
d="M179 895h73l-110 -122h-61zM331 895h73l-110 -122h-61z" />
    <glyph glyph-name="cedilla.cap" horiz-adv-x="500" 
d="M248 0l-14 -50q46 -6 72.5 -25.5t26.5 -53.5q0 -42 -29.5 -65.5t-82.5 -23.5q-26 0 -46.5 5.5t-32.5 13.5l12 38q13 -6 28.5 -10t35.5 -4q34 0 49 11.5t15 34.5q0 13 -8 21.5t-22 14t-32 8t-37 4.5l23 81h42z" />
    <glyph glyph-name="tilde.cap" horiz-adv-x="500" 
d="M419 880q0 -113 -82 -113q-20 0 -39 7.5t-42 20.5l-44 24q-31 17 -47 17q-18 0 -26.5 -16.5t-8.5 -46.5h-47q0 113 82 113q20 0 39 -7.5t42 -20.5l44 -24q17 -9 26.5 -13t20.5 -4q18 0 26.5 16.5t8.5 46.5h47z" />
    <glyph glyph-name="ogonek.cap" horiz-adv-x="500" 
d="M234 -100q0 -34 43 -34q17 0 44 8l-6 -45q-11 -5 -27.5 -8t-31.5 -3q-35 0 -57 16.5t-22 47.5q0 39 27.5 73.5t78.5 63.5l39 -19q-26 -15 -43 -29t-27 -27t-14 -24t-4 -20z" />
    <glyph glyph-name="ring.cap" horiz-adv-x="500" 
d="M354 836q0 -23 -8.5 -41.5t-22.5 -31.5t-33 -20.5t-40 -7.5q-20 0 -38.5 7t-33 19.5t-23.5 31.5t-9 43q0 21 8 40t22 32.5t33 21.5t41 8q21 0 40 -7.5t33 -21t22.5 -32t8.5 -41.5zM310 836q0 27 -16.5 45t-43.5 18t-43.5 -18t-16.5 -45t16.5 -45t43.5 -18t43.5 18
t16.5 45z" />
    <glyph glyph-name="caron.cap" horiz-adv-x="500" 
d="M280 773h-60l-131 122h66l95 -80l96 80h65z" />
    <glyph glyph-name="macron.cap" horiz-adv-x="500" 
d="M124 851h251v-51h-251v51z" />
    <glyph glyph-name="dieresis.cap" horiz-adv-x="500" 
d="M169 872q43 0 43 -44q0 -43 -43 -43t-43 43q0 44 43 44zM332 872q43 0 43 -44q0 -43 -43 -43t-43 43q0 44 43 44z" />
    <glyph glyph-name="dotaccent.cap" horiz-adv-x="500" 
d="M249 875q46 0 46 -46q0 -45 -46 -45q-45 0 -45 45q0 46 45 46z" />
    <glyph glyph-name="circumflex.cap" horiz-adv-x="500" 
d="M220 895h60l131 -122h-66l-95 80l-96 -80h-65z" />
    <glyph glyph-name="acute.cap" horiz-adv-x="500" 
d="M285 895h83l-161 -122h-70z" />
    <glyph glyph-name="grave.cap" horiz-adv-x="500" 
d="M365 773h-69l-161 122h83z" />
    <glyph glyph-name="breve.cap" horiz-adv-x="500" 
d="M250 766q-131 0 -131 138h49q2 -94 82 -94q79 0 81 94h49q0 -138 -130 -138z" />
    <glyph glyph-name="commaaccent.cap" horiz-adv-x="500" 
d="M196 -251l38 106q-12 6 -17.5 17.5t-5.5 25.5q0 22 13 34t33 12q23 0 35 -12t12 -32q0 -14 -5.5 -28t-13.5 -31l-43 -92h-46z" />
    <glyph glyph-name="caron.alt" horiz-adv-x="500" 
d="M280 743l-21 -165h-44l8 165h57z" />
    <glyph glyph-name="commaaccent" unicode="&#xf6c3;" horiz-adv-x="500" 
d="M199 -241l36 101q-22 10 -22 41q0 20 12 31.5t32 11.5q21 0 32.5 -11.5t11.5 -30.5q0 -11 -3.5 -21t-8.5 -22l-47 -100h-43z" />
    <glyph glyph-name="revcommaaccent" horiz-adv-x="500" 
d="M300 762l-34 -96q22 -10 22 -41q0 -20 -12 -31.5t-32 -11.5q-21 0 -32.5 11.5t-11.5 30.5q0 11 3.5 21t8.5 22l45 95h43z" />
    <glyph glyph-name="acute.asc" horiz-adv-x="500" 
d="M284 919h83l-161 -122h-69z" />
    <glyph glyph-name="circumflex.asc" horiz-adv-x="500" 
d="M220 919h60l131 -122h-65l-96 81l-96 -81h-65z" />
    <glyph glyph-name="caron.alt.short" horiz-adv-x="500" 
d="M280 743l-21 -165h-44l8 165h57z" />
    <glyph glyph-name="Parenleft" horiz-adv-x="346" 
d="M67 445q0 82 8 147t33 110.5t72.5 69.5t127.5 24h20l-11 -53h-17q-53 0 -86.5 -17t-52 -51.5t-25 -86.5t-6.5 -123v-219q0 -71 6 -123t25 -86.5t54 -51.5t93 -17h20l-11 -53h-17q-75 0 -121 24t-71 69.5t-33 110.5t-8 147v179z" />
    <glyph glyph-name="Parenright" horiz-adv-x="346" 
d="M279 266q0 -82 -8 -147t-33 -110.5t-73 -69.5t-127 -24h-20l11 53h17q54 0 87 17t51.5 51.5t25 86.5t6.5 123v219q0 71 -6 123t-25 86.5t-54 51.5t-93 17h-20l11 53h17q75 0 121 -24t71 -69.5t33 -110.5t8 -147v-179z" />
    <glyph glyph-name="Hyphen" horiz-adv-x="398" 
d="M50 329v55h298v-55h-298z" />
    <glyph glyph-name="Slash" horiz-adv-x="376" 
d="M356 712l-269 -712h-67l270 712h66z" />
    <glyph glyph-name="At" horiz-adv-x="897" 
d="M484 524q-46 0 -79.5 -16t-55 -44.5t-32 -67.5t-10.5 -86q0 -68 23.5 -99t78.5 -31q57 0 93.5 35t49.5 112l30 176q-18 8 -42.5 14.5t-55.5 6.5zM583 196q52 3 91 24.5t64.5 56t38 80.5t12.5 99q0 70 -21 121.5t-60.5 85.5t-95.5 50.5t-126 16.5q-98 0 -169.5 -30.5
t-117.5 -86t-68 -132t-22 -167.5q0 -169 77 -250.5t247 -81.5q49 0 89.5 6t72.5 14.5t56.5 18t41.5 17.5l-11 -50q-46 -23 -113 -39t-147 -16q-79 0 -146 19t-116 63t-77 115.5t-28 176.5q0 91 23.5 176t74.5 151t133 105.5t199 39.5q86 0 152.5 -22.5t112 -64t69 -101
t23.5 -132.5q0 -65 -18.5 -122t-56.5 -99.5t-96.5 -67.5t-137.5 -25l4 56q-23 -34 -59 -52.5t-83 -18.5q-72 0 -108.5 45.5t-36.5 130.5q0 54 14.5 102.5t44 85t73 58t102.5 21.5q38 0 79 -10t76 -29z" />
    <glyph glyph-name="Bracketleft" horiz-adv-x="355" 
d="M94 786h242l-11 -55h-169v-751h180l-11 -55h-231v861z" />
    <glyph glyph-name="Backslash" horiz-adv-x="376" 
d="M86 712l270 -712h-66l-270 712h66z" />
    <glyph glyph-name="Bracketright" horiz-adv-x="355" 
d="M261 -75h-242l11 55h169v751h-180l11 55h231v-861z" />
    <glyph glyph-name="Braceleft" horiz-adv-x="335" 
d="M121 621q0 43 8 75.5t29 54.5t57 33.5t92 11.5h20l-11 -53h-18q-30 0 -52 -5.5t-36 -19.5t-20.5 -37t-6.5 -58v-145q0 -48 -19.5 -78t-51.5 -44q32 -14 51.5 -44.5t19.5 -77.5v-146q0 -34 6 -57t20 -37t38 -20t60 -6h20l-11 -53h-16q-52 0 -86.5 11.5t-55 33.5t-29 54.5
t-8.5 75.5v133q0 54 -22.5 80t-61.5 26h-10v54h8q86 0 86 105v133z" />
    <glyph glyph-name="Braceright" horiz-adv-x="335" 
d="M214 90q0 -43 -8.5 -75.5t-29.5 -54.5t-57 -33.5t-91 -11.5h-20l11 53h18q30 0 52 5.5t36 19.5t20.5 37t6.5 58v145q0 48 19.5 78t51.5 44q-32 14 -51.5 44.5t-19.5 77.5v146q0 34 -6 57t-20 37t-38 20t-60 6h-20l11 53h16q52 0 86.5 -11.5t55 -33.5t29 -54.5t8.5 -75.5
v-133q0 -54 22.5 -80t61.5 -26h10v-54h-8q-86 0 -86 -105v-133z" />
    <glyph glyph-name="Guilsinglleft" horiz-adv-x="319" 
d="M261 560v-64l-174 -140l174 -140v-63l-223 178v51z" />
    <glyph glyph-name="Bullet" horiz-adv-x="351" 
d="M76 408q0 43 28 71t72 28q43 0 71 -28t28 -71t-28 -71t-71 -28q-44 0 -72 28t-28 71z" />
    <glyph glyph-name="Endash" horiz-adv-x="500" 
d="M0 382h500v-52h-500v52z" />
    <glyph glyph-name="Emdash" horiz-adv-x="1000" 
d="M0 382h1000v-52h-1000v52z" />
    <glyph glyph-name="Guilsinglright" horiz-adv-x="319" 
d="M58 153v63l174 140l-174 140v64l223 -178v-51z" />
    <glyph glyph-name="Exclamdown" horiz-adv-x="266" 
d="M158 537l5 -178q0 -12 0.5 -41t0.5 -61v-257h-63v198q0 28 0.5 59.5t1 60.5t0.5 41l5 178h50zM133 718q46 0 46 -46q0 -47 -46 -47t-46 47q0 46 46 46z" />
    <glyph glyph-name="Guillemotleft" horiz-adv-x="514" 
d="M237 560v-64l-150 -140l150 -140v-63l-199 180v47zM456 560v-64l-150 -140l150 -140v-63l-199 180v47z" />
    <glyph glyph-name="Guillemotright" horiz-adv-x="514" 
d="M277 153v63l150 140l-150 140v64l199 -180v-47zM58 153v63l150 140l-150 140v64l199 -180v-47z" />
    <glyph glyph-name="Questiondown" horiz-adv-x="492" 
d="M289 45q45 0 90.5 9.5t80.5 23.5l-9 -56q-34 -14 -78.5 -23t-90.5 -9q-111 0 -169.5 48.5t-58.5 134.5q0 36 7.5 62t21 45t31.5 32.5t38 22.5l32 15q27 13 44 24t26.5 26t13.5 36.5t5 54.5l2 45h49q0 -6 1 -21.5t1 -23.5q0 -34 -3 -60.5t-13.5 -48t-30 -38.5t-52.5 -32
l-36 -16q-17 -8 -30 -17t-22.5 -22.5t-14.5 -33.5t-5 -49q0 -65 45 -97t125 -32zM299 624q-47 0 -47 47q0 46 47 46q45 0 45 -46q0 -47 -45 -47z" />
    </font>
</defs>
</svg>
